<svg id="curves" xmlns="http://www.w3.org/2000/svg" viewBox="0 0 463 179"><defs><style>.cls-1{fill:#fff;}</style></defs><title>guide-playhead-en</title><g id="playhead"><path class="cls-1" d="M54.14,131.38c-6.4-2.57-12.52-4.34-19.31-2.21-5.4,1.7-10.23,5.19-14.44,8.89s-8.33,8.4-7.91,14.28c.35,4.88,4.25,11.39,8.38,14,5.76,3.61,15,1.94,21.4,2,4.17,0,10,1.13,13.07-2.48,3.46-4,4.22-11.1,4-16.14a32.24,32.24,0,0,0-6.64-18.38c-.7-.93-3.49.13-2.67,1.21a31.05,31.05,0,0,1,5.74,25.19c-.45,2.11-1,5.06-2.4,6.75-2.31,2.83-6.85,1.94-10.07,1.93-5.32,0-11.66.88-16.83-.41s-9.2-6.73-10.6-11.85c-1.51-5.51,1.35-10.07,5.19-13.81a42.45,42.45,0,0,1,12.39-8.66c6.59-2.81,12.66-1,19,1.52,1.08.43,3.38-1.12,1.72-1.79Z"/><path class="cls-1" d="M53.73,132.09C91,89.57,144.29,67.51,195.49,46.62c1.83-.75.22-2.45-1.32-1.83C142.49,65.88,88.93,88.24,51.28,131.15c-1.22,1.39,1.53,2,2.45.94Z"/><path class="cls-1" d="M52.86,119.1l-2.67,10.33c-.37,1.44,2.6,1.13,2.94-.2L55.8,118.9c.37-1.44-2.6-1.13-2.94.2Z"/><path class="cls-1" d="M51.13,132.26H67.46c1.22,0,3-1.85,1.07-1.85H52.2c-1.22,0-3,1.85-1.07,1.85Z"/><path class="cls-1" d="M194.88,46.55C279.28,48,363.43,51,447.56,58.21c1.19.1,6.57-2,3.79-2.25C367.22,48.74,283.07,45.79,198.66,44.3c-1.17,0-6.54,2.2-3.79,2.25Z"/><path class="cls-1" d="M210.8,70.3a11.61,11.61,0,0,1-2.67,3,4.3,4.3,0,0,1-2.57,1,1.69,1.69,0,0,1-1.41-.71,3,3,0,0,1-.5-1.85,7.92,7.92,0,0,1,2-4.78q1.93-2.44,4.14-2.41a2.5,2.5,0,0,1,1.78.85l1.37-6a1.19,1.19,0,0,1,.52-.83,1.32,1.32,0,0,1,.59-.21q.65,0,.63,1.16a9.78,9.78,0,0,1-.44,1.51,44.5,44.5,0,0,0-1.34,5,25.07,25.07,0,0,0-.67,4.76q0,1.85.78,1.86a2,2,0,0,0,1.08-.33.75.75,0,0,1,.44-.16q.3,0,.29.39t-.84,1.08a2.82,2.82,0,0,1-1.71.6q-1.53,0-1.49-3C210.75,71,210.77,70.64,210.8,70.3ZM209.64,66q-1.5,0-3,2a6.57,6.57,0,0,0-1.52,3.74q0,1.16.75,1.17a3.18,3.18,0,0,0,1.76-.74,9.39,9.39,0,0,0,2.16-2.4,5.38,5.38,0,0,0,1.12-2.48,1.3,1.3,0,0,0-.36-.84A1.18,1.18,0,0,0,209.64,66Z"/><path class="cls-1" d="M219.33,74.71a2.64,2.64,0,0,1-2.08-1,3.53,3.53,0,0,1-.79-2.39,8.2,8.2,0,0,1,1.68-4.69A4.63,4.63,0,0,1,222,64.38a3,3,0,0,1,2.39,1.18,4.19,4.19,0,0,1,.88,2.73,6.46,6.46,0,0,1-2,4.44A5.45,5.45,0,0,1,219.33,74.71Zm-1.23-3.6a2.71,2.71,0,0,0,.37,1.53,1.2,1.2,0,0,0,1,.61,3.88,3.88,0,0,0,2.79-1.47,4.87,4.87,0,0,0,1.44-3.35,3,3,0,0,0-.5-1.86,1.7,1.7,0,0,0-1.42-.73,3,3,0,0,0-2.59,1.79A6.93,6.93,0,0,0,218.1,71.11Z"/><path class="cls-1" d="M234,70.47a12.84,12.84,0,0,1-2.48,3,3.63,3.63,0,0,1-2.33,1,1.75,1.75,0,0,1-1.23-.74,3.23,3.23,0,0,1-.59-2.21,16.4,16.4,0,0,1,.65-3.56,13.54,13.54,0,0,0,.54-2.76.88.88,0,0,1,.85-.54A.77.77,0,0,1,230,65a.87.87,0,0,1,.22.57,5.68,5.68,0,0,1-.49,1.83,11.83,11.83,0,0,0-.94,4q0,1.52.68,1.53.9,0,2.32-1.49a12.75,12.75,0,0,0,2.46-4.22,6.32,6.32,0,0,1,.66-1.41.78.78,0,0,1,.67-.32q.63,0,.61.84A4.07,4.07,0,0,1,236,67a14.55,14.55,0,0,0-.63,3.82q0,2.17.66,2.82.36.35.36.56c0,.17-.13.33-.38.47a1.42,1.42,0,0,1-.69.2q-.65,0-1-1a7.79,7.79,0,0,1-.34-2.85v-.31C234,70.68,234,70.58,234,70.47Z"/><path class="cls-1" d="M240.74,69.37a11.66,11.66,0,0,1,2.91-3.43,5,5,0,0,1,3-1.27,1.51,1.51,0,0,1,1.23.7,2.66,2.66,0,0,1,.47,1.66,8.15,8.15,0,0,1-2.29,5.36,6.13,6.13,0,0,1-4.65,2.42,2.18,2.18,0,0,1-1.2-.38,1.23,1.23,0,0,1-.6-.91,1,1,0,0,0-.24-.65A1.19,1.19,0,0,1,239,72a28.55,28.55,0,0,1,.54-3.59l1.08-5.52a31.93,31.93,0,0,1,.79-3.43,2,2,0,0,1,.52-.87,1.06,1.06,0,0,1,.69-.21q.65,0,.62,1.13a9.31,9.31,0,0,1-.78,3A46.62,46.62,0,0,0,240.74,69.37Zm-.29,3.08q.46.91,1.15.92a3.79,3.79,0,0,0,2.25-.83,7.34,7.34,0,0,0,2.09-2.42,6,6,0,0,0,.92-2.66,1.87,1.87,0,0,0-.16-.85q-.17-.36-.44-.36-1.29,0-3.19,2A11.91,11.91,0,0,0,240.45,72.45Z"/><path class="cls-1" d="M253.57,59.25q.67,0,.65.87a18.86,18.86,0,0,1-.9,3.59,27.4,27.4,0,0,0-.89,3.94,28.48,28.48,0,0,0-.36,3.39,23.76,23.76,0,0,0,.12,3,3.72,3.72,0,0,1,0,.42,1.12,1.12,0,0,1-.33.79.92.92,0,0,1-.68.32q-.49,0-.67-.63a7.28,7.28,0,0,1-.14-2,49.39,49.39,0,0,1,.94-7.67A25.5,25.5,0,0,1,252.66,60C253,59.5,253.27,59.25,253.57,59.25Z"/><path class="cls-1" d="M263.38,72.07q0,.94-1.73,2.23a5.49,5.49,0,0,1-3.49,1.24,3,3,0,0,1-2.28-.94,3.49,3.49,0,0,1-.74-2.48,8.28,8.28,0,0,1,1.93-5q1.85-2.34,4-2.28a1.53,1.53,0,0,1,1.53,1.59,3.77,3.77,0,0,1-1.47,2.69,17.94,17.94,0,0,1-3.81,2.46.74.74,0,0,0-.5.64,1.7,1.7,0,0,0,.41,1.24,1.74,1.74,0,0,0,1.3.5,5.8,5.8,0,0,0,4.13-2.09q.31-.3.47-.29C263.3,71.59,263.39,71.75,263.38,72.07ZM257,70.45q4-2.23,4-3.64,0-.56-.48-.57a2.85,2.85,0,0,0-2,1.2A7.22,7.22,0,0,0,257,70.45Z"/><path class="cls-1" d="M275.3,76.11a2.78,2.78,0,0,1-2.11-.87,3.14,3.14,0,0,1-.67-2.26,8.87,8.87,0,0,1,2.08-5q2-2.62,3.65-2.56a1.55,1.55,0,0,1,1.27.85A3,3,0,0,1,280,68a1.79,1.79,0,0,1-.27.93q-.25.39-.49.38-.54,0-.72-1.11T277.85,67q-1,0-2.35,2.21A8.19,8.19,0,0,0,274.05,73q-.05,1.57,1.74,1.63A5.92,5.92,0,0,0,279,73.48a2,2,0,0,1,1-.42c.21,0,.31.13.3.37q0,.7-1.72,1.72A6,6,0,0,1,275.3,76.11Z"/><path class="cls-1" d="M286.19,60.26q.67,0,.64.88a18.91,18.91,0,0,1-.93,3.58,27.31,27.31,0,0,0-.93,3.93,28.46,28.46,0,0,0-.4,3.39,23.79,23.79,0,0,0,.09,3,3.81,3.81,0,0,1,0,.42,1.12,1.12,0,0,1-.34.79.92.92,0,0,1-.68.31q-.49,0-.66-.63a7.35,7.35,0,0,1-.12-2,49.18,49.18,0,0,1,1-7.66A25.46,25.46,0,0,1,285.26,61Q285.73,60.24,286.19,60.26Z"/><path class="cls-1" d="M289.66,74a7.49,7.49,0,0,0,.14,1.59,1.33,1.33,0,0,1,0,.28q0,.17-.32.42a1,1,0,0,1-.66.24q-.9,0-.84-1.68a32.41,32.41,0,0,1,.9-5.36,13.09,13.09,0,0,0,.3-1.57,2.14,2.14,0,0,1,.25-1,.66.66,0,0,1,.62-.39,1.13,1.13,0,0,1,.74.25.65.65,0,0,1,.25.51,2.8,2.8,0,0,1-.16.73,34.66,34.66,0,0,0-1,3.47A16.42,16.42,0,0,0,289.66,74Zm1.6-10.29c-.13,0-.22-.15-.28-.43a2.77,2.77,0,0,0-.09-.29,2.81,2.81,0,0,1-.21-1.06,1.05,1.05,0,0,1,.47-.74,1.45,1.45,0,0,1,1-.35,1.17,1.17,0,0,1,.59.23q.33.22.32.42a4.11,4.11,0,0,1-.27,1,1.55,1.55,0,0,1-.76,1A1.88,1.88,0,0,1,291.25,63.73Z"/><path class="cls-1" d="M295.79,76.84a2.78,2.78,0,0,1-2.1-.88A3.14,3.14,0,0,1,293,73.7a8.87,8.87,0,0,1,2.12-5q2-2.6,3.67-2.54a1.55,1.55,0,0,1,1.26.86,3,3,0,0,1,.47,1.74,1.79,1.79,0,0,1-.27.93c-.17.26-.33.38-.49.38q-.54,0-.72-1.11t-.68-1.2q-1,0-2.37,2.2a8.19,8.19,0,0,0-1.47,3.81q-.06,1.57,1.72,1.64a5.94,5.94,0,0,0,3.25-1.15,2.05,2.05,0,0,1,1-.42c.21,0,.31.13.3.37q0,.7-1.73,1.71A6,6,0,0,1,295.79,76.84Z"/><path class="cls-1" d="M304.86,72.35q.13-.15,1.72-1.42t2.11-1.75q2.23-2,3.16-2,.72,0,.69.72a1.22,1.22,0,0,1-.76,1.13,21.65,21.65,0,0,0-2.54,1.46q-1.59,1-1.61,1.48a5.63,5.63,0,0,0,1,1.43,12.83,12.83,0,0,0,1.81,1.85,2.67,2.67,0,0,0,1.52.64h.31q.33,0,.31.3a1.14,1.14,0,0,1-.54.81,2,2,0,0,1-1.36.36,1.93,1.93,0,0,1-1.07-.42,13.63,13.63,0,0,1-1.87-2.11q-1.06-1.41-1.33-1.68a.77.77,0,0,0-.45-.28,2.28,2.28,0,0,0-.67.45,1.79,1.79,0,0,0-.63.71,17.65,17.65,0,0,0-.13,1.9l0,.43a.78.78,0,0,1-.35.6,1.09,1.09,0,0,1-.71.24.82.82,0,0,1-.6-.25.67.67,0,0,1-.2-.48A11.18,11.18,0,0,1,303,74.9q.43-1.77.85-4.76a57,57,0,0,1,1.4-8q.41-.91,1.1-.88a.47.47,0,0,1,.39.28,1.24,1.24,0,0,1,.13.67,30.05,30.05,0,0,1-.81,3.91A61.32,61.32,0,0,0,304.86,72.35Z"/><path class="cls-1" d="M325.88,68.28q1,0,1.8-.09a13.25,13.25,0,0,1,1.39,0,1.88,1.88,0,0,1,.88.17.52.52,0,0,1,.16.46q0,.75-1.08.76-1.34,0-2.48.11a4.1,4.1,0,0,0-1.23.19,16.8,16.8,0,0,0-.67,2.17,16.55,16.55,0,0,0-.6,2.71,2.35,2.35,0,0,0,.2,1.37,1,1,0,0,0,.79.38,4.09,4.09,0,0,0,2.27-1.09,1.54,1.54,0,0,1,.87-.45q.4,0,.38.44,0,.67-1.36,1.66a4.1,4.1,0,0,1-2.67.93q-2.24-.11-2.11-2.75a14.62,14.62,0,0,1,.61-2.93,17.63,17.63,0,0,0,.57-2.37c0-.09-.07-.14-.21-.15l-1,0q-1.18-.06-1.14-1a.48.48,0,0,1,.57-.51l1.91.09a.44.44,0,0,0,.35-.16,4.54,4.54,0,0,0,.49-1.16q.34-1,.61-2t.92-.93a.75.75,0,0,1,.61.31.85.85,0,0,1,.2.53,12.28,12.28,0,0,1-.4,1.31Z"/><path class="cls-1" d="M333.21,78.47a2.64,2.64,0,0,1-2-1.07,3.53,3.53,0,0,1-.7-2.42,8.2,8.2,0,0,1,1.85-4.62,4.63,4.63,0,0,1,4-2.12,2.94,2.94,0,0,1,2.34,1.26,4.18,4.18,0,0,1,.78,2.76,6.46,6.46,0,0,1-2.13,4.36A5.45,5.45,0,0,1,333.21,78.47Zm-1.1-3.65a2.71,2.71,0,0,0,.31,1.55,1.2,1.2,0,0,0,1,.65,3.88,3.88,0,0,0,2.84-1.37,4.87,4.87,0,0,0,1.56-3.29,3,3,0,0,0-.44-1.87A1.7,1.7,0,0,0,336,69.7a3,3,0,0,0-2.65,1.7A6.93,6.93,0,0,0,332.11,74.82Z"/><path class="cls-1" d="M353.59,77q0-.6-1.4-1.45a13.9,13.9,0,0,1-2.45-1.68,1.69,1.69,0,0,1-.59-1.33,3.57,3.57,0,0,1,2-2.95,6,6,0,0,1,3.08-1,1.81,1.81,0,0,1,1.07.32,1.07,1.07,0,0,1,.29.92.62.62,0,0,1-.27.48.7.7,0,0,1-.4.18,1.25,1.25,0,0,1-.39-.16,1.3,1.3,0,0,0-.38-.15,5.9,5.9,0,0,0-1.92.57q-1.45.59-1.5,1.45a1.22,1.22,0,0,0,.45,1,8.88,8.88,0,0,0,1.74,1.13,6.91,6.91,0,0,1,1.61,1.16,1.76,1.76,0,0,1,.55,1.37q-.08,1.42-2.08,2.1a9.85,9.85,0,0,1-3.77.59q-1.5-.08-1.44-1.1a.55.55,0,0,1,.37-.5,1.52,1.52,0,0,1,.69-.13,2.78,2.78,0,0,1,.52.12,2.79,2.79,0,0,0,.49.12,7.9,7.9,0,0,0,2.22-.22A2.35,2.35,0,0,0,353.59,77Z"/><path class="cls-1" d="M358.51,76.61q3.82-6.15,6.05-6a1.1,1.1,0,0,1,.92.73,9.53,9.53,0,0,1,.42,3,7.3,7.3,0,0,0,.83,3.63,1.74,1.74,0,0,1,.37.86.56.56,0,0,1-.3.43,1,1,0,0,1-.6.17,1.57,1.57,0,0,1-1.23-.89,6.18,6.18,0,0,1-.54-2.89,15.54,15.54,0,0,0-.18-2.54q-.14-.6-.55-.63-1-.06-4.22,4.84a14.16,14.16,0,0,1-1.41,1.91,1.12,1.12,0,0,1-.79.42,1,1,0,0,1-.67-.28.75.75,0,0,1-.24-.61,6.18,6.18,0,0,1,.21-1q1.49-5.8,2.49-11.51a4.06,4.06,0,0,1,.58-1.76c.24-.28.43-.42.58-.41a1,1,0,0,1,.7.37,1.21,1.21,0,0,1,.27.92A18.56,18.56,0,0,1,360.08,70q-.5,1.45-1.08,3.68a21.19,21.19,0,0,0-.62,2.77c0,.07,0,.11.09.12Z"/><path class="cls-1" d="M371.34,80.65a2.63,2.63,0,0,1-2-1.09,3.53,3.53,0,0,1-.67-2.43,8.21,8.21,0,0,1,1.9-4.6,4.63,4.63,0,0,1,4-2.07,3,3,0,0,1,2.33,1.29,4.19,4.19,0,0,1,.75,2.77,6.46,6.46,0,0,1-2.18,4.33A5.45,5.45,0,0,1,371.34,80.65ZM370.29,77a2.71,2.71,0,0,0,.3,1.55,1.2,1.2,0,0,0,1,.66,3.88,3.88,0,0,0,2.86-1.34,4.87,4.87,0,0,0,1.6-3.27,3,3,0,0,0-.41-1.88,1.7,1.7,0,0,0-1.38-.8,3,3,0,0,0-2.67,1.66A6.93,6.93,0,0,0,370.29,77Z"/><path class="cls-1" d="M387.11,75.07q-.26,0-1.39,2.07a29.79,29.79,0,0,1-1.88,3q-.94,1.32-1.34,1.3-1.15-.08-1.89-3.55a21,21,0,0,1-.6-5.55,1.8,1.8,0,0,1,.41-1.1,1.1,1.1,0,0,1,.83-.43l.23,0q.17,0,.39.33a.9.9,0,0,1,.2.58v0q0,.11-.17.92a11,11,0,0,0-.18,1.46,10.18,10.18,0,0,0,.32,3.08q.41,1.7.77,1.72t1.9-2.69q1-1.72,1.48-2.37l.33-.53a5.42,5.42,0,0,1,1.33-1.6q.79.16.74.85a1.72,1.72,0,0,1-.06.39,1.77,1.77,0,0,0-.06.39,8.38,8.38,0,0,0,.64,3.64q.76,1.93,1.14,2t1-1.9A25.37,25.37,0,0,1,393,73.24a5.88,5.88,0,0,1,1.12-1.51,1.17,1.17,0,0,1,.75-.2.49.49,0,0,1,.38.23.67.67,0,0,1,.13.44.8.8,0,0,1-.13.46,16.62,16.62,0,0,0-2.52,4.55q-1.08,2.69-1.46,3.36t-.6.66a2.32,2.32,0,0,1-1.77-.94,15.91,15.91,0,0,1-1.59-4.48C387.25,75.54,387.18,75.29,387.11,75.07Z"/><path class="cls-1" d="M205.91,99.4a.66.66,0,0,1-.36.38,1.18,1.18,0,0,1-.58.15q-.94,0-.93-1.39,0-.66.48-3.72a21.94,21.94,0,0,0,.3-2.85q0-.17-.38-.44c-.26-.18-.39-.35-.39-.51s.21-.55.61-.85a1.47,1.47,0,0,0,.58-.8q.11-.44.26-1.23A9.21,9.21,0,0,1,207,84a3.13,3.13,0,0,1,2.58-1.24,1.92,1.92,0,0,1,1.39.58,1.87,1.87,0,0,1,.56,1.4,4.45,4.45,0,0,1-.34,1.53q-.33.85-.74.85a.27.27,0,0,1-.3-.31l.08-.9q0-1.79-1-1.8t-1.82,2.1a11.46,11.46,0,0,0-.76,3.45q0,.43.55.43,2.42,0,2.85,0t.43.37q0,.38-.47.57a8.68,8.68,0,0,1-2,.33,7.81,7.81,0,0,0-1.52.21,35,35,0,0,0-.7,6.13,7,7,0,0,0,.06,1.2A3.68,3.68,0,0,1,205.91,99.4Z"/><path class="cls-1" d="M213.07,95.39q.09-.17.23-.46a16.49,16.49,0,0,1,1.19-2.25,15,15,0,0,1,1.19-1.55A7.31,7.31,0,0,1,216.85,90a3.8,3.8,0,0,1,1-.53,2.44,2.44,0,0,1,.83-.14,1.83,1.83,0,0,1,1.31.51,1.52,1.52,0,0,1,.49,1.14.82.82,0,0,1-.19.52.66.66,0,0,1-.55.22,1,1,0,0,1-.71-.35,1,1,0,0,0-.69-.35q-1,0-2.7,2.29a11,11,0,0,0-2.15,5.11,1.57,1.57,0,0,1-.37.95,1.06,1.06,0,0,1-.74.22q-.45,0-.65-.69a8.86,8.86,0,0,1-.17-2.28q0-.44.07-1.92a24.24,24.24,0,0,1,.26-2.82q0-.17.1-.82a4.71,4.71,0,0,1,.18-1,1.17,1.17,0,0,1,.41-.51,1,1,0,0,1,.66-.23.61.61,0,0,1,.51.23.74.74,0,0,1,.16.47,4.06,4.06,0,0,1-.2,1,8.23,8.23,0,0,0-.26,1,5.31,5.31,0,0,1-.11.66,17.56,17.56,0,0,0-.22,2.09v.59Z"/><path class="cls-1" d="M227.09,95.92a11.35,11.35,0,0,1-2.61,2.57,4.21,4.21,0,0,1-2.34.83,1.58,1.58,0,0,1-1.22-.62,2.28,2.28,0,0,1-.49-1.56,8.79,8.79,0,0,1,2.27-5.21q2.23-2.77,4.38-2.73a1.24,1.24,0,0,1,1.14.91.4.4,0,0,0,.37.3q.74,0,.73.59a4.58,4.58,0,0,1-.11.79,25,25,0,0,0-.57,3.84q0,2.24.8,2.7a.64.64,0,0,1,.4.55q0,.29-.41.57a1.31,1.31,0,0,1-.77.28q-.71,0-1.16-1A6.73,6.73,0,0,1,227.09,95.92Zm-.47-5.23q-1.22,0-2.88,2.24A7.18,7.18,0,0,0,222,96.71q0,1.07.69,1.08,1,0,2.86-2A6,6,0,0,0,227.47,92Q227.49,90.71,226.62,90.69Z"/><path class="cls-1" d="M239.07,92.21q-.86,0-3.8,5a17.43,17.43,0,0,1-1.15,1.84,1.41,1.41,0,0,1-.59.26,2.64,2.64,0,0,1-.7.1q-.62,0-.57-2.43a36.5,36.5,0,0,1,.7-4.91,14.42,14.42,0,0,0,.29-2.06q0-.61.56-.6,1,0,1,1.5a20.43,20.43,0,0,1-.4,2.72q-.45,2.31-.47,2.81a13.3,13.3,0,0,0,1.74-2.4,18.14,18.14,0,0,1,2.39-3.21,2.26,2.26,0,0,1,1.56-.65q.6,0,.94.83a13.09,13.09,0,0,1,.34,3.85A4.26,4.26,0,0,0,241,96c.07.25.13.37.17.38q.44,0,2-2.92a10.74,10.74,0,0,1,1.57-2.35,2.17,2.17,0,0,1,1.65-.78,1.14,1.14,0,0,1,1.08.8,7.82,7.82,0,0,1,.44,2.3,21.3,21.3,0,0,0,.37,2.83,2.19,2.19,0,0,0,1,1.66q.52.26.51.6a.92.92,0,0,1-.46.66,1.38,1.38,0,0,1-.82.32,1.62,1.62,0,0,1-1.3-.94,10.35,10.35,0,0,1-.79-3.95,15.85,15.85,0,0,0-.21-1.73q-.11-.51-.37-.52t-.94.72a29.83,29.83,0,0,0-1.79,3,16.52,16.52,0,0,1-1.46,2.33,1.28,1.28,0,0,1-.94.57,1,1,0,0,1-.71-.34,1.45,1.45,0,0,1-.38-.78q-.07-.45-.13-2.21A9,9,0,0,0,239.07,92.21Z"/><path class="cls-1" d="M259.39,96.91q0,.94-1.73,2.23a5.49,5.49,0,0,1-3.49,1.24,3,3,0,0,1-2.28-.94,3.49,3.49,0,0,1-.74-2.48,8.28,8.28,0,0,1,1.93-5q1.85-2.34,4-2.28a1.53,1.53,0,0,1,1.53,1.59A3.76,3.76,0,0,1,257.11,94a17.94,17.94,0,0,1-3.81,2.46.74.74,0,0,0-.5.64,1.7,1.7,0,0,0,.41,1.24,1.74,1.74,0,0,0,1.3.5,5.8,5.8,0,0,0,4.13-2.09q.31-.3.47-.29T259.39,96.91ZM253,95.29q4-2.23,4-3.64,0-.56-.48-.57a2.85,2.85,0,0,0-2,1.2A7.22,7.22,0,0,0,253,95.29Z"/><path class="cls-1" d="M270.68,95.13a11.66,11.66,0,0,1,2.95-3.4,5,5,0,0,1,3-1.24,1.51,1.51,0,0,1,1.22.72,2.66,2.66,0,0,1,.46,1.67A8.15,8.15,0,0,1,276,98.2a6.13,6.13,0,0,1-4.67,2.37,2.18,2.18,0,0,1-1.2-.4,1.23,1.23,0,0,1-.59-.91,1,1,0,0,0-.23-.66,1.2,1.2,0,0,1-.37-.87,28.44,28.44,0,0,1,.58-3.59l1.14-5.5a32.11,32.11,0,0,1,.83-3.42,2,2,0,0,1,.53-.86,1.06,1.06,0,0,1,.69-.2q.65,0,.61,1.14a9.34,9.34,0,0,1-.81,3A46.71,46.71,0,0,0,270.68,95.13Zm-.32,3.08q.45.91,1.14.94a3.79,3.79,0,0,0,2.26-.8,7.34,7.34,0,0,0,2.11-2.39,5.93,5.93,0,0,0,.95-2.65,1.87,1.87,0,0,0-.15-.85q-.16-.36-.43-.37-1.29,0-3.21,2A11.91,11.91,0,0,0,270.36,98.2Z"/><path class="cls-1" d="M286.81,97.69a16.17,16.17,0,0,1-3.07,2,4.83,4.83,0,0,1-2,.6,1.57,1.57,0,0,1-1.37-.82,3.25,3.25,0,0,1-.42-1.8,13.73,13.73,0,0,1,.71-3.5,11.25,11.25,0,0,1,1-2.46,1,1,0,0,1,.92-.36.49.49,0,0,1,.41.32,1.44,1.44,0,0,1,.14.7,1.3,1.3,0,0,1-.24.59,10.63,10.63,0,0,0-.56.94q0,.09-.4,1.1a6.21,6.21,0,0,0-.4,1.91,5,5,0,0,0,.12,1q.13.67.61.69a3.42,3.42,0,0,0,1.27-.26,8.06,8.06,0,0,0,1.72-1,6.66,6.66,0,0,0,1.3-1.09,2.72,2.72,0,0,0,.49-1,15,15,0,0,0,.28-2.4q.12-1.85,1-1.82.5,0,.64.29a2.32,2.32,0,0,1,.11,1q0,.61-.14,1.52-.15,1.15-.19,1.64a33.57,33.57,0,0,1-.85,5.09,14.09,14.09,0,0,1-1.71,4.24,3.13,3.13,0,0,1-2.87,1.62A5.66,5.66,0,0,1,280,105.5q-1.38-1-1.35-1.66a1.37,1.37,0,0,1,.17-.6c.1-.19.23-.29.38-.28s.15.06.23.18a4.23,4.23,0,0,0,3.75,2q1.34,0,2.34-2.27a14.08,14.08,0,0,0,1.17-4.38C286.73,98.22,286.77,98,286.81,97.69Z"/><path class="cls-1" d="M300.43,101.93a.66.66,0,0,1-.37.37,1.19,1.19,0,0,1-.58.13q-.94,0-.89-1.42,0-.66.59-3.7a22,22,0,0,0,.39-2.84c0-.11-.12-.26-.37-.45s-.38-.36-.38-.53.22-.54.64-.83a1.48,1.48,0,0,0,.6-.78q.12-.44.3-1.22A9.2,9.2,0,0,1,302,86.59a3.13,3.13,0,0,1,2.61-1.16A1.93,1.93,0,0,1,306,86a1.87,1.87,0,0,1,.52,1.42,4.48,4.48,0,0,1-.38,1.52q-.36.84-.76.83a.27.27,0,0,1-.29-.32l.1-.89q.07-1.79-.92-1.83t-1.88,2a11.47,11.47,0,0,0-.86,3.43c0,.28.17.43.54.45q2.42.1,2.85.1c.29,0,.43.13.42.38s-.17.44-.49.56a8.69,8.69,0,0,1-2.06.27,7.82,7.82,0,0,0-1.53.17,35.06,35.06,0,0,0-.88,6.11,6.92,6.92,0,0,0,0,1.2A3.69,3.69,0,0,1,300.43,101.93Z"/><path class="cls-1" d="M307.68,98.14q.1-.16.24-.45a16.44,16.44,0,0,1,1.26-2.21A14.94,14.94,0,0,1,310.42,94a7.22,7.22,0,0,1,1.21-1.09,3.78,3.78,0,0,1,1-.5,2.44,2.44,0,0,1,.83-.12,1.83,1.83,0,0,1,1.29.54,1.52,1.52,0,0,1,.46,1.16.82.82,0,0,1-.2.51.65.65,0,0,1-.56.21,1,1,0,0,1-.7-.37,1,1,0,0,0-.68-.37q-1,0-2.77,2.21a11,11,0,0,0-2.3,5,1.56,1.56,0,0,1-.39.94,1.06,1.06,0,0,1-.74.2q-.45,0-.63-.71a8.81,8.81,0,0,1-.1-2.29q0-.44.13-1.91a24.27,24.27,0,0,1,.35-2.81q0-.17.13-.82a4.72,4.72,0,0,1,.21-1,1.18,1.18,0,0,1,.42-.5,1,1,0,0,1,.66-.21.61.61,0,0,1,.5.24.74.74,0,0,1,.15.48,4.09,4.09,0,0,1-.23,1,8.27,8.27,0,0,0-.29,1,5.21,5.21,0,0,1-.13.65,17.34,17.34,0,0,0-.28,2.08l0,.34Z"/><path class="cls-1" d="M321.71,99.09a11.33,11.33,0,0,1-2.69,2.49,4.22,4.22,0,0,1-2.36.76,1.58,1.58,0,0,1-1.2-.66,2.28,2.28,0,0,1-.44-1.57A8.79,8.79,0,0,1,317.43,95q2.31-2.7,4.46-2.6a1.24,1.24,0,0,1,1.11.94.4.4,0,0,0,.37.31q.74,0,.71.61A4.62,4.62,0,0,1,324,95a25.12,25.12,0,0,0-.68,3.83q-.11,2.24.72,2.72a.64.64,0,0,1,.38.57q0,.29-.43.56a1.31,1.31,0,0,1-.78.25q-.71,0-1.13-1A6.74,6.74,0,0,1,321.71,99.09Zm-.31-5.24q-1.22-.06-3,2.15a7.17,7.17,0,0,0-1.8,3.72q-.05,1.06.65,1.1,1,0,2.92-1.92a6,6,0,0,0,2-3.69Q322.26,93.9,321.39,93.86Z"/><path class="cls-1" d="M333.79,95.75q-.86,0-4,4.9a17.32,17.32,0,0,1-1.21,1.81,1.43,1.43,0,0,1-.59.24,2.64,2.64,0,0,1-.7.08q-.62,0-.49-2.45a36.54,36.54,0,0,1,.84-4.89,14.27,14.27,0,0,0,.35-2q0-.61.58-.58,1,.05.95,1.53a20.54,20.54,0,0,1-.49,2.7q-.52,2.29-.56,2.79a13.38,13.38,0,0,0,1.81-2.34,18.15,18.15,0,0,1,2.49-3.14,2.27,2.27,0,0,1,1.58-.61q.6,0,.92.86a13.1,13.1,0,0,1,.23,3.86,4.24,4.24,0,0,0,.08,1.14c.07.25.12.38.16.38q.44,0,2-2.86a10.73,10.73,0,0,1,1.64-2.3,2.18,2.18,0,0,1,1.68-.73,1.14,1.14,0,0,1,1.05.83,7.86,7.86,0,0,1,.37,2.32,21.25,21.25,0,0,0,.28,2.83,2.2,2.2,0,0,0,1,1.69c.34.18.51.39.5.61a.92.92,0,0,1-.48.64,1.38,1.38,0,0,1-.83.3,1.62,1.62,0,0,1-1.28-1,10.34,10.34,0,0,1-.67-4,15.79,15.79,0,0,0-.16-1.73c-.06-.34-.18-.52-.35-.53s-.58.22-1,.69a29.8,29.8,0,0,0-1.88,2.92,16.43,16.43,0,0,1-1.53,2.28,1.28,1.28,0,0,1-1,.54,1,1,0,0,1-.7-.36,1.45,1.45,0,0,1-.36-.79q-.06-.45-.06-2.21A8.93,8.93,0,0,0,333.79,95.75Z"/><path class="cls-1" d="M354,101.06q-.05.94-1.8,2.18a5.48,5.48,0,0,1-3.52,1.13,3,3,0,0,1-2.25-1,3.49,3.49,0,0,1-.67-2.5,8.29,8.29,0,0,1,2.07-4.93q1.92-2.28,4-2.16a1.53,1.53,0,0,1,1.48,1.63,3.76,3.76,0,0,1-1.55,2.65,17.94,17.94,0,0,1-3.88,2.35.74.74,0,0,0-.52.62,1.7,1.7,0,0,0,.37,1.25,1.74,1.74,0,0,0,1.29.54,5.79,5.79,0,0,0,4.19-2q.32-.29.48-.28T354,101.06Zm-6.34-1.81q4.06-2.1,4.14-3.52,0-.56-.47-.58a2.85,2.85,0,0,0-2,1.14A7.22,7.22,0,0,0,347.62,99.25Z"/><path class="cls-1" d="M365.76,105.46a2.78,2.78,0,0,1-2.08-.93,3.14,3.14,0,0,1-.6-2.27,8.88,8.88,0,0,1,2.23-5q2.08-2.55,3.73-2.45a1.55,1.55,0,0,1,1.24.89,3,3,0,0,1,.43,1.75,1.8,1.8,0,0,1-.29.92c-.17.25-.34.37-.5.36q-.54,0-.69-1.13t-.65-1.21q-1-.06-2.42,2.14a8.19,8.19,0,0,0-1.56,3.77q-.1,1.57,1.69,1.68a5.92,5.92,0,0,0,3.28-1.07,2,2,0,0,1,1-.39c.21,0,.31.14.29.38q0,.7-1.77,1.67A6,6,0,0,1,365.76,105.46Z"/><path class="cls-1" d="M375.52,106a2.63,2.63,0,0,1-2-1.1,3.53,3.53,0,0,1-.67-2.43,8.2,8.2,0,0,1,1.92-4.59,4.63,4.63,0,0,1,4-2.06,2.94,2.94,0,0,1,2.32,1.3,4.18,4.18,0,0,1,.74,2.77,6.46,6.46,0,0,1-2.2,4.33A5.45,5.45,0,0,1,375.52,106Zm-1-3.66a2.71,2.71,0,0,0,.29,1.55,1.2,1.2,0,0,0,1,.66,3.88,3.88,0,0,0,2.86-1.33,4.87,4.87,0,0,0,1.61-3.27,3,3,0,0,0-.41-1.88,1.7,1.7,0,0,0-1.38-.8,3,3,0,0,0-2.68,1.66A6.94,6.94,0,0,0,374.47,102.36Z"/><path class="cls-1" d="M390.35,99.42a1.54,1.54,0,0,0-1.09.55,16.65,16.65,0,0,0-1.93,2.7,18.63,18.63,0,0,1-2.22,3.21,1.26,1.26,0,0,1-.77.35,1,1,0,0,1-1-1.13,7.65,7.65,0,0,1,.24-1.25,32.94,32.94,0,0,0,.92-5.85,1.41,1.41,0,0,1,.36-.76q.33-.41.6-.39a.77.77,0,0,1,.66.34,2.34,2.34,0,0,1,.12,1.21,26.49,26.49,0,0,1-.82,3.81,9.13,9.13,0,0,0-.27,1.21c0,.1,0,.15.06.15a10.75,10.75,0,0,0,1.44-2.12,14.44,14.44,0,0,1,2.25-3,2.6,2.6,0,0,1,2-.78,1.58,1.58,0,0,1,1.3.85,6.64,6.64,0,0,1,.57,2.82,16.64,16.64,0,0,0,.27,2.87q.17.57.62.61a1.8,1.8,0,0,0,.74-.15l.11,0q.4,0,.37.49a1.23,1.23,0,0,1-.61.83,2,2,0,0,1-1.34.37,1.39,1.39,0,0,1-1.17-.71,9,9,0,0,1-.45-3.38Q391.18,99.48,390.35,99.42Z"/><path class="cls-1" d="M400.53,97.93q1,0,1.8,0a13,13,0,0,1,1.39,0,1.86,1.86,0,0,1,.88.19.52.52,0,0,1,.15.47q-.06.75-1.1.74-1.35,0-2.48,0a4.14,4.14,0,0,0-1.23.16,16.84,16.84,0,0,0-.72,2.16,16.61,16.61,0,0,0-.67,2.7,2.35,2.35,0,0,0,.17,1.37,1,1,0,0,0,.78.4,4.08,4.08,0,0,0,2.3-1,1.54,1.54,0,0,1,.88-.43q.4,0,.37.45,0,.67-1.41,1.63a4.1,4.1,0,0,1-2.7.87q-2.24-.16-2-2.8a14.72,14.72,0,0,1,.68-2.91,17.56,17.56,0,0,0,.63-2.35c0-.09-.06-.14-.21-.15h-1q-1.18-.09-1.11-1a.48.48,0,0,1,.58-.5l1.9.14a.44.44,0,0,0,.35-.15,4.49,4.49,0,0,0,.52-1.15q.36-1,.65-1.94t.94-.91a.75.75,0,0,1,.6.32.85.85,0,0,1,.18.53,12.07,12.07,0,0,1-.43,1.3Z"/><path class="cls-1" d="M407.11,104.11c.07-.11.16-.25.26-.44a16.44,16.44,0,0,1,1.33-2.17A15,15,0,0,1,410,100a7.32,7.32,0,0,1,1.24-1,3.83,3.83,0,0,1,1-.47,2.45,2.45,0,0,1,.83-.09,1.82,1.82,0,0,1,1.27.59,1.53,1.53,0,0,1,.42,1.17.82.82,0,0,1-.22.5.66.66,0,0,1-.57.19,1,1,0,0,1-.69-.4,1,1,0,0,0-.67-.39q-1-.07-2.84,2.12a11,11,0,0,0-2.46,5,1.58,1.58,0,0,1-.42.92,1.07,1.07,0,0,1-.75.17q-.45,0-.6-.72a8.8,8.8,0,0,1,0-2.29q0-.43.19-1.91a24.08,24.08,0,0,1,.44-2.8q0-.17.16-.81a4.68,4.68,0,0,1,.24-1,1.16,1.16,0,0,1,.44-.49,1,1,0,0,1,.67-.19.61.61,0,0,1,.5.26.74.74,0,0,1,.14.48,4.1,4.1,0,0,1-.26,1,8.25,8.25,0,0,0-.33,1,5.36,5.36,0,0,1-.15.65,17.44,17.44,0,0,0-.34,2.07l0,.34Z"/><path class="cls-1" d="M417.25,109a2.63,2.63,0,0,1-2-1.13,3.53,3.53,0,0,1-.63-2.44,8.2,8.2,0,0,1,2-4.57,4.63,4.63,0,0,1,4-2,2.94,2.94,0,0,1,2.31,1.33,4.19,4.19,0,0,1,.7,2.78,6.46,6.46,0,0,1-2.25,4.3A5.45,5.45,0,0,1,417.25,109Zm-1-3.68a2.71,2.71,0,0,0,.27,1.55,1.2,1.2,0,0,0,1,.67,3.88,3.88,0,0,0,2.88-1.29,4.87,4.87,0,0,0,1.65-3.25,3,3,0,0,0-.38-1.88,1.7,1.7,0,0,0-1.37-.82,3,3,0,0,0-2.7,1.62A6.93,6.93,0,0,0,416.25,105.37Z"/><path class="cls-1" d="M429.79,93.86q.67.05.59.9a18.86,18.86,0,0,1-1.1,3.53,27.43,27.43,0,0,0-1.11,3.89,28.57,28.57,0,0,0-.56,3.37,24,24,0,0,0-.06,3,3.79,3.79,0,0,1,0,.42,1.12,1.12,0,0,1-.38.77.92.92,0,0,1-.69.28q-.49,0-.63-.67a7.27,7.27,0,0,1,0-2,49.18,49.18,0,0,1,1.37-7.6,25.47,25.47,0,0,1,1.62-5.25Q429.33,93.83,429.79,93.86Z"/><path class="cls-1" d="M215.55,29.85a11.6,11.6,0,0,1-2.67,3,4.31,4.31,0,0,1-2.57,1,1.69,1.69,0,0,1-1.41-.71,3,3,0,0,1-.5-1.85,7.92,7.92,0,0,1,2-4.78q1.94-2.44,4.14-2.41a2.5,2.5,0,0,1,1.78.85l1.38-6a1.2,1.2,0,0,1,.53-.83,1.33,1.33,0,0,1,.59-.2q.65,0,.63,1.16a9.73,9.73,0,0,1-.45,1.51,44.37,44.37,0,0,0-1.35,5,25.07,25.07,0,0,0-.67,4.76q0,1.85.78,1.86a2,2,0,0,0,1.08-.33.76.76,0,0,1,.44-.16q.3,0,.29.39t-.84,1.08a2.81,2.81,0,0,1-1.71.6q-1.53,0-1.49-3Q215.49,30.36,215.55,29.85Zm-1.15-4.35q-1.5,0-3,2a6.56,6.56,0,0,0-1.53,3.74q0,1.16.75,1.17a3.19,3.19,0,0,0,1.77-.73,9.39,9.39,0,0,0,2.16-2.39,5.38,5.38,0,0,0,1.13-2.48,1.3,1.3,0,0,0-.36-.84A1.17,1.17,0,0,0,214.39,25.5Z"/><path class="cls-1" d="M223.32,30.13q.1-.16.23-.46a16.46,16.46,0,0,1,1.2-2.24,15.06,15.06,0,0,1,1.19-1.55,7.3,7.3,0,0,1,1.18-1.12,3.78,3.78,0,0,1,1-.53,2.42,2.42,0,0,1,.83-.14,1.83,1.83,0,0,1,1.31.51,1.52,1.52,0,0,1,.49,1.14.82.82,0,0,1-.19.52.65.65,0,0,1-.55.22,1,1,0,0,1-.71-.35,1,1,0,0,0-.69-.35q-1,0-2.71,2.29a11,11,0,0,0-2.16,5.1,1.57,1.57,0,0,1-.37.95,1.06,1.06,0,0,1-.74.22q-.45,0-.65-.69a8.85,8.85,0,0,1-.16-2.28q0-.44.08-1.92a24.31,24.31,0,0,1,.27-2.82q0-.18.11-.82a4.73,4.73,0,0,1,.18-1,1.18,1.18,0,0,1,.41-.51,1,1,0,0,1,.66-.23.61.61,0,0,1,.51.23.74.74,0,0,1,.16.47,4.06,4.06,0,0,1-.2,1,8.29,8.29,0,0,0-.27,1,5.32,5.32,0,0,1-.11.66,17.55,17.55,0,0,0-.22,2.09l0,.34Z"/><path class="cls-1" d="M237.34,30.7a11.34,11.34,0,0,1-2.62,2.56,4.21,4.21,0,0,1-2.34.82,1.58,1.58,0,0,1-1.22-.63,2.29,2.29,0,0,1-.49-1.56,8.79,8.79,0,0,1,2.28-5.2q2.23-2.77,4.38-2.72a1.24,1.24,0,0,1,1.14.91.4.4,0,0,0,.37.3q.74,0,.73.59a4.62,4.62,0,0,1-.11.79,24.94,24.94,0,0,0-.58,3.84q0,2.24.8,2.7a.64.64,0,0,1,.4.56q0,.29-.41.57a1.31,1.31,0,0,1-.77.28q-.71,0-1.16-1A6.74,6.74,0,0,1,237.34,30.7Zm-.46-5.23q-1.22,0-2.89,2.23a7.18,7.18,0,0,0-1.7,3.77q0,1.07.68,1.08,1,0,2.87-2a6,6,0,0,0,1.88-3.74Q237.75,25.49,236.88,25.47Z"/><path class="cls-1" d="M248.79,31q-.11-.09-.63.5a8.31,8.31,0,0,1-2.2,1.71,4.86,4.86,0,0,1-2.45.71,1.67,1.67,0,0,1-1.29-.55,2.09,2.09,0,0,1-.44-1.46,6.26,6.26,0,0,1,1.16-3.17,10.13,10.13,0,0,1,3.11-3,6.39,6.39,0,0,1,3.44-1.23,2.17,2.17,0,0,1,1.34.48l.24.19a1.12,1.12,0,0,1,.3.49,1.68,1.68,0,0,1,.13.59,1.44,1.44,0,0,1-.11.42,18.05,18.05,0,0,0-.83,2.53q-.23,1-.53,3.39a30.47,30.47,0,0,1-.56,3.29,7.18,7.18,0,0,1-1,2.22,4.67,4.67,0,0,1-1.66,1.59,3.86,3.86,0,0,1-2,.5,5.87,5.87,0,0,1-3.39-1.28q-1.66-1.23-1.64-2,0-.45.35-.45a3.47,3.47,0,0,1,1,.57,7.27,7.27,0,0,0,3.88,1.55A2.5,2.5,0,0,0,247.41,37a14.44,14.44,0,0,0,1.2-4.82Q248.69,31.48,248.79,31Zm.1-5.08a3.75,3.75,0,0,0-2,.77A9.54,9.54,0,0,0,244.56,29a5,5,0,0,0-1.17,2.61.74.74,0,0,0,.71.8,4.37,4.37,0,0,0,2.17-.8,7.53,7.53,0,0,0,2.34-2.31,5,5,0,0,0,1-2.35Q249.66,25.91,248.9,25.89Z"/><path class="cls-1" d="M264.65,25.41c.64,0,1.24-.07,1.8-.12a13,13,0,0,1,1.39-.05,1.87,1.87,0,0,1,.88.16.52.52,0,0,1,.17.46q0,.75-1.07.78-1.34,0-2.48.16a4.12,4.12,0,0,0-1.23.21,17.11,17.11,0,0,0-.62,2.19,16.67,16.67,0,0,0-.55,2.72,2.36,2.36,0,0,0,.23,1.36,1,1,0,0,0,.79.36,4.08,4.08,0,0,0,2.25-1.13,1.55,1.55,0,0,1,.86-.47q.4,0,.39.44,0,.67-1.33,1.69a4.1,4.1,0,0,1-2.66,1q-2.24-.07-2.16-2.71a14.67,14.67,0,0,1,.55-2.94,17.69,17.69,0,0,0,.53-2.38c0-.09-.07-.14-.22-.15l-1,.06q-1.19,0-1.16-1a.48.48,0,0,1,.56-.52l1.91.06a.44.44,0,0,0,.35-.17,4.64,4.64,0,0,0,.47-1.17q.32-1,.57-2t.9-.95a.75.75,0,0,1,.61.3.85.85,0,0,1,.21.53,12.12,12.12,0,0,1-.37,1.31Z"/><path class="cls-1" d="M272.19,35.46a2.63,2.63,0,0,1-2.06-1,3.53,3.53,0,0,1-.75-2.41,8.21,8.21,0,0,1,1.76-4.66,4.63,4.63,0,0,1,3.92-2.19,3,3,0,0,1,2.37,1.22,4.19,4.19,0,0,1,.83,2.74,6.46,6.46,0,0,1-2,4.4A5.45,5.45,0,0,1,272.19,35.46ZM271,31.84a2.71,2.71,0,0,0,.34,1.54,1.2,1.2,0,0,0,1,.63,3.88,3.88,0,0,0,2.82-1.42,4.87,4.87,0,0,0,1.5-3.32,3,3,0,0,0-.47-1.86,1.7,1.7,0,0,0-1.41-.76,3,3,0,0,0-2.62,1.75A6.93,6.93,0,0,0,271,31.84Z"/><path class="cls-1" d="M290.28,36.16a2.78,2.78,0,0,1-2.1-.88,3.14,3.14,0,0,1-.66-2.26,8.87,8.87,0,0,1,2.11-5q2-2.61,3.67-2.54a1.55,1.55,0,0,1,1.26.86,3.05,3.05,0,0,1,.48,1.74,1.8,1.8,0,0,1-.27.93q-.25.38-.49.38-.54,0-.72-1.11t-.68-1.19q-1,0-2.37,2.2A8.18,8.18,0,0,0,289,33.07q-.06,1.57,1.73,1.64A5.93,5.93,0,0,0,294,33.55a2,2,0,0,1,1-.42q.31,0,.3.37,0,.7-1.73,1.71A6,6,0,0,1,290.28,36.16Z"/><path class="cls-1" d="M299,33.2q3.71-6.22,5.94-6.12a1.1,1.1,0,0,1,.93.72,9.55,9.55,0,0,1,.48,3,7.29,7.29,0,0,0,.9,3.62,1.73,1.73,0,0,1,.38.85.56.56,0,0,1-.3.43,1,1,0,0,1-.6.18A1.57,1.57,0,0,1,305.5,35a6.18,6.18,0,0,1-.59-2.88,15.58,15.58,0,0,0-.23-2.53q-.15-.6-.56-.62-1,0-4.13,4.92a14.33,14.33,0,0,1-1.38,1.93,1.12,1.12,0,0,1-.78.44,1,1,0,0,1-.67-.27.76.76,0,0,1-.25-.6,6.46,6.46,0,0,1,.19-1q1.38-5.83,2.28-11.55a4.06,4.06,0,0,1,.55-1.77q.35-.43.57-.42a1,1,0,0,1,.71.35,1.21,1.21,0,0,1,.29.91,18.49,18.49,0,0,1-1,4.64q-.47,1.45-1,3.7a21.33,21.33,0,0,0-.57,2.79c0,.07,0,.11.1.12Z"/><path class="cls-1" d="M315.62,33.33a11.32,11.32,0,0,1-2.68,2.49,4.21,4.21,0,0,1-2.36.76,1.58,1.58,0,0,1-1.2-.66,2.28,2.28,0,0,1-.45-1.57,8.79,8.79,0,0,1,2.41-5.14q2.3-2.71,4.45-2.61a1.24,1.24,0,0,1,1.12.94.4.4,0,0,0,.37.31q.74,0,.71.61a4.68,4.68,0,0,1-.13.78,25,25,0,0,0-.67,3.83q-.1,2.24.73,2.72a.64.64,0,0,1,.38.56c0,.19-.15.38-.42.56a1.31,1.31,0,0,1-.78.26q-.71,0-1.13-1A6.73,6.73,0,0,1,315.62,33.33Zm-.33-5.24q-1.22-.05-2.95,2.16A7.17,7.17,0,0,0,310.55,34q0,1.06.65,1.1,1,0,2.92-1.93a6,6,0,0,0,2-3.69Q316.16,28.13,315.29,28.09Z"/><path class="cls-1" d="M327,30.11a1.54,1.54,0,0,0-1.08.58A16.65,16.65,0,0,0,324,33.43a18.64,18.64,0,0,1-2.15,3.25,1.26,1.26,0,0,1-.76.37,1,1,0,0,1-1-1.11,7.63,7.63,0,0,1,.21-1.25,32.92,32.92,0,0,0,.8-5.87,1.41,1.41,0,0,1,.34-.77c.21-.28.41-.41.59-.4a.77.77,0,0,1,.67.33,2.34,2.34,0,0,1,.14,1.2A26.38,26.38,0,0,1,322.1,33a9,9,0,0,0-.25,1.21c0,.1,0,.15.07.15a10.65,10.65,0,0,0,1.4-2.15,14.47,14.47,0,0,1,2.18-3.06,2.61,2.61,0,0,1,2-.82,1.58,1.58,0,0,1,1.32.83,6.63,6.63,0,0,1,.63,2.8,16.5,16.5,0,0,0,.33,2.87q.18.57.63.59a1.8,1.8,0,0,0,.73-.17l.11,0q.4,0,.38.48a1.23,1.23,0,0,1-.59.84,2,2,0,0,1-1.34.39,1.39,1.39,0,0,1-1.19-.68,9,9,0,0,1-.52-3.37Q327.83,30.16,327,30.11Z"/><path class="cls-1" d="M339.6,34.54q-.11-.09-.65.48a8.29,8.29,0,0,1-2.24,1.64,4.86,4.86,0,0,1-2.47.64,1.67,1.67,0,0,1-1.28-.59,2.09,2.09,0,0,1-.4-1.47,6.26,6.26,0,0,1,1.25-3.14A10.12,10.12,0,0,1,337,29.19a6.39,6.39,0,0,1,3.48-1.13,2.17,2.17,0,0,1,1.33.52l.23.2a1.11,1.11,0,0,1,.29.5,1.67,1.67,0,0,1,.12.6,1.44,1.44,0,0,1-.12.42,18.28,18.28,0,0,0-.9,2.5q-.26,1-.62,3.37a30.61,30.61,0,0,1-.66,3.28,7.18,7.18,0,0,1-1.05,2.19,4.66,4.66,0,0,1-1.7,1.54,3.86,3.86,0,0,1-2,.44,5.86,5.86,0,0,1-3.35-1.37q-1.62-1.28-1.58-2,0-.45.37-.44a3.44,3.44,0,0,1,1,.6A7.28,7.28,0,0,0,335.65,42a2.5,2.5,0,0,0,2.39-1.5,14.47,14.47,0,0,0,1.33-4.78Q339.48,35,339.6,34.54Zm.25-5.08a3.75,3.75,0,0,0-2,.71,9.56,9.56,0,0,0-2.42,2.27A5,5,0,0,0,334.18,35a.74.74,0,0,0,.69.82,4.38,4.38,0,0,0,2.2-.74,7.54,7.54,0,0,0,2.41-2.24,5,5,0,0,0,1.08-2.32Q340.61,29.5,339.85,29.46Z"/><path class="cls-1" d="M351.86,35.43q-.05.94-1.8,2.18a5.48,5.48,0,0,1-3.52,1.14,3,3,0,0,1-2.25-1,3.48,3.48,0,0,1-.67-2.5,8.28,8.28,0,0,1,2.07-4.93q1.92-2.29,4-2.17a1.53,1.53,0,0,1,1.49,1.63,3.76,3.76,0,0,1-1.55,2.65,17.93,17.93,0,0,1-3.88,2.35.74.74,0,0,0-.52.62,1.7,1.7,0,0,0,.38,1.25,1.74,1.74,0,0,0,1.29.54,5.8,5.8,0,0,0,4.18-2c.21-.19.37-.29.48-.28S351.87,35.12,351.86,35.43Zm-6.35-1.8q4.05-2.11,4.13-3.53c0-.37-.13-.56-.47-.58a2.86,2.86,0,0,0-2,1.14A7.22,7.22,0,0,0,345.51,33.63Z"/><path class="cls-1" d="M363,38.17a37.53,37.53,0,0,0-1.14,4.62l-.37,1.73a1.71,1.71,0,0,1-.39.71c-.2.23-.38.34-.53.33a1.1,1.1,0,0,1-.63-.33q-.35-.31-.34-.49a6.07,6.07,0,0,1,.32-1.39,50.85,50.85,0,0,0,2.44-11.9l0-.78a2.23,2.23,0,0,1,.44-1.43,1.08,1.08,0,0,1,.88-.4q.22,0,.4.37a2,2,0,0,1,.14,1,15.58,15.58,0,0,1-.32,2.16q-.34,1.59-.37,1.83a14.59,14.59,0,0,1,3.16-3.57,4.54,4.54,0,0,1,3-1.17,2.06,2.06,0,0,1,1.53.8,2.47,2.47,0,0,1,.54,1.77,7.83,7.83,0,0,1-2.65,5.33q-2.47,2.32-4.66,2.18a1.27,1.27,0,0,1-.85-.33A3.11,3.11,0,0,1,363,38.17Zm6.21-7.09q-1.3-.08-3.38,2.24T363.69,37a.87.87,0,0,0,.34.67A1.46,1.46,0,0,0,365,38q1.32.08,3.16-1.77a5.9,5.9,0,0,0,2-3.73,1.71,1.71,0,0,0-.21-1.06A.82.82,0,0,0,369.23,31.08Z"/><path class="cls-1" d="M376.08,40.54a2.64,2.64,0,0,1-2-1.1,3.54,3.54,0,0,1-.67-2.43,8.21,8.21,0,0,1,1.91-4.6,4.63,4.63,0,0,1,4-2.06,3,3,0,0,1,2.32,1.3,4.19,4.19,0,0,1,.74,2.77,6.46,6.46,0,0,1-2.19,4.33A5.45,5.45,0,0,1,376.08,40.54Zm-1-3.66a2.71,2.71,0,0,0,.29,1.55,1.2,1.2,0,0,0,1,.66,3.88,3.88,0,0,0,2.86-1.33,4.87,4.87,0,0,0,1.61-3.27,3,3,0,0,0-.41-1.88,1.7,1.7,0,0,0-1.38-.8,3,3,0,0,0-2.68,1.66A6.94,6.94,0,0,0,375,36.88Z"/><path class="cls-1" d="M388.9,38.81q0-.6-1.38-1.47a14,14,0,0,1-2.43-1.71,1.69,1.69,0,0,1-.57-1.33,3.57,3.57,0,0,1,2.05-2.92,6,6,0,0,1,3.09-1,1.81,1.81,0,0,1,1.07.33,1.07,1.07,0,0,1,.28.92.62.62,0,0,1-.28.47.71.71,0,0,1-.4.18,1.24,1.24,0,0,1-.39-.17,1.33,1.33,0,0,0-.38-.16,5.92,5.92,0,0,0-1.92.55q-1.46.58-1.52,1.43a1.22,1.22,0,0,0,.43,1A9,9,0,0,0,388.27,36a6.88,6.88,0,0,1,1.59,1.18,1.76,1.76,0,0,1,.53,1.38q-.1,1.41-2.1,2.08a9.84,9.84,0,0,1-3.78.54q-1.5-.1-1.43-1.12a.55.55,0,0,1,.37-.49,1.53,1.53,0,0,1,.69-.12,2.81,2.81,0,0,1,.52.13,2.79,2.79,0,0,0,.49.13,7.93,7.93,0,0,0,2.22-.19A2.36,2.36,0,0,0,388.9,38.81Z"/><path class="cls-1" d="M394,39.24a7.41,7.41,0,0,0,.08,1.59,1.29,1.29,0,0,1,0,.28q0,.17-.33.41a1,1,0,0,1-.67.22q-.9-.06-.78-1.71a32.39,32.39,0,0,1,1.08-5.33,13.16,13.16,0,0,0,.35-1.56,2.15,2.15,0,0,1,.28-1,.66.66,0,0,1,.63-.37,1.13,1.13,0,0,1,.73.28.65.65,0,0,1,.24.52,2.8,2.8,0,0,1-.18.72,34.15,34.15,0,0,0-1.11,3.43A16.26,16.26,0,0,0,394,39.24ZM396,29q-.19,0-.27-.44a2.89,2.89,0,0,0-.08-.29,2.8,2.8,0,0,1-.17-1.06,1.05,1.05,0,0,1,.49-.72,1.45,1.45,0,0,1,1-.31,1.17,1.17,0,0,1,.59.25q.32.23.3.43a4.09,4.09,0,0,1-.3,1,1.55,1.55,0,0,1-.79.93A1.86,1.86,0,0,1,396,29Z"/><path class="cls-1" d="M402,32.51q1,0,1.81,0a12.91,12.91,0,0,1,1.39,0,1.86,1.86,0,0,1,.88.19.52.52,0,0,1,.15.47q-.06.75-1.1.74-1.34,0-2.48,0a4.11,4.11,0,0,0-1.23.16,16.81,16.81,0,0,0-.72,2.16,16.73,16.73,0,0,0-.67,2.7,2.35,2.35,0,0,0,.17,1.37,1,1,0,0,0,.78.4,4.08,4.08,0,0,0,2.29-1,1.55,1.55,0,0,1,.88-.43q.4,0,.37.45,0,.67-1.41,1.63a4.1,4.1,0,0,1-2.7.87q-2.24-.16-2-2.8a14.7,14.7,0,0,1,.68-2.91,17.62,17.62,0,0,0,.63-2.35c0-.09-.06-.14-.21-.15h-1q-1.18-.09-1.11-1a.48.48,0,0,1,.58-.5l1.9.14a.44.44,0,0,0,.36-.15,4.58,4.58,0,0,0,.52-1.15q.36-1,.65-1.94t.94-.91a.75.75,0,0,1,.6.32.85.85,0,0,1,.18.53,12.66,12.66,0,0,1-.43,1.3Z"/><path class="cls-1" d="M408.37,40.29a7.37,7.37,0,0,0,.07,1.59,1.35,1.35,0,0,1,0,.28q0,.17-.34.41a1,1,0,0,1-.67.21q-.9-.07-.77-1.71a32.3,32.3,0,0,1,1.11-5.32,12.93,12.93,0,0,0,.36-1.56,2.15,2.15,0,0,1,.29-1,.66.66,0,0,1,.63-.37,1.13,1.13,0,0,1,.73.28.65.65,0,0,1,.23.52,2.78,2.78,0,0,1-.18.72,34.46,34.46,0,0,0-1.12,3.43A16.34,16.34,0,0,0,408.37,40.29Zm2-10.23q-.19,0-.26-.44a2.87,2.87,0,0,0-.08-.29,2.81,2.81,0,0,1-.17-1.06,1.05,1.05,0,0,1,.5-.72,1.45,1.45,0,0,1,1-.31,1.16,1.16,0,0,1,.58.25q.32.23.3.43a4.15,4.15,0,0,1-.3,1,1.55,1.55,0,0,1-.79.93A1.87,1.87,0,0,1,410.36,30.07Z"/><path class="cls-1" d="M414.57,43.29a2.63,2.63,0,0,1-2-1.12,3.54,3.54,0,0,1-.64-2.44,8.21,8.21,0,0,1,2-4.57,4.63,4.63,0,0,1,4-2,3,3,0,0,1,2.31,1.32,4.19,4.19,0,0,1,.71,2.78,6.46,6.46,0,0,1-2.25,4.3A5.45,5.45,0,0,1,414.57,43.29Zm-1-3.67a2.71,2.71,0,0,0,.27,1.55,1.2,1.2,0,0,0,1,.67,3.88,3.88,0,0,0,2.88-1.29,4.87,4.87,0,0,0,1.65-3.25,3,3,0,0,0-.39-1.88,1.7,1.7,0,0,0-1.37-.82,3,3,0,0,0-2.7,1.62A6.93,6.93,0,0,0,413.56,39.62Z"/><path class="cls-1" d="M429.44,36.88a1.54,1.54,0,0,0-1.1.54,16.64,16.64,0,0,0-2,2.67,18.77,18.77,0,0,1-2.25,3.18,1.26,1.26,0,0,1-.78.35,1,1,0,0,1-1-1.14,7.54,7.54,0,0,1,.25-1.24,33,33,0,0,0,1-5.84,1.41,1.41,0,0,1,.36-.76q.34-.4.6-.38a.77.77,0,0,1,.66.35,2.35,2.35,0,0,1,.11,1.21,26.59,26.59,0,0,1-.87,3.8,9.1,9.1,0,0,0-.29,1.2c0,.1,0,.15.06.15a10.69,10.69,0,0,0,1.46-2.1,14.45,14.45,0,0,1,2.28-3,2.61,2.61,0,0,1,2-.76,1.59,1.59,0,0,1,1.29.87,6.64,6.64,0,0,1,.54,2.82,16.66,16.66,0,0,0,.23,2.88q.16.58.62.61a1.79,1.79,0,0,0,.74-.14l.11,0q.4,0,.36.49a1.23,1.23,0,0,1-.62.82,2,2,0,0,1-1.35.35,1.39,1.39,0,0,1-1.16-.72,9,9,0,0,1-.41-3.38Q430.27,36.94,429.44,36.88Z"/></g></svg>