<svg id="curves" xmlns="http://www.w3.org/2000/svg" viewBox="0 0 387.5 303"><defs><style>.cls-1{fill:#fff;}</style></defs><title>guide-removal-en</title><g id="Removal"><path class="cls-1" d="M33.21,254.68,31.72,294.2c0,1.12,2.86.52,2.89-.39l1.48-39.52c0-1.12-2.86-.52-2.89.39Z"/><path class="cls-1" d="M33.95,294.49a38.78,38.78,0,0,1,7.43-9c1.24-1.11-1.62-1.11-2.32-.47a40.73,40.73,0,0,0-7.8,9.45c-.69,1.15,2.21.88,2.7.06Z"/><path class="cls-1" d="M24.83,288.27c1.69.62,2.87,2.86,3.92,4.21l3.82,4.92c.45.59,3.22-.37,2.72-1L31,290.89c-1.1-1.42-2.06-3.15-3.82-3.79-.69-.25-3.29.84-2.37,1.18Z"/><path class="cls-1" d="M33.42,254.21l3.72,10.48c.23.65,3.09-.22,2.9-.78l-3.72-10.48c-.23-.65-3.09.22-2.9.78Z"/><path class="cls-1" d="M32.84,254.71a82.72,82.72,0,0,1-6.8,5.67c-.5.37-.3.69.22.81a2.91,2.91,0,0,0,2-.55,87.61,87.61,0,0,0,7.19-6c.51-.47-.44-.65-.73-.65a2.94,2.94,0,0,0-1.93.74Z"/><path class="cls-1" d="M71.25,71.65a.87.87,0,0,1-.41.56,1.56,1.56,0,0,1-.73.29q-1.24.13-1.43-1.68-.09-.86,0-4.94a29,29,0,0,0,0-3.78q0-.22-.57-.52T67.51,61q-.06-.52.67-1.21a1.94,1.94,0,0,0,.63-1.14Q68.89,58,69,57a12.15,12.15,0,0,1,1.35-5.63,4.12,4.12,0,0,1,3.18-2,2.54,2.54,0,0,1,1.91.54,2.46,2.46,0,0,1,.95,1.75,5.87,5.87,0,0,1-.2,2.05q-.3,1.17-.83,1.23a.36.36,0,0,1-.44-.36l0-1.19q-.25-2.34-1.56-2.2t-2.06,3a15.1,15.1,0,0,0-.45,4.63q.06.56.79.48,3.17-.34,3.73-.42t.62.41a.84.84,0,0,1-.53.82,11.4,11.4,0,0,1-2.63.75,10.32,10.32,0,0,0-2,.52,46.17,46.17,0,0,0,.05,8.13,9.14,9.14,0,0,0,.27,1.56A4.72,4.72,0,0,1,71.25,71.65Z"/><path class="cls-1" d="M80,65.31q.1-.23.23-.64a21.74,21.74,0,0,1,1.24-3.12,19.82,19.82,0,0,1,1.33-2.21,9.61,9.61,0,0,1,1.38-1.64,5,5,0,0,1,1.18-.83,3.21,3.21,0,0,1,1.06-.3,2.41,2.41,0,0,1,1.79.47A2,2,0,0,1,89,58.48a1.08,1.08,0,0,1-.17.7.86.86,0,0,1-.69.37,1.28,1.28,0,0,1-1-.36,1.28,1.28,0,0,0-1-.36Q84.93,59,83,62.23a14.56,14.56,0,0,0-2.08,7,2.07,2.07,0,0,1-.34,1.3,1.4,1.4,0,0,1-.93.4q-.6.06-.95-.8a11.64,11.64,0,0,1-.55-3q-.05-.57-.18-2.52a32,32,0,0,1-.06-3.73q0-.23,0-1.09A6.22,6.22,0,0,1,78,58.49a1.55,1.55,0,0,1,.46-.73,1.35,1.35,0,0,1,.83-.4.81.81,0,0,1,.7.22,1,1,0,0,1,.28.59,5.36,5.36,0,0,1-.12,1.36,10.92,10.92,0,0,0-.2,1.36,7,7,0,0,1-.05.88,23,23,0,0,0,0,2.77L80,65Z"/><path class="cls-1" d="M98.44,64.09a14.94,14.94,0,0,1-3.09,3.7,5.55,5.55,0,0,1-3,1.39,2.08,2.08,0,0,1-1.68-.66,3,3,0,0,1-.85-2q-.26-3.2,2.3-7.12t5.38-4.15a1.63,1.63,0,0,1,1.62,1,.53.53,0,0,0,.53.35q1-.08,1,.68a6.12,6.12,0,0,1,0,1,33,33,0,0,0-.25,5.11q.24,2.95,1.4,3.44.56.25.59.67a1,1,0,0,1-.46.8,1.73,1.73,0,0,1-1,.46q-.94.08-1.65-1.16A8.87,8.87,0,0,1,98.44,64.09Zm-1.3-6.79q-1.61.13-3.49,3.31t-1.72,5.17q.11,1.4,1,1.32,1.34-.11,3.49-3t2-5.16Q98.29,57.21,97.14,57.3Z"/><path class="cls-1" d="M113.51,63.05q-.15-.1-.77.74a10.94,10.94,0,0,1-2.68,2.5,6.41,6.41,0,0,1-3.13,1.22,2.2,2.2,0,0,1-1.76-.58,2.75,2.75,0,0,1-.75-1.87,8.25,8.25,0,0,1,1.15-4.3,13.34,13.34,0,0,1,3.72-4.31,8.42,8.42,0,0,1,4.38-2,2.86,2.86,0,0,1,1.82.47l.33.22a1.48,1.48,0,0,1,.46.61,2.21,2.21,0,0,1,.25.76,1.9,1.9,0,0,1-.1.57,23.74,23.74,0,0,0-.79,3.42q-.18,1.35-.29,4.51a40.17,40.17,0,0,1-.35,4.39,9.49,9.49,0,0,1-1,3,6.15,6.15,0,0,1-2,2.28,5.09,5.09,0,0,1-2.51.88,7.73,7.73,0,0,1-4.6-1.28q-2.32-1.43-2.38-2.38,0-.6.41-.63a4.53,4.53,0,0,1,1.35.63,9.59,9.59,0,0,0,5.28,1.57,3.29,3.29,0,0,0,2.9-2.33,19,19,0,0,0,1-6.46Q113.43,63.73,113.51,63.05ZM113,56.37a5,5,0,0,0-2.52,1.24,12.58,12.58,0,0,0-2.81,3.34,6.52,6.52,0,0,0-1.23,3.57,1,1,0,0,0,1,1,5.76,5.76,0,0,0,2.76-1.31,9.93,9.93,0,0,0,2.8-3.31,6.59,6.59,0,0,0,1.06-3.21Q114,56.3,113,56.37Z"/><path class="cls-1" d="M128.18,57q-1.13.07-4.56,6.94a22.78,22.78,0,0,1-1.35,2.52,1.86,1.86,0,0,1-.75.39,3.47,3.47,0,0,1-.91.2q-.82,0-1-3.15a48,48,0,0,1,.48-6.52,19.11,19.11,0,0,0,.2-2.73q0-.8.68-.84,1.35-.06,1.44,1.89a26.92,26.92,0,0,1-.29,3.61q-.39,3.07-.37,3.73a17.57,17.57,0,0,0,2.08-3.31,23.89,23.89,0,0,1,2.86-4.43,3,3,0,0,1,2-1q.79,0,1.31,1a17.23,17.23,0,0,1,.79,5,5.62,5.62,0,0,0,.25,1.48q.18.48.25.48.57,0,2.31-4a14.16,14.16,0,0,1,1.85-3.22,2.87,2.87,0,0,1,2.1-1.17,1.5,1.5,0,0,1,1.48,1,10.31,10.31,0,0,1,.78,3,28.09,28.09,0,0,0,.73,3.68,2.89,2.89,0,0,0,1.5,2.1q.71.3.73.74a1.21,1.21,0,0,1-.55.9,1.82,1.82,0,0,1-1.05.5,2.14,2.14,0,0,1-1.8-1.12q-.82-1.16-1.39-5.12a20.88,20.88,0,0,0-.43-2.25q-.19-.66-.53-.65-.51,0-1.17,1a39.17,39.17,0,0,0-2.09,4.06,21.64,21.64,0,0,1-1.71,3.19,1.69,1.69,0,0,1-1.18.83,1.29,1.29,0,0,1-1-.38,1.9,1.9,0,0,1-.57-1q-.14-.59-.36-2.9Q128.69,57.63,128.18,57Z"/><path class="cls-1" d="M155.34,61.64q0,1.25-2.13,3.05a7.22,7.22,0,0,1-4.5,1.87,3.92,3.92,0,0,1-3.06-1.09,4.6,4.6,0,0,1-1.15-3.21,10.91,10.91,0,0,1,2.2-6.69q2.28-3.21,5.07-3.27a2,2,0,0,1,2.12,2,5,5,0,0,1-1.76,3.64,23.63,23.63,0,0,1-4.85,3.5,1,1,0,0,0-.61.87,2.25,2.25,0,0,0,.62,1.61,2.3,2.3,0,0,0,1.75.57q2.62-.06,5.29-3,.39-.41.6-.42Q155.33,61,155.34,61.64Zm-8.53-1.7q5.1-3.2,5.06-5.07,0-.73-.68-.72a3.76,3.76,0,0,0-2.49,1.71A9.53,9.53,0,0,0,146.82,59.94Z"/><path class="cls-1" d="M166.15,56.27a2,2,0,0,0-1.38.84,21.92,21.92,0,0,0-2.26,3.74,24.62,24.62,0,0,1-2.58,4.44,1.66,1.66,0,0,1-1,.55,1.25,1.25,0,0,1-1.45-1.38,9.94,9.94,0,0,1,.18-1.66,43.37,43.37,0,0,0,.61-7.78,1.86,1.86,0,0,1,.39-1q.39-.57.75-.57a1,1,0,0,1,.91.38,3.09,3.09,0,0,1,.28,1.57,34.87,34.87,0,0,1-.69,5.08,11.85,11.85,0,0,0-.23,1.61q0,.2.1.19a14,14,0,0,0,1.67-2.93,19,19,0,0,1,2.64-4.2,3.44,3.44,0,0,1,2.52-1.23,2.09,2.09,0,0,1,1.8,1,8.76,8.76,0,0,1,1,3.64,21.85,21.85,0,0,0,.65,3.75q.28.74.88.73a2.37,2.37,0,0,0,.95-.28.38.38,0,0,1,.15,0q.52,0,.53.61a1.62,1.62,0,0,1-.71,1.15,2.61,2.61,0,0,1-1.73.62,1.84,1.84,0,0,1-1.61-.81q-.57-.82-.93-4.39T166.15,56.27Z"/><path class="cls-1" d="M179.49,53.35q1.26-.09,2.37-.22a17,17,0,0,1,1.83-.11,2.47,2.47,0,0,1,1.17.18.68.68,0,0,1,.24.6q0,1-1.39,1.06-1.77.1-3.26.28a5.45,5.45,0,0,0-1.61.31,22.31,22.31,0,0,0-.76,2.9,22,22,0,0,0-.65,3.6,3.1,3.1,0,0,0,.34,1.79,1.27,1.27,0,0,0,1.06.45,5.38,5.38,0,0,0,2.93-1.56,2,2,0,0,1,1.12-.64q.52,0,.52.56,0,.88-1.71,2.27a5.4,5.4,0,0,1-3.47,1.38q-3,0-2.93-3.5a19.3,19.3,0,0,1,.64-3.89,23.31,23.31,0,0,0,.62-3.15q0-.18-.29-.19l-1.27.1q-1.56,0-1.55-1.26a.63.63,0,0,1,.72-.7l2.51,0a.58.58,0,0,0,.45-.23,6,6,0,0,0,.58-1.55q.39-1.32.69-2.61T179.56,48a1,1,0,0,1,.82.37,1.12,1.12,0,0,1,.29.69,16.12,16.12,0,0,1-.45,1.74Z"/><path class="cls-1" d="M194.31,73.64a4.21,4.21,0,0,1-2.78-1.29,3.25,3.25,0,0,1-1.3-2.13.82.82,0,0,1,.18-.48c.12-.16.21-.23.26-.23a1,1,0,0,1,.37.25q1.87,1.74,3,1.77a2,2,0,0,0,1.69-.88,7.58,7.58,0,0,0,1.09-3.39q.37-2.49.79-7.74.29-3.79.46-4.81a2.37,2.37,0,0,1,.62-1.42,1.59,1.59,0,0,1,1.13-.38,1,1,0,0,1,.66.29.86.86,0,0,1,.29.67,2.94,2.94,0,0,1-.1.6,57.13,57.13,0,0,0-1.44,10,25.53,25.53,0,0,1-.85,5.51,5.79,5.79,0,0,1-1.69,2.73A3.52,3.52,0,0,1,194.31,73.64ZM200,46.3h0a3.41,3.41,0,0,1,1,.27A3.77,3.77,0,0,1,202,47a.66.66,0,0,1,.2.56,1.67,1.67,0,0,1-.73,1.3,2,2,0,0,1-1.05.54,1.32,1.32,0,0,1-1-.54,1.58,1.58,0,0,1-.41-1Q199,46.51,200,46.3Z"/><path class="cls-1" d="M212.9,61.19a16.91,16.91,0,0,1-3.35,3.94,4.79,4.79,0,0,1-3.09,1.32,2.3,2.3,0,0,1-1.6-1,4.26,4.26,0,0,1-.72-2.92,21.55,21.55,0,0,1,1-4.68,17.87,17.87,0,0,0,.79-3.62,1.16,1.16,0,0,1,1.14-.69,1,1,0,0,1,.8.39,1.15,1.15,0,0,1,.28.76,7.5,7.5,0,0,1-.69,2.4,15.59,15.59,0,0,0-1.34,5.21q-.08,2,.85,2,1.18,0,3.09-1.89A16.81,16.81,0,0,0,213.35,57a8.37,8.37,0,0,1,.91-1.84,1,1,0,0,1,.89-.4q.83,0,.79,1.13a5.44,5.44,0,0,1-.27.88,19.17,19.17,0,0,0-.93,5q-.11,2.85.79,3.73.47.47.46.75t-.52.6a1.85,1.85,0,0,1-.91.25q-.85,0-1.33-1.32a10.26,10.26,0,0,1-.38-3.77l0-.4Q212.88,61.39,212.9,61.19Z"/><path class="cls-1" d="M225.55,64.27q0-.79-1.87-1.9a18.45,18.45,0,0,1-3.25-2.19,2.23,2.23,0,0,1-.79-1.74,4.71,4.71,0,0,1,2.62-3.91,7.91,7.91,0,0,1,4-1.41,2.38,2.38,0,0,1,1.42.41,1.41,1.41,0,0,1,.39,1.2.82.82,0,0,1-.35.63.93.93,0,0,1-.52.24,1.63,1.63,0,0,1-.52-.21,1.76,1.76,0,0,0-.5-.19,7.79,7.79,0,0,0-2.52.78q-1.91.8-2,1.93a1.61,1.61,0,0,0,.6,1.27,11.77,11.77,0,0,0,2.3,1.47,9.07,9.07,0,0,1,2.14,1.51,2.32,2.32,0,0,1,.74,1.8q-.09,1.87-2.71,2.8a13,13,0,0,1-5,.83q-2-.09-1.91-1.43a.72.72,0,0,1,.48-.66,2,2,0,0,1,.91-.18,3.69,3.69,0,0,1,.69.15,3.62,3.62,0,0,0,.65.15,10.41,10.41,0,0,0,2.92-.32A3.1,3.1,0,0,0,225.55,64.27Z"/><path class="cls-1" d="M235.42,55.21q1.26,0,2.38-.12a17,17,0,0,1,1.83,0,2.46,2.46,0,0,1,1.16.23.68.68,0,0,1,.21.61q0,1-1.43,1-1.77,0-3.27.14a5.43,5.43,0,0,0-1.62.24,22.17,22.17,0,0,0-.88,2.87,21.94,21.94,0,0,0-.8,3.57,3.1,3.1,0,0,0,.27,1.8,1.28,1.28,0,0,0,1,.5,5.38,5.38,0,0,0,3-1.43,2,2,0,0,1,1.14-.59q.52,0,.5.59,0,.88-1.8,2.19A5.4,5.4,0,0,1,233.62,68q-3-.15-2.78-3.62a19.28,19.28,0,0,1,.8-3.86,23.27,23.27,0,0,0,.75-3.12c0-.12-.09-.19-.28-.2l-1.27,0q-1.56-.08-1.5-1.32a.63.63,0,0,1,.75-.67l2.51.12a.58.58,0,0,0,.46-.21,6,6,0,0,0,.65-1.53q.44-1.3.8-2.58t1.21-1.22a1,1,0,0,1,.8.41,1.13,1.13,0,0,1,.26.7,16.31,16.31,0,0,1-.52,1.72Z"/><path class="cls-1" d="M260.55,63.73a15.29,15.29,0,0,1-3.66,3.87,5.68,5.68,0,0,1-3.43,1.26,2.23,2.23,0,0,1-1.83-1,3.91,3.91,0,0,1-.57-2.45,10.44,10.44,0,0,1,2.81-6.21q2.66-3.12,5.57-3a3.29,3.29,0,0,1,2.3,1.2l2.1-7.89a1.58,1.58,0,0,1,.73-1.06,1.75,1.75,0,0,1,.79-.24q.85,0,.78,1.55a12.83,12.83,0,0,1-.66,2,58.63,58.63,0,0,0-2,6.51,33,33,0,0,0-1.1,6.23q-.12,2.44.94,2.49a2.7,2.7,0,0,0,1.44-.38,1,1,0,0,1,.58-.19q.39,0,.37.53t-1.16,1.39a3.71,3.71,0,0,1-2.28.71q-2-.1-1.82-4Q260.46,64.4,260.55,63.73Zm-1.32-5.78q-2-.1-4,2.49A8.65,8.65,0,0,0,253,65.28q-.07,1.52.94,1.57A4.2,4.2,0,0,0,256.3,66a12.36,12.36,0,0,0,3-3.05,7.09,7.09,0,0,0,1.6-3.22,1.71,1.71,0,0,0-.44-1.13A1.55,1.55,0,0,0,259.23,57.95Z"/><path class="cls-1" d="M270.74,64.42q.13-.21.32-.6a21.72,21.72,0,0,1,1.66-2.91,19.85,19.85,0,0,1,1.62-2,9.62,9.62,0,0,1,1.59-1.43,5,5,0,0,1,1.28-.66,3.2,3.2,0,0,1,1.09-.15,2.4,2.4,0,0,1,1.7.72,2,2,0,0,1,.6,1.52,1.08,1.08,0,0,1-.27.67.86.86,0,0,1-.74.27,1.28,1.28,0,0,1-.92-.49,1.28,1.28,0,0,0-.89-.49q-1.27-.06-3.65,2.91a14.55,14.55,0,0,0-3,6.64,2.07,2.07,0,0,1-.52,1.23,1.4,1.4,0,0,1-1,.26q-.6,0-.83-.93a11.66,11.66,0,0,1-.13-3q0-.57.18-2.52a31.82,31.82,0,0,1,.46-3.71q0-.23.17-1.08a6.21,6.21,0,0,1,.27-1.29,1.55,1.55,0,0,1,.56-.66,1.35,1.35,0,0,1,.87-.28.81.81,0,0,1,.66.32,1,1,0,0,1,.2.63,5.36,5.36,0,0,1-.31,1.33,10.88,10.88,0,0,0-.39,1.31,7,7,0,0,1-.17.86,23.11,23.11,0,0,0-.37,2.75l0,.45Z"/><path class="cls-1" d="M289.15,65.62a15,15,0,0,1-3.52,3.3,5.55,5.55,0,0,1-3.11,1,2.08,2.08,0,0,1-1.59-.86,3,3,0,0,1-.6-2.06q.13-3.21,3.14-6.79t5.85-3.47A1.63,1.63,0,0,1,290.8,58a.53.53,0,0,0,.48.41q1,0,.95.8a6.07,6.07,0,0,1-.16,1,32.94,32.94,0,0,0-.86,5q-.12,3,1,3.58a.84.84,0,0,1,.51.74q0,.38-.56.74a1.73,1.73,0,0,1-1,.34q-.94,0-1.5-1.35A8.87,8.87,0,0,1,289.15,65.62Zm-.47-6.9q-1.61-.06-3.87,2.87t-2.34,4.92q-.06,1.4.87,1.44,1.34.05,3.83-2.56t2.58-4.88Q289.83,58.77,288.68,58.72Z"/><path class="cls-1" d="M304.15,66.17q-.14-.11-.84.66a10.94,10.94,0,0,1-2.91,2.23,6.41,6.41,0,0,1-3.24.91,2.2,2.2,0,0,1-1.7-.75,2.75,2.75,0,0,1-.56-1.93,8.25,8.25,0,0,1,1.57-4.17,13.34,13.34,0,0,1,4.13-3.93,8.43,8.43,0,0,1,4.55-1.59,2.86,2.86,0,0,1,1.76.64l.31.25a1.47,1.47,0,0,1,.39.65,2.21,2.21,0,0,1,.17.78,1.89,1.89,0,0,1-.15.56,23.79,23.79,0,0,0-1.12,3.32q-.31,1.32-.73,4.46a40.28,40.28,0,0,1-.78,4.33,9.48,9.48,0,0,1-1.33,2.91,6.15,6.15,0,0,1-2.21,2.07,5.09,5.09,0,0,1-2.59.63,7.73,7.73,0,0,1-4.45-1.72q-2.17-1.65-2.14-2.6,0-.6.47-.58a4.55,4.55,0,0,1,1.28.76,9.59,9.59,0,0,0,5.1,2.08,3.29,3.29,0,0,0,3.11-2,19,19,0,0,0,1.63-6.33Q304,66.84,304.15,66.17Zm.2-6.7a5,5,0,0,0-2.63,1,12.57,12.57,0,0,0-3.12,3A6.52,6.52,0,0,0,297,66.94,1,1,0,0,0,298,68a5.77,5.77,0,0,0,2.87-1,9.94,9.94,0,0,0,3.12-3,6.59,6.59,0,0,0,1.37-3.09Q305.35,59.51,304.35,59.47Z"/><path class="cls-1" d="M322.05,68.32a9.75,9.75,0,0,0,.22,2.09,1.78,1.78,0,0,1,0,.37q0,.22-.41.56a1.29,1.29,0,0,1-.86.33q-1.18,0-1.15-2.19a42.6,42.6,0,0,1,1.05-7.09,17,17,0,0,0,.35-2.08,2.83,2.83,0,0,1,.3-1.31.87.87,0,0,1,.8-.53,1.49,1.49,0,0,1,1,.32.86.86,0,0,1,.35.67,3.69,3.69,0,0,1-.19,1A45.47,45.47,0,0,0,322.33,65,21.56,21.56,0,0,0,322.05,68.32Zm1.84-13.6q-.26,0-.38-.56a3.78,3.78,0,0,0-.13-.38,3.69,3.69,0,0,1-.31-1.38,1.39,1.39,0,0,1,.6-1,1.91,1.91,0,0,1,1.3-.48,1.53,1.53,0,0,1,.79.29q.44.28.43.54a5.46,5.46,0,0,1-.32,1.36,2,2,0,0,1-1,1.28A2.46,2.46,0,0,1,323.89,54.71Z"/><path class="cls-1" d="M331.92,58.84q1.26-.09,2.37-.21a17.16,17.16,0,0,1,1.83-.11,2.46,2.46,0,0,1,1.17.18.68.68,0,0,1,.24.6q0,1-1.39,1.06-1.77.09-3.26.28a5.43,5.43,0,0,0-1.61.31,22.25,22.25,0,0,0-.76,2.9,22,22,0,0,0-.65,3.6,3.1,3.1,0,0,0,.34,1.79,1.28,1.28,0,0,0,1.06.45,5.38,5.38,0,0,0,2.93-1.55,2,2,0,0,1,1.12-.64q.53,0,.52.57,0,.88-1.71,2.26a5.4,5.4,0,0,1-3.47,1.37q-3,0-2.92-3.5a19.28,19.28,0,0,1,.64-3.89,23.25,23.25,0,0,0,.63-3.14q0-.18-.29-.19l-1.27.1q-1.56,0-1.55-1.26a.63.63,0,0,1,.73-.7l2.51,0a.58.58,0,0,0,.45-.23,6,6,0,0,0,.59-1.55q.39-1.32.69-2.61T332,53.48a1,1,0,0,1,.81.37,1.12,1.12,0,0,1,.29.69,16.17,16.17,0,0,1-.45,1.74Z"/><path class="cls-1" d="M356.93,65.65a16.92,16.92,0,0,1-3.11,4.13,4.79,4.79,0,0,1-3,1.51,2.3,2.3,0,0,1-1.66-.9,4.26,4.26,0,0,1-.9-2.87,21.56,21.56,0,0,1,.66-4.73,17.86,17.86,0,0,0,.57-3.66,1.17,1.17,0,0,1,1.09-.76,1,1,0,0,1,.83.34,1.15,1.15,0,0,1,.32.74,7.5,7.5,0,0,1-.54,2.44,15.58,15.58,0,0,0-1,5.28q0,2,1,2,1.18,0,3-2.08a16.81,16.81,0,0,0,3-5.68,8.35,8.35,0,0,1,.79-1.89,1,1,0,0,1,.86-.45q.83,0,.85,1.08a5.48,5.48,0,0,1-.21.9,19.15,19.15,0,0,0-.62,5.07q.06,2.86,1,3.68.5.44.5.72t-.48.63a1.85,1.85,0,0,1-.89.3q-.85,0-1.41-1.24a10.28,10.28,0,0,1-.61-3.73v-.4C356.92,65.92,356.92,65.79,356.93,65.65Z"/><path class="cls-1" d="M365.84,69.25a49.46,49.46,0,0,0-.79,6.22l-.22,2.32a2.25,2.25,0,0,1-.4,1q-.34.5-.64.52a1.46,1.46,0,0,1-.88-.34q-.5-.36-.51-.59a7.93,7.93,0,0,1,.21-1.87A67,67,0,0,0,364,60.56l-.07-1a2.94,2.94,0,0,1,.36-1.94,1.43,1.43,0,0,1,1.09-.66q.29,0,.58.43a2.59,2.59,0,0,1,.34,1.28,20.46,20.46,0,0,1-.09,2.88Q366,63.67,366,64a19.19,19.19,0,0,1,3.59-5.15,6,6,0,0,1,3.68-2,2.72,2.72,0,0,1,2.13.81,3.25,3.25,0,0,1,1,2.24,10.31,10.31,0,0,1-2.66,7.38q-2.87,3.41-5.76,3.56a1.68,1.68,0,0,1-1.16-.3A4.12,4.12,0,0,1,365.84,69.25Zm7-10.22q-1.72.09-4.08,3.44t-2.27,5.15a1.15,1.15,0,0,0,.55.83,1.92,1.92,0,0,0,1.29.35q1.74-.09,3.87-2.79a7.77,7.77,0,0,0,2-5.19,2.26,2.26,0,0,0-.43-1.35A1.08,1.08,0,0,0,372.88,59Z"/><path class="cls-1" d="M72.4,30.58q1.24-.23,2.33-.48a17.3,17.3,0,0,1,1.81-.31,2.47,2.47,0,0,1,1.18,0,.68.68,0,0,1,.31.57q.1,1-1.26,1.21-1.75.3-3.21.65a5.42,5.42,0,0,0-1.56.49,22.28,22.28,0,0,0-.43,3,22,22,0,0,0-.24,3.65,3.1,3.1,0,0,0,.54,1.74,1.27,1.27,0,0,0,1.1.33,5.38,5.38,0,0,0,2.73-1.87,2,2,0,0,1,1-.76q.52-.05.58.5.09.87-1.44,2.44a5.4,5.4,0,0,1-3.29,1.75q-2.94.31-3.3-3.15a19.33,19.33,0,0,1,.2-3.94,23.22,23.22,0,0,0,.26-3.19c0-.12-.12-.17-.31-.15l-1.25.24q-1.55.16-1.69-1.07a.63.63,0,0,1,.64-.78l2.5-.27a.58.58,0,0,0,.42-.28,6,6,0,0,0,.41-1.61q.24-1.36.39-2.67t1-1.4a1,1,0,0,1,.85.28,1.13,1.13,0,0,1,.36.65A16.11,16.11,0,0,1,72.83,28Z"/><path class="cls-1" d="M84,42.41a3.47,3.47,0,0,1-2.86-1,4.66,4.66,0,0,1-1.37-3A10.81,10.81,0,0,1,81.27,32q1.83-3.24,4.77-3.51a3.88,3.88,0,0,1,3.29,1.2,5.51,5.51,0,0,1,1.54,3.45,8.51,8.51,0,0,1-2,6.09A7.18,7.18,0,0,1,84,42.41Zm-2.12-4.55a3.57,3.57,0,0,0,.7,2,1.58,1.58,0,0,0,1.44.65,5.11,5.11,0,0,0,3.45-2.32,6.41,6.41,0,0,0,1.42-4.59,4,4,0,0,0-.92-2.36,2.24,2.24,0,0,0-2-.76q-2,.18-3.14,2.71A9.14,9.14,0,0,0,81.84,37.86Z"/><path class="cls-1" d="M106.6,34.89q.11-.24.26-.65a22.61,22.61,0,0,1,1.38-3.2,20.63,20.63,0,0,1,1.45-2.25,10,10,0,0,1,1.48-1.66,5.19,5.19,0,0,1,1.25-.83,3.35,3.35,0,0,1,1.11-.28,2.5,2.5,0,0,1,1.84.54,2.09,2.09,0,0,1,.8,1.5,1.13,1.13,0,0,1-.2.73.9.9,0,0,1-.73.37,1.33,1.33,0,0,1-1-.4,1.33,1.33,0,0,0-1-.4q-1.32.09-3.43,3.44A15.14,15.14,0,0,0,107.45,39a2.15,2.15,0,0,1-.39,1.34,1.45,1.45,0,0,1-1,.38q-.62,0-1-.86a12.11,12.11,0,0,1-.49-3.1q0-.59-.11-2.63a33.28,33.28,0,0,1,0-3.88q0-.24.05-1.14a6.45,6.45,0,0,1,.13-1.37,1.61,1.61,0,0,1,.5-.75,1.4,1.4,0,0,1,.87-.39.84.84,0,0,1,.72.25,1,1,0,0,1,.28.62,5.57,5.57,0,0,1-.16,1.41,11.33,11.33,0,0,0-.25,1.4,7.41,7.41,0,0,1-.08.91,24,24,0,0,0-.06,2.88l0,.47Z"/><path class="cls-1" d="M128.28,34.35q.07,1.29-2.12,3.24a7.51,7.51,0,0,1-4.63,2.08,4.07,4.07,0,0,1-3.21-1,4.78,4.78,0,0,1-1.29-3.3,11.35,11.35,0,0,1,2.08-7q2.27-3.4,5.18-3.55a2.09,2.09,0,0,1,2.27,2,5.16,5.16,0,0,1-1.72,3.84,24.58,24.58,0,0,1-4.94,3.78,1,1,0,0,0-.61.92,2.33,2.33,0,0,0,.7,1.65,2.38,2.38,0,0,0,1.83.54q2.73-.14,5.41-3.31.4-.44.61-.45Q128.25,33.7,128.28,34.35Zm-8.92-1.51q5.21-3.48,5.1-5.42,0-.76-.73-.72-1.17.06-2.54,1.85A9.89,9.89,0,0,0,119.37,32.84Z"/><path class="cls-1" d="M140.32,28.14q-1.18.06-4.83,7.15A23.85,23.85,0,0,1,134,37.9a2,2,0,0,1-.78.4,3.65,3.65,0,0,1-1,.2q-.85,0-1-3.29a50.06,50.06,0,0,1,.59-6.78,19.78,19.78,0,0,0,.24-2.84q0-.84.72-.86,1.41,0,1.47,2a28,28,0,0,1-.35,3.75q-.45,3.19-.44,3.87a18.27,18.27,0,0,0,2.2-3.41,24.83,24.83,0,0,1,3-4.57,3.11,3.11,0,0,1,2.08-1q.82,0,1.35,1.06a17.94,17.94,0,0,1,.76,5.25,5.85,5.85,0,0,0,.24,1.54q.18.5.26.5.6,0,2.46-4.14a14.73,14.73,0,0,1,2-3.33,3,3,0,0,1,2.2-1.19,1.56,1.56,0,0,1,1.53,1,10.7,10.7,0,0,1,.77,3.12,29.16,29.16,0,0,0,.71,3.84,3,3,0,0,0,1.54,2.2q.73.32.75.78a1.26,1.26,0,0,1-.58.93,1.89,1.89,0,0,1-1.1.5,2.23,2.23,0,0,1-1.85-1.19q-.84-1.22-1.37-5.34a21.73,21.73,0,0,0-.42-2.35q-.19-.69-.54-.68-.53,0-1.23,1.05a41,41,0,0,0-2.22,4.2,22.49,22.49,0,0,1-1.82,3.29,1.76,1.76,0,0,1-1.24.85,1.34,1.34,0,0,1-1-.41,2,2,0,0,1-.58-1q-.13-.61-.34-3Q140.85,28.78,140.32,28.14Z"/><path class="cls-1" d="M161.4,38.34A3.61,3.61,0,0,1,158.52,37a4.84,4.84,0,0,1-1.16-3.25,11.23,11.23,0,0,1,2.14-6.48q2.17-3.2,5.24-3.23a4,4,0,0,1,3.31,1.53,5.73,5.73,0,0,1,1.3,3.71,8.85,8.85,0,0,1-2.55,6.14Q164.22,38.31,161.4,38.34Zm-1.81-4.9a3.72,3.72,0,0,0,.56,2.09,1.64,1.64,0,0,0,1.44.8,5.32,5.32,0,0,0,3.78-2.11,6.67,6.67,0,0,0,1.86-4.63,4.1,4.1,0,0,0-.75-2.53,2.33,2.33,0,0,0-2-1q-2,0-3.49,2.54A9.5,9.5,0,0,0,159.59,33.44Z"/><path class="cls-1" d="M174.75,37.79A15.67,15.67,0,0,0,173.69,34q-2.06-5.74-2.05-8,0-1.79,1.2-1.78T174,25.82a18.55,18.55,0,0,0,.07,2,20.7,20.7,0,0,0,.59,2.58,36.55,36.55,0,0,0,1.12,3.48q.31.84.45,1.28.27-.41.69-1.11,2.26-3.75,3.59-5.77a25.44,25.44,0,0,1,2.18-2.95,5.12,5.12,0,0,1,1.24-1.1,1.87,1.87,0,0,1,.8-.18,1,1,0,0,1,.78.36,1.26,1.26,0,0,1,.28.81q0,.6-1,1.29a15,15,0,0,0-2.9,3.3,62.47,62.47,0,0,0-4.15,6.74q-1.14,2.07-1.75,2.07T174.75,37.79Z"/><path class="cls-1" d="M197.42,33.65q0,1.29-2.35,3.08a7.51,7.51,0,0,1-4.77,1.73,4.08,4.08,0,0,1-3.13-1.27,4.78,4.78,0,0,1-1-3.39,11.35,11.35,0,0,1,2.59-6.86q2.52-3.22,5.42-3.17a2.09,2.09,0,0,1,2.11,2.16,5.16,5.16,0,0,1-2,3.71,24.56,24.56,0,0,1-5.2,3.41,1,1,0,0,0-.68.88,2.34,2.34,0,0,0,.58,1.7,2.39,2.39,0,0,0,1.79.67q2.73.05,5.63-2.91.43-.41.64-.41Q197.44,33,197.42,33.65Zm-8.78-2.16q5.45-3.09,5.49-5,0-.76-.67-.78-1.17,0-2.67,1.66A9.89,9.89,0,0,0,188.64,31.49Z"/><path class="cls-1" d="M218.62,34.3a15,15,0,0,1-3.53,3.29,5.55,5.55,0,0,1-3.11,1,2.08,2.08,0,0,1-1.59-.86,3,3,0,0,1-.6-2.07q.14-3.21,3.16-6.79t5.85-3.46a1.63,1.63,0,0,1,1.47,1.24.53.53,0,0,0,.48.41q1,0,.94.8a6.06,6.06,0,0,1-.17,1,33,33,0,0,0-.88,5q-.13,3,1,3.58a.84.84,0,0,1,.51.74q0,.38-.56.74a1.73,1.73,0,0,1-1,.34q-.94,0-1.49-1.36A8.87,8.87,0,0,1,218.62,34.3Zm-.45-6.9q-1.61-.07-3.87,2.86t-2.35,4.91q-.06,1.4.87,1.44,1.34.06,3.84-2.55t2.59-4.87Q219.32,27.45,218.17,27.4Z"/><path class="cls-1" d="M378,73.49c-30,3.64-60.57,2.37-90.71.72-30.49-1.66-60.94-4.23-91.48-4.84A948,948,0,0,0,89.52,73.23c-8.12.75-16.78.92-24.72,2.83-6.12,1.47-10.53,6-14.87,10.33-4.87,4.81-8.83,10.08-11,16.63-2.63,7.87-3.06,16.35-3.86,24.54-3.46,35.13-5.12,69.65-1.5,104.84.1,1,3,.37,2.9-.78-3.09-30.06-2.63-59.77.12-89.82C37.31,133.53,38,125.24,39,117c.9-7.83,2.32-15.83,6.79-22.51,4.1-6.13,12-15.08,19.44-16.88,8.55-2.08,18.11-2.16,26.87-2.94a940.65,940.65,0,0,1,104.6-3.52c28.75.63,57.42,3,86.12,4.61,31.5,1.78,63.43,3.24,94.84-.57,1.44-.17,2.38-1.94.37-1.69Z"/></g></svg>