<svg id="curves" xmlns="http://www.w3.org/2000/svg" viewBox="0 0 463 179"><defs><style>.cls-1{fill:#fff;}</style></defs><title>guide-playhead-ru</title><g id="плейхед"><path class="cls-1" d="M54.14,131.38c-6.4-2.57-12.52-4.34-19.31-2.21-5.4,1.7-10.23,5.19-14.44,8.89s-8.33,8.4-7.91,14.28c.35,4.88,4.25,11.39,8.38,14,5.76,3.61,15,1.94,21.4,2,4.17,0,10,1.13,13.07-2.48,3.46-4,4.22-11.1,4-16.14a32.24,32.24,0,0,0-6.64-18.38c-.7-.93-3.49.13-2.67,1.21a31.05,31.05,0,0,1,5.74,25.19c-.45,2.11-1,5.06-2.4,6.75-2.31,2.83-6.85,1.94-10.07,1.93-5.32,0-11.66.88-16.83-.41s-9.2-6.73-10.6-11.85c-1.51-5.51,1.35-10.07,5.19-13.81a42.45,42.45,0,0,1,12.39-8.66c6.59-2.81,12.66-1,19,1.52,1.08.43,3.38-1.12,1.72-1.79Z"/><path class="cls-1" d="M53.73,132.09C91,89.57,144.29,67.51,195.49,46.62c1.83-.75.22-2.45-1.32-1.83C142.49,65.88,88.93,88.24,51.28,131.15c-1.22,1.39,1.53,2,2.45.94Z"/><path class="cls-1" d="M52.86,119.1l-2.67,10.33c-.37,1.44,2.6,1.13,2.94-.2L55.8,118.9c.37-1.44-2.6-1.13-2.94.2Z"/><path class="cls-1" d="M51.13,132.26H67.46c1.22,0,3-1.85,1.07-1.85H52.2c-1.22,0-3,1.85-1.07,1.85Z"/><path class="cls-1" d="M194.83,46.67c83.76,1.48,167.27,4.4,250.76,11.57,1.19.1,6.57-2,3.79-2.25-83.5-7.17-167-10.1-250.76-11.57-1.17,0-6.54,2.2-3.79,2.25Z"/><path class="cls-1" d="M211.13,63.34a4.9,4.9,0,0,0-.79-2,3.17,3.17,0,0,0-1.28-.9,4,4,0,0,0-1.44-.33,2.23,2.23,0,0,0-.73.18,4.86,4.86,0,0,0-.74.34,1.33,1.33,0,0,1-.66.2q-.35,0-.35-.37a2,2,0,0,1,.61-1.09,2.66,2.66,0,0,1,2.11-.67h.4a4.57,4.57,0,0,1,2.64.82,4.24,4.24,0,0,1,1.6,2.27,12.9,12.9,0,0,1,.44,3.93,10.37,10.37,0,0,1-1.11,4,8.87,8.87,0,0,1-2.73,3.57,5.69,5.69,0,0,1-3.48,1.18,1.6,1.6,0,0,1-1.23-.78,3,3,0,0,1-.56-1.9,7.27,7.27,0,0,1,1-3.67,10,10,0,0,1,2.08-2.56A8.42,8.42,0,0,1,210,64a7.55,7.55,0,0,0,.9-.29A.34.34,0,0,0,211.13,63.34Zm.23,1.88a7.36,7.36,0,0,0-3.27,1.33,7.2,7.2,0,0,0-2.62,5.33,2,2,0,0,0,.13.74q.13.35.31.35a3.14,3.14,0,0,0,1.24-.22,5.18,5.18,0,0,0,1.38-1A8.32,8.32,0,0,0,210,69.9a9.51,9.51,0,0,0,1-2.15,7.12,7.12,0,0,0,.34-1.59Q211.36,65.6,211.36,65.21Z"/><path class="cls-1" d="M219.75,64.79q2.07.88,2,4a6.28,6.28,0,0,1-1.54,4.12A4.21,4.21,0,0,1,217,74.68a2.78,2.78,0,0,1-2.4-1.27,6.25,6.25,0,0,1-.81-3.62A17.73,17.73,0,0,1,214.87,64a11.38,11.38,0,0,1,2.57-4.39,4.37,4.37,0,0,1,3.06-1.45,1.94,1.94,0,0,1,1.48.63,2.4,2.4,0,0,1,.54,1.7,4,4,0,0,1-.78,2A10.35,10.35,0,0,1,219.75,64.79Zm.34,4.27a4.23,4.23,0,0,0-.47-2.21q-.49-.84-1.11-.85a12,12,0,0,0-2.07,1.39q-.48.36-.94.67a10.15,10.15,0,0,0-.16,1.74,5,5,0,0,0,.47,2.53,1.54,1.54,0,0,0,1.37.87,2.38,2.38,0,0,0,2.06-1.26,5.23,5.23,0,0,0,.85-2.83Zm-4.36-2.66a25.27,25.27,0,0,0,4.43-3.84,3.62,3.62,0,0,0,.86-1.83q0-1.08-.85-1.09-1.2,0-2.45,1.78A14.74,14.74,0,0,0,215.73,66.4Z"/><path class="cls-1" d="M226.23,74.72a2.62,2.62,0,0,1-2.06-1,3.51,3.51,0,0,1-.78-2.38,8.14,8.14,0,0,1,1.68-4.65,4.59,4.59,0,0,1,3.86-2.24,2.92,2.92,0,0,1,2.37,1.17,4.15,4.15,0,0,1,.87,2.71,6.42,6.42,0,0,1-2,4.4A5.41,5.41,0,0,1,226.23,74.72ZM225,71.14a2.69,2.69,0,0,0,.36,1.52,1.19,1.19,0,0,0,1,.61,3.85,3.85,0,0,0,2.77-1.46,4.83,4.83,0,0,0,1.44-3.32,3,3,0,0,0-.5-1.84,1.69,1.69,0,0,0-1.41-.73,3,3,0,0,0-2.57,1.77A6.88,6.88,0,0,0,225,71.14Z"/><path class="cls-1" d="M240.76,70.54a12.74,12.74,0,0,1-2.47,3,3.61,3.61,0,0,1-2.31,1,1.73,1.73,0,0,1-1.22-.73,3.2,3.2,0,0,1-.58-2.19,16.23,16.23,0,0,1,.65-3.54,13.47,13.47,0,0,0,.55-2.74.88.88,0,0,1,.85-.53.77.77,0,0,1,.61.28.87.87,0,0,1,.22.57,5.64,5.64,0,0,1-.49,1.82,11.74,11.74,0,0,0-.94,3.94q0,1.51.67,1.52.89,0,2.3-1.47A12.66,12.66,0,0,0,241,67.35a6.32,6.32,0,0,1,.66-1.4.78.78,0,0,1,.66-.31q.63,0,.61.84a4.11,4.11,0,0,1-.19.67,14.43,14.43,0,0,0-.63,3.79q0,2.15.65,2.8.36.35.36.56t-.38.46a1.4,1.4,0,0,1-.68.2q-.64,0-1-1a7.74,7.74,0,0,1-.34-2.83v-.3C240.74,70.75,240.75,70.65,240.76,70.54Zm2.87-9.41a1.38,1.38,0,0,1-.11.43,3.21,3.21,0,0,1-.28.56,4.36,4.36,0,0,1-.44.58,2.71,2.71,0,0,1-.57.49,2.93,2.93,0,0,1-.53.28,4.84,4.84,0,0,1-.65.21,5.7,5.7,0,0,1-.7.13,4.79,4.79,0,0,1-.68,0,4,4,0,0,1-1-.15,3.84,3.84,0,0,1-.89-.37,3.53,3.53,0,0,1-.73-.55,3.1,3.1,0,0,1-.54-.7,1.81,1.81,0,0,1-.12-.27,3.19,3.19,0,0,1-.09-.31q0-.15-.06-.27a1,1,0,0,1,0-.16,1.07,1.07,0,0,1,.07-.4.75.75,0,0,1,.17-.25.51.51,0,0,1,.22-.13.81.81,0,0,1,.23,0,.92.92,0,0,1,.46.12.39.39,0,0,1,.2.33,3.11,3.11,0,0,0,.15.79,1.62,1.62,0,0,0,.39.63,2,2,0,0,0,.7.45,2.9,2.9,0,0,0,1,.19l.35,0,.4-.07.39-.12a1.73,1.73,0,0,0,.33-.16,1.66,1.66,0,0,0,.39-.34,2.68,2.68,0,0,0,.28-.42,3.43,3.43,0,0,0,.2-.44q.08-.22.14-.4a.74.74,0,0,1,.27-.39.63.63,0,0,1,.36-.11.66.66,0,0,1,.51.2A.9.9,0,0,1,243.62,61.13Z"/><path class="cls-1" d="M252.56,68.82a15.42,15.42,0,0,0,.38-2.3q.21-1.69,1.12-1.66a.66.66,0,0,1,.73.76,3.91,3.91,0,0,1-.15.71,21.65,21.65,0,0,0-.83,4.9q-.05,2.15.64,2.8c.24.23.36.42.35.56s-.13.32-.38.46a1.39,1.39,0,0,1-.68.19q-1.43,0-1.32-4.46c0-.2-.07-.3-.21-.3q-.86,0-2.12,0a10.15,10.15,0,0,0-1.79.21,1.7,1.7,0,0,0-.67.27,1.63,1.63,0,0,0-.24.7,7.15,7.15,0,0,0-.13,1.19l0,1.13q0,1-.93,1t-.73-1a10.31,10.31,0,0,1,.21-1.63q.35-1.81.76-6.25a3,3,0,0,1,.12-.73A.9.9,0,0,1,247,65a1,1,0,0,1,.6-.17q.66,0,.65.56c0,.06-.08.51-.25,1.37a12.84,12.84,0,0,0-.27,2c0,.34.1.51.34.51a24.28,24.28,0,0,0,2.56-.17A6.24,6.24,0,0,0,252.56,68.82Z"/><path class="cls-1" d="M259.38,75.46a2.61,2.61,0,0,1-2-1,3.51,3.51,0,0,1-.75-2.38,8.14,8.14,0,0,1,1.73-4.63,4.6,4.6,0,0,1,3.88-2.19,2.92,2.92,0,0,1,2.35,1.2,4.15,4.15,0,0,1,.84,2.72,6.41,6.41,0,0,1-2,4.38A5.41,5.41,0,0,1,259.38,75.46Zm-1.18-3.59a2.7,2.7,0,0,0,.35,1.53,1.19,1.19,0,0,0,1,.62,3.86,3.86,0,0,0,2.79-1.43,4.83,4.83,0,0,0,1.47-3.3,3,3,0,0,0-.48-1.85,1.69,1.69,0,0,0-1.4-.74,3,3,0,0,0-2.59,1.74A6.89,6.89,0,0,0,258.2,71.87Z"/><path class="cls-1" d="M274,71.44a12.72,12.72,0,0,1-2.5,3,3.6,3.6,0,0,1-2.32,1,1.73,1.73,0,0,1-1.21-.75,3.21,3.21,0,0,1-.56-2.2,16.23,16.23,0,0,1,.69-3.53,13.31,13.31,0,0,0,.57-2.73.88.88,0,0,1,.85-.53.77.77,0,0,1,.61.29.86.86,0,0,1,.21.57,5.63,5.63,0,0,1-.51,1.81,11.77,11.77,0,0,0-1,3.93q0,1.51.65,1.53.89,0,2.32-1.44a12.66,12.66,0,0,0,2.5-4.15,6.31,6.31,0,0,1,.67-1.39.78.78,0,0,1,.67-.31q.62,0,.6.85a4,4,0,0,1-.2.67,14.42,14.42,0,0,0-.67,3.79q-.07,2.15.62,2.81.36.35.35.56t-.39.46a1.39,1.39,0,0,1-.68.19q-.64,0-1-1a7.72,7.72,0,0,1-.31-2.83v-.3C274,71.64,274,71.54,274,71.44Zm3-9.38a1.41,1.41,0,0,1-.11.43,3.27,3.27,0,0,1-.29.56,4.46,4.46,0,0,1-.44.58,2.77,2.77,0,0,1-.58.49,2.9,2.9,0,0,1-.54.27,4.87,4.87,0,0,1-.65.21,5.91,5.91,0,0,1-.7.12,4.74,4.74,0,0,1-.68,0,4.13,4.13,0,0,1-1-.16,3.83,3.83,0,0,1-.89-.38,3.53,3.53,0,0,1-.73-.56,3.11,3.11,0,0,1-.53-.71,2,2,0,0,1-.12-.27q-.05-.16-.09-.31c0-.1,0-.19-.06-.27a.83.83,0,0,1,0-.16,1,1,0,0,1,.08-.4.76.76,0,0,1,.17-.25.53.53,0,0,1,.22-.13.78.78,0,0,1,.23,0,.91.91,0,0,1,.46.12.39.39,0,0,1,.19.33,3.09,3.09,0,0,0,.15.79,1.64,1.64,0,0,0,.38.64,2,2,0,0,0,.69.46,2.91,2.91,0,0,0,1,.2l.34,0,.4-.07.39-.12a1.74,1.74,0,0,0,.33-.16A1.67,1.67,0,0,0,275,63a2.65,2.65,0,0,0,.29-.41,3.32,3.32,0,0,0,.21-.44l.15-.4a.73.73,0,0,1,.28-.39.62.62,0,0,1,.36-.11.66.66,0,0,1,.51.21A.9.9,0,0,1,276.94,62.06Z"/><path class="cls-1" d="M288.38,71.1a6.19,6.19,0,0,0,4-2.66,7.86,7.86,0,0,1,1.48-1.55,2.08,2.08,0,0,1,1.32-.42.83.83,0,0,1,.54.27.77.77,0,0,1,.25.6q0,.45-.88.68a2.39,2.39,0,0,0-.86.44A18.48,18.48,0,0,0,292.68,70a6.68,6.68,0,0,1-1.6,1.31s-.07,0-.07.06,0,0,.08.08a4.57,4.57,0,0,1,1.36,1.44A9.44,9.44,0,0,0,294,74.81a2.07,2.07,0,0,0,1.23.44h.3c.21,0,.32.09.31.3a1,1,0,0,1-.42.71,1.86,1.86,0,0,1-1.32.33,2,2,0,0,1-1.33-.65,9.71,9.71,0,0,1-1.43-2,6.29,6.29,0,0,0-.86-1.25,1.31,1.31,0,0,0-.92-.45,3.78,3.78,0,0,0-.69.16c-.38.11-.6.22-.65.33a6,6,0,0,0-.15,1.22Q288,75,288,75.62a.78.78,0,0,1-.35.59,1.07,1.07,0,0,1-.71.24.81.81,0,0,1-.6-.25.66.66,0,0,1-.2-.47,10.79,10.79,0,0,1,.31-1.55q.52-2.23,1.16-7.36a1.53,1.53,0,0,1,.41-.88,1,1,0,0,1,.79-.37.47.47,0,0,1,.39.27,1.25,1.25,0,0,1,.14.67,2.92,2.92,0,0,1-.14.73A19.22,19.22,0,0,0,288.38,71.1Z"/><path class="cls-1" d="M302.58,69q-.22,0-.45.41a44.39,44.39,0,0,1-3.09,5c-.06.08-.13.19-.23.34q-1.23,2-1.77,2c-.48,0-.71-.26-.69-.72a3.12,3.12,0,0,1,1-1.66A25.47,25.47,0,0,0,299.73,71q1.51-2.38,2.46-4.28a.53.53,0,0,1,.51-.33,1.83,1.83,0,0,1,.49.14.93.93,0,0,1,.44.29,11,11,0,0,1,.38,1.73q.9,5.68,2.1,6.78a2.41,2.41,0,0,1,.34.36.47.47,0,0,1,0,.25.82.82,0,0,1-.21.51.87.87,0,0,1-.37.28,2.57,2.57,0,0,1-.72,0q-.19,0-.86-1t-1.44-5.25A10.35,10.35,0,0,0,302.58,69Z"/><path class="cls-1" d="M315,73a12.72,12.72,0,0,1-2.54,3,3.6,3.6,0,0,1-2.33,1,1.73,1.73,0,0,1-1.2-.76,3.21,3.21,0,0,1-.53-2.21,16.24,16.24,0,0,1,.74-3.52,13.56,13.56,0,0,0,.61-2.72.88.88,0,0,1,.86-.51.77.77,0,0,1,.6.3.86.86,0,0,1,.2.58,5.63,5.63,0,0,1-.53,1.81,11.74,11.74,0,0,0-1,3.92q-.07,1.51.63,1.54.89,0,2.34-1.41a12.66,12.66,0,0,0,2.55-4.12,6.32,6.32,0,0,1,.69-1.38.78.78,0,0,1,.67-.3q.62,0,.59.85a4.16,4.16,0,0,1-.2.66,14.42,14.42,0,0,0-.72,3.78q-.1,2.15.58,2.81.35.36.34.57t-.39.45a1.4,1.4,0,0,1-.68.18q-.64,0-1-1a7.73,7.73,0,0,1-.27-2.84v-.3C315,73.24,315,73.14,315,73Z"/><path class="cls-1" d="M321.89,72.52a6.19,6.19,0,0,0,4-2.62,7.86,7.86,0,0,1,1.5-1.53,2.1,2.1,0,0,1,1.32-.41.83.83,0,0,1,.54.28.77.77,0,0,1,.25.6q0,.45-.89.67a2.42,2.42,0,0,0-.87.43,18.7,18.7,0,0,0-1.57,1.51,6.66,6.66,0,0,1-1.62,1.29s-.07,0-.07.06,0,.05.08.08a4.58,4.58,0,0,1,1.35,1.46,9.41,9.41,0,0,0,1.53,2,2.07,2.07,0,0,0,1.22.45h.3q.32,0,.31.3a1.05,1.05,0,0,1-.43.71,1.86,1.86,0,0,1-1.32.31,2,2,0,0,1-1.33-.67,9.76,9.76,0,0,1-1.41-2,6.3,6.3,0,0,0-.85-1.26,1.32,1.32,0,0,0-.92-.46,3.81,3.81,0,0,0-.69.15q-.58.16-.66.32a6.08,6.08,0,0,0-.16,1.22q-.08,1.05-.11,1.69a.78.78,0,0,1-.35.59,1.07,1.07,0,0,1-.71.23.81.81,0,0,1-.59-.25.67.67,0,0,1-.2-.47,11.08,11.08,0,0,1,.32-1.55q.55-2.22,1.24-7.35a1.53,1.53,0,0,1,.42-.88,1,1,0,0,1,.79-.36.47.47,0,0,1,.39.28,1.24,1.24,0,0,1,.13.67,2.94,2.94,0,0,1-.15.73A19.23,19.23,0,0,0,321.89,72.52Z"/><path class="cls-1" d="M345.66,67.87a4.89,4.89,0,0,0-.71-2,3.18,3.18,0,0,0-1.24-1,4,4,0,0,0-1.42-.39,2.26,2.26,0,0,0-.74.15,5,5,0,0,0-.76.3,1.32,1.32,0,0,1-.67.17q-.35,0-.33-.39a2,2,0,0,1,.66-1.06,2.66,2.66,0,0,1,2.14-.58l.39,0a4.57,4.57,0,0,1,2.6.93,4.24,4.24,0,0,1,1.51,2.33,12.9,12.9,0,0,1,.27,3.95,10.37,10.37,0,0,1-1.28,4,8.88,8.88,0,0,1-2.88,3.45,5.69,5.69,0,0,1-3.53,1,1.6,1.6,0,0,1-1.2-.83A3,3,0,0,1,338,76a7.27,7.27,0,0,1,1.11-3.63,10,10,0,0,1,2.19-2.47,8.44,8.44,0,0,1,3.22-1.43,7.61,7.61,0,0,0,.92-.25A.34.34,0,0,0,345.66,67.87Zm.15,1.89A7.36,7.36,0,0,0,342.48,71a7.2,7.2,0,0,0-2.84,5.21,2,2,0,0,0,.1.75q.12.35.29.36a3.14,3.14,0,0,0,1.25-.17,5.17,5.17,0,0,0,1.42-.92,8.32,8.32,0,0,0,1.57-1.8,9.52,9.52,0,0,0,1.07-2.11,7.13,7.13,0,0,0,.4-1.58Q345.8,70.15,345.81,69.76Z"/><path class="cls-1" d="M353.58,71.54q-.22,0-.46.4a43.81,43.81,0,0,1-3.17,5l-.23.34q-1.26,2-1.8,2-.72,0-.68-.73a3.12,3.12,0,0,1,1-1.65,25.53,25.53,0,0,0,2.47-3.33q1.55-2.36,2.53-4.24a.53.53,0,0,1,.52-.32,1.78,1.78,0,0,1,.48.15.92.92,0,0,1,.44.3,10.9,10.9,0,0,1,.35,1.73q.8,5.69,2,6.81a2.35,2.35,0,0,1,.33.36.46.46,0,0,1,0,.25.82.82,0,0,1-.21.51.88.88,0,0,1-.37.28,2.53,2.53,0,0,1-.72,0q-.19,0-.84-1t-1.35-5.28A10.38,10.38,0,0,0,353.58,71.54Z"/><path class="cls-1" d="M368.06,70.29a3.74,3.74,0,0,1-.45,1.07A12.46,12.46,0,0,0,366.8,74a21.3,21.3,0,0,0-.53,3.26,13.13,13.13,0,0,0,0,1.48c0,.29,0,.54,0,.74s-.1.21-.29.3a1,1,0,0,1-.5.14q-.57,0-.71-.3a2.28,2.28,0,0,1-.1-1.07l.26-3q-1.45,1.06-2.07,1.58t-1,.76A12.08,12.08,0,0,0,360,79.56a1.17,1.17,0,0,1-.3.21.65.65,0,0,1-.27.1.75.75,0,0,1-.63-.42,1.27,1.27,0,0,1-.21-.6q0-.23,1-1a6.12,6.12,0,0,1,.52-.36,21.56,21.56,0,0,0,2.83-2l-1-.05a3.06,3.06,0,0,1-1.15-.48,1.61,1.61,0,0,1-.78-.89,2.84,2.84,0,0,1-.1-.89,3,3,0,0,1,1.57-2.31A8.15,8.15,0,0,1,365,69.62a4.86,4.86,0,0,0,.8-.06l.64-.06a2.63,2.63,0,0,1,.44.12l.31,0a1.12,1.12,0,0,1,.58.22A.8.8,0,0,1,368.06,70.29Zm-1.9.79c-.06-.13-.13-.19-.22-.2a6.4,6.4,0,0,0-2.91.63q-1.62.71-1.69,1.86a.68.68,0,0,0,.37.59,2.35,2.35,0,0,0,1.16.31,6.5,6.5,0,0,0,2.13-.14,1.08,1.08,0,0,0,.39-.58Z"/><path class="cls-1" d="M211.1,88a4.89,4.89,0,0,0-.79-2,3.17,3.17,0,0,0-1.28-.9,4,4,0,0,0-1.44-.33,2.25,2.25,0,0,0-.73.18,5,5,0,0,0-.74.34,1.33,1.33,0,0,1-.66.2q-.35,0-.34-.37a2,2,0,0,1,.61-1.09,2.66,2.66,0,0,1,2.11-.67h.4a4.58,4.58,0,0,1,2.64.82,4.24,4.24,0,0,1,1.6,2.27,12.9,12.9,0,0,1,.43,3.93,10.37,10.37,0,0,1-1.11,4A8.88,8.88,0,0,1,209.06,98a5.69,5.69,0,0,1-3.49,1.18,1.6,1.6,0,0,1-1.23-.78,3,3,0,0,1-.56-1.9,7.27,7.27,0,0,1,1-3.67,10,10,0,0,1,2.08-2.56A8.42,8.42,0,0,1,210,88.73a7.8,7.8,0,0,0,.9-.29A.34.34,0,0,0,211.1,88Zm.22,1.88a7.36,7.36,0,0,0-3.27,1.33,7.2,7.2,0,0,0-2.62,5.33,2,2,0,0,0,.13.74q.13.35.31.35a3.12,3.12,0,0,0,1.24-.22,5.15,5.15,0,0,0,1.38-1A8.3,8.3,0,0,0,210,94.6a9.5,9.5,0,0,0,1-2.15,7.18,7.18,0,0,0,.34-1.59C211.32,90.49,211.33,90.18,211.32,89.92Z"/><path class="cls-1" d="M219.73,89.52q2.07.88,2,4a6.28,6.28,0,0,1-1.56,4.12,4.2,4.2,0,0,1-3.25,1.71,2.79,2.79,0,0,1-2.4-1.28,6.26,6.26,0,0,1-.8-3.62,17.73,17.73,0,0,1,1.11-5.77,11.38,11.38,0,0,1,2.59-4.38,4.36,4.36,0,0,1,3.07-1.44,1.94,1.94,0,0,1,1.48.64,2.41,2.41,0,0,1,.53,1.71,4,4,0,0,1-.79,2A10.32,10.32,0,0,1,219.73,89.52Zm.33,4.27a4.23,4.23,0,0,0-.47-2.22q-.49-.85-1.11-.86a12,12,0,0,0-2.08,1.38q-.48.36-.94.66a10.16,10.16,0,0,0-.17,1.73,5,5,0,0,0,.46,2.53,1.54,1.54,0,0,0,1.37.87,2.38,2.38,0,0,0,2.07-1.25,5.23,5.23,0,0,0,.87-2.83Zm-4.35-2.67a25.25,25.25,0,0,0,4.45-3.82,3.62,3.62,0,0,0,.87-1.83q0-1.08-.84-1.09-1.2,0-2.46,1.77A14.76,14.76,0,0,0,215.71,91.12Z"/><path class="cls-1" d="M230.09,95.13a12.74,12.74,0,0,1-2.48,3,3.61,3.61,0,0,1-2.32,1,1.74,1.74,0,0,1-1.22-.74,3.21,3.21,0,0,1-.58-2.19,16.23,16.23,0,0,1,.67-3.53,13.44,13.44,0,0,0,.55-2.74.88.88,0,0,1,.85-.53.77.77,0,0,1,.61.29.87.87,0,0,1,.22.57,5.65,5.65,0,0,1-.5,1.82,11.75,11.75,0,0,0-1,3.94q0,1.51.66,1.52.89,0,2.31-1.46a12.67,12.67,0,0,0,2.47-4.17,6.31,6.31,0,0,1,.66-1.4.78.78,0,0,1,.67-.31q.62,0,.6.84a4.11,4.11,0,0,1-.19.67,14.4,14.4,0,0,0-.65,3.79q-.05,2.15.64,2.8.36.35.35.56t-.38.46a1.39,1.39,0,0,1-.68.19q-.64,0-1-1a7.74,7.74,0,0,1-.33-2.83v-.3C230.08,95.33,230.08,95.23,230.09,95.13Z"/><path class="cls-1" d="M242.81,95.31q-.18,2.06-.52,4-.15.37-.71.35a.72.72,0,0,1-.78-.85,7.59,7.59,0,0,1,.23-1.26,9.82,9.82,0,0,0,.18-1.09q0-.29.07-.63a1.75,1.75,0,0,0,0-.55,6.2,6.2,0,0,0-1.95,1.06,20.71,20.71,0,0,0-2.54,2h0a3.57,3.57,0,0,0-.43.68q-.52,1-1.11.94a1.09,1.09,0,0,1-.6-.26.64.64,0,0,1-.32-.49q0-.57,1.12-1.66a11.83,11.83,0,0,1,2.43-1.85,13,13,0,0,0,2.23-1.5,3.37,3.37,0,0,0-1-.86,10.33,10.33,0,0,1-1.42-1.07l-.22-.17a11.5,11.5,0,0,1-1.54-1.25,1.22,1.22,0,0,1-.36-.87.81.81,0,0,1,.25-.55.64.64,0,0,1,.46-.24,1.62,1.62,0,0,1,.49.16,1.49,1.49,0,0,1,.5.33l.44.44a15.44,15.44,0,0,0,3.67,3.08s.11-.05.19-.17a3.88,3.88,0,0,0,.12-1,8.56,8.56,0,0,0-.09-1.45,4.05,4.05,0,0,1-.06-.54.85.85,0,0,1,.36-.69,1.15,1.15,0,0,1,.74-.24.81.81,0,0,1,.61.2.93.93,0,0,1,.15.63l-.21,2.92v.18a1.93,1.93,0,0,0,0,.21,1.15,1.15,0,0,0,.68-.23,8.11,8.11,0,0,0,1.07-1q3.12-3,3.6-3a.67.67,0,0,1,.48.24.7.7,0,0,1,.2.52,5.73,5.73,0,0,1-1,1.21A24.7,24.7,0,0,1,246,93q-1.41,1.13-1.41,1.18a8.7,8.7,0,0,0,1.11,1q1.2,1,1.66,1.42l.18.13a7.92,7.92,0,0,1,1.66,1.3,1.21,1.21,0,0,1,.32.71.87.87,0,0,1-.25.54.62.62,0,0,1-.46.27q-.82,0-3.71-2.87a7.37,7.37,0,0,0-1.56-1.34l-.18-.05a1.11,1.11,0,0,0-.33,0Q242.83,95.24,242.81,95.31Z"/><path class="cls-1" d="M259.24,96.94q0,.94-1.74,2.2a5.44,5.44,0,0,1-3.47,1.2,3,3,0,0,1-2.25-1,3.46,3.46,0,0,1-.72-2.46A8.22,8.22,0,0,1,253,92q1.86-2.31,4-2.23a1.52,1.52,0,0,1,1.51,1.59A3.73,3.73,0,0,1,257,94a17.82,17.82,0,0,1-3.8,2.41.73.73,0,0,0-.5.63,1.69,1.69,0,0,0,.4,1.24,1.73,1.73,0,0,0,1.29.51,5.76,5.76,0,0,0,4.11-2c.21-.2.37-.29.47-.29S259.25,96.63,259.24,96.94Zm-6.33-1.66q4-2.17,4-3.58,0-.55-.48-.57a2.83,2.83,0,0,0-2,1.17A7.16,7.16,0,0,0,252.9,95.28Z"/><path class="cls-1" d="M268,94.4a15.29,15.29,0,0,0,.41-2.29q.23-1.68,1.14-1.65a.66.66,0,0,1,.71.77,3.79,3.79,0,0,1-.16.7,21.63,21.63,0,0,0-.9,4.89q-.08,2.15.6,2.81.35.35.35.57c0,.17-.14.32-.39.45a1.39,1.39,0,0,1-.68.18q-1.43-.06-1.26-4.48c0-.2-.06-.3-.21-.3q-.86,0-2.12,0a10.17,10.17,0,0,0-1.8.19,1.68,1.68,0,0,0-.67.26,1.63,1.63,0,0,0-.25.7,7.26,7.26,0,0,0-.14,1.19l0,1.13q0,1-.94.95t-.71-1a10.26,10.26,0,0,1,.23-1.63q.38-1.81.85-6.24a3,3,0,0,1,.13-.73.91.91,0,0,1,.35-.33,1,1,0,0,1,.6-.16q.66,0,.64.57,0,.08-.27,1.37a12.89,12.89,0,0,0-.3,2c0,.34.1.51.33.52a24.33,24.33,0,0,0,2.56-.13A6.24,6.24,0,0,0,268,94.4Z"/><path class="cls-1" d="M278.76,96.85a12.77,12.77,0,0,1-2.54,3,3.61,3.61,0,0,1-2.33,1,1.73,1.73,0,0,1-1.21-.76,3.2,3.2,0,0,1-.54-2.2,16.3,16.3,0,0,1,.73-3.52,13.51,13.51,0,0,0,.61-2.73.88.88,0,0,1,.86-.51.76.76,0,0,1,.6.3.87.87,0,0,1,.21.58,5.64,5.64,0,0,1-.53,1.81,11.72,11.72,0,0,0-1,3.92q-.06,1.51.63,1.54.89,0,2.33-1.42a12.67,12.67,0,0,0,2.54-4.12,6.27,6.27,0,0,1,.69-1.38.78.78,0,0,1,.67-.3q.63,0,.59.85a4.1,4.1,0,0,1-.2.66,14.45,14.45,0,0,0-.71,3.78q-.09,2.15.59,2.81c.23.24.35.43.34.57s-.14.32-.39.45a1.4,1.4,0,0,1-.68.18q-.64,0-1-1a7.75,7.75,0,0,1-.27-2.84v-.3C278.74,97.06,278.75,97,278.76,96.85Z"/><path class="cls-1" d="M292.29,91.85a3.76,3.76,0,0,1-.44,1.08,12.49,12.49,0,0,0-.77,2.67,21,21,0,0,0-.48,3.26,12.88,12.88,0,0,0,0,1.48,7,7,0,0,1,0,.74c0,.1-.1.21-.29.31a1,1,0,0,1-.5.14q-.57,0-.72-.29a2.27,2.27,0,0,1-.11-1.06l.22-3q-1.43,1.09-2,1.61t-1,.77a12.21,12.21,0,0,0-1.92,1.65,1.14,1.14,0,0,1-.29.22.66.66,0,0,1-.27.11.75.75,0,0,1-.63-.42,1.27,1.27,0,0,1-.22-.6q0-.23,1-1c.18-.14.35-.26.51-.36a21.47,21.47,0,0,0,2.8-2.08l-1,0a3.06,3.06,0,0,1-1.16-.46,1.62,1.62,0,0,1-.8-.87,2.89,2.89,0,0,1-.11-.88,3,3,0,0,1,1.53-2.33,8.17,8.17,0,0,1,3.5-1.3,4.77,4.77,0,0,0,.79-.07l.64-.07a2.61,2.61,0,0,1,.45.11l.31,0a1.11,1.11,0,0,1,.58.21A.79.79,0,0,1,292.29,91.85Zm-1.89.82c-.06-.13-.13-.19-.22-.19a6.4,6.4,0,0,0-2.9.67q-1.61.73-1.66,1.89a.68.68,0,0,0,.38.59,2.34,2.34,0,0,0,1.16.29,6.49,6.49,0,0,0,2.12-.17,1.08,1.08,0,0,0,.39-.59Z"/><path class="cls-1" d="M307.68,95.13a1.53,1.53,0,0,0-1.07.57,16.59,16.59,0,0,0-1.86,2.71,18.52,18.52,0,0,1-2.13,3.23,1.26,1.26,0,0,1-.76.37.94.94,0,0,1-1-1.1,7.46,7.46,0,0,1,.21-1.24,32.61,32.61,0,0,0,.8-5.82,1.39,1.39,0,0,1,.34-.76q.32-.41.59-.4a.77.77,0,0,1,.67.33,2.33,2.33,0,0,1,.14,1.19,26.35,26.35,0,0,1-.74,3.79,9,9,0,0,0-.24,1.2c0,.1,0,.15.07.15A10.6,10.6,0,0,0,304,97.22a14.4,14.4,0,0,1,2.17-3,2.59,2.59,0,0,1,1.95-.81,1.57,1.57,0,0,1,1.31.82,6.57,6.57,0,0,1,.62,2.78,16.46,16.46,0,0,0,.32,2.85c.12.38.33.57.63.59a1.78,1.78,0,0,0,.73-.17l.11,0c.26,0,.39.17.37.48a1.23,1.23,0,0,1-.58.83,2,2,0,0,1-1.33.39,1.38,1.38,0,0,1-1.18-.68,9,9,0,0,1-.51-3.34Q308.51,95.17,307.68,95.13Z"/><path class="cls-1" d="M316.19,103.1a2.62,2.62,0,0,1-2-1.06,3.51,3.51,0,0,1-.69-2.4,8.14,8.14,0,0,1,1.84-4.59,4.6,4.6,0,0,1,3.93-2.1,2.92,2.92,0,0,1,2.32,1.25,4.16,4.16,0,0,1,.77,2.74,6.41,6.41,0,0,1-2.12,4.33A5.41,5.41,0,0,1,316.19,103.1Zm-1.09-3.62a2.7,2.7,0,0,0,.31,1.53,1.19,1.19,0,0,0,1,.64,3.85,3.85,0,0,0,2.82-1.36A4.83,4.83,0,0,0,320.79,97a3,3,0,0,0-.43-1.86A1.68,1.68,0,0,0,319,94.4a3,3,0,0,0-2.63,1.68A6.9,6.9,0,0,0,315.1,99.48Z"/><path class="cls-1" d="M333.81,98.74a6.19,6.19,0,0,0,4.06-2.59,7.85,7.85,0,0,1,1.51-1.52,2.09,2.09,0,0,1,1.32-.4.83.83,0,0,1,.54.28.76.76,0,0,1,.24.6q0,.45-.89.66a2.4,2.4,0,0,0-.87.42,18.57,18.57,0,0,0-1.58,1.5A6.67,6.67,0,0,1,336.5,99s-.07,0-.07.06,0,0,.08.08a4.56,4.56,0,0,1,1.34,1.46,9.46,9.46,0,0,0,1.52,2,2.07,2.07,0,0,0,1.22.46h.3c.21,0,.32.1.3.3a1,1,0,0,1-.43.7,1.85,1.85,0,0,1-1.32.3,2,2,0,0,1-1.32-.68,9.69,9.69,0,0,1-1.39-2,6.31,6.31,0,0,0-.84-1.26,1.31,1.31,0,0,0-.91-.46,3.82,3.82,0,0,0-.69.15c-.39.1-.61.21-.66.32a6,6,0,0,0-.17,1.21q-.09,1-.13,1.69a.78.78,0,0,1-.35.59,1.08,1.08,0,0,1-.71.23.81.81,0,0,1-.59-.26.66.66,0,0,1-.19-.48,10.91,10.91,0,0,1,.33-1.55q.56-2.21,1.29-7.34a1.53,1.53,0,0,1,.43-.87,1,1,0,0,1,.79-.36.47.47,0,0,1,.38.28,1.22,1.22,0,0,1,.12.67,2.87,2.87,0,0,1-.15.73A19.29,19.29,0,0,0,333.81,98.74Z"/><path class="cls-1" d="M348.85,101.08a11.25,11.25,0,0,1-2.69,2.44,4.18,4.18,0,0,1-2.35.73,1.56,1.56,0,0,1-1.19-.67,2.27,2.27,0,0,1-.43-1.56,8.72,8.72,0,0,1,2.45-5.08q2.32-2.66,4.45-2.54a1.23,1.23,0,0,1,1.1.95.4.4,0,0,0,.36.32q.73,0,.7.61a4.53,4.53,0,0,1-.14.77,24.8,24.8,0,0,0-.71,3.79q-.13,2.22.69,2.71a.63.63,0,0,1,.37.56q0,.29-.43.55a1.3,1.3,0,0,1-.78.25q-.71,0-1.11-1A6.7,6.7,0,0,1,348.85,101.08Zm-.26-5.2q-1.21-.07-2.95,2.11a7.12,7.12,0,0,0-1.82,3.68q-.06,1.05.64,1.09,1,.06,2.92-1.88a6,6,0,0,0,2-3.64Q349.45,95.93,348.58,95.88Z"/><path class="cls-1" d="M361.12,94.43a4.89,4.89,0,0,0-.7-2,3.17,3.17,0,0,0-1.23-1,4,4,0,0,0-1.42-.4,2.27,2.27,0,0,0-.74.14,5.12,5.12,0,0,0-.76.3,1.32,1.32,0,0,1-.67.17c-.23,0-.34-.14-.33-.39a2,2,0,0,1,.66-1.06,2.66,2.66,0,0,1,2.14-.57l.39,0a4.58,4.58,0,0,1,2.6.94,4.24,4.24,0,0,1,1.5,2.34,12.9,12.9,0,0,1,.25,3.95,10.36,10.36,0,0,1-1.29,4,8.88,8.88,0,0,1-2.9,3.44,5.68,5.68,0,0,1-3.54,1,1.6,1.6,0,0,1-1.19-.83,3,3,0,0,1-.47-1.92,7.26,7.26,0,0,1,1.13-3.62,10,10,0,0,1,2.2-2.46A8.45,8.45,0,0,1,360,95.06a7.67,7.67,0,0,0,.92-.25A.35.35,0,0,0,361.12,94.43Zm.14,1.89a7.37,7.37,0,0,0-3.33,1.18,7.2,7.2,0,0,0-2.87,5.2,2,2,0,0,0,.09.75c.08.24.17.36.29.36a3.13,3.13,0,0,0,1.25-.17,5.17,5.17,0,0,0,1.43-.92,8.32,8.32,0,0,0,1.57-1.79,9.48,9.48,0,0,0,1.08-2.1,7.17,7.17,0,0,0,.41-1.57Q361.24,96.7,361.25,96.31Z"/><path class="cls-1" d="M365.24,104.32a37.38,37.38,0,0,0-1.12,4.58l-.36,1.72a1.71,1.71,0,0,1-.38.71c-.2.23-.37.34-.53.33a1.08,1.08,0,0,1-.63-.33q-.35-.31-.33-.49a6,6,0,0,1,.31-1.38,50.47,50.47,0,0,0,2.4-11.81l0-.77a2.21,2.21,0,0,1,.44-1.42,1.07,1.07,0,0,1,.87-.4q.22,0,.4.37a2,2,0,0,1,.14,1,15.42,15.42,0,0,1-.31,2.15q-.34,1.58-.36,1.82a14.47,14.47,0,0,1,3.13-3.55,4.51,4.51,0,0,1,2.93-1.17,2.05,2.05,0,0,1,1.52.79,2.45,2.45,0,0,1,.53,1.76,7.76,7.76,0,0,1-2.62,5.29q-2.44,2.3-4.62,2.17a1.27,1.27,0,0,1-.84-.33A3.1,3.1,0,0,1,365.24,104.32Zm6.15-7q-1.29-.08-3.35,2.23t-2.14,3.66a.86.86,0,0,0,.34.67,1.45,1.45,0,0,0,.94.37q1.31.08,3.14-1.76a5.87,5.87,0,0,0,1.94-3.71,1.71,1.71,0,0,0-.21-1A.82.82,0,0,0,371.39,97.28Z"/><path class="cls-1" d="M381.94,103.07a11.3,11.3,0,0,1-2.7,2.43,4.18,4.18,0,0,1-2.36.72,1.56,1.56,0,0,1-1.18-.67,2.26,2.26,0,0,1-.42-1.56,8.72,8.72,0,0,1,2.48-5.06q2.33-2.65,4.46-2.52a1.23,1.23,0,0,1,1.09,1,.4.4,0,0,0,.36.32q.73,0,.7.61a4.55,4.55,0,0,1-.14.77,24.86,24.86,0,0,0-.73,3.79q-.14,2.22.68,2.71a.64.64,0,0,1,.37.57q0,.28-.43.55a1.31,1.31,0,0,1-.78.24q-.71,0-1.11-1A6.69,6.69,0,0,1,381.94,103.07Zm-.24-5.2q-1.21-.08-3,2.09a7.13,7.13,0,0,0-1.84,3.67q-.07,1.06.63,1.1,1,.06,2.93-1.86a6,6,0,0,0,2-3.63Q382.57,97.92,381.71,97.87Z"/><path class="cls-1" d="M398.81,99.43a45,45,0,0,0-2.35,3.9q-.34.62-.69,1.2-.11.19-.44.83-1.11,2.18-1.82,2.13a1.88,1.88,0,0,1-.82-.19,1.42,1.42,0,0,1-.45-.79,24,24,0,0,1-.52-2.94q-.37-2.61-.53-3.22-.71,1.36-1.28,2.63a23.16,23.16,0,0,1-1.62,3,6.35,6.35,0,0,1-1.08,1.39,1,1,0,0,1-.59.21.73.73,0,0,1-.5-.25.62.62,0,0,1-.2-.45,1.18,1.18,0,0,1,.16-.46,12.43,12.43,0,0,0,1.51-2q.65-1.07,1.69-3.24a19.08,19.08,0,0,0,1.38-3.57q.16-.6.93-.55a1,1,0,0,1,.61.18,1.4,1.4,0,0,1,.29.58,2.81,2.81,0,0,1,.14.76q0,.4.2,1.77t.19,1.83q.08.77.33,2t.43,1.27c.08,0,.22-.17.4-.54l.89-1.73q.24-.47.51-.92l1.19-2.09q1-1.72,1.49-2.5a6.57,6.57,0,0,1,.69-.93.49.49,0,0,1,.37-.14,2,2,0,0,1,.77.24c.28.14.42.29.42.45s0,.79,0,1.92l-.07,2.87q0,1.37,0,2.34a5.07,5.07,0,0,0,.29,1.57,3.82,3.82,0,0,1,.34,1.48.61.61,0,0,1-.4.58,1.63,1.63,0,0,1-.68.12q-.64,0-.92-1.09a30.68,30.68,0,0,1-.12-5.92A8.44,8.44,0,0,0,398.81,99.43Z"/><path class="cls-1" d="M215.76,26.62q-.86,0-3.73,5a17.19,17.19,0,0,1-1.13,1.84,1.4,1.4,0,0,1-.58.26,2.63,2.63,0,0,1-.7.11q-.62,0-.58-2.41a36.21,36.21,0,0,1,.65-4.88,14.4,14.4,0,0,0,.27-2q0-.61.55-.6,1,0,1,1.49a20.26,20.26,0,0,1-.38,2.7q-.43,2.29-.45,2.79a13.21,13.21,0,0,0,1.71-2.39,18,18,0,0,1,2.35-3.21,2.25,2.25,0,0,1,1.54-.66q.6,0,.94.81a13,13,0,0,1,.37,3.82,4.23,4.23,0,0,0,.12,1.12c.08.25.13.37.17.37q.43,0,1.92-2.91a10.65,10.65,0,0,1,1.54-2.34,2.16,2.16,0,0,1,1.63-.79,1.13,1.13,0,0,1,1.07.78,7.76,7.76,0,0,1,.45,2.28,21.09,21.09,0,0,0,.39,2.8,2.17,2.17,0,0,0,1,1.64q.52.26.52.59a.91.91,0,0,1-.45.66,1.37,1.37,0,0,1-.81.33,1.61,1.61,0,0,1-1.3-.92,10.26,10.26,0,0,1-.82-3.91,15.69,15.69,0,0,0-.22-1.71q-.11-.51-.37-.51t-.93.72a29.47,29.47,0,0,0-1.75,3,16.28,16.28,0,0,1-1.43,2.32,1.27,1.27,0,0,1-.92.57,1,1,0,0,1-.7-.33,1.44,1.44,0,0,1-.38-.77q-.08-.45-.14-2.2A8.89,8.89,0,0,0,215.76,26.62Z"/><path class="cls-1" d="M236.52,24.65a3.74,3.74,0,0,1-.41,1.09,12.5,12.5,0,0,0-.7,2.69,21.26,21.26,0,0,0-.4,3.27,13.17,13.17,0,0,0,.08,1.48,7.31,7.31,0,0,1,0,.74q0,.16-.28.32a1,1,0,0,1-.5.16q-.57,0-.73-.27a2.27,2.27,0,0,1-.14-1.06l.14-3q-1.4,1.12-2,1.66t-1,.8a12.13,12.13,0,0,0-1.87,1.7,1.19,1.19,0,0,1-.29.22.66.66,0,0,1-.27.11.75.75,0,0,1-.65-.4,1.26,1.26,0,0,1-.24-.59q0-.23,1-1a6.17,6.17,0,0,1,.5-.38,21.58,21.58,0,0,0,2.75-2.15h-1a3,3,0,0,1-1.17-.43,1.61,1.61,0,0,1-.82-.85,2.84,2.84,0,0,1-.13-.88,3,3,0,0,1,1.47-2.37,8.17,8.17,0,0,1,3.47-1.39,4.83,4.83,0,0,0,.79-.09l.64-.09a2.59,2.59,0,0,1,.45.1l.3,0a1.12,1.12,0,0,1,.58.2A.79.79,0,0,1,236.52,24.65Zm-1.87.86c-.06-.12-.14-.19-.23-.19a6.4,6.4,0,0,0-2.88.75q-1.59.77-1.61,1.93a.68.68,0,0,0,.4.58,2.35,2.35,0,0,0,1.17.26,6.5,6.5,0,0,0,2.12-.23A1.08,1.08,0,0,0,234,28Z"/><path class="cls-1" d="M245,28.45a15.35,15.35,0,0,0,.37-2.3q.2-1.69,1.11-1.67a.66.66,0,0,1,.73.76,3.91,3.91,0,0,1-.15.7,21.65,21.65,0,0,0-.82,4.9q0,2.15.64,2.8.36.35.35.56t-.38.46a1.39,1.39,0,0,1-.68.2q-1.43,0-1.33-4.46,0-.29-.21-.3-.86,0-2.12.05a10.12,10.12,0,0,0-1.79.22,1.7,1.7,0,0,0-.67.27,1.62,1.62,0,0,0-.24.7,7.2,7.2,0,0,0-.12,1.19l0,1.13q0,1-.92,1t-.73-1a10.33,10.33,0,0,1,.2-1.63q.34-1.81.75-6.25A3,3,0,0,1,239,25a.91.91,0,0,1,.34-.34,1,1,0,0,1,.6-.17q.66,0,.65.56,0,.08-.24,1.37a12.81,12.81,0,0,0-.27,2q0,.51.34.51a24.43,24.43,0,0,0,2.56-.18A6.22,6.22,0,0,0,245,28.45Z"/><path class="cls-1" d="M255.71,30.72a12.74,12.74,0,0,1-2.49,3,3.61,3.61,0,0,1-2.32,1,1.73,1.73,0,0,1-1.22-.74,3.2,3.2,0,0,1-.57-2.19,16.23,16.23,0,0,1,.67-3.53,13.47,13.47,0,0,0,.56-2.73.88.88,0,0,1,.85-.53.77.77,0,0,1,.61.29.86.86,0,0,1,.21.57,5.65,5.65,0,0,1-.5,1.82,11.73,11.73,0,0,0-1,3.94q0,1.51.66,1.53.89,0,2.31-1.46A12.67,12.67,0,0,0,256,27.53a6.31,6.31,0,0,1,.67-1.39.78.78,0,0,1,.67-.31q.62,0,.6.84a4.13,4.13,0,0,1-.19.67,14.42,14.42,0,0,0-.65,3.79q-.06,2.15.63,2.8.36.35.35.56t-.38.46a1.39,1.39,0,0,1-.68.19q-.64,0-1-1a7.73,7.73,0,0,1-.32-2.83V31Q255.69,30.88,255.71,30.72Z"/><path class="cls-1" d="M275.44,24.62a4.88,4.88,0,0,0-.75-2,3.17,3.17,0,0,0-1.26-.92A4,4,0,0,0,272,21.3a2.23,2.23,0,0,0-.74.17,5.07,5.07,0,0,0-.75.32,1.32,1.32,0,0,1-.67.19c-.23,0-.35-.13-.34-.38a2,2,0,0,1,.63-1.07,2.66,2.66,0,0,1,2.13-.63h.4a4.57,4.57,0,0,1,2.62.87,4.23,4.23,0,0,1,1.56,2.3A12.88,12.88,0,0,1,277.2,27,10.35,10.35,0,0,1,276,31a8.87,8.87,0,0,1-2.8,3.51,5.69,5.69,0,0,1-3.51,1.11,1.6,1.6,0,0,1-1.22-.8,3,3,0,0,1-.52-1.91,7.27,7.27,0,0,1,1-3.65,10,10,0,0,1,2.13-2.52,8.44,8.44,0,0,1,3.19-1.5,7.66,7.66,0,0,0,.91-.27A.34.34,0,0,0,275.44,24.62Zm.19,1.88a7.35,7.35,0,0,0-3.3,1.26A7.2,7.2,0,0,0,269.61,33a2,2,0,0,0,.11.74q.13.35.3.35a3.14,3.14,0,0,0,1.25-.2,5.17,5.17,0,0,0,1.4-1,8.34,8.34,0,0,0,1.53-1.83,9.6,9.6,0,0,0,1-2.13,7.2,7.2,0,0,0,.37-1.58C275.62,27.07,275.63,26.76,275.63,26.5Z"/><path class="cls-1" d="M283.41,28.1q-.22,0-.45.41a44,44,0,0,1-3.06,5.06c-.06.08-.13.19-.22.34q-1.22,2-1.75,2-.72,0-.69-.71a3.12,3.12,0,0,1,1-1.67,25.55,25.55,0,0,0,2.39-3.38q1.49-2.39,2.43-4.3a.53.53,0,0,1,.51-.33,1.8,1.8,0,0,1,.49.14.92.92,0,0,1,.45.29,10.8,10.8,0,0,1,.39,1.73q.93,5.67,2.14,6.76a2.39,2.39,0,0,1,.34.36.45.45,0,0,1,0,.25.82.82,0,0,1-.2.51.87.87,0,0,1-.37.29,2.51,2.51,0,0,1-.72,0q-.19,0-.87-1t-1.47-5.25A10.3,10.3,0,0,0,283.41,28.1Z"/><path class="cls-1" d="M297.89,26.54a3.74,3.74,0,0,1-.43,1.08,12.46,12.46,0,0,0-.75,2.68,21.25,21.25,0,0,0-.46,3.27A13.23,13.23,0,0,0,296.3,35a7.18,7.18,0,0,1,0,.74q0,.16-.28.31a1,1,0,0,1-.5.15q-.57,0-.72-.29a2.29,2.29,0,0,1-.12-1.06l.2-3q-1.42,1.09-2,1.62t-1,.78A12.15,12.15,0,0,0,290,36a1.17,1.17,0,0,1-.29.22.67.67,0,0,1-.27.11.75.75,0,0,1-.64-.41,1.26,1.26,0,0,1-.22-.6q0-.23,1-1a6.15,6.15,0,0,1,.51-.37,21.45,21.45,0,0,0,2.79-2.1l-1,0a3.07,3.07,0,0,1-1.17-.46,1.61,1.61,0,0,1-.8-.87,2.83,2.83,0,0,1-.12-.88,3,3,0,0,1,1.52-2.34,8.16,8.16,0,0,1,3.49-1.33,4.83,4.83,0,0,0,.79-.08l.64-.08a2.63,2.63,0,0,1,.45.11l.31,0a1.12,1.12,0,0,1,.58.21A.79.79,0,0,1,297.89,26.54Zm-1.88.83q-.09-.19-.22-.19a6.39,6.39,0,0,0-2.89.69q-1.61.74-1.65,1.9a.68.68,0,0,0,.39.59,2.35,2.35,0,0,0,1.16.28,6.5,6.5,0,0,0,2.12-.18,1.08,1.08,0,0,0,.38-.59Z"/><path class="cls-1" d="M313.3,29.75a1.53,1.53,0,0,0-1.07.58A16.5,16.5,0,0,0,310.38,33a18.59,18.59,0,0,1-2.12,3.24,1.25,1.25,0,0,1-.76.37.94.94,0,0,1-1-1.1,7.48,7.48,0,0,1,.2-1.24,32.69,32.69,0,0,0,.77-5.83,1.39,1.39,0,0,1,.33-.76q.32-.41.58-.4a.77.77,0,0,1,.67.32,2.34,2.34,0,0,1,.15,1.19,26.38,26.38,0,0,1-.72,3.8,8.92,8.92,0,0,0-.24,1.2c0,.1,0,.15.07.15a10.57,10.57,0,0,0,1.38-2.14,14.3,14.3,0,0,1,2.15-3,2.59,2.59,0,0,1,1.94-.82,1.57,1.57,0,0,1,1.31.81,6.58,6.58,0,0,1,.63,2.78,16.6,16.6,0,0,0,.34,2.85q.18.57.63.59a1.78,1.78,0,0,0,.73-.17l.11,0q.39,0,.37.48a1.22,1.22,0,0,1-.58.83,2,2,0,0,1-1.32.4,1.38,1.38,0,0,1-1.18-.67,8.93,8.93,0,0,1-.53-3.34Q314.12,29.78,313.3,29.75Z"/><path class="cls-1" d="M327.22,34.37q0,.94-1.77,2.18A5.44,5.44,0,0,1,322,37.7a3,3,0,0,1-2.24-1,3.46,3.46,0,0,1-.68-2.47,8.22,8.22,0,0,1,2-4.91q1.89-2.28,4-2.18a1.51,1.51,0,0,1,1.49,1.61A3.73,3.73,0,0,1,325,31.41a17.78,17.78,0,0,1-3.83,2.36.74.74,0,0,0-.51.62,1.69,1.69,0,0,0,.38,1.24,1.73,1.73,0,0,0,1.28.52,5.75,5.75,0,0,0,4.14-2q.32-.29.47-.28C327.15,33.89,327.24,34.06,327.22,34.37Zm-6.31-1.74q4-2.12,4.08-3.53,0-.55-.47-.58a2.83,2.83,0,0,0-2,1.15A7.17,7.17,0,0,0,320.91,32.62Z"/><path class="cls-1" d="M330.8,36.6a37.33,37.33,0,0,0-1.09,4.59l-.35,1.72a1.7,1.7,0,0,1-.38.71q-.29.35-.52.34a1.09,1.09,0,0,1-.63-.32q-.35-.31-.34-.48a6,6,0,0,1,.3-1.38,50.47,50.47,0,0,0,2.3-11.83l0-.77a2.21,2.21,0,0,1,.42-1.42,1.07,1.07,0,0,1,.87-.41q.22,0,.4.37a2,2,0,0,1,.15,1,15.54,15.54,0,0,1-.3,2.15q-.32,1.58-.34,1.82a14.45,14.45,0,0,1,3.1-3.58,4.51,4.51,0,0,1,2.92-1.19,2,2,0,0,1,1.53.77,2.45,2.45,0,0,1,.55,1.75,7.77,7.77,0,0,1-2.58,5.31q-2.42,2.32-4.6,2.21a1.27,1.27,0,0,1-.84-.32A3.11,3.11,0,0,1,330.8,36.6Zm6.09-7.09q-1.29-.07-3.33,2.26t-2.11,3.67a.86.86,0,0,0,.34.66,1.45,1.45,0,0,0,.94.36q1.31.07,3.12-1.78A5.86,5.86,0,0,0,337.76,31a1.7,1.7,0,0,0-.22-1A.82.82,0,0,0,336.89,29.51Z"/><path class="cls-1" d="M349.36,35.56q-.05.94-1.78,2.17a5.44,5.44,0,0,1-3.49,1.13,3,3,0,0,1-2.23-1,3.46,3.46,0,0,1-.67-2.48,8.22,8.22,0,0,1,2.05-4.89q1.9-2.27,4-2.15a1.52,1.52,0,0,1,1.47,1.62,3.74,3.74,0,0,1-1.54,2.63,17.83,17.83,0,0,1-3.85,2.34.73.73,0,0,0-.51.62,1.69,1.69,0,0,0,.37,1.25,1.73,1.73,0,0,0,1.28.53,5.76,5.76,0,0,0,4.15-2q.32-.29.48-.28C349.29,35.08,349.38,35.24,349.36,35.56Zm-6.3-1.79q4-2.1,4.1-3.5c0-.37-.13-.56-.46-.58a2.83,2.83,0,0,0-2,1.13A7.17,7.17,0,0,0,343.06,33.77Z"/><path class="cls-1" d="M363.28,31.44a45.18,45.18,0,0,0-2.33,3.91q-.34.62-.69,1.2-.11.19-.44.83-1.1,2.18-1.81,2.14a1.88,1.88,0,0,1-.82-.19,1.41,1.41,0,0,1-.46-.78,23.73,23.73,0,0,1-.53-2.93q-.39-2.61-.54-3.22-.71,1.37-1.27,2.64a23.08,23.08,0,0,1-1.61,3,6.29,6.29,0,0,1-1.08,1.39.94.94,0,0,1-.59.21.72.72,0,0,1-.5-.25.62.62,0,0,1-.2-.45,1.18,1.18,0,0,1,.16-.46,12.38,12.38,0,0,0,1.5-2q.64-1.08,1.67-3.24a19,19,0,0,0,1.36-3.57q.16-.6.93-.55a1,1,0,0,1,.61.17,1.39,1.39,0,0,1,.29.58,2.86,2.86,0,0,1,.14.76q0,.4.21,1.77t.19,1.83q.08.77.33,2t.43,1.27.4-.54l.88-1.73q.24-.47.51-.93l1.18-2.09q1-1.73,1.48-2.5a6.56,6.56,0,0,1,.68-.93.49.49,0,0,1,.37-.14,2,2,0,0,1,.77.23q.42.21.42.44t0,1.92l-.05,2.87q0,1.37,0,2.34a5.06,5.06,0,0,0,.29,1.57,3.83,3.83,0,0,1,.34,1.48.61.61,0,0,1-.4.58,1.65,1.65,0,0,1-.68.12q-.64,0-.92-1.09a30.65,30.65,0,0,1-.15-5.92A8.46,8.46,0,0,0,363.28,31.44Z"/><path class="cls-1" d="M375.57,37.17q-.06.94-1.8,2.15a5.44,5.44,0,0,1-3.5,1.1,3,3,0,0,1-2.22-1,3.46,3.46,0,0,1-.65-2.48A8.22,8.22,0,0,1,369.48,32q1.92-2.25,4-2.12A1.52,1.52,0,0,1,375,31.55a3.74,3.74,0,0,1-1.56,2.62,17.81,17.81,0,0,1-3.87,2.3.73.73,0,0,0-.52.61,1.69,1.69,0,0,0,.36,1.25,1.73,1.73,0,0,0,1.27.54A5.75,5.75,0,0,0,374.83,37q.32-.28.48-.27T375.57,37.17Zm-6.28-1.84q4-2.06,4.13-3.47,0-.55-.46-.58a2.83,2.83,0,0,0-2,1.12A7.16,7.16,0,0,0,369.28,35.32Z"/><path class="cls-1" d="M392.58,43.68a2.18,2.18,0,0,0-.15.27q-.63,1.2-1.26,1.24l-.25,0a.22.22,0,0,1-.23-.26,9.4,9.4,0,0,1,.56-1.47,6,6,0,0,0,.5-1.56c0-.26,0-.39-.1-.39l-.42.15a1.8,1.8,0,0,1-.52.14.76.76,0,0,1-.66-.34,2.31,2.31,0,0,1-.12-1.2,17.71,17.71,0,0,1,.74-3.17q0-.2,0-.25A15.62,15.62,0,0,1,387.9,40a3.75,3.75,0,0,1-2.45,1.08,1.73,1.73,0,0,1-1.18-.79,3.21,3.21,0,0,1-.48-2.22,11,11,0,0,1,.32-1.84,12.61,12.61,0,0,1-2.68,3.06,3.75,3.75,0,0,1-2.43,1,1.7,1.7,0,0,1-1.08-.68,2.2,2.2,0,0,1-.5-1.67,11.53,11.53,0,0,1,.22-1.77q.12-.54.21-1.11t.19-.85a10.58,10.58,0,0,0,.45-2.52.84.84,0,0,1,.93-.59.82.82,0,0,1,.52.26.93.93,0,0,1,.21.76,7.73,7.73,0,0,1-.52,2.08,10.76,10.76,0,0,0-.71,3,4.53,4.53,0,0,0,0,1.12.46.46,0,0,0,.45.43q1,.07,2.65-1.74a17.5,17.5,0,0,0,2.9-4.5q.5-1.05,1.19-1a.77.77,0,0,1,.6.31.86.86,0,0,1,.19.58,5.63,5.63,0,0,1-.58,1.79,11.36,11.36,0,0,0-1.12,3.8q-.1,1.5.59,1.55a1.86,1.86,0,0,0,.72-.14,4,4,0,0,0,1.1-.72,9.48,9.48,0,0,0,1.3-1.36q.64-.8.93-1.27A21,21,0,0,0,391,33.48a6.07,6.07,0,0,1,.72-1.43.83.83,0,0,1,.68-.32l.22,0a1,1,0,0,1,.51.17q.2.15.15.85a8.31,8.31,0,0,1-.48,1.66,25.94,25.94,0,0,0-1.25,5.63c0,.18.07.27.17.28l.09,0a1.48,1.48,0,0,1,.84-.21.65.65,0,0,1,.67.75l0,.58a3.55,3.55,0,0,1-.33,1.3Z"/><path class="cls-1" d="M402.75,39.07q-.07.94-1.82,2.13a5.44,5.44,0,0,1-3.51,1.07,3,3,0,0,1-2.21-1,3.46,3.46,0,0,1-.62-2.49,8.22,8.22,0,0,1,2.13-4.86q1.94-2.24,4-2.08a1.52,1.52,0,0,1,1.45,1.65,3.74,3.74,0,0,1-1.58,2.6,17.82,17.82,0,0,1-3.89,2.27.74.74,0,0,0-.52.61,1.69,1.69,0,0,0,.35,1.25,1.73,1.73,0,0,0,1.27.55A5.75,5.75,0,0,0,402,38.85q.32-.28.48-.27C402.69,38.6,402.77,38.76,402.75,39.07Zm-6.27-1.9q4.06-2,4.16-3.43,0-.55-.46-.59a2.83,2.83,0,0,0-2,1.1A7.16,7.16,0,0,0,396.48,37.17Z"/><path class="cls-1" d="M411.65,36.85a15.53,15.53,0,0,0,.5-2.28q.29-1.67,1.2-1.6a.66.66,0,0,1,.69.8,3.91,3.91,0,0,1-.18.7,21.66,21.66,0,0,0-1.08,4.85q-.16,2.14.49,2.83.34.37.32.58c0,.17-.15.32-.41.44a1.39,1.39,0,0,1-.69.16q-1.43-.11-1.09-4.53c0-.2-.05-.3-.2-.31q-.86-.07-2.12-.06a10,10,0,0,0-1.8.12,1.7,1.7,0,0,0-.68.24,1.63,1.63,0,0,0-.27.69,7.13,7.13,0,0,0-.19,1.18L406,41.78q-.07,1-1,.91t-.68-1a10.44,10.44,0,0,1,.29-1.62q.44-1.79,1.08-6.21a3,3,0,0,1,.16-.73.9.9,0,0,1,.36-.32,1,1,0,0,1,.61-.14q.66.05.62.59c0,.05-.11.51-.32,1.36a12.88,12.88,0,0,0-.37,2q0,.5.31.53a24.57,24.57,0,0,0,2.57,0A6.23,6.23,0,0,0,411.65,36.85Z"/><path class="cls-1" d="M422.26,39.7a12.73,12.73,0,0,1-2.65,2.86,3.6,3.6,0,0,1-2.37.9,1.73,1.73,0,0,1-1.18-.8,3.21,3.21,0,0,1-.45-2.22,16.25,16.25,0,0,1,.86-3.49,13.4,13.4,0,0,0,.71-2.7.88.88,0,0,1,.88-.48.77.77,0,0,1,.59.32.87.87,0,0,1,.18.58,5.65,5.65,0,0,1-.59,1.79,11.72,11.72,0,0,0-1.17,3.88q-.12,1.5.58,1.56.89.07,2.38-1.33a12.66,12.66,0,0,0,2.69-4,6.27,6.27,0,0,1,.74-1.36.78.78,0,0,1,.68-.27q.62,0,.56.87a4.27,4.27,0,0,1-.23.66,14.4,14.4,0,0,0-.85,3.75q-.17,2.14.48,2.83.34.37.32.58T424,44a1.39,1.39,0,0,1-.69.16q-.64-.05-1-1a7.73,7.73,0,0,1-.17-2.85l0-.3C422.24,39.9,422.25,39.8,422.26,39.7Z"/><path class="cls-1" d="M435.95,35.21a3.74,3.74,0,0,1-.48,1.06,12.49,12.49,0,0,0-.87,2.64,21.17,21.17,0,0,0-.6,3.24,13.11,13.11,0,0,0,0,1.48,7.29,7.29,0,0,1,0,.74q0,.16-.3.3a1,1,0,0,1-.5.12q-.57,0-.71-.32a2.28,2.28,0,0,1-.07-1.07l.33-3q-1.47,1-2.1,1.53c-.48.37-.81.62-1,.74a12.17,12.17,0,0,0-2,1.58,1.18,1.18,0,0,1-.3.21.66.66,0,0,1-.28.1.75.75,0,0,1-.62-.44,1.27,1.27,0,0,1-.2-.61q0-.23,1-1a6,6,0,0,1,.53-.34,21.47,21.47,0,0,0,2.88-2l-1-.07a3.05,3.05,0,0,1-1.14-.51,1.62,1.62,0,0,1-.76-.9,2.84,2.84,0,0,1-.08-.89,3,3,0,0,1,1.62-2.27,8.16,8.16,0,0,1,3.55-1.17,4.78,4.78,0,0,0,.8,0l.64,0a2.64,2.64,0,0,1,.44.13l.31,0a1.12,1.12,0,0,1,.57.24A.8.8,0,0,1,435.95,35.21Zm-1.92.74c-.06-.13-.13-.2-.21-.2a6.39,6.39,0,0,0-2.92.56q-1.64.67-1.74,1.82a.68.68,0,0,0,.36.6,2.35,2.35,0,0,0,1.15.34A6.48,6.48,0,0,0,432.8,39a1.08,1.08,0,0,0,.41-.57Z"/></g></svg>