<svg id="curves" xmlns="http://www.w3.org/2000/svg" viewBox="0 0 607.33 207.33"><defs><style>.cls-1{fill:#fff;}</style></defs><title>hello-ru</title><g id="Первый"><path class="cls-1" d="M92.63,20.66q.09.07.09.5a1.85,1.85,0,0,1-.09.67l.13.43a17.16,17.16,0,0,0,.67,2q.41,1,.81,2.25a35,35,0,0,0,1.9,4.72A10.77,10.77,0,0,0,98,34a6,6,0,0,1,.64.69.78.78,0,0,1,.13.45,1.06,1.06,0,0,1-.3.76,1,1,0,0,1-.72.31q-1.31,0-3.18-4.13-.75-1.63-.9-1.63a15.47,15.47,0,0,0-2.12.3,28.24,28.24,0,0,0-3,.7,4.75,4.75,0,0,1-1,.24.81.81,0,0,1-.53-.26.19.19,0,0,0-.12,0q-.23,0-1,1.33-1.23,2.2-1.55,2.63a.9.9,0,0,1-.71.43,1.14,1.14,0,0,1-.67-.32.89.89,0,0,1-.39-.66,1.8,1.8,0,0,1,.37-.89l1.51-2.25A61.77,61.77,0,0,0,87.91,26,49.16,49.16,0,0,1,90.71,21q.59-.75.91-.75A1.31,1.31,0,0,1,92.63,20.66Zm.63,8.15q-.36-.82-1.06-3t-1-2.83q-.56,1.19-1.74,3.37l-1.86,3.52a2.86,2.86,0,0,1,1.14-.27A11.34,11.34,0,0,0,90,29.42Q92.81,28.85,93.26,28.81Z"/><path class="cls-1" d="M102.42,23a.52.52,0,0,0-.46-.52q-.84-.21-.84-.71a1.1,1.1,0,0,1,.33-.74,1,1,0,0,1,.71-.36l1.44,0q1,0,2.65-.13t2.44-.13A6.42,6.42,0,0,1,113.23,22a5.46,5.46,0,0,1,1.72,4.2,7.1,7.1,0,0,1-2.46,5.21,14.93,14.93,0,0,1-7,3.44,8,8,0,0,0-2.43.87,2.68,2.68,0,0,1-1.39.57.86.86,0,0,1-.69-.42,1.27,1.27,0,0,1-.3-.66,2,2,0,0,1,.21-.53,3.88,3.88,0,0,0,.3-.93,15.23,15.23,0,0,0,.15-1.69q.05-1.21.37-3.91t.53-3.83A8.86,8.86,0,0,0,102.42,23Zm1.86-.69a73.47,73.47,0,0,0-1.22,10.35,2.89,2.89,0,0,0,.13,1,.5.5,0,0,0,.32.07,17.68,17.68,0,0,0,3.44-.86,10.42,10.42,0,0,0,4.51-2.66,5.72,5.72,0,0,0,1.73-4.08,3.77,3.77,0,0,0-1.34-3,5.28,5.28,0,0,0-3.53-1.13,25.25,25.25,0,0,0-3.21.25Z"/><path class="cls-1" d="M120.23,20.84a30.72,30.72,0,0,1,4.4-.49,5.4,5.4,0,0,1,3.46,1A3.16,3.16,0,0,1,129.37,24,4.09,4.09,0,0,1,128,26.87,9.52,9.52,0,0,1,124.56,29q-.26.1-.26.22A11.59,11.59,0,0,0,126.42,31a46.34,46.34,0,0,0,3.89,2.73.85.85,0,0,1,.16,1.46,1,1,0,0,1-.64.32,4.06,4.06,0,0,1-1.93-1q-1.33-1-2.75-2.21a19.05,19.05,0,0,0-3.45-2.61,2.14,2.14,0,0,1-1-.19.67.67,0,0,1-.29-.63.86.86,0,0,1,.37-.68,1.36,1.36,0,0,1,.87-.29,4.64,4.64,0,0,1,.55.05,3.9,3.9,0,0,0,.56.06,6.78,6.78,0,0,0,2.8-1.22,3.45,3.45,0,0,0,2-2.87,1.81,1.81,0,0,0-.89-1.5,3.83,3.83,0,0,0-2.26-.63,14.77,14.77,0,0,0-2.05.14,8.42,8.42,0,0,0-1.31.25.86.86,0,0,0-.46.53,21.18,21.18,0,0,0-.58,2.71q-.41,2.29-.64,4.32a29.6,29.6,0,0,0-.23,3,7,7,0,0,0,.1,1.28,5.48,5.48,0,0,1,.09.87.94.94,0,0,1-.32.64,1,1,0,0,1-.7.33q-1.08,0-1.08-1.74a55.7,55.7,0,0,1,1.45-10.94,3.83,3.83,0,0,0,.07-.42.43.43,0,0,0-.07-.18,2.27,2.27,0,0,1-.41-.86.83.83,0,0,1,.38-.68,1.18,1.18,0,0,1,.69-.29Z"/><path class="cls-1" d="M141.16,31.86q0,1-1.85,2.52a6.07,6.07,0,0,1-3.82,1.48,3.29,3.29,0,0,1-2.55-1,3.86,3.86,0,0,1-.9-2.72,9.17,9.17,0,0,1,2-5.58q2-2.65,4.33-2.65a1.69,1.69,0,0,1,1.74,1.71,4.16,4.16,0,0,1-1.55,3,19.85,19.85,0,0,1-4.14,2.84.82.82,0,0,0-.53.72,1.89,1.89,0,0,0,.49,1.36,1.93,1.93,0,0,0,1.46.51q2.2,0,4.5-2.44.34-.34.51-.34Q141.16,31.33,141.16,31.86ZM134,30.26q4.35-2.58,4.35-4.15,0-.62-.55-.62a3.16,3.16,0,0,0-2.13,1.38A8,8,0,0,0,134,30.26Z"/><path class="cls-1" d="M151.43,28.55q-.29,0-1.38,2.39a33.13,33.13,0,0,1-1.85,3.49Q147.26,36,146.81,36q-1.27,0-2.35-3.78a23.32,23.32,0,0,1-1.08-6.09,2,2,0,0,1,.37-1.24,1.22,1.22,0,0,1,.89-.53h.26c.12,0,.27.12.45.34a1,1,0,0,1,.27.63v0q0,.12-.11,1a12.15,12.15,0,0,0-.09,1.63,11.26,11.26,0,0,0,.58,3.37q.58,1.85,1,1.85t1.9-3.12q1-2,1.46-2.73l.33-.62A6,6,0,0,1,152,24.88q.88.11.88.88a1.92,1.92,0,0,1,0,.43,1.92,1.92,0,0,0,0,.43,9.27,9.27,0,0,0,1,4q1,2.08,1.4,2.08t1-2.17a28,28,0,0,1,1.67-4.43A6.5,6.5,0,0,1,159,24.32a1.29,1.29,0,0,1,.81-.28.54.54,0,0,1,.44.22.74.74,0,0,1,.18.48.88.88,0,0,1-.11.52,18.43,18.43,0,0,0-2.44,5.22q-1,3-1.36,3.82t-.62.78a2.57,2.57,0,0,1-2-.91,17.63,17.63,0,0,1-2.09-4.82Q151.57,28.89,151.43,28.55Z"/><path class="cls-1" d="M163.77,33.06a8.21,8.21,0,0,0,.22,1.75,1.47,1.47,0,0,1,0,.31q0,.18-.34.48a1.09,1.09,0,0,1-.72.29q-1,0-1-1.83a35.81,35.81,0,0,1,.78-6,14.36,14.36,0,0,0,.27-1.75,2.37,2.37,0,0,1,.24-1.1.73.73,0,0,1,.67-.46,1.25,1.25,0,0,1,.83.25.72.72,0,0,1,.3.56,3.11,3.11,0,0,1-.14.81,38.17,38.17,0,0,0-1,3.88A18.09,18.09,0,0,0,163.77,33.06Zm1.34-11.45q-.22,0-.33-.46a3,3,0,0,0-.11-.32,3.1,3.1,0,0,1-.28-1.16,1.17,1.17,0,0,1,.49-.84A1.61,1.61,0,0,1,166,18.4a1.29,1.29,0,0,1,.67.23q.37.23.37.45a4.57,4.57,0,0,1-.25,1.15,1.72,1.72,0,0,1-.8,1.09A2.06,2.06,0,0,1,165.12,21.6Z"/><path class="cls-1" d="M174.87,27.45a1.71,1.71,0,0,0-1.16.7,18.46,18.46,0,0,0-1.92,3.13,20.68,20.68,0,0,1-2.2,3.71,1.39,1.39,0,0,1-.83.45,1.05,1.05,0,0,1-1.21-1.17,8.39,8.39,0,0,1,.16-1.39,36.42,36.42,0,0,0,.56-6.53,1.56,1.56,0,0,1,.33-.87q.33-.48.63-.48a.85.85,0,0,1,.76.33,2.6,2.6,0,0,1,.23,1.32,29.29,29.29,0,0,1-.62,4.27,10,10,0,0,0-.21,1.35q0,.16.08.16A11.79,11.79,0,0,0,170.91,30a16,16,0,0,1,2.25-3.51,2.89,2.89,0,0,1,2.12-1,1.75,1.75,0,0,1,1.5.84,7.35,7.35,0,0,1,.85,3.07,18.29,18.29,0,0,0,.52,3.15q.23.62.73.62a2,2,0,0,0,.8-.23l.12,0q.44,0,.44.51a1.36,1.36,0,0,1-.6,1,2.19,2.19,0,0,1-1.46.51,1.54,1.54,0,0,1-1.35-.69,10,10,0,0,1-.75-3.7Q175.79,27.45,174.87,27.45Z"/><path class="cls-1" d="M189.16,31.09a12.85,12.85,0,0,1-2.91,3.4,4.76,4.76,0,0,1-2.83,1.19,1.87,1.87,0,0,1-1.57-.76,3.29,3.29,0,0,1-.58-2,8.76,8.76,0,0,1,2.11-5.32q2.11-2.73,4.55-2.73a2.76,2.76,0,0,1,2,.91L191.34,19a1.32,1.32,0,0,1,.57-.92,1.46,1.46,0,0,1,.65-.24q.72,0,.72,1.27a10.77,10.77,0,0,1-.47,1.68,49.25,49.25,0,0,0-1.42,5.54,27.75,27.75,0,0,0-.67,5.28q0,2.05.89,2.05a2.27,2.27,0,0,0,1.19-.38.84.84,0,0,1,.48-.18q.33,0,.33.43t-.92,1.21a3.11,3.11,0,0,1-1.88.69q-1.69,0-1.69-3.26Q189.11,31.65,189.16,31.09Zm-1.34-4.8q-1.66,0-3.29,2.25a7.26,7.26,0,0,0-1.63,4.16q0,1.28.85,1.28a3.53,3.53,0,0,0,1.94-.84A10.39,10.39,0,0,0,188,30.46a6,6,0,0,0,1.21-2.76,1.44,1.44,0,0,0-.42-.93A1.3,1.3,0,0,0,187.82,26.29Z"/><path class="cls-1" d="M210.12,24.68a6.07,6.07,0,0,0-1.8-2.29q-1.33-1.15-1.33-2a1.39,1.39,0,0,1,.43-1.06,4,4,0,0,1,1.6-.73q1.46-.4,3-.91t1.81-.65a.92.92,0,0,1,.4-.09q.34,0,.34.6,0,.34-.82.92a9,9,0,0,1-2.9,1.09,9.54,9.54,0,0,0-1.6.49q-.29.16-.29.32,0,.37.8,1.07a8.42,8.42,0,0,1,3,6.61,8.77,8.77,0,0,1-.9,3.67,6.59,6.59,0,0,1-2.4,2.91,5.47,5.47,0,0,1-2.94,1,2.11,2.11,0,0,1-2-1.26,5.85,5.85,0,0,1-.67-2.78,8.71,8.71,0,0,1,1.66-5.07q1.66-2.38,3.5-2.38a1.06,1.06,0,0,1,.62.32Q210,24.75,210.12,24.68Zm-4.47,6.93a4.29,4.29,0,0,0,.3,1.78q.3.65.79.65a3.43,3.43,0,0,0,1.77-.81,5.59,5.59,0,0,0,1.8-2.4,7.57,7.57,0,0,0,.68-3,4.55,4.55,0,0,0-.32-1.86q-.32-.71-.6-.71-1.83,0-3.13,2.23A8.24,8.24,0,0,0,205.65,31.61Z"/><path class="cls-1" d="M222.5,31.71a14.68,14.68,0,0,1-3.12,2.3,5.73,5.73,0,0,1-2.39.83,1.77,1.77,0,0,1-1.52-.82,3.42,3.42,0,0,1-.57-2,15.51,15.51,0,0,1,.66-4.1,8.45,8.45,0,0,1,1-2.68,1.32,1.32,0,0,1,.92-.32.54.54,0,0,1,.48.36,1.71,1.71,0,0,1,.17.74,1.45,1.45,0,0,1-.24.67,9.5,9.5,0,0,0-1.34,4.81,2.25,2.25,0,0,0,.22,1,.7.7,0,0,0,.66.44,3.76,3.76,0,0,0,1.39-.34,8.86,8.86,0,0,0,1.86-1.12,7.34,7.34,0,0,0,1.39-1.26,3,3,0,0,0,.51-1.1,16.73,16.73,0,0,0,.21-2.67q.06-2.05,1-2.05.55,0,.72.29a2.54,2.54,0,0,1,.16,1.11q0,.62-.18,2.67,0,.46-.05.85a25.74,25.74,0,0,1-1.64,8.58Q221.46,41,218.9,41A6.26,6.26,0,0,1,215.33,40q-1.56-1.05-1.56-1.78a1.51,1.51,0,0,1,.16-.67q.16-.33.4-.33t.27.19a4.59,4.59,0,0,0,4.13,2.06q1.77,0,2.66-2.17A18.37,18.37,0,0,0,222.5,31.71Z"/><path class="cls-1" d="M235.13,23.4a5.45,5.45,0,0,0-.91-2.24,3.54,3.54,0,0,0-1.44-1,4.48,4.48,0,0,0-1.61-.35,2.51,2.51,0,0,0-.82.21,5.61,5.61,0,0,0-.83.38,1.47,1.47,0,0,1-.74.24q-.39,0-.39-.41a2.23,2.23,0,0,1,.67-1.22,3,3,0,0,1,2.35-.78h.44a5.1,5.1,0,0,1,3,.88,4.72,4.72,0,0,1,1.82,2.51,14.37,14.37,0,0,1,.54,4.38A11.57,11.57,0,0,1,236,30.53a9.9,9.9,0,0,1-3,4,6.35,6.35,0,0,1-3.87,1.36,1.78,1.78,0,0,1-1.38-.85,3.39,3.39,0,0,1-.65-2.11,8.1,8.1,0,0,1,1-4.11A11.15,11.15,0,0,1,230.4,26a9.41,9.41,0,0,1,3.5-1.78,8.47,8.47,0,0,0,1-.34A.38.38,0,0,0,235.13,23.4Zm.28,2.09A8.2,8.2,0,0,0,231.78,27a8,8,0,0,0-2.85,6,2.2,2.2,0,0,0,.15.83q.15.39.35.38a3.5,3.5,0,0,0,1.38-.27,5.77,5.77,0,0,0,1.53-1.11,9.3,9.3,0,0,0,1.64-2.1A10.64,10.64,0,0,0,235,28.32a8,8,0,0,0,.35-1.78Q235.42,25.92,235.41,25.49Z"/><path class="cls-1" d="M247.8,31.86q0,1-1.85,2.52a6.07,6.07,0,0,1-3.82,1.48,3.29,3.29,0,0,1-2.55-1,3.86,3.86,0,0,1-.9-2.72,9.17,9.17,0,0,1,2-5.58q2-2.65,4.33-2.65a1.69,1.69,0,0,1,1.74,1.71,4.16,4.16,0,0,1-1.55,3A19.85,19.85,0,0,1,241,31.52a.82.82,0,0,0-.53.72A1.89,1.89,0,0,0,241,33.6a1.93,1.93,0,0,0,1.46.51q2.2,0,4.5-2.44.34-.34.51-.34Q247.8,31.33,247.8,31.86Zm-7.13-1.6Q245,27.67,245,26.1q0-.62-.55-.62a3.16,3.16,0,0,0-2.13,1.38A8,8,0,0,0,240.67,30.26Z"/><path class="cls-1" d="M257.68,27.22q-1,0-4.08,5.65a19.27,19.27,0,0,1-1.23,2.07,1.58,1.58,0,0,1-.64.3,2.94,2.94,0,0,1-.77.13q-.69,0-.69-2.68a40.4,40.4,0,0,1,.65-5.46,16,16,0,0,0,.27-2.29q0-.68.6-.68,1.14,0,1.14,1.64a22.57,22.57,0,0,1-.38,3q-.44,2.56-.45,3.12a14.76,14.76,0,0,0,1.87-2.7,20,20,0,0,1,2.57-3.61,2.51,2.51,0,0,1,1.71-.76q.67,0,1.06.89a14.5,14.5,0,0,1,.48,4.26,4.72,4.72,0,0,0,.15,1.25q.13.41.19.41.48,0,2.09-3.28a11.86,11.86,0,0,1,1.68-2.64,2.41,2.41,0,0,1,1.81-.9,1.26,1.26,0,0,1,1.21.86,8.65,8.65,0,0,1,.54,2.54,23.51,23.51,0,0,0,.48,3.12,2.43,2.43,0,0,0,1.18,1.81q.58.28.58.65a1,1,0,0,1-.49.74,1.53,1.53,0,0,1-.9.38,1.8,1.8,0,0,1-1.47-1,11.46,11.46,0,0,1-1-4.35,17.52,17.52,0,0,0-.28-1.91q-.13-.56-.42-.56t-1,.82a33,33,0,0,0-1.9,3.33A18.21,18.21,0,0,1,260.69,34a1.42,1.42,0,0,1-1,.65,1.08,1.08,0,0,1-.79-.35,1.6,1.6,0,0,1-.44-.85q-.09-.5-.19-2.45Q258.09,27.76,257.68,27.22Z"/><path class="cls-1" d="M286.26,24.88q2.33.94,2.33,4.47A7,7,0,0,1,286.93,34a4.69,4.69,0,0,1-3.59,2,3.11,3.11,0,0,1-2.7-1.37,7,7,0,0,1-1-4,19.75,19.75,0,0,1,1.12-6.45,12.7,12.7,0,0,1,2.8-4.93A4.87,4.87,0,0,1,287,17.51a2.16,2.16,0,0,1,1.67.68,2.68,2.68,0,0,1,.63,1.89,4.49,4.49,0,0,1-.84,2.29A11.55,11.55,0,0,1,286.26,24.88Zm.45,4.76a4.72,4.72,0,0,0-.56-2.46q-.56-.93-1.25-.93a13.41,13.41,0,0,0-2.29,1.58q-.53.41-1,.76a11.31,11.31,0,0,0-.15,1.94,5.62,5.62,0,0,0,.56,2.81,1.72,1.72,0,0,0,1.54.94,2.65,2.65,0,0,0,2.28-1.44,5.83,5.83,0,0,0,.91-3.17Zm-4.9-2.89a28.18,28.18,0,0,0,4.88-4.35,4,4,0,0,0,.93-2.06q0-1.2-1-1.2-1.34,0-2.7,2A16.45,16.45,0,0,0,281.81,26.75Z"/><path class="cls-1" d="M293,23.72a.51.51,0,0,1,.3-.09q.26,0,.43.69a3.55,3.55,0,0,1-.24,1.12,9.68,9.68,0,0,0-.7,2.71q0,.21.12.23,2.36-2.27,4.37-2.27a3.09,3.09,0,0,1,2.92,2.66,6.23,6.23,0,0,1-2.42,4.57,7.33,7.33,0,0,1-4.89,2.19,1.94,1.94,0,0,1-1.71-.91,4.64,4.64,0,0,1-.61-2.6,20.14,20.14,0,0,1,.46-4.06,25,25,0,0,1,.74-3q.11-.32.21-.65T293,23.72Zm-.48,6.43a12.81,12.81,0,0,0-.21,2.28q0,1.55,1.22,1.55a4.76,4.76,0,0,0,3.08-1.64,4.6,4.6,0,0,0,1.7-3.19,1.67,1.67,0,0,0-.34-1.07,1.12,1.12,0,0,0-.93-.43,3.44,3.44,0,0,0-1.59.41,8.13,8.13,0,0,0-1.75,1.31l-.59.54A1.19,1.19,0,0,1,292.56,30.15Zm10.33,2.36a8.2,8.2,0,0,0,.21,1.75,1.47,1.47,0,0,1,0,.31q0,.18-.34.48a1.09,1.09,0,0,1-.72.29q-1,0-1-1.83a38.77,38.77,0,0,1,.79-6.09,16.45,16.45,0,0,0,.29-1.89,2.38,2.38,0,0,1,.24-1.1.73.73,0,0,1,.67-.46,1.26,1.26,0,0,1,.83.25.73.73,0,0,1,.3.56,3.57,3.57,0,0,1-.14.85q-.8,2.92-1,4.09A18.09,18.09,0,0,0,302.89,32.5Z"/><path class="cls-1" d="M308.23,34.14a41.6,41.6,0,0,0-.94,5.18L307,41.26a1.9,1.9,0,0,1-.38.82q-.31.4-.56.4a1.22,1.22,0,0,1-.72-.32q-.41-.32-.41-.52a6.7,6.7,0,0,1,.26-1.56,56.3,56.3,0,0,0,1.88-13.31v-.86a2.47,2.47,0,0,1,.39-1.61,1.2,1.2,0,0,1,.94-.5q.25,0,.47.38a2.18,2.18,0,0,1,.23,1.09,17.22,17.22,0,0,1-.21,2.41q-.27,1.78-.28,2.05a16.13,16.13,0,0,1,3.24-4.16,5,5,0,0,1,3.18-1.5,2.28,2.28,0,0,1,1.75.77,2.73,2.73,0,0,1,.71,1.92,8.66,8.66,0,0,1-2.56,6.07q-2.56,2.73-5,2.73a1.41,1.41,0,0,1-1-.31A3.45,3.45,0,0,1,308.23,34.14Zm6.37-8.25q-1.45,0-3.58,2.71t-2.13,4.21a1,1,0,0,0,.42.72,1.61,1.61,0,0,0,1.07.35q1.47,0,3.37-2.17a6.54,6.54,0,0,0,1.91-4.26,1.9,1.9,0,0,0-.3-1.15A.91.91,0,0,0,314.6,25.89Z"/><path class="cls-1" d="M328.86,31.86q0,1-1.85,2.52a6.07,6.07,0,0,1-3.82,1.48,3.29,3.29,0,0,1-2.55-1,3.86,3.86,0,0,1-.9-2.72,9.17,9.17,0,0,1,2-5.58q2-2.65,4.33-2.65a1.69,1.69,0,0,1,1.74,1.71,4.16,4.16,0,0,1-1.55,3,19.85,19.85,0,0,1-4.14,2.84.82.82,0,0,0-.53.72,1.89,1.89,0,0,0,.49,1.36,1.93,1.93,0,0,0,1.46.51q2.2,0,4.5-2.44.34-.34.51-.34Q328.86,31.33,328.86,31.86Zm-7.13-1.6q4.35-2.58,4.35-4.15,0-.62-.55-.62a3.16,3.16,0,0,0-2.13,1.38A8,8,0,0,0,321.74,30.26Z"/><path class="cls-1" d="M336,29a3.59,3.59,0,0,1,2.06,1,2.56,2.56,0,0,1,.74,1.86,3.53,3.53,0,0,1-1.47,2.89,6.05,6.05,0,0,1-3.86,1.15,4.71,4.71,0,0,1-2.46-.62q-1-.62-1-1.36t.71-.62a.64.64,0,0,1,.32.17,4,4,0,0,0,2.68,1,3.88,3.88,0,0,0,2.35-.72,2.21,2.21,0,0,0,1-1.87,1.64,1.64,0,0,0-.56-1.27,1.87,1.87,0,0,0-1.3-.51,8,8,0,0,0-2,.44,1.87,1.87,0,0,1-.59.09q-.62,0-.62-.83a.52.52,0,0,1,.29-.46,5.3,5.3,0,0,1,1.26-.4q2.92-.67,2.92-2.37a1.1,1.1,0,0,0-.36-.85,1.33,1.33,0,0,0-.94-.33,3.78,3.78,0,0,0-2.28.94,2.1,2.1,0,0,1-1.08.55q-.63,0-.62-.58,0-.77,1.45-1.57a5.75,5.75,0,0,1,2.78-.81,3,3,0,0,1,2.1.71,2,2,0,0,1,.76,1.49Q338.29,28,336,29Z"/><path class="cls-1" d="M348,31.6a12.56,12.56,0,0,1-2.84,2.89,4.66,4.66,0,0,1-2.57,1,1.75,1.75,0,0,1-1.36-.67,2.53,2.53,0,0,1-.57-1.71,9.73,9.73,0,0,1,2.41-5.81q2.41-3.11,4.79-3.11a1.37,1.37,0,0,1,1.28,1,.45.45,0,0,0,.42.33q.82,0,.82.64a5.09,5.09,0,0,1-.1.87,27.68,27.68,0,0,0-.55,4.27q0,2.48.94,3a.71.71,0,0,1,.45.6.86.86,0,0,1-.44.64,1.45,1.45,0,0,1-.85.32q-.79,0-1.3-1.09A7.46,7.46,0,0,1,348,31.6Zm-.62-5.77q-1.35,0-3.15,2.54a7.94,7.94,0,0,0-1.79,4.21q0,1.18.78,1.18,1.13,0,3.13-2.28a6.64,6.64,0,0,0,2-4.18Q348.36,25.83,347.39,25.83Z"/><path class="cls-1" d="M361.17,27.22q-1,0-4.08,5.65a19.27,19.27,0,0,1-1.23,2.07,1.58,1.58,0,0,1-.64.3,2.94,2.94,0,0,1-.77.13q-.69,0-.69-2.68a40.43,40.43,0,0,1,.65-5.46,16,16,0,0,0,.27-2.29q0-.68.6-.68,1.14,0,1.14,1.64a22.6,22.6,0,0,1-.38,3q-.44,2.56-.45,3.12a14.76,14.76,0,0,0,1.87-2.7A20,20,0,0,1,360,25.74a2.51,2.51,0,0,1,1.71-.76q.67,0,1.06.89a14.5,14.5,0,0,1,.48,4.26,4.72,4.72,0,0,0,.15,1.25q.13.41.2.41.48,0,2.09-3.28a11.86,11.86,0,0,1,1.68-2.64,2.41,2.41,0,0,1,1.81-.9,1.26,1.26,0,0,1,1.21.86,8.65,8.65,0,0,1,.54,2.54,23.5,23.5,0,0,0,.48,3.12,2.42,2.42,0,0,0,1.18,1.81q.58.28.58.65a1,1,0,0,1-.49.74,1.53,1.53,0,0,1-.9.38,1.8,1.8,0,0,1-1.47-1,11.46,11.46,0,0,1-1-4.35,17.49,17.49,0,0,0-.28-1.91q-.13-.56-.42-.56t-1,.82a32.85,32.85,0,0,0-1.9,3.33A18.22,18.22,0,0,1,364.18,34a1.42,1.42,0,0,1-1,.65,1.08,1.08,0,0,1-.79-.35,1.6,1.6,0,0,1-.44-.85q-.09-.5-.2-2.45Q361.58,27.76,361.17,27.22Z"/><path class="cls-1" d="M377.39,23.72a.51.51,0,0,1,.3-.09q.26,0,.43.69a3.55,3.55,0,0,1-.24,1.12,9.68,9.68,0,0,0-.7,2.71q0,.21.12.23,2.36-2.27,4.37-2.27a3.09,3.09,0,0,1,2.92,2.66,6.23,6.23,0,0,1-2.42,4.57,7.33,7.33,0,0,1-4.89,2.19,1.94,1.94,0,0,1-1.71-.91A4.65,4.65,0,0,1,375,32a20.14,20.14,0,0,1,.46-4.06,25,25,0,0,1,.74-3q.11-.32.21-.65T377.39,23.72Zm-.48,6.43a12.81,12.81,0,0,0-.21,2.28q0,1.55,1.22,1.55A4.76,4.76,0,0,0,381,32.33a4.6,4.6,0,0,0,1.7-3.19,1.67,1.67,0,0,0-.34-1.07,1.12,1.12,0,0,0-.93-.43,3.44,3.44,0,0,0-1.59.41,8.13,8.13,0,0,0-1.75,1.31l-.59.54A1.19,1.19,0,0,1,376.91,30.15Z"/><path class="cls-1" d="M402.53,28.64a16.94,16.94,0,0,0,.36-2.57q.18-1.89,1.2-1.89a.73.73,0,0,1,.83.83,4.35,4.35,0,0,1-.14.79,24.2,24.2,0,0,0-.79,5.49q0,2.4.79,3.11.41.38.41.62c0,.19-.14.37-.41.52a1.56,1.56,0,0,1-.75.24q-1.6,0-1.6-4.94,0-.33-.25-.33-1,0-2.36.11a11.24,11.24,0,0,0-2,.29,1.89,1.89,0,0,0-.74.32,1.81,1.81,0,0,0-.25.79,8,8,0,0,0-.11,1.33V34.6q0,1.1-1,1.1-.84,0-.84-1.1a11.53,11.53,0,0,1,.18-1.83q.34-2,.68-7a3.34,3.34,0,0,1,.11-.82,1,1,0,0,1,.37-.38,1.14,1.14,0,0,1,.66-.21q.74,0,.74.6,0,.09-.24,1.54a14.34,14.34,0,0,0-.25,2.25q0,.56.39.56a27.37,27.37,0,0,0,2.85-.26A6.93,6.93,0,0,0,402.53,28.64Z"/><path class="cls-1" d="M414.25,31.6a12.58,12.58,0,0,1-2.84,2.89,4.66,4.66,0,0,1-2.57,1,1.75,1.75,0,0,1-1.36-.67,2.53,2.53,0,0,1-.57-1.71,9.73,9.73,0,0,1,2.41-5.81q2.41-3.11,4.79-3.11a1.37,1.37,0,0,1,1.28,1,.45.45,0,0,0,.42.33q.82,0,.82.64a5.09,5.09,0,0,1-.1.87,27.68,27.68,0,0,0-.55,4.27q0,2.48.94,3a.71.71,0,0,1,.45.6.87.87,0,0,1-.44.64,1.45,1.45,0,0,1-.85.32q-.79,0-1.3-1.09A7.46,7.46,0,0,1,414.25,31.6Zm-.63-5.77q-1.35,0-3.15,2.54a7.94,7.94,0,0,0-1.79,4.21q0,1.18.78,1.18,1.13,0,3.13-2.28a6.64,6.64,0,0,0,2-4.18Q414.58,25.83,413.62,25.83Z"/><path class="cls-1" d="M424.67,29a3.59,3.59,0,0,1,2.06,1,2.56,2.56,0,0,1,.74,1.86A3.53,3.53,0,0,1,426,34.74a6.05,6.05,0,0,1-3.86,1.15,4.71,4.71,0,0,1-2.46-.62q-1-.62-1-1.36t.71-.62a.64.64,0,0,1,.32.17,4,4,0,0,0,2.68,1,3.88,3.88,0,0,0,2.35-.72,2.21,2.21,0,0,0,1-1.87,1.64,1.64,0,0,0-.56-1.27,1.87,1.87,0,0,0-1.3-.51,8,8,0,0,0-2,.44,1.87,1.87,0,0,1-.59.09q-.62,0-.62-.83a.52.52,0,0,1,.29-.46,5.29,5.29,0,0,1,1.26-.4q2.92-.67,2.92-2.37a1.1,1.1,0,0,0-.36-.85,1.34,1.34,0,0,0-.94-.33,3.78,3.78,0,0,0-2.28.94,2.1,2.1,0,0,1-1.08.55q-.63,0-.62-.58,0-.77,1.45-1.57a5.75,5.75,0,0,1,2.78-.81,3,3,0,0,1,2.1.71,2,2,0,0,1,.76,1.49Q426.94,28,424.67,29Z"/><path class="cls-1" d="M432.75,35.85a2.91,2.91,0,0,1-2.32-1.07,3.91,3.91,0,0,1-.91-2.64,9.08,9.08,0,0,1,1.78-5.21,5.13,5.13,0,0,1,4.26-2.57,3.26,3.26,0,0,1,2.66,1.26,4.63,4.63,0,0,1,1,3,7.15,7.15,0,0,1-2.11,4.94A6,6,0,0,1,432.75,35.85Zm-1.42-4a3,3,0,0,0,.44,1.69,1.33,1.33,0,0,0,1.15.66A4.3,4.3,0,0,0,436,32.55a5.39,5.39,0,0,0,1.54-3.73,3.31,3.31,0,0,0-.59-2,1.88,1.88,0,0,0-1.58-.78,3.37,3.37,0,0,0-2.83,2A7.67,7.67,0,0,0,431.33,31.88Z"/><path class="cls-1" d="M448.87,30.87a14.23,14.23,0,0,1-2.69,3.41,4,4,0,0,1-2.55,1.21,1.93,1.93,0,0,1-1.38-.79,3.57,3.57,0,0,1-.7-2.43,18.11,18.11,0,0,1,.65-4,15,15,0,0,0,.54-3.07,1,1,0,0,1,.93-.62.86.86,0,0,1,.69.3,1,1,0,0,1,.26.63,6.32,6.32,0,0,1-.5,2,13.07,13.07,0,0,0-1,4.42q0,1.68.78,1.68,1,0,2.53-1.69a14.12,14.12,0,0,0,2.64-4.72,7.05,7.05,0,0,1,.7-1.57.87.87,0,0,1,.73-.36q.7,0,.7.92A4.68,4.68,0,0,1,451,27a16.09,16.09,0,0,0-.62,4.25q0,2.4.79,3.11.41.38.41.62t-.42.52a1.56,1.56,0,0,1-.75.24q-.72,0-1.16-1.07a8.63,8.63,0,0,1-.44-3.15v-.34C448.86,31.1,448.87,31,448.87,30.87Zm3-10.56a1.52,1.52,0,0,1-.11.49,3.58,3.58,0,0,1-.3.63,5,5,0,0,1-.47.66,3.08,3.08,0,0,1-.63.56,3.22,3.22,0,0,1-.59.32,5.21,5.21,0,0,1-.72.25,6.36,6.36,0,0,1-.77.16,5.26,5.26,0,0,1-.75.06,4.52,4.52,0,0,1-1.13-.14,4.29,4.29,0,0,1-1-.39,4,4,0,0,1-.83-.6,3.46,3.46,0,0,1-.62-.77,2.09,2.09,0,0,1-.14-.3,3.61,3.61,0,0,1-.11-.34c0-.11-.05-.21-.07-.3a1.27,1.27,0,0,1,0-.17,1.21,1.21,0,0,1,.07-.45.86.86,0,0,1,.18-.29.59.59,0,0,1,.24-.15.87.87,0,0,1,.26,0,1,1,0,0,1,.51.12.44.44,0,0,1,.23.36,3.39,3.39,0,0,0,.19.88,1.8,1.8,0,0,0,.45.7,2.23,2.23,0,0,0,.79.49,3.24,3.24,0,0,0,1.17.19l.38,0,.45-.09.44-.14a2,2,0,0,0,.36-.18,1.84,1.84,0,0,0,.42-.39,2.87,2.87,0,0,0,.31-.47,3.85,3.85,0,0,0,.22-.49q.09-.25.15-.45a.82.82,0,0,1,.3-.44.7.7,0,0,1,.4-.13.74.74,0,0,1,.57.22A1,1,0,0,1,451.85,20.31Z"/><path class="cls-1" d="M460.19,27c-.16,0-.33.15-.48.47a49.23,49.23,0,0,1-3.21,5.76c-.06.09-.14.22-.24.39q-1.28,2.29-1.88,2.29-.8,0-.8-.77a3.47,3.47,0,0,1,1-1.9,28.58,28.58,0,0,0,2.53-3.86q1.57-2.72,2.54-4.89a.59.59,0,0,1,.55-.39,2,2,0,0,1,.55.14,1,1,0,0,1,.51.3,12.27,12.27,0,0,1,.5,1.91q1.26,6.29,2.66,7.45a2.68,2.68,0,0,1,.39.38.51.51,0,0,1,.06.27.92.92,0,0,1-.21.58,1,1,0,0,1-.4.33,2.81,2.81,0,0,1-.8.07q-.22,0-1-1.06t-1.85-5.79A11.49,11.49,0,0,0,460.19,27Z"/><path class="cls-1" d="M474.22,30.87a14.23,14.23,0,0,1-2.69,3.41A4,4,0,0,1,469,35.5a1.93,1.93,0,0,1-1.38-.79,3.57,3.57,0,0,1-.7-2.43,18.11,18.11,0,0,1,.65-4,15,15,0,0,0,.54-3.07,1,1,0,0,1,.93-.62.86.86,0,0,1,.69.3,1,1,0,0,1,.26.63,6.32,6.32,0,0,1-.5,2,13.07,13.07,0,0,0-1,4.42q0,1.68.78,1.68,1,0,2.53-1.69a14.12,14.12,0,0,0,2.64-4.72,7.05,7.05,0,0,1,.7-1.57.87.87,0,0,1,.73-.36q.7,0,.7.92a4.68,4.68,0,0,1-.19.75,16.09,16.09,0,0,0-.62,4.25q0,2.4.79,3.11.41.38.41.62t-.42.52a1.56,1.56,0,0,1-.75.24q-.72,0-1.16-1.07a8.63,8.63,0,0,1-.44-3.15v-.34C474.21,31.1,474.21,31,474.22,30.87Z"/><path class="cls-1" d="M486.13,24.88q2.33.94,2.33,4.47A7,7,0,0,1,486.8,34a4.69,4.69,0,0,1-3.59,2,3.11,3.11,0,0,1-2.7-1.37,7,7,0,0,1-1-4,19.75,19.75,0,0,1,1.12-6.45,12.7,12.7,0,0,1,2.8-4.93,4.87,4.87,0,0,1,3.39-1.67,2.17,2.17,0,0,1,1.67.68,2.68,2.68,0,0,1,.63,1.89,4.5,4.5,0,0,1-.84,2.29A11.57,11.57,0,0,1,486.13,24.88Zm.45,4.76a4.72,4.72,0,0,0-.56-2.46q-.56-.93-1.25-.93a13.38,13.38,0,0,0-2.29,1.58q-.53.41-1,.76a11.31,11.31,0,0,0-.15,1.94,5.62,5.62,0,0,0,.56,2.81,1.72,1.72,0,0,0,1.54.94,2.65,2.65,0,0,0,2.28-1.44,5.83,5.83,0,0,0,.91-3.17Zm-4.9-2.89a28.18,28.18,0,0,0,4.88-4.35,4,4,0,0,0,.93-2.06q0-1.2-1-1.2-1.34,0-2.7,2A16.46,16.46,0,0,0,481.68,26.75Z"/><path class="cls-1" d="M498.11,31.71A14.68,14.68,0,0,1,495,34a5.73,5.73,0,0,1-2.39.83,1.77,1.77,0,0,1-1.52-.82,3.42,3.42,0,0,1-.57-2,15.51,15.51,0,0,1,.66-4.1,8.45,8.45,0,0,1,1-2.68,1.32,1.32,0,0,1,.92-.32.54.54,0,0,1,.48.36,1.72,1.72,0,0,1,.17.74,1.45,1.45,0,0,1-.24.67,9.5,9.5,0,0,0-1.34,4.81,2.24,2.24,0,0,0,.22,1,.69.69,0,0,0,.66.44,3.76,3.76,0,0,0,1.39-.34,8.85,8.85,0,0,0,1.86-1.12,7.34,7.34,0,0,0,1.39-1.26,3,3,0,0,0,.51-1.1,16.73,16.73,0,0,0,.21-2.67q.06-2.05,1-2.05c.37,0,.61.1.72.29a2.54,2.54,0,0,1,.16,1.11q0,.62-.18,2.67c0,.31,0,.59-.05.85a25.74,25.74,0,0,1-1.64,8.58Q497.08,41,494.51,41A6.26,6.26,0,0,1,490.94,40q-1.56-1.05-1.56-1.78a1.51,1.51,0,0,1,.16-.67c.11-.22.24-.33.41-.33s.17.06.27.19a4.59,4.59,0,0,0,4.13,2.06q1.77,0,2.66-2.17A18.4,18.4,0,0,0,498.11,31.71Z"/><path class="cls-1" d="M510.47,28.84l.05-.1.07-.12a9.11,9.11,0,0,1,2.34-3.51A4.6,4.6,0,0,1,516,23.88a3.26,3.26,0,0,1,2.66,1.26,4.63,4.63,0,0,1,1,3,7.15,7.15,0,0,1-2.11,4.94,6,6,0,0,1-4.38,2.28,2.92,2.92,0,0,1-2.31-1.07,3.89,3.89,0,0,1-.92-2.62l0-.42a2.87,2.87,0,0,0,0-.45c0-.06-.09-.09-.21-.09h-1.77a10,10,0,0,0-1.7.14,2.32,2.32,0,0,0-.86.26,1,1,0,0,0-.21.54q-.11.66-.19,1a2.83,2.83,0,0,0-.09.73l0,.86a2.24,2.24,0,0,1-.25,1,.83.83,0,0,1-.79.52q-.84,0-.84-1.1l0-.9q0-.16.23-1.58.28-1.74.52-5.48.08-1.2.12-1.48a.85.85,0,0,1,.37-.54,1.16,1.16,0,0,1,.73-.26q.74,0,.74.6,0,.09-.24,1.54a14.34,14.34,0,0,0-.25,2.25q0,.56.39.56.85,0,2.8-.17A6.19,6.19,0,0,0,510.47,28.84Zm1.31,2.55a3,3,0,0,0,.44,1.69,1.33,1.33,0,0,0,1.15.66,4.3,4.3,0,0,0,3.07-1.68A5.39,5.39,0,0,0,518,28.34a3.32,3.32,0,0,0-.59-2,1.88,1.88,0,0,0-1.58-.78,3.37,3.37,0,0,0-2.84,2A7.68,7.68,0,0,0,511.78,31.4Z"/><path class="cls-1" d="M88.76,59.34a41.6,41.6,0,0,0-.94,5.18l-.29,1.94a1.9,1.9,0,0,1-.38.82q-.31.4-.56.4a1.22,1.22,0,0,1-.72-.32q-.41-.32-.41-.52a6.69,6.69,0,0,1,.26-1.56A56.3,56.3,0,0,0,87.59,52v-.86A2.47,2.47,0,0,1,88,49.5a1.2,1.2,0,0,1,.94-.5q.25,0,.47.38a2.18,2.18,0,0,1,.23,1.09,17.22,17.22,0,0,1-.21,2.41q-.27,1.78-.28,2.05a16.13,16.13,0,0,1,3.24-4.16,5,5,0,0,1,3.18-1.5A2.28,2.28,0,0,1,97.3,50,2.73,2.73,0,0,1,98,52,8.66,8.66,0,0,1,95.45,58q-2.56,2.73-5,2.73a1.41,1.41,0,0,1-1-.31A3.45,3.45,0,0,1,88.76,59.34Zm6.37-8.25q-1.45,0-3.58,2.71T89.42,58a1,1,0,0,0,.42.72,1.61,1.61,0,0,0,1.07.35q1.47,0,3.37-2.17a6.54,6.54,0,0,0,1.91-4.26,1.9,1.9,0,0,0-.3-1.15A.91.91,0,0,0,95.13,51.09Z"/><path class="cls-1" d="M109.39,57.06q0,1-1.85,2.52a6.07,6.07,0,0,1-3.82,1.48,3.29,3.29,0,0,1-2.55-1,3.86,3.86,0,0,1-.9-2.72,9.17,9.17,0,0,1,2-5.58q2-2.65,4.33-2.65a1.69,1.69,0,0,1,1.74,1.71,4.16,4.16,0,0,1-1.55,3,19.85,19.85,0,0,1-4.14,2.84.82.82,0,0,0-.53.72,1.89,1.89,0,0,0,.49,1.36,1.93,1.93,0,0,0,1.46.51q2.2,0,4.5-2.44.34-.34.51-.34Q109.39,56.53,109.39,57.06Zm-7.13-1.6q4.35-2.58,4.35-4.15,0-.62-.55-.62a3.16,3.16,0,0,0-2.13,1.38A8,8,0,0,0,102.27,55.46Z"/><path class="cls-1" d="M113.62,55.14A6.91,6.91,0,0,0,118,52a8.73,8.73,0,0,1,1.58-1.79,2.33,2.33,0,0,1,1.45-.53.93.93,0,0,1,.62.28.86.86,0,0,1,.31.66q0,.5-1,.79a2.69,2.69,0,0,0-.94.52,20.78,20.78,0,0,0-1.67,1.76,7.43,7.43,0,0,1-1.73,1.53s-.07.05-.07.07,0,.05.09.08a5.1,5.1,0,0,1,1.58,1.55A10.53,10.53,0,0,0,120,59a2.31,2.31,0,0,0,1.38.44h.34q.36,0,.36.32a1.17,1.17,0,0,1-.44.81,2.07,2.07,0,0,1-1.46.42,2.23,2.23,0,0,1-1.51-.67A10.8,10.8,0,0,1,117,58.15a7.05,7.05,0,0,0-1-1.35,1.47,1.47,0,0,0-1-.46,4.24,4.24,0,0,0-.76.21q-.64.21-.71.4a6.65,6.65,0,0,0-.11,1.36q0,1.17,0,1.89a.87.87,0,0,1-.36.68,1.2,1.2,0,0,1-.78.3.91.91,0,0,1-.68-.25.74.74,0,0,1-.25-.52,12.31,12.31,0,0,1,.28-1.74q.49-2.5,1-8.25a1.71,1.71,0,0,1,.42-1,1.11,1.11,0,0,1,.86-.45.52.52,0,0,1,.45.29,1.38,1.38,0,0,1,.18.74,3.23,3.23,0,0,1-.12.82A21.54,21.54,0,0,0,113.62,55.14Z"/><path class="cls-1" d="M129.34,52.18q-.25,0-.48.47a49.1,49.1,0,0,1-3.21,5.76q-.09.13-.24.39-1.28,2.29-1.88,2.29-.8,0-.8-.77a3.47,3.47,0,0,1,1-1.9,28.48,28.48,0,0,0,2.53-3.86q1.57-2.72,2.54-4.89a.59.59,0,0,1,.55-.39,2,2,0,0,1,.55.14,1,1,0,0,1,.51.3,12.11,12.11,0,0,1,.5,1.91q1.26,6.29,2.66,7.45a2.66,2.66,0,0,1,.39.38.51.51,0,0,1,.06.27.92.92,0,0,1-.21.58,1,1,0,0,1-.4.33,2.81,2.81,0,0,1-.8.07q-.22,0-1-1.06t-1.85-5.79A11.49,11.49,0,0,0,129.34,52.18Z"/><path class="cls-1" d="M143,56.8a12.56,12.56,0,0,1-2.84,2.89,4.66,4.66,0,0,1-2.57,1,1.75,1.75,0,0,1-1.36-.67,2.53,2.53,0,0,1-.57-1.71,9.73,9.73,0,0,1,2.41-5.81q2.41-3.11,4.79-3.11a1.37,1.37,0,0,1,1.28,1,.44.44,0,0,0,.42.33q.82,0,.82.64a5.09,5.09,0,0,1-.1.87,27.68,27.68,0,0,0-.55,4.27q0,2.48.94,3a.71.71,0,0,1,.45.6.86.86,0,0,1-.44.64,1.45,1.45,0,0,1-.85.32q-.79,0-1.3-1.09A7.46,7.46,0,0,1,143,56.8ZM142.41,51q-1.35,0-3.15,2.54a8,8,0,0,0-1.79,4.21q0,1.18.78,1.18,1.13,0,3.13-2.28a6.64,6.64,0,0,0,2-4.18Q143.37,51,142.41,51Z"/><path class="cls-1" d="M161.53,51.55a50.12,50.12,0,0,0-2.34,4.51q-.34.72-.69,1.38-.11.22-.43,1-1.08,2.5-1.88,2.5a2.1,2.1,0,0,1-.93-.15,1.58,1.58,0,0,1-.56-.84,26.6,26.6,0,0,1-.79-3.23q-.6-2.88-.82-3.55-.7,1.57-1.24,3a25.84,25.84,0,0,1-1.59,3.49,7.07,7.07,0,0,1-1.11,1.62,1.05,1.05,0,0,1-.65.27.81.81,0,0,1-.57-.25.69.69,0,0,1-.26-.48,1.32,1.32,0,0,1,.14-.52,13.8,13.8,0,0,0,1.54-2.34q.65-1.24,1.65-3.72a21.27,21.27,0,0,0,1.28-4.07q.13-.68,1-.68a1.11,1.11,0,0,1,.69.15,1.56,1.56,0,0,1,.36.63,3.16,3.16,0,0,1,.21.84q.06.44.35,2t.34,2q.14.85.51,2.24t.57,1.38.41-.63l.86-2q.24-.54.5-1.07l1.18-2.41q1-2,1.48-2.89a7.42,7.42,0,0,1,.7-1.08.55.55,0,0,1,.41-.18,2.22,2.22,0,0,1,.87.21q.48.21.5.47t.09,2.14l.13,3.2q.06,1.53.18,2.6a5.65,5.65,0,0,0,.43,1.73,4.27,4.27,0,0,1,.48,1.62.68.68,0,0,1-.4.68,1.83,1.83,0,0,1-.75.18q-.72,0-1.1-1.15a34.34,34.34,0,0,1-.56-6.58A9.44,9.44,0,0,0,161.53,51.55Z"/><path class="cls-1" d="M174.39,56.91a14.68,14.68,0,0,1-3.12,2.3,5.73,5.73,0,0,1-2.39.83,1.77,1.77,0,0,1-1.52-.82,3.42,3.42,0,0,1-.57-2,15.51,15.51,0,0,1,.66-4.1,8.45,8.45,0,0,1,1-2.68,1.32,1.32,0,0,1,.92-.32.54.54,0,0,1,.48.36,1.71,1.71,0,0,1,.17.74,1.45,1.45,0,0,1-.24.67,9.5,9.5,0,0,0-1.34,4.81,2.25,2.25,0,0,0,.22,1,.7.7,0,0,0,.66.44,3.76,3.76,0,0,0,1.39-.34,8.86,8.86,0,0,0,1.86-1.12A7.34,7.34,0,0,0,174,55.43a3,3,0,0,0,.51-1.1,16.73,16.73,0,0,0,.21-2.67q.06-2.05,1-2.05.55,0,.72.29a2.54,2.54,0,0,1,.16,1.11q0,.62-.18,2.67,0,.46-.05.85a25.74,25.74,0,0,1-1.64,8.58q-1.34,3.11-3.91,3.11a6.26,6.26,0,0,1-3.57-1.05q-1.56-1.05-1.56-1.78a1.51,1.51,0,0,1,.16-.67q.16-.33.4-.33t.27.19a4.59,4.59,0,0,0,4.13,2.06q1.77,0,2.66-2.17A18.37,18.37,0,0,0,174.39,56.91Z"/><path class="cls-1" d="M194,50.08q2.33.94,2.33,4.47a7,7,0,0,1-1.65,4.62,4.69,4.69,0,0,1-3.59,2,3.11,3.11,0,0,1-2.7-1.37,7,7,0,0,1-1-4,19.75,19.75,0,0,1,1.12-6.45,12.7,12.7,0,0,1,2.8-4.93,4.87,4.87,0,0,1,3.39-1.67,2.16,2.16,0,0,1,1.67.68,2.68,2.68,0,0,1,.63,1.89,4.49,4.49,0,0,1-.84,2.29A11.55,11.55,0,0,1,194,50.08Zm.45,4.76a4.72,4.72,0,0,0-.56-2.46q-.56-.93-1.25-.93A13.41,13.41,0,0,0,190.31,53q-.53.41-1,.76a11.31,11.31,0,0,0-.15,1.94,5.62,5.62,0,0,0,.56,2.81,1.72,1.72,0,0,0,1.54.94A2.65,2.65,0,0,0,193.5,58a5.83,5.83,0,0,0,.91-3.17ZM189.51,52a28.18,28.18,0,0,0,4.88-4.35,4,4,0,0,0,.93-2.06q0-1.2-1-1.2-1.34,0-2.7,2A16.45,16.45,0,0,0,189.51,52Z"/><path class="cls-1" d="M201.36,61A2.92,2.92,0,0,1,199,60a3.91,3.91,0,0,1-.91-2.64,9.08,9.08,0,0,1,1.78-5.21,5.13,5.13,0,0,1,4.26-2.57,3.26,3.26,0,0,1,2.66,1.26,4.63,4.63,0,0,1,1,3,7.15,7.15,0,0,1-2.11,4.94A6,6,0,0,1,201.36,61Zm-1.43-4a3,3,0,0,0,.44,1.69,1.33,1.33,0,0,0,1.15.66,4.29,4.29,0,0,0,3.07-1.68A5.39,5.39,0,0,0,206.13,54a3.31,3.31,0,0,0-.59-2,1.88,1.88,0,0,0-1.58-.78,3.37,3.37,0,0,0-2.83,2A7.67,7.67,0,0,0,199.93,57.08Z"/><path class="cls-1" d="M225,50.08q2.33.94,2.33,4.47a7,7,0,0,1-1.65,4.62,4.69,4.69,0,0,1-3.59,2,3.11,3.11,0,0,1-2.7-1.37,7,7,0,0,1-1-4,19.75,19.75,0,0,1,1.12-6.45,12.7,12.7,0,0,1,2.8-4.93,4.87,4.87,0,0,1,3.39-1.67,2.16,2.16,0,0,1,1.67.68,2.68,2.68,0,0,1,.63,1.89,4.49,4.49,0,0,1-.84,2.29A11.55,11.55,0,0,1,225,50.08Zm.45,4.76a4.72,4.72,0,0,0-.56-2.46q-.56-.93-1.25-.93A13.41,13.41,0,0,0,221.32,53q-.53.41-1,.76a11.31,11.31,0,0,0-.15,1.94,5.62,5.62,0,0,0,.56,2.81,1.72,1.72,0,0,0,1.54.94A2.65,2.65,0,0,0,224.52,58a5.83,5.83,0,0,0,.91-3.17ZM220.52,52a28.18,28.18,0,0,0,4.88-4.35,4,4,0,0,0,.93-2.06q0-1.2-1-1.2-1.34,0-2.7,2A16.45,16.45,0,0,0,220.52,52Z"/><path class="cls-1" d="M231.36,59.34a41.6,41.6,0,0,0-.94,5.18l-.29,1.94a1.9,1.9,0,0,1-.38.82q-.31.4-.56.4a1.22,1.22,0,0,1-.72-.32q-.41-.32-.41-.52a6.69,6.69,0,0,1,.26-1.56A56.3,56.3,0,0,0,230.19,52v-.86a2.47,2.47,0,0,1,.39-1.61,1.2,1.2,0,0,1,.94-.5q.25,0,.47.38a2.18,2.18,0,0,1,.23,1.09,17.22,17.22,0,0,1-.21,2.41q-.27,1.78-.28,2.05A16.13,16.13,0,0,1,235,50.77a5,5,0,0,1,3.18-1.5,2.28,2.28,0,0,1,1.75.77,2.73,2.73,0,0,1,.71,1.92A8.66,8.66,0,0,1,238,58q-2.56,2.73-5,2.73a1.41,1.41,0,0,1-1-.31A3.45,3.45,0,0,1,231.36,59.34Zm6.37-8.25q-1.45,0-3.58,2.71T232,58a1,1,0,0,0,.42.72,1.61,1.61,0,0,0,1.07.35q1.47,0,3.37-2.17a6.54,6.54,0,0,0,1.91-4.26,1.9,1.9,0,0,0-.3-1.15A.91.91,0,0,0,237.73,51.09Z"/><path class="cls-1" d="M252,57.06q0,1-1.85,2.52a6.07,6.07,0,0,1-3.82,1.48,3.29,3.29,0,0,1-2.55-1,3.86,3.86,0,0,1-.9-2.72,9.17,9.17,0,0,1,2-5.58q2-2.65,4.33-2.65a1.69,1.69,0,0,1,1.74,1.71,4.16,4.16,0,0,1-1.55,3,19.85,19.85,0,0,1-4.14,2.84.82.82,0,0,0-.53.72,1.89,1.89,0,0,0,.49,1.36,1.93,1.93,0,0,0,1.46.51q2.2,0,4.5-2.44.34-.34.51-.34Q252,56.53,252,57.06Zm-7.13-1.6q4.35-2.58,4.35-4.15,0-.62-.55-.62a3.16,3.16,0,0,0-2.13,1.38A8,8,0,0,0,244.87,55.46Z"/><path class="cls-1" d="M267.22,51.55a50.12,50.12,0,0,0-2.34,4.51q-.34.72-.69,1.38-.11.22-.43,1-1.08,2.5-1.88,2.5a2.1,2.1,0,0,1-.93-.15,1.58,1.58,0,0,1-.56-.84,26.6,26.6,0,0,1-.79-3.23q-.6-2.88-.82-3.55-.7,1.57-1.24,3A25.84,25.84,0,0,1,256,59.65a7.07,7.07,0,0,1-1.11,1.62,1.05,1.05,0,0,1-.65.27.81.81,0,0,1-.57-.25.69.69,0,0,1-.26-.48,1.32,1.32,0,0,1,.14-.52,13.8,13.8,0,0,0,1.54-2.34q.65-1.24,1.65-3.72A21.27,21.27,0,0,0,258,50.16q.13-.68,1-.68a1.11,1.11,0,0,1,.69.15,1.56,1.56,0,0,1,.36.63,3.16,3.16,0,0,1,.21.84q.06.44.35,2t.34,2q.14.85.51,2.24T262,58.7t.41-.63l.86-2q.24-.54.5-1.07L265,52.61q1-2,1.48-2.89a7.42,7.42,0,0,1,.7-1.08.55.55,0,0,1,.41-.18,2.22,2.22,0,0,1,.87.21q.48.21.5.47t.09,2.14l.13,3.2q.06,1.53.18,2.6a5.65,5.65,0,0,0,.43,1.73,4.27,4.27,0,0,1,.48,1.62.68.68,0,0,1-.4.68,1.83,1.83,0,0,1-.75.18q-.72,0-1.1-1.15a34.34,34.34,0,0,1-.56-6.58A9.44,9.44,0,0,0,267.22,51.55Z"/><path class="cls-1" d="M281.75,49.82a4.17,4.17,0,0,1-.43,1.22,13.92,13.92,0,0,0-.72,3,23.7,23.7,0,0,0-.37,3.66,14.74,14.74,0,0,0,.12,1.65,8.17,8.17,0,0,1,.05.82q0,.17-.3.36a1.08,1.08,0,0,1-.55.18q-.64,0-.81-.29a2.53,2.53,0,0,1-.18-1.18l.09-3.31q-1.54,1.28-2.19,1.9t-1,.91a13.52,13.52,0,0,0-2.05,1.94A1.32,1.32,0,0,1,273,61a.74.74,0,0,1-.3.13.84.84,0,0,1-.73-.43,1.41,1.41,0,0,1-.28-.66q0-.26,1-1.16a6.83,6.83,0,0,1,.55-.43,24.07,24.07,0,0,0,3-2.46h-1.12a3.41,3.41,0,0,1-1.32-.46,1.8,1.8,0,0,1-.93-.93,3.17,3.17,0,0,1-.17-1,3.38,3.38,0,0,1,1.59-2.68,9.11,9.11,0,0,1,3.83-1.63,5.35,5.35,0,0,0,.88-.12l.71-.11a2.92,2.92,0,0,1,.5.1l.34-.06a1.25,1.25,0,0,1,.66.21A.89.89,0,0,1,281.75,49.82Zm-2.06,1q-.11-.21-.26-.21a7.14,7.14,0,0,0-3.19.9q-1.76.9-1.76,2.19a.76.76,0,0,0,.46.64,2.62,2.62,0,0,0,1.31.27,7.24,7.24,0,0,0,2.36-.3,1.21,1.21,0,0,0,.4-.68Z"/><path class="cls-1" d="M299,52.65a1.71,1.71,0,0,0-1.16.7A18.47,18.47,0,0,0,296,56.47a20.68,20.68,0,0,1-2.2,3.71,1.39,1.39,0,0,1-.83.45,1.05,1.05,0,0,1-1.21-1.17,8.39,8.39,0,0,1,.16-1.39,36.42,36.42,0,0,0,.56-6.53,1.56,1.56,0,0,1,.33-.87q.33-.48.63-.48a.85.85,0,0,1,.76.33,2.6,2.6,0,0,1,.23,1.32,29.29,29.29,0,0,1-.62,4.27,10,10,0,0,0-.21,1.35q0,.16.08.16a11.79,11.79,0,0,0,1.43-2.45,16,16,0,0,1,2.25-3.51,2.88,2.88,0,0,1,2.12-1,1.75,1.75,0,0,1,1.5.84,7.34,7.34,0,0,1,.85,3.07,18.31,18.31,0,0,0,.52,3.15q.23.62.73.62a2,2,0,0,0,.8-.23l.12,0q.44,0,.44.51a1.36,1.36,0,0,1-.6,1,2.19,2.19,0,0,1-1.46.51,1.54,1.54,0,0,1-1.35-.69,10,10,0,0,1-.75-3.7Q300,52.65,299,52.65Z"/><path class="cls-1" d="M308,59.34a41.6,41.6,0,0,0-.94,5.18l-.29,1.94a1.9,1.9,0,0,1-.38.82q-.31.4-.56.4a1.22,1.22,0,0,1-.72-.32q-.41-.32-.41-.52a6.7,6.7,0,0,1,.26-1.56A56.3,56.3,0,0,0,306.8,52v-.86a2.47,2.47,0,0,1,.39-1.61,1.2,1.2,0,0,1,.94-.5q.25,0,.47.38a2.18,2.18,0,0,1,.23,1.09,17.22,17.22,0,0,1-.21,2.41q-.27,1.78-.28,2.05a16.13,16.13,0,0,1,3.24-4.16,5,5,0,0,1,3.18-1.5,2.28,2.28,0,0,1,1.75.77,2.73,2.73,0,0,1,.71,1.92A8.66,8.66,0,0,1,314.65,58q-2.56,2.73-5,2.73a1.41,1.41,0,0,1-1-.31A3.45,3.45,0,0,1,308,59.34Zm6.37-8.25q-1.45,0-3.58,2.71T308.63,58a1,1,0,0,0,.42.72,1.61,1.61,0,0,0,1.07.35q1.47,0,3.37-2.17a6.54,6.54,0,0,0,1.91-4.26,1.9,1.9,0,0,0-.3-1.15A.91.91,0,0,0,314.34,51.09Z"/><path class="cls-1" d="M322.56,61A2.92,2.92,0,0,1,320.24,60a3.91,3.91,0,0,1-.91-2.64,9.08,9.08,0,0,1,1.78-5.21,5.13,5.13,0,0,1,4.26-2.57A3.26,3.26,0,0,1,328,50.82a4.63,4.63,0,0,1,1,3,7.15,7.15,0,0,1-2.11,4.94A6,6,0,0,1,322.56,61Zm-1.43-4a3,3,0,0,0,.44,1.69,1.33,1.33,0,0,0,1.15.66,4.29,4.29,0,0,0,3.07-1.68A5.39,5.39,0,0,0,327.33,54a3.31,3.31,0,0,0-.59-2,1.88,1.88,0,0,0-1.58-.78,3.37,3.37,0,0,0-2.83,2A7.67,7.67,0,0,0,321.14,57.08Z"/><path class="cls-1" d="M334.24,61.12a3.08,3.08,0,0,1-2.36-.88,3.47,3.47,0,0,1-.83-2.47,9.82,9.82,0,0,1,2.12-5.64q2.12-3,3.95-3a1.71,1.71,0,0,1,1.43.9,3.36,3.36,0,0,1,.6,1.9,2,2,0,0,1-.26,1q-.26.44-.53.44-.59,0-.84-1.2t-.8-1.29q-1.07,0-2.52,2.53a9.06,9.06,0,0,0-1.46,4.28q0,1.74,2,1.74a6.56,6.56,0,0,0,3.55-1.42,2.26,2.26,0,0,1,1.06-.5q.35,0,.35.4,0,.78-1.83,2A6.63,6.63,0,0,1,334.24,61.12Z"/><path class="cls-1" d="M355.17,51.55a50.12,50.12,0,0,0-2.34,4.51q-.34.72-.69,1.38-.11.22-.43,1-1.08,2.5-1.88,2.5a2.1,2.1,0,0,1-.93-.15,1.58,1.58,0,0,1-.56-.84,26.64,26.64,0,0,1-.79-3.23q-.6-2.88-.82-3.55-.7,1.57-1.24,3a25.84,25.84,0,0,1-1.59,3.49,7.07,7.07,0,0,1-1.11,1.62,1.05,1.05,0,0,1-.65.27.81.81,0,0,1-.57-.25.69.69,0,0,1-.26-.48,1.32,1.32,0,0,1,.14-.52A13.8,13.8,0,0,0,343,57.95q.65-1.24,1.65-3.72a21.27,21.27,0,0,0,1.28-4.07q.13-.68,1-.68a1.11,1.11,0,0,1,.69.15,1.56,1.56,0,0,1,.36.63,3.16,3.16,0,0,1,.21.84q.06.44.35,2t.34,2q.14.85.51,2.24t.57,1.38.41-.63l.86-2q.24-.54.5-1.07l1.18-2.41q1-2,1.48-2.89a7.51,7.51,0,0,1,.7-1.08.55.55,0,0,1,.41-.18,2.22,2.22,0,0,1,.87.21q.48.21.5.47t.09,2.14l.13,3.2q.06,1.53.18,2.6a5.65,5.65,0,0,0,.43,1.73,4.28,4.28,0,0,1,.48,1.62.68.68,0,0,1-.41.68,1.83,1.83,0,0,1-.75.18q-.72,0-1.1-1.15a34.34,34.34,0,0,1-.56-6.58A9.45,9.45,0,0,0,355.17,51.55Z"/><path class="cls-1" d="M363.44,61A2.92,2.92,0,0,1,361.13,60a3.91,3.91,0,0,1-.91-2.64A9.08,9.08,0,0,1,362,52.13a5.13,5.13,0,0,1,4.26-2.57,3.26,3.26,0,0,1,2.66,1.26,4.63,4.63,0,0,1,1,3,7.15,7.15,0,0,1-2.11,4.94A6,6,0,0,1,363.44,61Zm-1.42-4a3,3,0,0,0,.44,1.69,1.33,1.33,0,0,0,1.15.66,4.3,4.3,0,0,0,3.07-1.68A5.39,5.39,0,0,0,368.21,54a3.32,3.32,0,0,0-.59-2,1.88,1.88,0,0,0-1.58-.78,3.37,3.37,0,0,0-2.83,2A7.67,7.67,0,0,0,362,57.08Z"/><path class="cls-1" d="M380.07,52.42q-1,0-4.08,5.65a19.27,19.27,0,0,1-1.23,2.07,1.58,1.58,0,0,1-.64.3,2.94,2.94,0,0,1-.77.13q-.69,0-.69-2.68a40.43,40.43,0,0,1,.65-5.46,16,16,0,0,0,.27-2.29q0-.68.6-.68,1.14,0,1.14,1.64a22.6,22.6,0,0,1-.38,3q-.44,2.56-.45,3.12a14.76,14.76,0,0,0,1.87-2.7,20,20,0,0,1,2.57-3.61,2.51,2.51,0,0,1,1.71-.76q.67,0,1.06.89a14.5,14.5,0,0,1,.48,4.26,4.72,4.72,0,0,0,.15,1.25q.13.41.2.41.48,0,2.09-3.28a11.86,11.86,0,0,1,1.68-2.64,2.41,2.41,0,0,1,1.81-.9,1.26,1.26,0,0,1,1.21.86,8.65,8.65,0,0,1,.54,2.54,23.5,23.5,0,0,0,.48,3.12,2.42,2.42,0,0,0,1.18,1.81q.58.28.58.65a1,1,0,0,1-.49.74,1.53,1.53,0,0,1-.9.38,1.8,1.8,0,0,1-1.47-1,11.46,11.46,0,0,1-1-4.35A17.49,17.49,0,0,0,388,53q-.13-.56-.42-.56t-1,.82a32.85,32.85,0,0,0-1.9,3.33,18.22,18.22,0,0,1-1.55,2.61,1.42,1.42,0,0,1-1,.65,1.08,1.08,0,0,1-.79-.35,1.6,1.6,0,0,1-.44-.85q-.09-.5-.2-2.45Q380.47,53,380.07,52.42Z"/><path class="cls-1" d="M395.89,59.34a41.6,41.6,0,0,0-.94,5.18l-.29,1.94a1.9,1.9,0,0,1-.38.82q-.31.4-.56.4a1.22,1.22,0,0,1-.72-.32q-.41-.32-.41-.52a6.7,6.7,0,0,1,.26-1.56A56.3,56.3,0,0,0,394.72,52v-.86a2.47,2.47,0,0,1,.39-1.61A1.2,1.2,0,0,1,396,49q.25,0,.47.38a2.18,2.18,0,0,1,.23,1.09,17.22,17.22,0,0,1-.21,2.41q-.27,1.78-.28,2.05a16.13,16.13,0,0,1,3.24-4.16,5,5,0,0,1,3.18-1.5,2.28,2.28,0,0,1,1.75.77,2.73,2.73,0,0,1,.71,1.92A8.66,8.66,0,0,1,402.57,58q-2.56,2.73-5,2.73a1.41,1.41,0,0,1-1-.31A3.45,3.45,0,0,1,395.89,59.34Zm6.37-8.25q-1.45,0-3.58,2.71T396.54,58a1,1,0,0,0,.42.72,1.61,1.61,0,0,0,1.07.35q1.47,0,3.37-2.17a6.54,6.54,0,0,0,1.91-4.26,1.9,1.9,0,0,0-.3-1.15A.91.91,0,0,0,402.25,51.09Z"/><path class="cls-1" d="M414.4,56.8a12.58,12.58,0,0,1-2.84,2.89,4.66,4.66,0,0,1-2.57,1,1.75,1.75,0,0,1-1.36-.67,2.53,2.53,0,0,1-.57-1.71,9.73,9.73,0,0,1,2.41-5.81q2.41-3.11,4.79-3.11a1.37,1.37,0,0,1,1.28,1,.45.45,0,0,0,.42.33q.82,0,.82.64a5.09,5.09,0,0,1-.1.87,27.68,27.68,0,0,0-.55,4.27q0,2.48.94,3a.71.71,0,0,1,.45.6.87.87,0,0,1-.44.64,1.45,1.45,0,0,1-.85.32q-.79,0-1.3-1.09A7.46,7.46,0,0,1,414.4,56.8ZM413.77,51q-1.35,0-3.15,2.54a7.94,7.94,0,0,0-1.79,4.21q0,1.18.78,1.18,1.13,0,3.13-2.28a6.64,6.64,0,0,0,2-4.18Q414.73,51,413.77,51Z"/><path class="cls-1" d="M430.19,59.34a41.6,41.6,0,0,0-.94,5.18L429,66.46a1.9,1.9,0,0,1-.38.82q-.31.4-.56.4a1.22,1.22,0,0,1-.72-.32q-.41-.32-.41-.52a6.68,6.68,0,0,1,.26-1.56A56.26,56.26,0,0,0,429,52v-.86a2.46,2.46,0,0,1,.39-1.61,1.2,1.2,0,0,1,.94-.5q.25,0,.47.38a2.19,2.19,0,0,1,.22,1.09,17.22,17.22,0,0,1-.21,2.41q-.27,1.78-.28,2.05a16.13,16.13,0,0,1,3.24-4.16,5,5,0,0,1,3.18-1.5,2.28,2.28,0,0,1,1.75.77,2.73,2.73,0,0,1,.71,1.92A8.66,8.66,0,0,1,436.87,58q-2.56,2.73-5,2.73a1.41,1.41,0,0,1-1-.31A3.45,3.45,0,0,1,430.19,59.34Zm6.37-8.25q-1.45,0-3.58,2.71T430.84,58a1,1,0,0,0,.42.72,1.61,1.61,0,0,0,1.07.35q1.46,0,3.37-2.17a6.54,6.54,0,0,0,1.91-4.26,1.9,1.9,0,0,0-.3-1.15A.91.91,0,0,0,436.55,51.09Z"/><path class="cls-1" d="M444.78,61A2.91,2.91,0,0,1,442.46,60a3.91,3.91,0,0,1-.91-2.64,9.08,9.08,0,0,1,1.78-5.21,5.13,5.13,0,0,1,4.26-2.57,3.26,3.26,0,0,1,2.66,1.26,4.63,4.63,0,0,1,1,3,7.15,7.15,0,0,1-2.11,4.94A6,6,0,0,1,444.78,61Zm-1.42-4a3,3,0,0,0,.44,1.69,1.33,1.33,0,0,0,1.15.66A4.3,4.3,0,0,0,448,57.75,5.39,5.39,0,0,0,449.55,54a3.31,3.31,0,0,0-.59-2,1.88,1.88,0,0,0-1.58-.78,3.37,3.37,0,0,0-2.83,2A7.67,7.67,0,0,0,443.35,57.08Z"/><path class="cls-1" d="M459.41,52.18c-.16,0-.33.15-.48.47a49.23,49.23,0,0,1-3.21,5.76c-.06.09-.14.22-.24.39q-1.28,2.29-1.88,2.29-.8,0-.8-.77a3.47,3.47,0,0,1,1-1.9,28.58,28.58,0,0,0,2.53-3.86q1.57-2.72,2.54-4.89a.59.59,0,0,1,.55-.39,2,2,0,0,1,.55.14,1,1,0,0,1,.51.3,12.27,12.27,0,0,1,.5,1.91q1.26,6.29,2.66,7.45a2.68,2.68,0,0,1,.39.38.51.51,0,0,1,.06.27.92.92,0,0,1-.21.58,1,1,0,0,1-.4.33,2.81,2.81,0,0,1-.8.07q-.22,0-1-1.06t-1.85-5.79A11.49,11.49,0,0,0,459.41,52.18Z"/><path class="cls-1" d="M473.44,56.07a14.23,14.23,0,0,1-2.69,3.41,4,4,0,0,1-2.55,1.21,1.93,1.93,0,0,1-1.38-.79,3.57,3.57,0,0,1-.7-2.43,18.11,18.11,0,0,1,.65-4,15,15,0,0,0,.54-3.07,1,1,0,0,1,.93-.62.86.86,0,0,1,.69.3,1,1,0,0,1,.26.63,6.32,6.32,0,0,1-.5,2,13.07,13.07,0,0,0-1,4.42q0,1.68.78,1.68,1,0,2.53-1.69a14.12,14.12,0,0,0,2.64-4.72,7.05,7.05,0,0,1,.7-1.57.87.87,0,0,1,.73-.36q.7,0,.7.92a4.68,4.68,0,0,1-.19.75,16.09,16.09,0,0,0-.62,4.25q0,2.4.79,3.11.41.38.41.62t-.42.52A1.56,1.56,0,0,1,475,61q-.72,0-1.16-1.07a8.63,8.63,0,0,1-.44-3.15v-.34C473.43,56.3,473.43,56.19,473.44,56.07Z"/><path class="cls-1" d="M481.09,55.14A6.9,6.9,0,0,0,485.44,52,8.73,8.73,0,0,1,487,50.21a2.33,2.33,0,0,1,1.45-.53.93.93,0,0,1,.62.28.86.86,0,0,1,.31.66q0,.5-1,.79a2.69,2.69,0,0,0-.94.52,20.8,20.8,0,0,0-1.67,1.76,7.45,7.45,0,0,1-1.73,1.53s-.07.05-.07.07,0,.05.09.08a5.1,5.1,0,0,1,1.58,1.55A10.49,10.49,0,0,0,487.52,59a2.3,2.3,0,0,0,1.38.44h.34c.24,0,.36.09.36.32a1.17,1.17,0,0,1-.44.81,2.07,2.07,0,0,1-1.46.42,2.23,2.23,0,0,1-1.51-.67,10.8,10.8,0,0,1-1.68-2.18,7.1,7.1,0,0,0-1-1.35,1.47,1.47,0,0,0-1-.46,4.21,4.21,0,0,0-.76.21q-.64.21-.71.4a6.69,6.69,0,0,0-.11,1.36q0,1.17,0,1.89a.87.87,0,0,1-.36.68,1.2,1.2,0,0,1-.78.3.91.91,0,0,1-.68-.25.74.74,0,0,1-.25-.52,12.43,12.43,0,0,1,.28-1.74q.49-2.5,1-8.25a1.71,1.71,0,0,1,.42-1,1.11,1.11,0,0,1,.86-.45.52.52,0,0,1,.45.29,1.38,1.38,0,0,1,.18.74,3.23,3.23,0,0,1-.12.82A21.48,21.48,0,0,0,481.09,55.14Z"/><path class="cls-1" d="M494,61A2.91,2.91,0,0,1,491.73,60a3.91,3.91,0,0,1-.91-2.64,9.08,9.08,0,0,1,1.78-5.21,5.13,5.13,0,0,1,4.26-2.57,3.26,3.26,0,0,1,2.66,1.26,4.63,4.63,0,0,1,1,3,7.15,7.15,0,0,1-2.11,4.94A6,6,0,0,1,494,61Zm-1.42-4a3,3,0,0,0,.44,1.69,1.33,1.33,0,0,0,1.15.66,4.3,4.3,0,0,0,3.07-1.68A5.39,5.39,0,0,0,498.82,54a3.31,3.31,0,0,0-.59-2,1.88,1.88,0,0,0-1.58-.78,3.37,3.37,0,0,0-2.83,2A7.67,7.67,0,0,0,492.62,57.08Z"/><path class="cls-1" d="M509.26,50.08q2.33.94,2.33,4.47a7,7,0,0,1-1.65,4.62,4.69,4.69,0,0,1-3.59,2,3.11,3.11,0,0,1-2.7-1.37,7,7,0,0,1-1-4,19.75,19.75,0,0,1,1.12-6.45,12.7,12.7,0,0,1,2.8-4.93A4.87,4.87,0,0,1,510,42.71a2.17,2.17,0,0,1,1.67.68,2.68,2.68,0,0,1,.63,1.89,4.5,4.5,0,0,1-.84,2.29A11.57,11.57,0,0,1,509.26,50.08Zm.45,4.76a4.72,4.72,0,0,0-.56-2.46q-.56-.93-1.25-.93A13.38,13.38,0,0,0,505.61,53q-.53.41-1,.76a11.31,11.31,0,0,0-.15,1.94,5.62,5.62,0,0,0,.56,2.81,1.72,1.72,0,0,0,1.54.94A2.65,2.65,0,0,0,508.81,58a5.83,5.83,0,0,0,.91-3.17ZM504.81,52a28.18,28.18,0,0,0,4.88-4.35,4,4,0,0,0,.93-2.06q0-1.2-1-1.2-1.34,0-2.7,2A16.46,16.46,0,0,0,504.81,52Z"/><path class="cls-1" d="M515.15,57.7h.23a.82.82,0,0,1,.44.18.56.56,0,0,1,.26.49,1.51,1.51,0,0,1-.22.9,3.31,3.31,0,0,1-.69.64,1.5,1.5,0,0,1-.67.35.89.89,0,0,1-.63-.19c-.14-.13-.21-.49-.21-1.07a2.73,2.73,0,0,1,.09-1,.7.7,0,0,1,.45-.24A4.2,4.2,0,0,1,515.15,57.7Z"/><path class="cls-1" d="M55.4,111.48a.22.22,0,0,0-.12.17v0l-.31.18a2.14,2.14,0,0,1-1,.44,1.28,1.28,0,0,1-.74-.29q-.4-.29-.4-.49a2.4,2.4,0,0,1,.22-.8,2.52,2.52,0,0,0,.21-.83v0q0-.74,0-1.55t.24-3q.23-2.15.51-3.61t.5-2.93a8.9,8.9,0,0,1,.33-2.52q.33-1.11,1-1.11a1.32,1.32,0,0,1,.46.09,7.21,7.21,0,0,0,2.52.51q.48,0,1.58-.11T62,95.56a2.44,2.44,0,0,0,.52-.14,2.46,2.46,0,0,1,.51-.13,1.53,1.53,0,0,1,.68.15.45.45,0,0,1,.3.4q0,.88-1.19,1.33a7.39,7.39,0,0,1-2.61.45,11.58,11.58,0,0,1-1.39-.08,13.84,13.84,0,0,0-1.46-.07h0a.58.58,0,0,1-.24-.06.59.59,0,0,0-.25-.06q-.24,0-.56,1.31a13.61,13.61,0,0,0-.38,1.91,8.59,8.59,0,0,1-.22,1.23.41.41,0,0,0,.1.24h.1a2,2,0,0,0,.8-.28,3.69,3.69,0,0,1,.73-.31q.28-.07,1.66-.24t1.52-.17a4.79,4.79,0,0,1,3.2.95,3.48,3.48,0,0,1,1.11,2.79,4.65,4.65,0,0,1-1.79,3.65q-1.79,1.53-6.53,2.73Q55.93,111.31,55.4,111.48Zm-.23-1.8a9.3,9.3,0,0,1,1.1-.15,11.68,11.68,0,0,0,3.67-1.08,6.87,6.87,0,0,0,2.68-1.77,2.57,2.57,0,0,0,.6-1.32,2.85,2.85,0,0,0-.63-1.95,2.22,2.22,0,0,0-1.76-.72,12.26,12.26,0,0,0-3.37.39,4.25,4.25,0,0,0-1.7.77,3.38,3.38,0,0,0-.59,1.64,15.47,15.47,0,0,0-.22,2.68v.4A1.68,1.68,0,0,0,55.17,109.67Z"/><path class="cls-1" d="M74.28,107.2a12.56,12.56,0,0,1-2.84,2.89,4.66,4.66,0,0,1-2.57,1,1.75,1.75,0,0,1-1.36-.67,2.53,2.53,0,0,1-.57-1.71,9.73,9.73,0,0,1,2.41-5.81q2.41-3.11,4.79-3.11a1.37,1.37,0,0,1,1.28,1,.44.44,0,0,0,.42.33q.82,0,.82.64a5.09,5.09,0,0,1-.1.87,27.68,27.68,0,0,0-.55,4.27q0,2.48.94,3a.71.71,0,0,1,.45.6.86.86,0,0,1-.44.64,1.45,1.45,0,0,1-.85.32q-.79,0-1.3-1.09A7.46,7.46,0,0,1,74.28,107.2Zm-.63-5.77q-1.35,0-3.15,2.54a8,8,0,0,0-1.79,4.21q0,1.18.78,1.18,1.13,0,3.13-2.28a6.64,6.64,0,0,0,2-4.18Q74.62,101.43,73.66,101.43Z"/><path class="cls-1" d="M84.71,104.63a3.58,3.58,0,0,1,2.06,1,2.56,2.56,0,0,1,.74,1.86A3.53,3.53,0,0,1,86,110.34a6.05,6.05,0,0,1-3.86,1.15,4.71,4.71,0,0,1-2.46-.62q-1-.62-1-1.36t.71-.62a.64.64,0,0,1,.32.17,4,4,0,0,0,2.68,1,3.88,3.88,0,0,0,2.35-.72,2.21,2.21,0,0,0,1-1.87,1.64,1.64,0,0,0-.56-1.27,1.87,1.87,0,0,0-1.3-.51,8,8,0,0,0-2,.44,1.87,1.87,0,0,1-.59.09q-.62,0-.62-.83a.52.52,0,0,1,.29-.46,5.3,5.3,0,0,1,1.26-.4q2.92-.67,2.92-2.37a1.1,1.1,0,0,0-.36-.85,1.34,1.34,0,0,0-.94-.33,3.78,3.78,0,0,0-2.28.94,2.1,2.1,0,0,1-1.08.55q-.63,0-.63-.58,0-.77,1.45-1.57a5.75,5.75,0,0,1,2.78-.81,3,3,0,0,1,2.1.71,2,2,0,0,1,.76,1.49Q87,103.57,84.71,104.63Z"/><path class="cls-1" d="M96.71,107.2a12.56,12.56,0,0,1-2.84,2.89,4.66,4.66,0,0,1-2.57,1,1.75,1.75,0,0,1-1.36-.67,2.53,2.53,0,0,1-.57-1.71,9.73,9.73,0,0,1,2.41-5.81q2.41-3.11,4.79-3.11a1.37,1.37,0,0,1,1.28,1,.44.44,0,0,0,.42.33q.82,0,.82.64a5.09,5.09,0,0,1-.1.87,27.68,27.68,0,0,0-.55,4.27q0,2.48.94,3a.71.71,0,0,1,.45.6.86.86,0,0,1-.44.64,1.45,1.45,0,0,1-.85.32q-.79,0-1.3-1.09A7.46,7.46,0,0,1,96.71,107.2Zm-.63-5.77q-1.35,0-3.15,2.54a8,8,0,0,0-1.79,4.21q0,1.18.78,1.18,1.13,0,3.13-2.28a6.64,6.64,0,0,0,2-4.18Q97,101.43,96.08,101.43Z"/><path class="cls-1" d="M117.5,103a1.71,1.71,0,0,0-1.16.7,18.46,18.46,0,0,0-1.92,3.13,20.68,20.68,0,0,1-2.2,3.71,1.39,1.39,0,0,1-.83.45,1.05,1.05,0,0,1-1.21-1.17,8.39,8.39,0,0,1,.16-1.39,36.42,36.42,0,0,0,.56-6.53,1.56,1.56,0,0,1,.33-.87q.33-.48.63-.48a.85.85,0,0,1,.76.33,2.6,2.6,0,0,1,.23,1.32,29.29,29.29,0,0,1-.62,4.27,10,10,0,0,0-.21,1.35q0,.16.08.16a11.79,11.79,0,0,0,1.43-2.45,16,16,0,0,1,2.25-3.51,2.89,2.89,0,0,1,2.12-1,1.75,1.75,0,0,1,1.5.84,7.35,7.35,0,0,1,.85,3.07,18.29,18.29,0,0,0,.52,3.15q.23.62.73.62a2,2,0,0,0,.8-.23l.12,0q.44,0,.44.51a1.36,1.36,0,0,1-.6,1,2.19,2.19,0,0,1-1.46.51,1.54,1.54,0,0,1-1.35-.69,10,10,0,0,1-.75-3.7Q118.43,103,117.5,103Z"/><path class="cls-1" d="M127.44,111.45a2.92,2.92,0,0,1-2.32-1.07,3.91,3.91,0,0,1-.91-2.64,9.08,9.08,0,0,1,1.78-5.21,5.13,5.13,0,0,1,4.26-2.57,3.26,3.26,0,0,1,2.66,1.26,4.63,4.63,0,0,1,1,3,7.15,7.15,0,0,1-2.11,4.94A6,6,0,0,1,127.44,111.45Zm-1.43-4a3,3,0,0,0,.44,1.69,1.33,1.33,0,0,0,1.15.66,4.29,4.29,0,0,0,3.07-1.68,5.39,5.39,0,0,0,1.54-3.73,3.31,3.31,0,0,0-.59-2,1.88,1.88,0,0,0-1.58-.78,3.37,3.37,0,0,0-2.83,2A7.67,7.67,0,0,0,126,107.48Z"/><path class="cls-1" d="M143.3,103a1.71,1.71,0,0,0-1.16.7,18.46,18.46,0,0,0-1.92,3.13,20.68,20.68,0,0,1-2.2,3.71,1.39,1.39,0,0,1-.83.45,1.05,1.05,0,0,1-1.21-1.17,8.39,8.39,0,0,1,.16-1.39,36.42,36.42,0,0,0,.56-6.53,1.56,1.56,0,0,1,.33-.87q.33-.48.63-.48a.85.85,0,0,1,.76.33,2.6,2.6,0,0,1,.23,1.32,29.29,29.29,0,0,1-.62,4.27,10,10,0,0,0-.21,1.35q0,.16.08.16a11.79,11.79,0,0,0,1.43-2.45,16,16,0,0,1,2.25-3.51,2.89,2.89,0,0,1,2.12-1,1.75,1.75,0,0,1,1.5.84,7.35,7.35,0,0,1,.85,3.07,18.29,18.29,0,0,0,.52,3.15q.23.62.73.62a2,2,0,0,0,.8-.23l.12,0q.44,0,.44.51a1.36,1.36,0,0,1-.6,1,2.19,2.19,0,0,1-1.46.51,1.54,1.54,0,0,1-1.35-.69,10,10,0,0,1-.75-3.7Q144.23,103,143.3,103Z"/><path class="cls-1" d="M153.24,111.45a2.92,2.92,0,0,1-2.32-1.07,3.91,3.91,0,0,1-.91-2.64,9.08,9.08,0,0,1,1.78-5.21A5.13,5.13,0,0,1,156,100a3.26,3.26,0,0,1,2.66,1.26,4.63,4.63,0,0,1,1,3,7.15,7.15,0,0,1-2.11,4.94A6,6,0,0,1,153.24,111.45Zm-1.43-4a3,3,0,0,0,.44,1.69,1.33,1.33,0,0,0,1.15.66,4.29,4.29,0,0,0,3.07-1.68,5.39,5.39,0,0,0,1.54-3.73,3.31,3.31,0,0,0-.59-2,1.88,1.88,0,0,0-1.58-.78,3.37,3.37,0,0,0-2.83,2A7.67,7.67,0,0,0,151.81,107.48Z"/><path class="cls-1" d="M167.87,102.58q-.25,0-.48.47a49.1,49.1,0,0,1-3.21,5.76q-.09.13-.24.39-1.28,2.29-1.88,2.29-.8,0-.8-.77a3.47,3.47,0,0,1,1-1.9,28.48,28.48,0,0,0,2.53-3.86q1.57-2.72,2.54-4.89a.59.59,0,0,1,.55-.39,2,2,0,0,1,.55.14,1,1,0,0,1,.51.3,12.11,12.11,0,0,1,.5,1.91q1.26,6.29,2.66,7.45a2.66,2.66,0,0,1,.39.38.51.51,0,0,1,.06.27.92.92,0,0,1-.21.58,1,1,0,0,1-.4.33,2.81,2.81,0,0,1-.8.07q-.22,0-1-1.06t-1.85-5.79A11.49,11.49,0,0,0,167.87,102.58Z"/><path class="cls-1" d="M182.21,104.24a17.13,17.13,0,0,0,.36-2.57q.18-1.89,1.2-1.89a.73.73,0,0,1,.83.83,4.31,4.31,0,0,1-.14.79,24.15,24.15,0,0,0-.79,5.49q0,2.4.79,3.11.41.38.41.62t-.42.52a1.56,1.56,0,0,1-.75.24q-1.6,0-1.6-4.94,0-.33-.25-.33-1,0-2.36.11a11.24,11.24,0,0,0-2,.29,1.89,1.89,0,0,0-.74.32,1.81,1.81,0,0,0-.25.79,8,8,0,0,0-.11,1.33v1.26q0,1.1-1,1.1-.84,0-.84-1.1a11.53,11.53,0,0,1,.18-1.83q.34-2,.68-7a3.35,3.35,0,0,1,.11-.82,1,1,0,0,1,.37-.38,1.14,1.14,0,0,1,.66-.21q.74,0,.74.6,0,.09-.24,1.54a14.34,14.34,0,0,0-.25,2.25q0,.56.39.56a27.41,27.41,0,0,0,2.85-.26A7,7,0,0,0,182.21,104.24Z"/><path class="cls-1" d="M196.26,100.22a4.17,4.17,0,0,1-.43,1.22,13.92,13.92,0,0,0-.72,3,23.7,23.7,0,0,0-.37,3.66,14.74,14.74,0,0,0,.12,1.65,8.17,8.17,0,0,1,.05.82q0,.17-.3.36a1.08,1.08,0,0,1-.55.18q-.64,0-.81-.29a2.53,2.53,0,0,1-.18-1.18l.09-3.31q-1.54,1.28-2.19,1.9t-1,.91a13.52,13.52,0,0,0-2.05,1.94,1.32,1.32,0,0,1-.32.26.74.74,0,0,1-.3.13.84.84,0,0,1-.73-.43,1.41,1.41,0,0,1-.28-.66q0-.26,1-1.16a6.83,6.83,0,0,1,.55-.43,24.07,24.07,0,0,0,3-2.46h-1.12a3.41,3.41,0,0,1-1.32-.46,1.8,1.8,0,0,1-.93-.93,3.17,3.17,0,0,1-.17-1,3.38,3.38,0,0,1,1.59-2.68,9.11,9.11,0,0,1,3.83-1.63,5.35,5.35,0,0,0,.88-.12l.71-.11a2.92,2.92,0,0,1,.5.1l.34-.06a1.25,1.25,0,0,1,.66.21A.89.89,0,0,1,196.26,100.22Zm-2.06,1q-.11-.21-.26-.21a7.14,7.14,0,0,0-3.19.9q-1.76.9-1.76,2.19a.76.76,0,0,0,.46.64,2.62,2.62,0,0,0,1.31.27,7.24,7.24,0,0,0,2.36-.3,1.21,1.21,0,0,0,.4-.68Z"/><path class="cls-1" d="M207,107.46q0,1-1.85,2.52a6.07,6.07,0,0,1-3.82,1.48,3.29,3.29,0,0,1-2.55-1,3.86,3.86,0,0,1-.9-2.72,9.17,9.17,0,0,1,2-5.58q2-2.65,4.33-2.65a1.69,1.69,0,0,1,1.74,1.71,4.16,4.16,0,0,1-1.55,3,19.85,19.85,0,0,1-4.14,2.84.82.82,0,0,0-.53.72,1.89,1.89,0,0,0,.49,1.36,1.93,1.93,0,0,0,1.46.51q2.2,0,4.5-2.44.34-.34.51-.34Q207,106.93,207,107.46Zm-7.13-1.6q4.35-2.58,4.35-4.15,0-.62-.55-.62a3.16,3.16,0,0,0-2.13,1.38A8,8,0,0,0,199.83,105.86Z"/><path class="cls-1" d="M216.84,102.82q-1,0-4.08,5.65a19.27,19.27,0,0,1-1.23,2.07,1.58,1.58,0,0,1-.64.3,2.94,2.94,0,0,1-.77.13q-.69,0-.69-2.68a40.4,40.4,0,0,1,.65-5.46,16,16,0,0,0,.27-2.29q0-.68.6-.68,1.14,0,1.14,1.64a22.57,22.57,0,0,1-.38,3q-.44,2.56-.45,3.12a14.76,14.76,0,0,0,1.87-2.7,20,20,0,0,1,2.57-3.61,2.51,2.51,0,0,1,1.71-.76q.67,0,1.06.89a14.5,14.5,0,0,1,.48,4.26,4.72,4.72,0,0,0,.15,1.25q.13.41.19.41.48,0,2.09-3.28a11.86,11.86,0,0,1,1.68-2.64,2.41,2.41,0,0,1,1.81-.9,1.26,1.26,0,0,1,1.21.86,8.65,8.65,0,0,1,.54,2.54,23.51,23.51,0,0,0,.48,3.12,2.43,2.43,0,0,0,1.18,1.81q.58.28.58.65a1,1,0,0,1-.49.74,1.53,1.53,0,0,1-.9.38,1.8,1.8,0,0,1-1.47-1,11.46,11.46,0,0,1-1-4.35,17.52,17.52,0,0,0-.28-1.91q-.13-.56-.42-.56t-1,.82a33,33,0,0,0-1.9,3.33,18.21,18.21,0,0,1-1.55,2.61,1.42,1.42,0,0,1-1,.65,1.08,1.08,0,0,1-.79-.35,1.6,1.6,0,0,1-.44-.85q-.09-.5-.19-2.45Q217.25,103.36,216.84,102.82Z"/><path class="cls-1" d="M233.49,111.52a3.08,3.08,0,0,1-2.36-.88,3.47,3.47,0,0,1-.83-2.47,9.82,9.82,0,0,1,2.12-5.64q2.12-3,3.95-3a1.71,1.71,0,0,1,1.43.9,3.36,3.36,0,0,1,.6,1.9,2,2,0,0,1-.26,1q-.26.44-.53.44-.59,0-.84-1.2t-.8-1.29q-1.07,0-2.52,2.53a9.06,9.06,0,0,0-1.46,4.28q0,1.74,2,1.74a6.56,6.56,0,0,0,3.55-1.42,2.26,2.26,0,0,1,1.06-.5q.35,0,.35.4,0,.78-1.84,2A6.63,6.63,0,0,1,233.49,111.52Z"/><path class="cls-1" d="M250.58,100.22a4.17,4.17,0,0,1-.43,1.22,13.92,13.92,0,0,0-.72,3,23.7,23.7,0,0,0-.37,3.66,14.74,14.74,0,0,0,.12,1.65,8.17,8.17,0,0,1,.05.82q0,.17-.3.36a1.08,1.08,0,0,1-.55.18q-.64,0-.81-.29a2.53,2.53,0,0,1-.18-1.18l.09-3.31q-1.54,1.28-2.19,1.9t-1,.91a13.52,13.52,0,0,0-2.05,1.94,1.32,1.32,0,0,1-.32.26.74.74,0,0,1-.3.13.84.84,0,0,1-.73-.43,1.41,1.41,0,0,1-.28-.66q0-.26,1-1.16a6.83,6.83,0,0,1,.55-.43,24.07,24.07,0,0,0,3-2.46h-1.12a3.41,3.41,0,0,1-1.32-.46,1.8,1.8,0,0,1-.93-.93,3.17,3.17,0,0,1-.17-1,3.38,3.38,0,0,1,1.59-2.68,9.11,9.11,0,0,1,3.83-1.63,5.35,5.35,0,0,0,.88-.12l.71-.11a2.92,2.92,0,0,1,.5.1l.34-.06a1.25,1.25,0,0,1,.66.21A.89.89,0,0,1,250.58,100.22Zm-2.06,1q-.11-.21-.26-.21a7.14,7.14,0,0,0-3.19.9q-1.76.9-1.76,2.19a.76.76,0,0,0,.46.64,2.62,2.62,0,0,0,1.31.27,7.24,7.24,0,0,0,2.36-.3,1.21,1.21,0,0,0,.4-.68Z"/><path class="cls-1" d="M266.92,100.28a6.07,6.07,0,0,0-1.8-2.29q-1.33-1.15-1.33-2a1.39,1.39,0,0,1,.43-1.06,4,4,0,0,1,1.6-.73q1.46-.4,3-.91t1.81-.65a.92.92,0,0,1,.4-.09q.34,0,.34.6,0,.34-.82.92a9,9,0,0,1-2.9,1.09,9.54,9.54,0,0,0-1.6.49q-.29.16-.29.32,0,.37.8,1.07a8.42,8.42,0,0,1,3,6.61,8.77,8.77,0,0,1-.9,3.67,6.59,6.59,0,0,1-2.4,2.91,5.47,5.47,0,0,1-2.94,1,2.11,2.11,0,0,1-2-1.26,5.85,5.85,0,0,1-.67-2.78,8.71,8.71,0,0,1,1.66-5.07q1.66-2.38,3.5-2.38a1.06,1.06,0,0,1,.62.32Q266.77,100.35,266.92,100.28Zm-4.47,6.93a4.29,4.29,0,0,0,.3,1.78q.3.65.79.65a3.43,3.43,0,0,0,1.77-.81,5.59,5.59,0,0,0,1.8-2.4,7.57,7.57,0,0,0,.68-3,4.55,4.55,0,0,0-.32-1.86q-.32-.71-.6-.71-1.83,0-3.13,2.23A8.24,8.24,0,0,0,262.45,107.21Z"/><path class="cls-1" d="M277.47,102.58q-.25,0-.48.47a49.1,49.1,0,0,1-3.21,5.76q-.09.13-.24.39-1.28,2.29-1.88,2.29-.8,0-.8-.77a3.47,3.47,0,0,1,1-1.9A28.48,28.48,0,0,0,274.4,105q1.57-2.72,2.54-4.89a.59.59,0,0,1,.55-.39,2,2,0,0,1,.55.14,1,1,0,0,1,.51.3,12.11,12.11,0,0,1,.5,1.91q1.26,6.29,2.66,7.45a2.66,2.66,0,0,1,.39.38.51.51,0,0,1,.06.27.92.92,0,0,1-.21.58,1,1,0,0,1-.4.33,2.81,2.81,0,0,1-.8.07q-.22,0-1-1.06t-1.85-5.79A11.49,11.49,0,0,0,277.47,102.58Z"/><path class="cls-1" d="M291.17,107.2a12.56,12.56,0,0,1-2.84,2.89,4.66,4.66,0,0,1-2.57,1,1.75,1.75,0,0,1-1.36-.67,2.53,2.53,0,0,1-.57-1.71,9.73,9.73,0,0,1,2.41-5.81q2.41-3.11,4.79-3.11a1.37,1.37,0,0,1,1.28,1,.44.44,0,0,0,.42.33q.82,0,.82.64a5.09,5.09,0,0,1-.1.87,27.68,27.68,0,0,0-.55,4.27q0,2.48.94,3a.71.71,0,0,1,.45.6.86.86,0,0,1-.44.64,1.45,1.45,0,0,1-.85.32q-.79,0-1.3-1.09A7.46,7.46,0,0,1,291.17,107.2Zm-.63-5.77q-1.35,0-3.15,2.54a8,8,0,0,0-1.79,4.21q0,1.18.78,1.18,1.13,0,3.13-2.28a6.64,6.64,0,0,0,2-4.18Q291.51,101.43,290.55,101.43Z"/><path class="cls-1" d="M296.35,109.16l0-.22a3.36,3.36,0,0,1,.64-2.17,10.1,10.1,0,0,1,3.74-2.65q1.91-1,1.91-1.75a.72.72,0,0,0-.35-.65,1.17,1.17,0,0,0-.6-.23,8.71,8.71,0,0,0-3,1.09l-.21.09q-.84,0-.84-.59,0-1,1.66-1.6a8.24,8.24,0,0,1,2.89-.64,2.77,2.77,0,0,1,1.61.61,1.92,1.92,0,0,1,.84,1.64,2.79,2.79,0,0,1-.54,1.62,8.71,8.71,0,0,1-2.72,2A11.53,11.53,0,0,0,299,107.3a2,2,0,0,0-.63,1.44.74.74,0,0,0,.54.77,2.83,2.83,0,0,0,.82.18,7.28,7.28,0,0,0,3.45-.8,2,2,0,0,1,.78-.27q.53,0,.53.59,0,.9-1.46,1.51a9.69,9.69,0,0,1-3.69.6,3.49,3.49,0,0,1-2-.61A2.08,2.08,0,0,1,296.35,109.16Z"/><path class="cls-1" d="M309.77,111.45a2.92,2.92,0,0,1-2.32-1.07,3.91,3.91,0,0,1-.91-2.64,9.08,9.08,0,0,1,1.78-5.21,5.13,5.13,0,0,1,4.26-2.57,3.26,3.26,0,0,1,2.66,1.26,4.63,4.63,0,0,1,1,3,7.15,7.15,0,0,1-2.11,4.94A6,6,0,0,1,309.77,111.45Zm-1.42-4a3,3,0,0,0,.44,1.69,1.33,1.33,0,0,0,1.15.66,4.3,4.3,0,0,0,3.07-1.68,5.39,5.39,0,0,0,1.54-3.73,3.32,3.32,0,0,0-.59-2,1.88,1.88,0,0,0-1.58-.78,3.37,3.37,0,0,0-2.83,2A7.67,7.67,0,0,0,308.35,107.48Z"/><path class="cls-1" d="M326.46,99a5.45,5.45,0,0,0-.91-2.24,3.54,3.54,0,0,0-1.44-1,4.48,4.48,0,0,0-1.61-.35,2.51,2.51,0,0,0-.82.21,5.61,5.61,0,0,0-.83.38,1.47,1.47,0,0,1-.74.24q-.39,0-.39-.41a2.23,2.23,0,0,1,.67-1.22,3,3,0,0,1,2.35-.78h.44a5.1,5.1,0,0,1,3,.88A4.72,4.72,0,0,1,328,97.23a14.38,14.38,0,0,1,.54,4.38,11.56,11.56,0,0,1-1.18,4.52,9.9,9.9,0,0,1-3,4,6.35,6.35,0,0,1-3.87,1.36,1.79,1.79,0,0,1-1.38-.85,3.39,3.39,0,0,1-.65-2.11,8.1,8.1,0,0,1,1-4.11,11.14,11.14,0,0,1,2.29-2.89,9.41,9.41,0,0,1,3.5-1.78,8.47,8.47,0,0,0,1-.34A.38.38,0,0,0,326.46,99Zm.28,2.09a8.2,8.2,0,0,0-3.63,1.53,8,8,0,0,0-2.85,6,2.2,2.2,0,0,0,.15.83q.15.39.35.38a3.49,3.49,0,0,0,1.38-.27,5.77,5.77,0,0,0,1.53-1.11,9.3,9.3,0,0,0,1.64-2.1,10.64,10.64,0,0,0,1.07-2.41,8,8,0,0,0,.35-1.78Q326.74,101.52,326.73,101.09Z"/><path class="cls-1" d="M336.64,107.2a12.56,12.56,0,0,1-2.84,2.89,4.66,4.66,0,0,1-2.57,1,1.75,1.75,0,0,1-1.36-.67,2.53,2.53,0,0,1-.57-1.71,9.73,9.73,0,0,1,2.41-5.81q2.41-3.11,4.79-3.11a1.37,1.37,0,0,1,1.28,1,.45.45,0,0,0,.42.33q.82,0,.82.64a5.09,5.09,0,0,1-.1.87,27.68,27.68,0,0,0-.55,4.27q0,2.48.94,3a.71.71,0,0,1,.45.6.86.86,0,0,1-.44.64,1.45,1.45,0,0,1-.85.32q-.79,0-1.3-1.09A7.46,7.46,0,0,1,336.64,107.2Zm-.62-5.77q-1.35,0-3.15,2.54a7.94,7.94,0,0,0-1.79,4.21q0,1.18.78,1.18,1.13,0,3.13-2.28a6.64,6.64,0,0,0,2-4.18Q337,101.43,336,101.43Z"/><path class="cls-1" d="M344,109.74a41.6,41.6,0,0,0-.94,5.18l-.29,1.94a1.9,1.9,0,0,1-.38.82q-.31.4-.56.4a1.22,1.22,0,0,1-.72-.32q-.41-.32-.41-.52a6.68,6.68,0,0,1,.26-1.56,56.31,56.31,0,0,0,1.88-13.31v-.86a2.47,2.47,0,0,1,.39-1.61,1.2,1.2,0,0,1,.94-.5q.25,0,.47.38a2.18,2.18,0,0,1,.23,1.09,17.22,17.22,0,0,1-.21,2.41q-.27,1.78-.28,2.05a16.13,16.13,0,0,1,3.24-4.16,5,5,0,0,1,3.18-1.5,2.28,2.28,0,0,1,1.75.77,2.73,2.73,0,0,1,.71,1.92,8.66,8.66,0,0,1-2.56,6.07q-2.56,2.73-5,2.73a1.41,1.41,0,0,1-1-.31A3.45,3.45,0,0,1,344,109.74Zm6.37-8.25q-1.45,0-3.58,2.71t-2.13,4.21a1,1,0,0,0,.42.72,1.61,1.61,0,0,0,1.07.35q1.47,0,3.37-2.17a6.54,6.54,0,0,0,1.91-4.26,1.9,1.9,0,0,0-.3-1.15A.91.91,0,0,0,350.4,101.49Z"/><path class="cls-1" d="M364.88,100.22a4.17,4.17,0,0,1-.43,1.22,13.92,13.92,0,0,0-.72,3,23.7,23.7,0,0,0-.37,3.66,14.74,14.74,0,0,0,.12,1.65,8.19,8.19,0,0,1,.05.82c0,.12-.1.24-.3.36a1.08,1.08,0,0,1-.55.18q-.64,0-.81-.29a2.53,2.53,0,0,1-.18-1.18l.09-3.31q-1.54,1.28-2.19,1.9t-1,.91a13.52,13.52,0,0,0-2.05,1.94,1.31,1.31,0,0,1-.32.26.74.74,0,0,1-.3.13.83.83,0,0,1-.73-.43,1.41,1.41,0,0,1-.28-.66q0-.26,1-1.16a6.83,6.83,0,0,1,.55-.43,24.07,24.07,0,0,0,3-2.46h-1.12a3.41,3.41,0,0,1-1.32-.46,1.8,1.8,0,0,1-.93-.93,3.17,3.17,0,0,1-.17-1,3.38,3.38,0,0,1,1.59-2.68,9.11,9.11,0,0,1,3.83-1.63,5.35,5.35,0,0,0,.88-.12l.71-.11a2.91,2.91,0,0,1,.5.1l.34-.06a1.25,1.25,0,0,1,.66.21A.88.88,0,0,1,364.88,100.22Zm-2.06,1c-.08-.14-.16-.21-.26-.21a7.14,7.14,0,0,0-3.19.9q-1.76.9-1.76,2.19a.76.76,0,0,0,.46.64,2.62,2.62,0,0,0,1.31.27,7.24,7.24,0,0,0,2.36-.3,1.21,1.21,0,0,0,.4-.68Z"/><path class="cls-1" d="M381.53,100.48q2.33.94,2.33,4.47a7,7,0,0,1-1.65,4.62,4.69,4.69,0,0,1-3.59,2,3.11,3.11,0,0,1-2.7-1.37,7,7,0,0,1-1-4,19.75,19.75,0,0,1,1.12-6.45,12.7,12.7,0,0,1,2.8-4.93,4.87,4.87,0,0,1,3.39-1.67,2.17,2.17,0,0,1,1.67.68,2.68,2.68,0,0,1,.63,1.89,4.49,4.49,0,0,1-.83,2.29A11.55,11.55,0,0,1,381.53,100.48Zm.45,4.76a4.72,4.72,0,0,0-.56-2.46q-.56-.93-1.25-.93a13.4,13.4,0,0,0-2.29,1.58q-.53.41-1,.76a11.31,11.31,0,0,0-.15,1.94,5.61,5.61,0,0,0,.56,2.81,1.72,1.72,0,0,0,1.54.94,2.65,2.65,0,0,0,2.28-1.44,5.83,5.83,0,0,0,.91-3.17Zm-4.9-2.89A28.18,28.18,0,0,0,382,98a4,4,0,0,0,.93-2.06q0-1.2-1-1.2-1.34,0-2.7,2A16.44,16.44,0,0,0,377.08,102.35Z"/><path class="cls-1" d="M392.85,107.2a12.56,12.56,0,0,1-2.84,2.89,4.66,4.66,0,0,1-2.57,1,1.75,1.75,0,0,1-1.36-.67,2.53,2.53,0,0,1-.57-1.71,9.73,9.73,0,0,1,2.41-5.81q2.41-3.11,4.79-3.11a1.37,1.37,0,0,1,1.28,1,.45.45,0,0,0,.42.33q.82,0,.82.64a5.09,5.09,0,0,1-.1.87,27.68,27.68,0,0,0-.55,4.27q0,2.48.94,3a.71.71,0,0,1,.45.6.86.86,0,0,1-.44.64,1.45,1.45,0,0,1-.85.32q-.79,0-1.3-1.09A7.46,7.46,0,0,1,392.85,107.2Zm-.62-5.77q-1.35,0-3.15,2.54a7.94,7.94,0,0,0-1.79,4.21q0,1.18.78,1.18,1.13,0,3.13-2.28a6.64,6.64,0,0,0,2-4.18Q393.19,101.43,392.23,101.43Z"/><path class="cls-1" d="M412.23,106.47a14.26,14.26,0,0,1-2.69,3.41A4,4,0,0,1,407,111.1a1.93,1.93,0,0,1-1.38-.79,3.57,3.57,0,0,1-.7-2.43,11.14,11.14,0,0,1,.17-1.86,11.26,11.26,0,0,1-2.5,3.31,4.35,4.35,0,0,1-2.73,1.38,1.9,1.9,0,0,1-1.26-.68,2.45,2.45,0,0,1-.68-1.83,12.91,12.91,0,0,1,.11-2q.09-.6.15-1.25t.14-1a11.77,11.77,0,0,0,.31-2.84.94.94,0,0,1,1-.73.91.91,0,0,1,.6.25,1,1,0,0,1,.29.83,8.63,8.63,0,0,1-.42,2.36,12,12,0,0,0-.56,3.36,5,5,0,0,0,.12,1.24.52.52,0,0,0,.53.44q1.35,0,3.05-2.4a22.7,22.7,0,0,0,2.69-5q.44-1.18,1.11-1.18a.86.86,0,0,1,.69.3,1,1,0,0,1,.26.63,6.32,6.32,0,0,1-.5,2,12.64,12.64,0,0,0-1,4.32q0,1.68.78,1.68a2.06,2.06,0,0,0,.86-.25,5.14,5.14,0,0,0,1.26-1,11.44,11.44,0,0,0,1.46-1.86,9.79,9.79,0,0,0,.9-1.6q.18-.5.75-2.34a6.18,6.18,0,0,1,.66-1.63.92.92,0,0,1,.79-.43q.7,0,.7.92a4.74,4.74,0,0,1-.2.75,16.94,16.94,0,0,0-.48,2.5,20.4,20.4,0,0,0-.19,2.5q0,2.4.79,3.11.41.38.41.62t-.42.52a1.55,1.55,0,0,1-.75.24q-.72,0-1.16-1.07a8.61,8.61,0,0,1-.44-3.15v-.34Q412.22,106.65,412.23,106.47Z"/><path class="cls-1" d="M424.66,106.47a14.23,14.23,0,0,1-2.69,3.41,4,4,0,0,1-2.55,1.21,1.93,1.93,0,0,1-1.38-.79,3.57,3.57,0,0,1-.7-2.43,18.11,18.11,0,0,1,.65-4,15,15,0,0,0,.54-3.07,1,1,0,0,1,.93-.62.86.86,0,0,1,.69.3,1,1,0,0,1,.26.63,6.32,6.32,0,0,1-.5,2,13.07,13.07,0,0,0-1,4.42q0,1.68.78,1.68,1,0,2.53-1.69a14.12,14.12,0,0,0,2.64-4.72,7.05,7.05,0,0,1,.7-1.57.87.87,0,0,1,.73-.36q.7,0,.7.92a4.68,4.68,0,0,1-.19.75,16.09,16.09,0,0,0-.62,4.25q0,2.4.79,3.11.41.38.41.62t-.42.52a1.56,1.56,0,0,1-.75.24q-.72,0-1.16-1.07a8.63,8.63,0,0,1-.44-3.15v-.34C424.65,106.7,424.65,106.59,424.66,106.47Z"/><path class="cls-1" d="M443.31,102a50.64,50.64,0,0,0-2.34,4.51q-.34.72-.69,1.38-.11.22-.43,1-1.08,2.5-1.88,2.5a2.1,2.1,0,0,1-.93-.15,1.58,1.58,0,0,1-.56-.84,26.44,26.44,0,0,1-.79-3.23q-.61-2.88-.82-3.55-.7,1.57-1.24,3a26,26,0,0,1-1.59,3.49,7.13,7.13,0,0,1-1.11,1.62,1.06,1.06,0,0,1-.65.27.81.81,0,0,1-.57-.25.69.69,0,0,1-.26-.48,1.33,1.33,0,0,1,.14-.52,13.8,13.8,0,0,0,1.54-2.34q.64-1.24,1.65-3.72a21.27,21.27,0,0,0,1.28-4.07q.13-.68,1-.68a1.12,1.12,0,0,1,.69.15,1.56,1.56,0,0,1,.36.63,3.16,3.16,0,0,1,.21.84q.06.44.35,2t.34,2q.14.85.51,2.24t.57,1.38.41-.63l.86-2q.24-.54.5-1.07L441,103q1-2,1.48-2.89a7.51,7.51,0,0,1,.7-1.08.55.55,0,0,1,.41-.18,2.22,2.22,0,0,1,.87.21q.48.21.5.47t.09,2.14l.13,3.2q.06,1.53.18,2.6a5.65,5.65,0,0,0,.43,1.73,4.28,4.28,0,0,1,.48,1.62.68.68,0,0,1-.41.68,1.83,1.83,0,0,1-.75.18q-.72,0-1.1-1.15a34.34,34.34,0,0,1-.56-6.58A9.43,9.43,0,0,0,443.31,102Z"/><path class="cls-1" d="M464.57,107.31a14.68,14.68,0,0,1-3.12,2.3,5.73,5.73,0,0,1-2.39.83,1.77,1.77,0,0,1-1.52-.82,3.42,3.42,0,0,1-.57-2,15.51,15.51,0,0,1,.66-4.1,8.45,8.45,0,0,1,1-2.68,1.32,1.32,0,0,1,.92-.32.54.54,0,0,1,.48.36,1.72,1.72,0,0,1,.17.74,1.45,1.45,0,0,1-.24.67,9.5,9.5,0,0,0-1.34,4.81,2.24,2.24,0,0,0,.22,1,.69.69,0,0,0,.66.44,3.76,3.76,0,0,0,1.39-.34,8.85,8.85,0,0,0,1.86-1.12,7.34,7.34,0,0,0,1.39-1.26,3,3,0,0,0,.51-1.1,16.73,16.73,0,0,0,.21-2.67q.06-2.05,1-2.05c.37,0,.61.1.72.29a2.54,2.54,0,0,1,.16,1.11q0,.62-.18,2.67c0,.31,0,.59-.05.85a25.74,25.74,0,0,1-1.64,8.58q-1.34,3.11-3.91,3.11a6.26,6.26,0,0,1-3.57-1.05q-1.56-1.05-1.56-1.78a1.51,1.51,0,0,1,.16-.67c.11-.22.24-.33.41-.33s.17.06.27.19a4.59,4.59,0,0,0,4.13,2.06q1.77,0,2.66-2.17A18.4,18.4,0,0,0,464.57,107.31Z"/><path class="cls-1" d="M472.2,111.52a3.08,3.08,0,0,1-2.36-.88,3.47,3.47,0,0,1-.83-2.47,9.82,9.82,0,0,1,2.12-5.64q2.12-3,3.95-3a1.72,1.72,0,0,1,1.43.9,3.36,3.36,0,0,1,.6,1.9,2,2,0,0,1-.26,1q-.26.44-.53.44-.59,0-.84-1.2t-.8-1.29q-1.07,0-2.52,2.53a9.06,9.06,0,0,0-1.46,4.28q0,1.74,2,1.74a6.56,6.56,0,0,0,3.55-1.42,2.25,2.25,0,0,1,1.06-.5q.35,0,.35.4,0,.78-1.84,2A6.63,6.63,0,0,1,472.2,111.52Z"/><path class="cls-1" d="M487.28,106.47a14.23,14.23,0,0,1-2.69,3.41A4,4,0,0,1,482,111.1a1.93,1.93,0,0,1-1.38-.79,3.57,3.57,0,0,1-.7-2.43,18.11,18.11,0,0,1,.65-4,15,15,0,0,0,.54-3.07,1,1,0,0,1,.93-.62.86.86,0,0,1,.69.3,1,1,0,0,1,.26.63,6.32,6.32,0,0,1-.5,2,13.07,13.07,0,0,0-1,4.42q0,1.68.78,1.68,1,0,2.53-1.69a14.12,14.12,0,0,0,2.64-4.72,7.05,7.05,0,0,1,.7-1.57A.87.87,0,0,1,489,101q.7,0,.7.92a4.68,4.68,0,0,1-.19.75,16.09,16.09,0,0,0-.62,4.25q0,2.4.79,3.11.41.38.41.62t-.42.52a1.56,1.56,0,0,1-.75.24q-.72,0-1.16-1.07a8.63,8.63,0,0,1-.44-3.15v-.34C487.27,106.7,487.27,106.59,487.28,106.47Z"/><path class="cls-1" d="M498.6,102.58c-.16,0-.33.15-.48.47a49.23,49.23,0,0,1-3.21,5.76c-.06.09-.14.22-.24.39q-1.28,2.29-1.88,2.29-.8,0-.8-.77a3.47,3.47,0,0,1,1-1.9,28.58,28.58,0,0,0,2.53-3.86q1.57-2.72,2.54-4.89a.59.59,0,0,1,.55-.39,2,2,0,0,1,.55.14,1,1,0,0,1,.51.3,12.27,12.27,0,0,1,.5,1.91q1.26,6.29,2.66,7.45a2.68,2.68,0,0,1,.39.38.51.51,0,0,1,.06.27.92.92,0,0,1-.21.58,1,1,0,0,1-.4.33,2.81,2.81,0,0,1-.8.07q-.22,0-1-1.06T499,104.28A11.49,11.49,0,0,0,498.6,102.58Z"/><path class="cls-1" d="M512.63,106.47a14.23,14.23,0,0,1-2.69,3.41,4,4,0,0,1-2.55,1.21,1.93,1.93,0,0,1-1.38-.79,3.57,3.57,0,0,1-.7-2.43,18.11,18.11,0,0,1,.65-4,15,15,0,0,0,.54-3.07,1,1,0,0,1,.93-.62.86.86,0,0,1,.69.3,1,1,0,0,1,.26.63,6.32,6.32,0,0,1-.5,2,13.07,13.07,0,0,0-1,4.42q0,1.68.78,1.68,1,0,2.53-1.69a14.12,14.12,0,0,0,2.64-4.72,7.05,7.05,0,0,1,.7-1.57.87.87,0,0,1,.73-.36q.7,0,.7.92a4.68,4.68,0,0,1-.19.75,16.09,16.09,0,0,0-.62,4.25q0,2.4.79,3.11.41.38.41.62t-.42.52a1.56,1.56,0,0,1-.75.24q-.72,0-1.16-1.07a8.63,8.63,0,0,1-.44-3.15v-.34C512.62,106.7,512.62,106.59,512.63,106.47Z"/><path class="cls-1" d="M527.44,100.22a4.18,4.18,0,0,1-.43,1.22,13.94,13.94,0,0,0-.72,3,23.7,23.7,0,0,0-.37,3.66,14.74,14.74,0,0,0,.12,1.65c0,.33.05.6.05.82s-.1.24-.3.36a1.08,1.08,0,0,1-.55.18q-.64,0-.81-.29a2.53,2.53,0,0,1-.18-1.18l.09-3.31q-1.54,1.28-2.19,1.9t-1,.91a13.52,13.52,0,0,0-2.05,1.94,1.31,1.31,0,0,1-.32.26.74.74,0,0,1-.3.13.83.83,0,0,1-.73-.43,1.41,1.41,0,0,1-.28-.66q0-.26,1-1.16a6.67,6.67,0,0,1,.55-.43,24.14,24.14,0,0,0,3-2.46h-1.12a3.41,3.41,0,0,1-1.32-.46,1.8,1.8,0,0,1-.93-.93,3.17,3.17,0,0,1-.17-1,3.37,3.37,0,0,1,1.59-2.68,9.11,9.11,0,0,1,3.83-1.63,5.37,5.37,0,0,0,.88-.12l.71-.11a2.9,2.9,0,0,1,.5.1l.34-.06a1.25,1.25,0,0,1,.66.21A.89.89,0,0,1,527.44,100.22Zm-2.06,1c-.08-.14-.16-.21-.26-.21a7.14,7.14,0,0,0-3.19.9q-1.76.9-1.76,2.19a.76.76,0,0,0,.46.64,2.62,2.62,0,0,0,1.31.27,7.24,7.24,0,0,0,2.36-.3,1.21,1.21,0,0,0,.4-.68Z"/><path class="cls-1" d="M542.44,102a50.64,50.64,0,0,0-2.34,4.51q-.34.72-.69,1.38-.11.22-.43,1-1.08,2.5-1.88,2.5a2.1,2.1,0,0,1-.93-.15,1.58,1.58,0,0,1-.56-.84,26.44,26.44,0,0,1-.79-3.23q-.61-2.88-.82-3.55-.7,1.57-1.24,3a26,26,0,0,1-1.59,3.49,7.13,7.13,0,0,1-1.11,1.62,1.06,1.06,0,0,1-.65.27.81.81,0,0,1-.57-.25.69.69,0,0,1-.26-.48,1.33,1.33,0,0,1,.14-.52,13.8,13.8,0,0,0,1.54-2.34q.64-1.24,1.65-3.72a21.27,21.27,0,0,0,1.28-4.07q.13-.68,1-.68a1.12,1.12,0,0,1,.69.15,1.56,1.56,0,0,1,.36.63,3.16,3.16,0,0,1,.21.84q.06.44.35,2t.34,2q.14.85.51,2.24t.57,1.38.41-.63l.86-2q.24-.54.5-1.07l1.18-2.41q1-2,1.48-2.89a7.51,7.51,0,0,1,.7-1.08.55.55,0,0,1,.41-.18,2.22,2.22,0,0,1,.87.21q.48.21.5.47t.09,2.14l.13,3.2q.06,1.53.18,2.6a5.65,5.65,0,0,0,.43,1.73,4.28,4.28,0,0,1,.48,1.62.68.68,0,0,1-.41.68,1.83,1.83,0,0,1-.75.18q-.72,0-1.1-1.15a34.34,34.34,0,0,1-.56-6.58A9.43,9.43,0,0,0,542.44,102Z"/><path class="cls-1" d="M549.2,108.1h.23a.82.82,0,0,1,.44.18.56.56,0,0,1,.26.49,1.51,1.51,0,0,1-.22.9,3.31,3.31,0,0,1-.69.64,1.5,1.5,0,0,1-.67.35.89.89,0,0,1-.63-.19c-.14-.13-.21-.49-.21-1.07a2.73,2.73,0,0,1,.09-1,.7.7,0,0,1,.45-.24A4.2,4.2,0,0,1,549.2,108.1Z"/><path class="cls-1" d="M59,133q.4,0,.4.49T58.29,135a9,9,0,0,1-2.63,1.52,7.8,7.8,0,0,1-2.73.56,5.16,5.16,0,0,1-3.31-1.2,4.2,4.2,0,0,1-1.49-3.48q0-4.15,3.57-8.08t6.89-3.93a2.64,2.64,0,0,1,2,.76,2.47,2.47,0,0,1,.74,1.78,8,8,0,0,1-.11,1.49,1.44,1.44,0,0,1-.65.92,1.71,1.71,0,0,1-.87.38.52.52,0,0,1-.41-.21.83.83,0,0,1-.17-.55,5.68,5.68,0,0,1,.17-1,5.31,5.31,0,0,0,.17-1.1q0-1-.91-1a6.24,6.24,0,0,0-3.5,1.63,14.25,14.25,0,0,0-3.54,4.12,9.27,9.27,0,0,0-1.46,4.6,3.35,3.35,0,0,0,.84,2.33,3,3,0,0,0,2.38.93,6.8,6.8,0,0,0,2.17-.45,9.53,9.53,0,0,0,2.34-1.19A4.65,4.65,0,0,1,59,133Z"/><path class="cls-1" d="M71.57,132.66q0,1-1.85,2.52a6.07,6.07,0,0,1-3.82,1.48,3.29,3.29,0,0,1-2.55-1,3.86,3.86,0,0,1-.9-2.72,9.17,9.17,0,0,1,2-5.58q2-2.65,4.33-2.65a1.69,1.69,0,0,1,1.74,1.71,4.17,4.17,0,0,1-1.55,3,19.89,19.89,0,0,1-4.14,2.84.82.82,0,0,0-.53.72,1.89,1.89,0,0,0,.49,1.36,1.93,1.93,0,0,0,1.46.51q2.2,0,4.5-2.44c.23-.23.4-.34.51-.34S71.57,132.31,71.57,132.66Zm-7.13-1.6q4.35-2.58,4.35-4.15,0-.62-.55-.62a3.16,3.16,0,0,0-2.13,1.38A8,8,0,0,0,64.44,131.06Z"/><path class="cls-1" d="M81,131.67a14.19,14.19,0,0,1-2.69,3.42,4,4,0,0,1-2.55,1.21,1.93,1.93,0,0,1-1.38-.79,3.57,3.57,0,0,1-.7-2.43,18.11,18.11,0,0,1,.65-4,15,15,0,0,0,.54-3.07,1,1,0,0,1,.93-.62.86.86,0,0,1,.69.3,1,1,0,0,1,.26.63,6.3,6.3,0,0,1-.5,2,13.09,13.09,0,0,0-1,4.42q0,1.68.78,1.68,1,0,2.53-1.69a14.1,14.1,0,0,0,2.64-4.72,7,7,0,0,1,.7-1.57.87.87,0,0,1,.73-.36q.7,0,.7.92a4.59,4.59,0,0,1-.19.75,16.08,16.08,0,0,0-.62,4.24q0,2.4.79,3.11.41.38.41.62c0,.19-.14.37-.42.52a1.57,1.57,0,0,1-.75.24q-.72,0-1.16-1.07a8.63,8.63,0,0,1-.44-3.15V132C80.94,131.9,80.95,131.79,81,131.67Zm3-10.56a1.52,1.52,0,0,1-.11.49,3.57,3.57,0,0,1-.3.63,4.91,4.91,0,0,1-.47.66,3.06,3.06,0,0,1-.63.56,3.23,3.23,0,0,1-.59.32,5.23,5.23,0,0,1-.72.25,6.38,6.38,0,0,1-.77.16,5.26,5.26,0,0,1-.75.06,4.53,4.53,0,0,1-1.13-.14,4.28,4.28,0,0,1-1-.39,3.94,3.94,0,0,1-.83-.6,3.46,3.46,0,0,1-.62-.77,2,2,0,0,1-.14-.3,3.48,3.48,0,0,1-.11-.34q0-.17-.07-.3a1.2,1.2,0,0,1,0-.17,1.21,1.21,0,0,1,.07-.45.86.86,0,0,1,.18-.29.59.59,0,0,1,.24-.15.87.87,0,0,1,.26,0,1,1,0,0,1,.51.12.44.44,0,0,1,.23.36,3.42,3.42,0,0,0,.19.88,1.79,1.79,0,0,0,.45.7,2.22,2.22,0,0,0,.79.49,3.24,3.24,0,0,0,1.17.19l.38,0a3.58,3.58,0,0,0,.45-.09l.44-.14a1.86,1.86,0,0,0,.36-.18,1.83,1.83,0,0,0,.43-.39,2.88,2.88,0,0,0,.31-.47,3.92,3.92,0,0,0,.22-.49q.09-.25.15-.45a.83.83,0,0,1,.3-.44.7.7,0,0,1,.4-.13.73.73,0,0,1,.57.21A1,1,0,0,1,83.93,121.11Z"/><path class="cls-1" d="M93.78,130.08a16.68,16.68,0,0,1-3.16,2.21,5.77,5.77,0,0,1-2.35.82,1.73,1.73,0,0,1-1.55-.85,3.6,3.6,0,0,1-.54-2,12.38,12.38,0,0,1,.53-3.38q.53-1.86,1.83-1.86a.54.54,0,0,1,.47.34,1.58,1.58,0,0,1,.18.77,3.33,3.33,0,0,1-.55,1.52,4.32,4.32,0,0,0-.72,2.08,2.79,2.79,0,0,0,.18,1,.64.64,0,0,0,.62.48,5.46,5.46,0,0,0,2.79-1.12,5.77,5.77,0,0,0,2.08-2,3.45,3.45,0,0,0,.39-1.31,1.79,1.79,0,0,0,0-.39,1.79,1.79,0,0,1,0-.39,2,2,0,0,1,.26-.89.77.77,0,0,1,.69-.51.93.93,0,0,1,.73.24,2.07,2.07,0,0,1,.21,1.17q0,.58-.18,2.57c0,.29,0,.57-.05.83q-.07,1.3-.45,3.81a12.07,12.07,0,0,1-.59,2.82.7.7,0,0,1-.6.31q-1,0-1-.63a1.6,1.6,0,0,1,.09-.56Q93.17,134.85,93.78,130.08Z"/><path class="cls-1" d="M104.77,132.4a12.56,12.56,0,0,1-2.84,2.89,4.66,4.66,0,0,1-2.57,1,1.75,1.75,0,0,1-1.36-.67,2.53,2.53,0,0,1-.57-1.71,9.73,9.73,0,0,1,2.41-5.81q2.41-3.11,4.79-3.11a1.37,1.37,0,0,1,1.28,1,.44.44,0,0,0,.42.33q.82,0,.82.64a5.09,5.09,0,0,1-.1.87,27.71,27.71,0,0,0-.55,4.27q0,2.48.94,3a.71.71,0,0,1,.45.6.86.86,0,0,1-.44.64,1.45,1.45,0,0,1-.85.32q-.79,0-1.3-1.09A7.46,7.46,0,0,1,104.77,132.4Zm-.63-5.77q-1.35,0-3.15,2.54a8,8,0,0,0-1.79,4.21q0,1.18.78,1.18,1.13,0,3.13-2.28a6.64,6.64,0,0,0,2-4.18Q105.11,126.63,104.15,126.63Z"/><path class="cls-1" d="M113,136.72a3.08,3.08,0,0,1-2.36-.88,3.48,3.48,0,0,1-.83-2.47,9.82,9.82,0,0,1,2.12-5.64q2.12-3,3.95-3a1.71,1.71,0,0,1,1.43.9,3.36,3.36,0,0,1,.6,1.9,2,2,0,0,1-.26,1q-.26.44-.53.44-.59,0-.84-1.2t-.8-1.29q-1.07,0-2.52,2.53a9.06,9.06,0,0,0-1.46,4.28q0,1.74,2,1.74a6.56,6.56,0,0,0,3.55-1.42,2.26,2.26,0,0,1,1.06-.5q.35,0,.35.4,0,.78-1.84,2A6.63,6.63,0,0,1,113,136.72Z"/><path class="cls-1" d="M142.31,127.15a50.12,50.12,0,0,0-2.34,4.51q-.34.72-.69,1.38-.11.21-.43,1-1.08,2.5-1.88,2.5a2.08,2.08,0,0,1-.93-.15,1.58,1.58,0,0,1-.56-.84,26.62,26.62,0,0,1-.79-3.23q-.6-2.88-.82-3.55-.7,1.57-1.24,3a25.82,25.82,0,0,1-1.59,3.49,7.07,7.07,0,0,1-1.11,1.62,1.05,1.05,0,0,1-.65.27.81.81,0,0,1-.57-.25.69.69,0,0,1-.26-.48,1.32,1.32,0,0,1,.14-.52,13.8,13.8,0,0,0,1.54-2.34q.65-1.24,1.65-3.72a21.25,21.25,0,0,0,1.28-4.07q.13-.68,1-.68a1.12,1.12,0,0,1,.69.15,1.58,1.58,0,0,1,.36.63,3.16,3.16,0,0,1,.21.84q.06.44.35,2t.34,2q.14.85.51,2.24t.57,1.38.41-.62l.86-2q.24-.54.5-1.07l1.18-2.41q1-2,1.48-2.89a7.39,7.39,0,0,1,.7-1.08.55.55,0,0,1,.41-.18,2.22,2.22,0,0,1,.87.21q.48.21.5.47t.09,2.14l.13,3.2q.06,1.53.18,2.6a5.65,5.65,0,0,0,.43,1.73,4.27,4.27,0,0,1,.48,1.62.68.68,0,0,1-.4.68,1.83,1.83,0,0,1-.75.18q-.72,0-1.1-1.15a34.32,34.32,0,0,1-.56-6.58A9.44,9.44,0,0,0,142.31,127.15Z"/><path class="cls-1" d="M150,124.52a.5.5,0,0,1,.3-.09c.17,0,.31.23.43.69a3.55,3.55,0,0,1-.24,1.12,9.68,9.68,0,0,0-.7,2.71q0,.21.12.23,2.36-2.27,4.37-2.27a3.09,3.09,0,0,1,2.92,2.66,6.23,6.23,0,0,1-2.42,4.57,7.33,7.33,0,0,1-4.89,2.19,1.94,1.94,0,0,1-1.71-.91,4.64,4.64,0,0,1-.61-2.6,20.14,20.14,0,0,1,.46-4.06,25.14,25.14,0,0,1,.74-3c.08-.21.14-.43.21-.65S149.36,124.65,150,124.52Zm-.48,6.43a12.81,12.81,0,0,0-.21,2.28q0,1.55,1.22,1.55a4.76,4.76,0,0,0,3.08-1.64,4.6,4.6,0,0,0,1.7-3.19,1.67,1.67,0,0,0-.34-1.07,1.12,1.12,0,0,0-.93-.43,3.43,3.43,0,0,0-1.59.41,8.15,8.15,0,0,0-1.75,1.31l-.59.54A1.19,1.19,0,0,1,149.49,130.95Zm10.33,2.36a8.21,8.21,0,0,0,.22,1.75,1.46,1.46,0,0,1,0,.31q0,.18-.34.48a1.09,1.09,0,0,1-.72.29q-1,0-1-1.83a38.75,38.75,0,0,1,.79-6.09,16.45,16.45,0,0,0,.29-1.89,2.38,2.38,0,0,1,.24-1.1.73.73,0,0,1,.67-.46,1.26,1.26,0,0,1,.83.25.73.73,0,0,1,.3.56,3.57,3.57,0,0,1-.14.85q-.8,2.92-1,4.09A18.1,18.1,0,0,0,159.82,133.3Z"/><path class="cls-1" d="M173.56,134.94a41.59,41.59,0,0,0-.94,5.18l-.29,1.94a1.9,1.9,0,0,1-.38.82q-.31.4-.56.4a1.22,1.22,0,0,1-.72-.32q-.41-.32-.41-.52a6.67,6.67,0,0,1,.26-1.56,56.31,56.31,0,0,0,1.88-13.31v-.86a2.46,2.46,0,0,1,.39-1.61,1.2,1.2,0,0,1,.94-.5q.25,0,.47.38a2.18,2.18,0,0,1,.23,1.09,17.21,17.21,0,0,1-.21,2.41q-.27,1.78-.28,2.05a16.13,16.13,0,0,1,3.24-4.16,5,5,0,0,1,3.18-1.5,2.28,2.28,0,0,1,1.75.77,2.73,2.73,0,0,1,.71,1.92,8.66,8.66,0,0,1-2.56,6.07q-2.56,2.73-5,2.73a1.41,1.41,0,0,1-1-.31A3.44,3.44,0,0,1,173.56,134.94Zm6.37-8.25q-1.45,0-3.58,2.71t-2.13,4.21a1,1,0,0,0,.42.72,1.61,1.61,0,0,0,1.07.35q1.47,0,3.37-2.17a6.54,6.54,0,0,0,1.91-4.26,1.9,1.9,0,0,0-.3-1.15A.91.91,0,0,0,179.92,126.69Z"/><path class="cls-1" d="M192.06,132.4a12.56,12.56,0,0,1-2.84,2.89,4.66,4.66,0,0,1-2.57,1,1.75,1.75,0,0,1-1.36-.67,2.53,2.53,0,0,1-.57-1.71,9.73,9.73,0,0,1,2.41-5.81q2.41-3.11,4.79-3.11a1.37,1.37,0,0,1,1.28,1,.44.44,0,0,0,.42.33q.82,0,.82.64a5.09,5.09,0,0,1-.1.87,27.71,27.71,0,0,0-.55,4.27q0,2.48.94,3a.71.71,0,0,1,.45.6.86.86,0,0,1-.44.64,1.45,1.45,0,0,1-.85.32q-.79,0-1.3-1.09A7.46,7.46,0,0,1,192.06,132.4Zm-.63-5.77q-1.35,0-3.15,2.54a8,8,0,0,0-1.79,4.21q0,1.18.78,1.18,1.13,0,3.13-2.28a6.64,6.64,0,0,0,2-4.18Q192.4,126.63,191.44,126.63Z"/><path class="cls-1" d="M200.28,136.72a3.08,3.08,0,0,1-2.36-.88,3.48,3.48,0,0,1-.83-2.47,9.82,9.82,0,0,1,2.12-5.64q2.12-3,3.95-3a1.71,1.71,0,0,1,1.43.9,3.36,3.36,0,0,1,.6,1.9,2,2,0,0,1-.26,1q-.26.44-.53.44-.59,0-.84-1.2t-.8-1.29q-1.07,0-2.52,2.53a9.06,9.06,0,0,0-1.46,4.28q0,1.74,2,1.74a6.56,6.56,0,0,0,3.55-1.42,2.26,2.26,0,0,1,1.06-.5q.35,0,.35.4,0,.78-1.84,2A6.63,6.63,0,0,1,200.28,136.72Z"/><path class="cls-1" d="M210.92,136.72a3.08,3.08,0,0,1-2.36-.88,3.48,3.48,0,0,1-.83-2.47,9.82,9.82,0,0,1,2.12-5.64q2.12-3,3.95-3a1.71,1.71,0,0,1,1.43.9,3.36,3.36,0,0,1,.6,1.9,2,2,0,0,1-.26,1q-.26.44-.53.44-.59,0-.84-1.2t-.8-1.29q-1.07,0-2.52,2.53a9.06,9.06,0,0,0-1.46,4.28q0,1.74,2,1.74a6.56,6.56,0,0,0,3.55-1.42,2.26,2.26,0,0,1,1.06-.5q.35,0,.35.4,0,.78-1.84,2A6.63,6.63,0,0,1,210.92,136.72Z"/><path class="cls-1" d="M220.85,130.74a6.91,6.91,0,0,0,4.36-3.14,8.72,8.72,0,0,1,1.58-1.79,2.33,2.33,0,0,1,1.45-.53.93.93,0,0,1,.62.28.86.86,0,0,1,.31.66q0,.5-1,.79a2.69,2.69,0,0,0-.94.52,20.94,20.94,0,0,0-1.67,1.76,7.41,7.41,0,0,1-1.73,1.53s-.07.05-.07.07,0,.06.09.08a5.11,5.11,0,0,1,1.58,1.55,10.54,10.54,0,0,0,1.81,2.11,2.31,2.31,0,0,0,1.38.44H229q.36,0,.36.32a1.17,1.17,0,0,1-.44.81,2.07,2.07,0,0,1-1.46.42,2.23,2.23,0,0,1-1.51-.67,10.8,10.8,0,0,1-1.68-2.18,7.05,7.05,0,0,0-1-1.35,1.46,1.46,0,0,0-1-.46,4.24,4.24,0,0,0-.76.21c-.42.14-.66.27-.71.39a6.65,6.65,0,0,0-.11,1.36q0,1.17,0,1.89a.87.87,0,0,1-.36.68,1.2,1.2,0,0,1-.78.3.91.91,0,0,1-.68-.25.74.74,0,0,1-.25-.52,12.34,12.34,0,0,1,.28-1.74q.49-2.5,1-8.25a1.71,1.71,0,0,1,.42-1,1.11,1.11,0,0,1,.86-.45.52.52,0,0,1,.45.29,1.38,1.38,0,0,1,.18.74,3.23,3.23,0,0,1-.12.82A21.53,21.53,0,0,0,220.85,130.74Z"/><path class="cls-1" d="M237.73,132.4a12.56,12.56,0,0,1-2.84,2.89,4.66,4.66,0,0,1-2.57,1,1.75,1.75,0,0,1-1.36-.67,2.53,2.53,0,0,1-.57-1.71,9.73,9.73,0,0,1,2.41-5.81q2.41-3.11,4.79-3.11a1.37,1.37,0,0,1,1.28,1,.44.44,0,0,0,.42.33q.82,0,.82.64a5.09,5.09,0,0,1-.1.87,27.71,27.71,0,0,0-.55,4.27q0,2.48.94,3a.71.71,0,0,1,.45.6.86.86,0,0,1-.44.64,1.45,1.45,0,0,1-.85.32q-.79,0-1.3-1.09A7.46,7.46,0,0,1,237.73,132.4Zm-.63-5.77q-1.35,0-3.15,2.54a8,8,0,0,0-1.79,4.21q0,1.18.78,1.18,1.13,0,3.13-2.28a6.64,6.64,0,0,0,2-4.18Q238.06,126.63,237.1,126.63Z"/><path class="cls-1" d="M251.77,131.47q-.13,2.31-.44,4.52-.15.42-.78.42a.81.81,0,0,1-.9-.92,8.49,8.49,0,0,1,.22-1.41,11,11,0,0,0,.16-1.23c0-.22,0-.45.05-.71a1.94,1.94,0,0,0,0-.61,6.92,6.92,0,0,0-2.13,1.25,23.28,23.28,0,0,0-2.76,2.34h0a4,4,0,0,0-.45.77q-.54,1.09-1.2,1.09a1.22,1.22,0,0,1-.68-.27q-.37-.27-.37-.53,0-.64,1.19-1.89a13.25,13.25,0,0,1,2.64-2.15,14.37,14.37,0,0,0,2.43-1.75,3.75,3.75,0,0,0-1.16-.92A11.52,11.52,0,0,1,246,128.3l-.25-.18a12.83,12.83,0,0,1-1.76-1.34,1.36,1.36,0,0,1-.44-1,.9.9,0,0,1,.26-.62.71.71,0,0,1,.5-.28,1.81,1.81,0,0,1,.55.16,1.66,1.66,0,0,1,.57.35l.5.47a17.23,17.23,0,0,0,4.2,3.31c.05,0,.12-.06.21-.19a4.35,4.35,0,0,0,.1-1.12,9.57,9.57,0,0,0-.15-1.61,4.48,4.48,0,0,1-.08-.61,1,1,0,0,1,.37-.78,1.29,1.29,0,0,1,.82-.3.91.91,0,0,1,.69.21,1,1,0,0,1,.18.7l-.13,3.26V129a2.19,2.19,0,0,0,0,.24,1.29,1.29,0,0,0,.75-.28,9.14,9.14,0,0,0,1.16-1.12q3.37-3.5,3.91-3.5a.75.75,0,0,1,.54.25.79.79,0,0,1,.25.57,6.36,6.36,0,0,1-1.12,1.39,27.46,27.46,0,0,1-2.31,2.25q-1.53,1.31-1.53,1.36A9.75,9.75,0,0,0,255,131.2q1.37,1.08,1.9,1.53l.21.13a8.93,8.93,0,0,1,1.9,1.39,1.35,1.35,0,0,1,.38.78,1,1,0,0,1-.26.61.69.69,0,0,1-.5.31q-.91,0-4.23-3.07a8.24,8.24,0,0,0-1.78-1.45l-.21-.05a1.25,1.25,0,0,0-.37,0C251.88,131.39,251.79,131.42,251.77,131.47Z"/><path class="cls-1" d="M270.14,132.66q0,1-1.85,2.52a6.07,6.07,0,0,1-3.82,1.48,3.29,3.29,0,0,1-2.55-1A3.86,3.86,0,0,1,261,133a9.17,9.17,0,0,1,2-5.58q2-2.65,4.33-2.65a1.69,1.69,0,0,1,1.74,1.71,4.17,4.17,0,0,1-1.55,3,19.89,19.89,0,0,1-4.14,2.84.82.82,0,0,0-.53.72,1.89,1.89,0,0,0,.49,1.36,1.93,1.93,0,0,0,1.46.51q2.2,0,4.5-2.44c.23-.23.4-.34.51-.34S270.14,132.31,270.14,132.66Zm-7.13-1.6q4.35-2.58,4.35-4.15,0-.62-.55-.62a3.16,3.16,0,0,0-2.13,1.38A8,8,0,0,0,263,131.06Z"/><path class="cls-1" d="M285.36,127.15a50.12,50.12,0,0,0-2.34,4.51q-.34.72-.69,1.38-.11.21-.43,1-1.08,2.5-1.88,2.5a2.08,2.08,0,0,1-.93-.15,1.58,1.58,0,0,1-.56-.84,26.62,26.62,0,0,1-.79-3.23q-.6-2.88-.82-3.55-.7,1.57-1.24,3a25.82,25.82,0,0,1-1.59,3.49,7.07,7.07,0,0,1-1.11,1.62,1.05,1.05,0,0,1-.65.27.81.81,0,0,1-.57-.25.69.69,0,0,1-.26-.48,1.32,1.32,0,0,1,.14-.52,13.8,13.8,0,0,0,1.54-2.34q.65-1.24,1.65-3.72a21.25,21.25,0,0,0,1.28-4.07q.13-.68,1-.68a1.12,1.12,0,0,1,.69.15,1.58,1.58,0,0,1,.36.63,3.16,3.16,0,0,1,.21.84q.06.44.35,2t.34,2q.14.85.51,2.24t.57,1.38.41-.62l.86-2q.24-.54.5-1.07l1.18-2.41q1-2,1.48-2.89a7.39,7.39,0,0,1,.7-1.08.55.55,0,0,1,.41-.18,2.22,2.22,0,0,1,.87.21q.48.21.5.47t.09,2.14l.13,3.2q.06,1.53.18,2.6a5.65,5.65,0,0,0,.43,1.73,4.27,4.27,0,0,1,.48,1.62.68.68,0,0,1-.4.68,1.83,1.83,0,0,1-.75.18q-.72,0-1.1-1.15a34.32,34.32,0,0,1-.56-6.58A9.44,9.44,0,0,0,285.36,127.15Z"/><path class="cls-1" d="M301.12,130.74a6.91,6.91,0,0,0,4.36-3.14,8.72,8.72,0,0,1,1.58-1.79,2.33,2.33,0,0,1,1.45-.53.93.93,0,0,1,.62.28.86.86,0,0,1,.31.66q0,.5-1,.79a2.69,2.69,0,0,0-.94.52,21,21,0,0,0-1.67,1.76,7.41,7.41,0,0,1-1.73,1.53s-.07.05-.07.07,0,.06.09.08a5.11,5.11,0,0,1,1.58,1.55,10.54,10.54,0,0,0,1.82,2.11,2.31,2.31,0,0,0,1.38.44h.34q.36,0,.36.32a1.17,1.17,0,0,1-.44.81,2.07,2.07,0,0,1-1.46.42,2.23,2.23,0,0,1-1.51-.67,10.8,10.8,0,0,1-1.68-2.18,7.05,7.05,0,0,0-1-1.35,1.46,1.46,0,0,0-1-.46,4.24,4.24,0,0,0-.76.21c-.42.14-.66.27-.71.39a6.69,6.69,0,0,0-.11,1.36q0,1.17,0,1.89a.87.87,0,0,1-.36.68,1.2,1.2,0,0,1-.78.3.91.91,0,0,1-.68-.25.74.74,0,0,1-.25-.52,12.37,12.37,0,0,1,.28-1.74q.49-2.5,1-8.25a1.71,1.71,0,0,1,.42-1,1.11,1.11,0,0,1,.86-.45.52.52,0,0,1,.45.29,1.38,1.38,0,0,1,.18.74,3.23,3.23,0,0,1-.12.82A21.53,21.53,0,0,0,301.12,130.74Z"/><path class="cls-1" d="M318,132.4a12.56,12.56,0,0,1-2.84,2.89,4.66,4.66,0,0,1-2.57,1,1.75,1.75,0,0,1-1.36-.67,2.53,2.53,0,0,1-.57-1.71,9.73,9.73,0,0,1,2.41-5.81q2.41-3.11,4.79-3.11a1.37,1.37,0,0,1,1.28,1,.45.45,0,0,0,.42.33q.82,0,.82.64a5.09,5.09,0,0,1-.1.87,27.71,27.71,0,0,0-.55,4.27q0,2.48.94,3a.71.71,0,0,1,.45.6.86.86,0,0,1-.44.64,1.45,1.45,0,0,1-.85.32q-.79,0-1.3-1.09A7.46,7.46,0,0,1,318,132.4Zm-.62-5.77q-1.35,0-3.15,2.54a8,8,0,0,0-1.79,4.21q0,1.18.78,1.18,1.13,0,3.13-2.28a6.64,6.64,0,0,0,2-4.18Q318.34,126.63,317.38,126.63Z"/><path class="cls-1" d="M325.5,130.74a6.9,6.9,0,0,0,4.36-3.14,8.72,8.72,0,0,1,1.58-1.79,2.32,2.32,0,0,1,1.45-.53.93.93,0,0,1,.62.28.86.86,0,0,1,.31.66q0,.5-1,.79a2.69,2.69,0,0,0-.94.52,20.91,20.91,0,0,0-1.67,1.76,7.41,7.41,0,0,1-1.73,1.53s-.07.05-.07.07,0,.06.09.08a5.11,5.11,0,0,1,1.58,1.55,10.55,10.55,0,0,0,1.81,2.11,2.31,2.31,0,0,0,1.38.44h.34q.36,0,.36.32a1.17,1.17,0,0,1-.44.81,2.07,2.07,0,0,1-1.46.42,2.23,2.23,0,0,1-1.51-.67,10.8,10.8,0,0,1-1.68-2.18,7.05,7.05,0,0,0-1-1.35,1.46,1.46,0,0,0-1-.46,4.24,4.24,0,0,0-.76.21c-.42.14-.66.27-.71.39a6.61,6.61,0,0,0-.11,1.36q0,1.17,0,1.89a.86.86,0,0,1-.36.68,1.2,1.2,0,0,1-.78.3.91.91,0,0,1-.68-.25.74.74,0,0,1-.25-.52,12.3,12.3,0,0,1,.28-1.74q.49-2.5,1-8.25a1.71,1.71,0,0,1,.42-1,1.11,1.11,0,0,1,.86-.45.52.52,0,0,1,.45.29,1.38,1.38,0,0,1,.18.74,3.23,3.23,0,0,1-.12.82A21.53,21.53,0,0,0,325.5,130.74Z"/><path class="cls-1" d="M350.2,125.68q2.33.94,2.33,4.47a7,7,0,0,1-1.65,4.63,4.69,4.69,0,0,1-3.59,2,3.11,3.11,0,0,1-2.7-1.37,7,7,0,0,1-1-4,19.75,19.75,0,0,1,1.12-6.46,12.69,12.69,0,0,1,2.8-4.93,4.87,4.87,0,0,1,3.39-1.67,2.17,2.17,0,0,1,1.67.68,2.68,2.68,0,0,1,.63,1.89,4.49,4.49,0,0,1-.83,2.29A11.53,11.53,0,0,1,350.2,125.68Zm.45,4.76a4.72,4.72,0,0,0-.56-2.46q-.56-.93-1.25-.93a13.4,13.4,0,0,0-2.29,1.58q-.53.41-1,.76a11.31,11.31,0,0,0-.15,1.94,5.61,5.61,0,0,0,.56,2.81,1.72,1.72,0,0,0,1.54.94,2.65,2.65,0,0,0,2.28-1.44,5.83,5.83,0,0,0,.91-3.17Zm-4.9-2.89a28.22,28.22,0,0,0,4.88-4.35,4,4,0,0,0,.93-2.06q0-1.2-1-1.2-1.34,0-2.7,2A16.45,16.45,0,0,0,345.75,127.55Z"/><path class="cls-1" d="M357,124.52a.51.51,0,0,1,.3-.09c.17,0,.31.23.43.69a3.55,3.55,0,0,1-.24,1.12,9.68,9.68,0,0,0-.7,2.71q0,.21.12.23,2.36-2.27,4.37-2.27a3.09,3.09,0,0,1,2.92,2.66,6.23,6.23,0,0,1-2.42,4.57,7.33,7.33,0,0,1-4.89,2.19,1.94,1.94,0,0,1-1.71-.91,4.64,4.64,0,0,1-.61-2.6,20.14,20.14,0,0,1,.46-4.06,25.14,25.14,0,0,1,.74-3c.08-.21.14-.43.21-.65S356.38,124.65,357,124.52Zm-.48,6.43a12.81,12.81,0,0,0-.21,2.28q0,1.55,1.22,1.55a4.76,4.76,0,0,0,3.08-1.64,4.6,4.6,0,0,0,1.7-3.19,1.67,1.67,0,0,0-.34-1.07,1.12,1.12,0,0,0-.93-.43,3.43,3.43,0,0,0-1.59.41,8.15,8.15,0,0,0-1.75,1.31l-.59.54A1.19,1.19,0,0,1,356.51,130.95Zm10.33,2.36a8.21,8.21,0,0,0,.22,1.75,1.46,1.46,0,0,1,0,.31q0,.18-.34.48a1.09,1.09,0,0,1-.72.29q-1,0-1-1.83a38.73,38.73,0,0,1,.79-6.09,16.45,16.45,0,0,0,.29-1.89,2.38,2.38,0,0,1,.24-1.1.73.73,0,0,1,.67-.46,1.26,1.26,0,0,1,.83.25.73.73,0,0,1,.3.56,3.57,3.57,0,0,1-.14.85q-.8,2.92-1,4.09A18.1,18.1,0,0,0,366.83,133.3Z"/><path class="cls-1" d="M378,124.2a5.45,5.45,0,0,0-.91-2.24,3.54,3.54,0,0,0-1.44-1,4.48,4.48,0,0,0-1.61-.35,2.51,2.51,0,0,0-.82.21,5.61,5.61,0,0,0-.83.38,1.47,1.47,0,0,1-.74.24c-.26,0-.39-.14-.39-.41a2.23,2.23,0,0,1,.67-1.22,3,3,0,0,1,2.35-.78h.44a5.1,5.1,0,0,1,3,.88,4.72,4.72,0,0,1,1.82,2.51,14.38,14.38,0,0,1,.54,4.38,11.56,11.56,0,0,1-1.18,4.52,9.9,9.9,0,0,1-3,4,6.35,6.35,0,0,1-3.87,1.36,1.78,1.78,0,0,1-1.38-.85,3.39,3.39,0,0,1-.65-2.11,8.1,8.1,0,0,1,1-4.11,11.14,11.14,0,0,1,2.29-2.89,9.41,9.41,0,0,1,3.5-1.78,8.5,8.5,0,0,0,1-.34A.38.38,0,0,0,378,124.2Zm.28,2.09a8.2,8.2,0,0,0-3.63,1.53,8,8,0,0,0-2.85,6,2.2,2.2,0,0,0,.15.83q.15.39.35.38a3.49,3.49,0,0,0,1.38-.27,5.77,5.77,0,0,0,1.53-1.11,9.3,9.3,0,0,0,1.64-2.1,10.64,10.64,0,0,0,1.07-2.41,8,8,0,0,0,.35-1.78Q378.29,126.72,378.28,126.29Z"/><path class="cls-1" d="M390.66,132.66q0,1-1.85,2.52a6.07,6.07,0,0,1-3.82,1.48,3.29,3.29,0,0,1-2.55-1,3.86,3.86,0,0,1-.9-2.72,9.17,9.17,0,0,1,2-5.58q2-2.65,4.33-2.65a1.69,1.69,0,0,1,1.74,1.71,4.17,4.17,0,0,1-1.55,3,19.89,19.89,0,0,1-4.14,2.84.82.82,0,0,0-.53.72,1.89,1.89,0,0,0,.49,1.36,1.93,1.93,0,0,0,1.46.51q2.2,0,4.5-2.44c.23-.23.4-.34.51-.34S390.66,132.31,390.66,132.66Zm-7.13-1.6q4.35-2.58,4.35-4.15,0-.62-.55-.62a3.16,3.16,0,0,0-2.13,1.38A8,8,0,0,0,383.54,131.06Z"/><path class="cls-1" d="M398.56,127.78q-.25,0-.48.47a49,49,0,0,1-3.21,5.76q-.09.13-.24.39-1.28,2.29-1.88,2.29-.8,0-.8-.77a3.47,3.47,0,0,1,1-1.9,28.49,28.49,0,0,0,2.53-3.86q1.57-2.72,2.54-4.89a.59.59,0,0,1,.55-.39,2,2,0,0,1,.55.14,1,1,0,0,1,.51.3,12.14,12.14,0,0,1,.5,1.91q1.26,6.29,2.66,7.46a2.69,2.69,0,0,1,.39.38.51.51,0,0,1,.06.27.92.92,0,0,1-.21.58,1,1,0,0,1-.4.33,2.8,2.8,0,0,1-.8.07q-.22,0-1-1.06T399,129.48A11.52,11.52,0,0,0,398.56,127.78Z"/><path class="cls-1" d="M412.59,131.67a14.22,14.22,0,0,1-2.69,3.42,4,4,0,0,1-2.55,1.21,1.93,1.93,0,0,1-1.38-.79,3.57,3.57,0,0,1-.7-2.43,18.11,18.11,0,0,1,.65-4,15,15,0,0,0,.54-3.07,1,1,0,0,1,.93-.62.86.86,0,0,1,.69.3,1,1,0,0,1,.26.63,6.33,6.33,0,0,1-.5,2,13.07,13.07,0,0,0-1,4.42q0,1.68.78,1.68,1,0,2.53-1.69a14.11,14.11,0,0,0,2.64-4.72,7.06,7.06,0,0,1,.7-1.57.87.87,0,0,1,.73-.36q.7,0,.7.92a4.68,4.68,0,0,1-.19.75,16.08,16.08,0,0,0-.62,4.24q0,2.4.79,3.11.41.38.41.62c0,.19-.14.37-.42.52a1.57,1.57,0,0,1-.75.24q-.72,0-1.16-1.07a8.63,8.63,0,0,1-.44-3.15V132C412.57,131.9,412.58,131.79,412.59,131.67Z"/><path class="cls-1" d="M425.89,128q-1,0-4.08,5.65a19.27,19.27,0,0,1-1.23,2.07,1.58,1.58,0,0,1-.64.3,2.93,2.93,0,0,1-.77.13q-.69,0-.69-2.68a40.41,40.41,0,0,1,.65-5.46,16,16,0,0,0,.27-2.29q0-.68.6-.68,1.14,0,1.14,1.64a22.72,22.72,0,0,1-.38,3,31.42,31.42,0,0,0-.45,3.12,14.79,14.79,0,0,0,1.87-2.7,20.07,20.07,0,0,1,2.57-3.61,2.51,2.51,0,0,1,1.71-.76q.67,0,1.06.89a14.51,14.51,0,0,1,.48,4.26,4.68,4.68,0,0,0,.15,1.25c.09.27.15.41.19.41q.48,0,2.09-3.28a11.89,11.89,0,0,1,1.68-2.64,2.41,2.41,0,0,1,1.81-.9,1.26,1.26,0,0,1,1.21.86,8.65,8.65,0,0,1,.54,2.54,23.67,23.67,0,0,0,.48,3.12,2.42,2.42,0,0,0,1.18,1.81q.58.28.58.65a1,1,0,0,1-.49.74,1.53,1.53,0,0,1-.9.38,1.8,1.8,0,0,1-1.47-1,11.48,11.48,0,0,1-1-4.35,17.88,17.88,0,0,0-.28-1.91c-.09-.37-.23-.56-.42-.56s-.63.27-1,.82a33.07,33.07,0,0,0-1.9,3.33,18.24,18.24,0,0,1-1.55,2.61,1.42,1.42,0,0,1-1,.65,1.08,1.08,0,0,1-.79-.35,1.6,1.6,0,0,1-.44-.85q-.09-.5-.19-2.45Q426.3,128.56,425.89,128Z"/><path class="cls-1" d="M442.11,124.52a.51.51,0,0,1,.3-.09c.17,0,.31.23.43.69a3.55,3.55,0,0,1-.24,1.12,9.68,9.68,0,0,0-.7,2.71q0,.21.12.23,2.36-2.27,4.37-2.27a3.09,3.09,0,0,1,2.92,2.66,6.23,6.23,0,0,1-2.42,4.57,7.33,7.33,0,0,1-4.89,2.19,1.94,1.94,0,0,1-1.71-.91,4.65,4.65,0,0,1-.61-2.6,20.14,20.14,0,0,1,.46-4.06,25.14,25.14,0,0,1,.74-3c.08-.21.14-.43.21-.65S441.51,124.65,442.11,124.52Zm-.48,6.43a12.81,12.81,0,0,0-.21,2.28q0,1.55,1.22,1.55a4.76,4.76,0,0,0,3.08-1.64,4.6,4.6,0,0,0,1.7-3.19,1.67,1.67,0,0,0-.34-1.07,1.12,1.12,0,0,0-.93-.43,3.43,3.43,0,0,0-1.59.41,8.15,8.15,0,0,0-1.75,1.31l-.59.54A1.19,1.19,0,0,1,441.63,130.95Z"/><path class="cls-1" d="M461.68,134.94a41.59,41.59,0,0,0-.94,5.18l-.29,1.94a1.9,1.9,0,0,1-.38.82q-.31.4-.56.4a1.22,1.22,0,0,1-.72-.32q-.41-.32-.41-.52a6.67,6.67,0,0,1,.26-1.56,56.26,56.26,0,0,0,1.88-13.31v-.86a2.46,2.46,0,0,1,.39-1.61,1.2,1.2,0,0,1,.94-.5q.25,0,.47.38a2.19,2.19,0,0,1,.22,1.09,17.21,17.21,0,0,1-.21,2.41q-.27,1.78-.28,2.05a16.13,16.13,0,0,1,3.24-4.16,5,5,0,0,1,3.18-1.5,2.28,2.28,0,0,1,1.75.77,2.73,2.73,0,0,1,.71,1.92,8.66,8.66,0,0,1-2.56,6.07q-2.56,2.73-5,2.73a1.41,1.41,0,0,1-1-.31A3.44,3.44,0,0,1,461.68,134.94Zm6.37-8.25q-1.45,0-3.58,2.71t-2.13,4.21a1,1,0,0,0,.42.72,1.61,1.61,0,0,0,1.07.35q1.46,0,3.37-2.17a6.54,6.54,0,0,0,1.91-4.26,1.9,1.9,0,0,0-.3-1.15A.91.91,0,0,0,468,126.69Z"/><path class="cls-1" d="M482.31,132.66q0,1-1.85,2.52a6.07,6.07,0,0,1-3.82,1.48,3.29,3.29,0,0,1-2.55-1,3.86,3.86,0,0,1-.9-2.72,9.17,9.17,0,0,1,2-5.58q2-2.65,4.33-2.65a1.69,1.69,0,0,1,1.74,1.71,4.17,4.17,0,0,1-1.55,3,19.89,19.89,0,0,1-4.14,2.84.82.82,0,0,0-.53.72,1.89,1.89,0,0,0,.49,1.36,1.93,1.93,0,0,0,1.46.51q2.2,0,4.5-2.44c.22-.23.4-.34.51-.34S482.31,132.31,482.31,132.66Zm-7.13-1.6q4.35-2.58,4.35-4.15,0-.62-.55-.62a3.16,3.16,0,0,0-2.13,1.38A8,8,0,0,0,475.18,131.06Z"/><path class="cls-1" d="M486.54,130.74a6.9,6.9,0,0,0,4.36-3.14,8.72,8.72,0,0,1,1.58-1.79,2.33,2.33,0,0,1,1.45-.53.93.93,0,0,1,.62.28.86.86,0,0,1,.31.66q0,.5-1,.79a2.69,2.69,0,0,0-.94.52,21,21,0,0,0-1.67,1.76,7.43,7.43,0,0,1-1.73,1.53s-.07.05-.07.07,0,.06.09.08a5.11,5.11,0,0,1,1.58,1.55,10.51,10.51,0,0,0,1.82,2.11,2.31,2.31,0,0,0,1.38.44h.34c.24,0,.36.09.36.32a1.17,1.17,0,0,1-.44.81,2.07,2.07,0,0,1-1.46.42,2.23,2.23,0,0,1-1.51-.67,10.8,10.8,0,0,1-1.68-2.18,7.1,7.1,0,0,0-1-1.35,1.47,1.47,0,0,0-1-.46,4.21,4.21,0,0,0-.76.21c-.42.14-.66.27-.71.39a6.69,6.69,0,0,0-.11,1.36q0,1.17,0,1.89a.87.87,0,0,1-.36.68,1.2,1.2,0,0,1-.78.3.91.91,0,0,1-.68-.25.74.74,0,0,1-.25-.52,12.46,12.46,0,0,1,.28-1.74q.49-2.5,1-8.25a1.71,1.71,0,0,1,.42-1,1.11,1.11,0,0,1,.86-.45.52.52,0,0,1,.45.29,1.38,1.38,0,0,1,.18.74,3.23,3.23,0,0,1-.12.82A21.46,21.46,0,0,0,486.54,130.74Z"/><path class="cls-1" d="M502.25,127.78c-.16,0-.33.15-.48.47a49.11,49.11,0,0,1-3.21,5.76c-.06.09-.14.22-.24.39q-1.28,2.29-1.88,2.29-.8,0-.8-.77a3.47,3.47,0,0,1,1-1.9,28.58,28.58,0,0,0,2.53-3.86q1.57-2.72,2.54-4.89a.59.59,0,0,1,.55-.39,2,2,0,0,1,.55.14,1,1,0,0,1,.51.3,12.27,12.27,0,0,1,.5,1.91q1.26,6.29,2.66,7.46a2.69,2.69,0,0,1,.39.38.51.51,0,0,1,.06.27.92.92,0,0,1-.21.58,1,1,0,0,1-.4.33,2.8,2.8,0,0,1-.8.07q-.22,0-1-1.06t-1.85-5.79A11.52,11.52,0,0,0,502.25,127.78Z"/><path class="cls-1" d="M516,132.4a12.58,12.58,0,0,1-2.84,2.89,4.66,4.66,0,0,1-2.57,1,1.75,1.75,0,0,1-1.36-.67,2.53,2.53,0,0,1-.57-1.71,9.73,9.73,0,0,1,2.41-5.81q2.41-3.11,4.79-3.11a1.37,1.37,0,0,1,1.28,1,.45.45,0,0,0,.42.33q.82,0,.82.64a5.09,5.09,0,0,1-.1.87,27.71,27.71,0,0,0-.55,4.27q0,2.48.94,3a.71.71,0,0,1,.45.6.87.87,0,0,1-.44.64,1.45,1.45,0,0,1-.85.32q-.79,0-1.3-1.09A7.46,7.46,0,0,1,516,132.4Zm-.63-5.77q-1.35,0-3.15,2.54a7.94,7.94,0,0,0-1.79,4.21q0,1.18.78,1.18,1.13,0,3.13-2.28a6.64,6.64,0,0,0,2-4.18Q516.29,126.63,515.33,126.63Z"/><path class="cls-1" d="M534.45,127.15a50.64,50.64,0,0,0-2.34,4.51q-.34.72-.69,1.38-.11.21-.43,1-1.08,2.5-1.88,2.5a2.08,2.08,0,0,1-.93-.15,1.58,1.58,0,0,1-.56-.84,26.46,26.46,0,0,1-.79-3.23q-.61-2.88-.82-3.55-.7,1.57-1.24,3a25.94,25.94,0,0,1-1.59,3.49,7.13,7.13,0,0,1-1.11,1.62,1.06,1.06,0,0,1-.65.27.81.81,0,0,1-.57-.25.69.69,0,0,1-.26-.48,1.33,1.33,0,0,1,.14-.52,13.8,13.8,0,0,0,1.54-2.34q.64-1.24,1.65-3.72a21.25,21.25,0,0,0,1.28-4.07q.13-.68,1-.68a1.12,1.12,0,0,1,.69.15,1.58,1.58,0,0,1,.36.63,3.16,3.16,0,0,1,.21.84q.06.44.35,2t.34,2q.14.85.51,2.24t.57,1.38.41-.62l.86-2q.24-.54.5-1.07l1.18-2.41q1-2,1.48-2.89a7.48,7.48,0,0,1,.7-1.08.55.55,0,0,1,.41-.18,2.22,2.22,0,0,1,.87.21q.48.21.5.47t.09,2.14l.13,3.2q.06,1.53.18,2.6a5.65,5.65,0,0,0,.43,1.73,4.28,4.28,0,0,1,.48,1.62.68.68,0,0,1-.41.68,1.83,1.83,0,0,1-.75.18q-.72,0-1.1-1.15a34.32,34.32,0,0,1-.56-6.58A9.42,9.42,0,0,0,534.45,127.15Z"/><path class="cls-1" d="M547.31,132.51a14.71,14.71,0,0,1-3.12,2.3,5.74,5.74,0,0,1-2.39.83,1.77,1.77,0,0,1-1.52-.82,3.42,3.42,0,0,1-.57-2,15.51,15.51,0,0,1,.66-4.1,8.44,8.44,0,0,1,1-2.68,1.32,1.32,0,0,1,.92-.32.54.54,0,0,1,.48.36,1.72,1.72,0,0,1,.17.74,1.45,1.45,0,0,1-.24.67,9.5,9.5,0,0,0-1.34,4.81,2.24,2.24,0,0,0,.22,1,.7.7,0,0,0,.66.44,3.76,3.76,0,0,0,1.39-.34,8.81,8.81,0,0,0,1.86-1.12A7.31,7.31,0,0,0,546.9,131a3,3,0,0,0,.51-1.1,16.73,16.73,0,0,0,.21-2.67q.06-2.05,1-2.05c.37,0,.61.1.72.29a2.54,2.54,0,0,1,.16,1.11q0,.62-.18,2.67c0,.31,0,.59-.05.85a25.73,25.73,0,0,1-1.64,8.58q-1.34,3.11-3.91,3.11a6.25,6.25,0,0,1-3.57-1.05q-1.56-1.05-1.56-1.78a1.51,1.51,0,0,1,.16-.67c.11-.22.24-.33.41-.33s.17.06.27.19a4.59,4.59,0,0,0,4.13,2.06q1.77,0,2.66-2.17A18.4,18.4,0,0,0,547.31,132.51Z"/><path class="cls-1" d="M553.62,133.3h.23a.81.81,0,0,1,.44.18.56.56,0,0,1,.26.49,1.51,1.51,0,0,1-.22.9,3.29,3.29,0,0,1-.69.64,1.5,1.5,0,0,1-.67.35.89.89,0,0,1-.63-.19c-.14-.13-.21-.49-.21-1.07a2.73,2.73,0,0,1,.09-1,.7.7,0,0,1,.45-.24A4.2,4.2,0,0,1,553.62,133.3Z"/><path class="cls-1" d="M274,166.49l50.47.69c8.74.12,18.46-1.08,21.58,9.2a24.32,24.32,0,0,1,.58,11c-.93,5.08-8.43,4.42-12.44,4.59-17,.71-34.23,1.06-51.19.42-7.31-.28-22.51.43-24-8.75-.67-4.07-1.25-9.21,1.15-12.88,3.13-4.79,9.07-3.16,13.63-4.31,1.77-.45,1.32-2.15-.46-1.7-5.43,1.37-11.25-.36-15.13,4.69-3.44,4.48-4,14.37-.85,19.11s12.95,4.83,18.06,5.3c8.87.8,17.82.52,26.72.45s17.5-.14,26.25-.32c4.28-.09,8.6-.17,12.85-.69,2.21-.27,4.77-.53,6.47-2.17,3.78-3.65,2.5-12.75.75-17.09a13.1,13.1,0,0,0-11.81-8.54c-20.38-1.29-41.1-.57-61.53-.85-1.24,0-3,1.83-1.07,1.86Z"/><path class="cls-1" d="M292.08,186.41a3.33,3.33,0,0,1-2.65-1.22,4.47,4.47,0,0,1-1-3,10.37,10.37,0,0,1,2-6q2-2.94,4.87-2.94a3.73,3.73,0,0,1,3,1.44,5.29,5.29,0,0,1,1.17,3.43,8.17,8.17,0,0,1-2.41,5.65A6.89,6.89,0,0,1,292.08,186.41Zm-1.63-4.54a3.43,3.43,0,0,0,.5,1.93,1.52,1.52,0,0,0,1.32.75,4.91,4.91,0,0,0,3.5-1.92,6.16,6.16,0,0,0,1.76-4.26,3.79,3.79,0,0,0-.67-2.34,2.15,2.15,0,0,0-1.81-.9q-1.89,0-3.24,2.31A8.77,8.77,0,0,0,290.46,181.88Z"/><path class="cls-1" d="M304.61,179.66a7.89,7.89,0,0,0,5-3.59,10,10,0,0,1,1.81-2,2.66,2.66,0,0,1,1.66-.6,1.06,1.06,0,0,1,.7.32,1,1,0,0,1,.35.75q0,.57-1.09.9a3.08,3.08,0,0,0-1.08.6,23.74,23.74,0,0,0-1.91,2,8.49,8.49,0,0,1-2,1.75q-.08,0-.08.08s0,.06.11.09a5.83,5.83,0,0,1,1.8,1.77,12,12,0,0,0,2.07,2.41,2.64,2.64,0,0,0,1.58.5h.39q.41,0,.41.36a1.34,1.34,0,0,1-.5.93,2.37,2.37,0,0,1-1.66.48,2.55,2.55,0,0,1-1.73-.77,12.38,12.38,0,0,1-1.92-2.49,8.06,8.06,0,0,0-1.16-1.55,1.67,1.67,0,0,0-1.2-.53,4.84,4.84,0,0,0-.87.23q-.73.23-.81.45a7.67,7.67,0,0,0-.13,1.56q0,1.34,0,2.16a1,1,0,0,1-.41.77,1.37,1.37,0,0,1-.89.34,1,1,0,0,1-.77-.29.85.85,0,0,1-.28-.59,14.07,14.07,0,0,1,.32-2q.56-2.86,1.13-9.43a2,2,0,0,1,.48-1.14,1.27,1.27,0,0,1,1-.51.6.6,0,0,1,.51.33,1.57,1.57,0,0,1,.21.84,3.69,3.69,0,0,1-.14.94A24.62,24.62,0,0,0,304.61,179.66Z"/></g></svg>