<svg id="curves" xmlns="http://www.w3.org/2000/svg" viewBox="0 0 387.5 303"><defs><style>.cls-1{fill:#fff;}</style></defs><title>guide-removal-ru</title><g id="Удаление"><path class="cls-1" d="M33.21,254.68,31.72,294.2c0,1.12,2.86.52,2.89-.39l1.48-39.52c0-1.12-2.86-.52-2.89.39Z"/><path class="cls-1" d="M33.95,294.49a38.78,38.78,0,0,1,7.43-9c1.24-1.11-1.62-1.11-2.32-.47a40.73,40.73,0,0,0-7.8,9.45c-.69,1.15,2.21.88,2.7.06Z"/><path class="cls-1" d="M24.83,288.27c1.69.62,2.87,2.86,3.92,4.21l3.82,4.92c.45.59,3.22-.37,2.72-1L31,290.89c-1.1-1.42-2.06-3.15-3.82-3.79-.69-.25-3.29.84-2.37,1.18Z"/><path class="cls-1" d="M33.42,254.21l3.72,10.48c.23.65,3.09-.22,2.9-.78l-3.72-10.48c-.23-.65-3.09.22-2.9.78Z"/><path class="cls-1" d="M32.84,254.71a82.72,82.72,0,0,1-6.8,5.67c-.5.37-.3.69.22.81a2.91,2.91,0,0,0,2-.55,87.61,87.61,0,0,0,7.19-6c.51-.47-.44-.65-.73-.65a2.94,2.94,0,0,0-1.93.74Z"/><path class="cls-1" d="M76.18,61.64q-1,.13-3.83,6.6a21,21,0,0,1-1.12,2.39,1.71,1.71,0,0,1-.67.4,3.23,3.23,0,0,1-.83.23q-.75.07-1-2.84a44.3,44.3,0,0,1,.11-6,17.53,17.53,0,0,0,0-2.52q-.07-.74.59-.8,1.24-.12,1.42,1.66a24.71,24.71,0,0,1-.09,3.33q-.2,2.84-.15,3.45a16.14,16.14,0,0,0,1.74-3.14,22,22,0,0,1,2.41-4.22,2.75,2.75,0,0,1,1.78-1q.73-.07,1.25.86a15.86,15.86,0,0,1,1,4.59,5.16,5.16,0,0,0,.3,1.35q.19.43.26.43.53-.05,1.92-3.8a13,13,0,0,1,1.54-3.05,2.64,2.64,0,0,1,1.87-1.18,1.38,1.38,0,0,1,1.41.8A9.47,9.47,0,0,1,87,61.81a25.83,25.83,0,0,0,.86,3.35A2.66,2.66,0,0,0,89.3,67q.67.24.71.64a1.11,1.11,0,0,1-.46.86,1.67,1.67,0,0,1-.94.51,2,2,0,0,1-1.71-.94,12.55,12.55,0,0,1-1.53-4.63,19.23,19.23,0,0,0-.51-2q-.21-.6-.52-.57-.47,0-1,1a36,36,0,0,0-1.71,3.84,19.92,19.92,0,0,1-1.41,3,1.55,1.55,0,0,1-1,.82,1.18,1.18,0,0,1-.9-.3,1.75,1.75,0,0,1-.57-.88q-.15-.53-.48-2.64Q76.68,62.17,76.18,61.64Z"/><path class="cls-1" d="M101.22,56.55a4.58,4.58,0,0,1-.36,1.37,15.22,15.22,0,0,0-.52,3.35,26,26,0,0,0-.08,4,16.15,16.15,0,0,0,.28,1.79,9,9,0,0,1,.13.89q0,.19-.3.42a1.18,1.18,0,0,1-.58.25q-.69.06-.92-.24a2.77,2.77,0,0,1-.3-1.27l-.19-3.62q-1.57,1.54-2.23,2.26t-1.06,1.09A14.81,14.81,0,0,0,93,69.16a1.43,1.43,0,0,1-.32.31.81.81,0,0,1-.31.17.91.91,0,0,1-.83-.41,1.54,1.54,0,0,1-.36-.69q0-.28,1-1.36a7.4,7.4,0,0,1,.57-.52,26.39,26.39,0,0,0,3.07-3l-1.22.11a3.72,3.72,0,0,1-1.48-.38,2,2,0,0,1-1.1-.94,3.47,3.47,0,0,1-.27-1.05,3.7,3.7,0,0,1,1.5-3.06,10,10,0,0,1,4-2.12,5.8,5.8,0,0,0,1-.21l.76-.19a3.2,3.2,0,0,1,.56.07l.36-.1a1.36,1.36,0,0,1,.74.17A1,1,0,0,1,101.22,56.55Zm-2.16,1.28q-.14-.21-.3-.2a7.82,7.82,0,0,0-3.41,1.26Q93.51,60,93.62,61.43a.83.83,0,0,0,.55.65,2.87,2.87,0,0,0,1.45.18,7.94,7.94,0,0,0,2.55-.53,1.32,1.32,0,0,0,.38-.77Z"/><path class="cls-1" d="M112,60.23a18.75,18.75,0,0,0,.2-2.84q.06-2.07,1.17-2.15a.8.8,0,0,1,1,.85,4.69,4.69,0,0,1-.1.87,26.47,26.47,0,0,0-.46,6.05q.18,2.62,1.09,3.34.48.39.49.64t-.42.6a1.7,1.7,0,0,1-.81.31q-1.75.12-2.11-5.28,0-.36-.29-.34-1.05.07-2.57.3A12.33,12.33,0,0,0,107,63a2.07,2.07,0,0,0-.78.41,2,2,0,0,0-.21.88,8.83,8.83,0,0,0,0,1.46l.09,1.38q.08,1.2-1,1.27-.92.06-1-1.14a12.66,12.66,0,0,1,.07-2q.22-2.24.23-7.69a3.67,3.67,0,0,1,.06-.9,1.11,1.11,0,0,1,.38-.45,1.24,1.24,0,0,1,.71-.28q.81-.05.85.61,0,.1-.15,1.7a15.69,15.69,0,0,0-.1,2.47q0,.62.47.59a29.91,29.91,0,0,0,3.1-.49A7.59,7.59,0,0,0,112,60.23Z"/><path class="cls-1" d="M125.75,62.83a16.07,16.07,0,0,1-3.28,2.69,6.27,6.27,0,0,1-2.57,1,1.94,1.94,0,0,1-1.71-.8,3.74,3.74,0,0,1-.74-2.16,17,17,0,0,1,.49-4.52,9.26,9.26,0,0,1,1-3,1.44,1.44,0,0,1,1-.4.59.59,0,0,1,.55.37,1.87,1.87,0,0,1,.23.8,1.59,1.59,0,0,1-.22.74,10.4,10.4,0,0,0-1.19,5.34,2.46,2.46,0,0,0,.29,1.09.76.76,0,0,0,.74.44,4.12,4.12,0,0,0,1.5-.46,9.73,9.73,0,0,0,2-1.33,8.06,8.06,0,0,0,1.45-1.46,3.28,3.28,0,0,0,.49-1.23,18.3,18.3,0,0,0,.08-2.93q-.05-2.25,1-2.3.61,0,.8.28a2.79,2.79,0,0,1,.24,1.21q0,.67,0,2.93,0,.51,0,.93a28.19,28.19,0,0,1-1.3,9.48q-1.29,3.48-4.09,3.62a6.85,6.85,0,0,1-4-.94q-1.77-1.06-1.81-1.86a1.65,1.65,0,0,1,.14-.74q.15-.37.42-.38c.09,0,.19.06.3.2a5,5,0,0,0,4.64,2q1.94-.1,2.78-2.52A20.14,20.14,0,0,0,125.75,62.83Z"/><path class="cls-1" d="M139.34,57.33q-1,.06-4.26,6.33A21,21,0,0,1,133.81,66a1.71,1.71,0,0,1-.69.35,3.21,3.21,0,0,1-.84.17q-.75,0-.85-2.9a44.29,44.29,0,0,1,.51-6,17.48,17.48,0,0,0,.21-2.51q0-.74.64-.76,1.25,0,1.3,1.75a24.75,24.75,0,0,1-.31,3.31q-.39,2.82-.38,3.43a16.18,16.18,0,0,0,1.95-3,22,22,0,0,1,2.68-4,2.75,2.75,0,0,1,1.84-.9q.73,0,1.19.94a15.86,15.86,0,0,1,.68,4.64A5.16,5.16,0,0,0,142,61.8q.16.44.23.44.53,0,2.17-3.67a13,13,0,0,1,1.74-2.95A2.64,2.64,0,0,1,148,54.57a1.38,1.38,0,0,1,1.35.89,9.46,9.46,0,0,1,.69,2.76,25.9,25.9,0,0,0,.63,3.4,2.66,2.66,0,0,0,1.36,1.94q.65.28.66.69a1.11,1.11,0,0,1-.51.83,1.68,1.68,0,0,1-1,.45,2,2,0,0,1-1.64-1,12.56,12.56,0,0,1-1.22-4.72,19.12,19.12,0,0,0-.37-2.08q-.17-.61-.48-.6-.47,0-1.09.94a36.1,36.1,0,0,0-2,3.72,19.93,19.93,0,0,1-1.61,2.91,1.55,1.55,0,0,1-1.09.75,1.18,1.18,0,0,1-.88-.36,1.75,1.75,0,0,1-.51-.92q-.12-.54-.3-2.67Q139.81,57.9,139.34,57.33Z"/><path class="cls-1" d="M157.15,53a.56.56,0,0,1,.32-.11q.28,0,.48.75a3.89,3.89,0,0,1-.24,1.23,10.62,10.62,0,0,0-.72,3c0,.15,0,.23.14.25q2.55-2.52,4.75-2.55a2.94,2.94,0,0,1,2.29,1,3,3,0,0,1,.95,1.87,6.82,6.82,0,0,1-2.59,5A8,8,0,0,1,157.21,66a2.13,2.13,0,0,1-1.88-1,5.09,5.09,0,0,1-.71-2.84,22.06,22.06,0,0,1,.44-4.45,27.49,27.49,0,0,1,.76-3.27q.12-.35.21-.71T157.15,53Zm-.43,7a14,14,0,0,0-.19,2.5q0,1.7,1.36,1.68a5.21,5.21,0,0,0,3.34-1.84A5,5,0,0,0,163,58.9a1.83,1.83,0,0,0-.39-1.16,1.23,1.23,0,0,0-1-.46,3.77,3.77,0,0,0-1.74.47A8.91,8.91,0,0,0,158,59.2l-.64.6A1.29,1.29,0,0,1,156.72,60.09Z"/><path class="cls-1" d="M185,64.23a39.36,39.36,0,0,0-1,5.82,23,23,0,0,1-.35,2.3,2.25,2.25,0,0,1-.43.78q-.32.39-.59.39a1.34,1.34,0,0,1-.79-.36q-.44-.36-.44-.57a7.33,7.33,0,0,1,.3-1.7q.86-3.21,1.42-6.39a6.49,6.49,0,0,1-3.78,1.45A3.14,3.14,0,0,1,177,65a3.51,3.51,0,0,1-.82-2.53,9.73,9.73,0,0,1,2.14-5.59q2.1-2.86,3.92-2.84a1.68,1.68,0,0,1,1.21.57,3.34,3.34,0,0,1,.79,1.52q.4-4.12.43-6a9.81,9.81,0,0,0-.24-2.11,1.6,1.6,0,0,1-.05-.26,1.56,1.56,0,0,1,.28-.89.78.78,0,0,1,.66-.39,1.24,1.24,0,0,1,1,.58q.44.57.4,3.15,0,1.68-.14,2.91t-.63,5.33q-.05.4-.09.84,2.63-5.7,6.34-5.65a2.44,2.44,0,0,1,1.87.86,3,3,0,0,1,.73,2.13,9,9,0,0,1-2.71,6.77q-2.65,2.48-5,2.45A2.11,2.11,0,0,1,185,64.23Zm-1.54-1.92q.43-2.81.5-4.07a1.18,1.18,0,0,1-.62.18q-.44,0-.8-1.38a2.25,2.25,0,0,0-.31-.76.53.53,0,0,0-.42-.18q-.58,0-1.56,1.21A10.06,10.06,0,0,0,178.77,60a7.6,7.6,0,0,0-.58,2.46q0,1.53,1.73,1.55a4.4,4.4,0,0,0,1.83-.5,5.26,5.26,0,0,0,1.63-1.09Zm2.34-.28a2.09,2.09,0,0,0,.44,1.34,1.52,1.52,0,0,0,1.26.6q1.61,0,3.39-2.16a7.2,7.2,0,0,0,1.82-4.5q0-1.71-1.08-1.72a2.76,2.76,0,0,0-1.65.52,8.67,8.67,0,0,0-1.81,2A33.54,33.54,0,0,0,185.85,62Z"/><path class="cls-1" d="M199.4,64.71a45.52,45.52,0,0,0-1.22,5.63l-.38,2.11a2.07,2.07,0,0,1-.44.88q-.35.43-.63.42a1.34,1.34,0,0,1-.78-.38q-.43-.37-.42-.58a7.33,7.33,0,0,1,.34-1.7,61.67,61.67,0,0,0,2.53-14.5l0-.94a2.7,2.7,0,0,1,.48-1.75,1.31,1.31,0,0,1,1.05-.52q.27,0,.5.44a2.39,2.39,0,0,1,.21,1.2,18.93,18.93,0,0,1-.31,2.63Q200,59.61,200,59.9a17.65,17.65,0,0,1,3.7-4.44,5.51,5.51,0,0,1,3.53-1.53,2.5,2.5,0,0,1,1.89.91,3,3,0,0,1,.71,2.13,9.49,9.49,0,0,1-3,6.55q-2.9,2.9-5.56,2.81a1.54,1.54,0,0,1-1-.37A3.78,3.78,0,0,1,199.4,64.71Zm7.26-8.81q-1.58-.05-4,2.84t-2.48,4.54a1.06,1.06,0,0,0,.43.8,1.77,1.77,0,0,0,1.16.42q1.6.05,3.77-2.25a7.16,7.16,0,0,0,2.24-4.6,2.08,2.08,0,0,0-.29-1.27A1,1,0,0,0,206.67,55.91Z"/><path class="cls-1" d="M219.75,62.71a13.75,13.75,0,0,1-3.25,3,5.11,5.11,0,0,1-2.86.93,1.91,1.91,0,0,1-1.46-.79,2.77,2.77,0,0,1-.55-1.9,10.65,10.65,0,0,1,2.92-6.24q2.79-3.29,5.39-3.18a1.5,1.5,0,0,1,1.36,1.14.49.49,0,0,0,.44.38q.9,0,.87.73a5.61,5.61,0,0,1-.15.95,30.38,30.38,0,0,0-.81,4.64q-.12,2.72.89,3.3a.78.78,0,0,1,.46.68q0,.35-.51.68a1.59,1.59,0,0,1-.95.31q-.86,0-1.37-1.25A8.16,8.16,0,0,1,219.75,62.71Zm-.41-6.35q-1.48-.07-3.57,2.63a8.7,8.7,0,0,0-2.17,4.52q-.06,1.29.8,1.33,1.23.05,3.53-2.34A7.27,7.27,0,0,0,220.33,58Q220.4,56.41,219.34,56.36Z"/><path class="cls-1" d="M225.32,65.11v-.24a3.68,3.68,0,0,1,.82-2.34q.87-1.21,4.23-2.7,2.14-1,2.18-1.82a.79.79,0,0,0-.35-.73,1.28,1.28,0,0,0-.65-.28,9.55,9.55,0,0,0-3.29,1,.93.93,0,0,1-.23.09q-.92,0-.89-.69.05-1.05,1.9-1.67a9,9,0,0,1,3.2-.55A3,3,0,0,1,234,56a2.1,2.1,0,0,1,.83,1.83,3.06,3.06,0,0,1-.68,1.74,9.54,9.54,0,0,1-3.08,2,12.65,12.65,0,0,0-2.73,1.64,2.18,2.18,0,0,0-.77,1.54.81.81,0,0,0,.55.87,3.1,3.1,0,0,0,.89.25,8,8,0,0,0,3.81-.69,2.18,2.18,0,0,1,.87-.25q.58,0,.55.68,0,1-1.67,1.57a10.62,10.62,0,0,1-4.07.47,3.82,3.82,0,0,1-2.13-.77A2.28,2.28,0,0,1,225.32,65.11Z"/><path class="cls-1" d="M251.42,58.49a54.83,54.83,0,0,0-2.8,4.81q-.41.77-.83,1.48-.14.23-.52,1-1.31,2.68-2.19,2.63a2.3,2.3,0,0,1-1-.22,1.73,1.73,0,0,1-.56-1,29.1,29.1,0,0,1-.69-3.58q-.5-3.19-.7-3.93-.85,1.68-1.52,3.24a28.21,28.21,0,0,1-1.93,3.73,7.72,7.72,0,0,1-1.3,1.71,1.15,1.15,0,0,1-.72.26.89.89,0,0,1-.61-.3.76.76,0,0,1-.25-.54,1.45,1.45,0,0,1,.19-.56,15.08,15.08,0,0,0,1.81-2.47q.77-1.32,2-4a23.26,23.26,0,0,0,1.62-4.38q.18-.73,1.13-.69a1.22,1.22,0,0,1,.74.21,1.71,1.71,0,0,1,.36.7,3.47,3.47,0,0,1,.18.93q0,.49.27,2.16t.26,2.23q.11.94.43,2.47t.55,1.55q.16,0,.48-.66l1.05-2.13q.29-.58.61-1.14l1.42-2.57q1.16-2.12,1.78-3.08a8.08,8.08,0,0,1,.82-1.15.6.6,0,0,1,.45-.18,2.42,2.42,0,0,1,.94.28q.52.26.52.54t0,2.35l0,3.51q0,1.68.06,2.85a6.18,6.18,0,0,0,.38,1.91,4.69,4.69,0,0,1,.44,1.8.74.74,0,0,1-.48.72,2,2,0,0,1-.83.16q-.79,0-1.14-1.32a37.55,37.55,0,0,1-.25-7.23A10.36,10.36,0,0,0,251.42,58.49Z"/><path class="cls-1" d="M266.5,65.27q-.06,1.14-2.16,2.66a6.65,6.65,0,0,1-4.26,1.41,3.61,3.61,0,0,1-2.74-1.2,4.23,4.23,0,0,1-.84-3,10,10,0,0,1,2.46-6q2.3-2.79,4.87-2.67a1.85,1.85,0,0,1,1.82,2,4.56,4.56,0,0,1-1.85,3.23,21.73,21.73,0,0,1-4.68,2.89.9.9,0,0,0-.62.76,2.06,2.06,0,0,0,.47,1.52,2.11,2.11,0,0,0,1.57.64q2.41.12,5.05-2.43.39-.35.58-.34Q266.52,64.7,266.5,65.27Zm-7.71-2.13q4.89-2.6,5-4.31,0-.67-.57-.7a3.46,3.46,0,0,0-2.4,1.4A8.75,8.75,0,0,0,258.79,63.14Z"/><path class="cls-1" d="M277.24,62.23a18.8,18.8,0,0,0,.52-2.8q.29-2.06,1.41-2a.8.8,0,0,1,.87.95,4.71,4.71,0,0,1-.2.86,26.44,26.44,0,0,0-1.13,6q-.12,2.63.71,3.44.43.44.42.69t-.48.55a1.7,1.7,0,0,1-.84.22Q276.76,70,277,64.61q0-.36-.25-.37-1.05,0-2.59,0a12.34,12.34,0,0,0-2.2.22,2.08,2.08,0,0,0-.82.32,2,2,0,0,0-.31.85,8.75,8.75,0,0,0-.18,1.45l-.06,1.38q-.05,1.2-1.15,1.15-.92,0-.87-1.24a12.57,12.57,0,0,1,.29-2q.47-2.2,1.08-7.62a3.63,3.63,0,0,1,.16-.89,1.11,1.11,0,0,1,.43-.4,1.25,1.25,0,0,1,.73-.2q.81,0,.78.7,0,.1-.33,1.67a15.65,15.65,0,0,0-.38,2.44q0,.62.4.64a29.84,29.84,0,0,0,3.13-.15A7.6,7.6,0,0,0,277.24,62.23Z"/><path class="cls-1" d="M290.94,61.24q-1,0-4.7,6a21,21,0,0,1-1.43,2.21,1.71,1.71,0,0,1-.71.31,3.21,3.21,0,0,1-.85.11q-.75,0-.64-3a44.33,44.33,0,0,1,.93-5.94,17.55,17.55,0,0,0,.39-2.49q0-.74.69-.72,1.25,0,1.18,1.84a24.75,24.75,0,0,1-.54,3.28q-.59,2.79-.62,3.39a16.17,16.17,0,0,0,2.15-2.87,22,22,0,0,1,3-3.85,2.75,2.75,0,0,1,1.9-.77q.73,0,1.13,1a15.87,15.87,0,0,1,.35,4.68,5.17,5.17,0,0,0,.12,1.38q.13.45.2.46.53,0,2.42-3.51A13,13,0,0,1,297.79,60a2.64,2.64,0,0,1,2-.91,1.38,1.38,0,0,1,1.29,1,9.47,9.47,0,0,1,.49,2.8,25.83,25.83,0,0,0,.39,3.43,2.66,2.66,0,0,0,1.22,2q.63.33.61.73a1.11,1.11,0,0,1-.57.79,1.67,1.67,0,0,1-1,.38,2,2,0,0,1-1.56-1.16,12.54,12.54,0,0,1-.89-4.8,19.26,19.26,0,0,0-.22-2.1q-.12-.62-.44-.63-.47,0-1.15.86A36.07,36.07,0,0,0,295.77,66,19.88,19.88,0,0,1,294,68.78a1.55,1.55,0,0,1-1.14.67A1.19,1.19,0,0,1,292,69a1.75,1.75,0,0,1-.45-.95q-.08-.55-.11-2.68Q291.37,61.84,290.94,61.24Z"/><path class="cls-1" d="M322.07,59.58q2.53,1.08,2.45,4.95a7.66,7.66,0,0,1-1.91,5,5.14,5.14,0,0,1-4,2.09,3.4,3.4,0,0,1-2.92-1.56,7.64,7.64,0,0,1-1-4.42,21.65,21.65,0,0,1,1.37-7,13.9,13.9,0,0,1,3.17-5.34A5.34,5.34,0,0,1,323,51.53a2.37,2.37,0,0,1,1.81.78,2.94,2.94,0,0,1,.65,2.08,4.92,4.92,0,0,1-1,2.49A12.64,12.64,0,0,1,322.07,59.58Zm.39,5.22a5.17,5.17,0,0,0-.56-2.71q-.6-1-1.35-1A14.7,14.7,0,0,0,318,62.73q-.59.44-1.15.81a12.43,12.43,0,0,0-.21,2.12,6.15,6.15,0,0,0,.55,3.09,1.88,1.88,0,0,0,1.67,1.07,2.91,2.91,0,0,0,2.53-1.53,6.39,6.39,0,0,0,1.06-3.46Zm-5.31-3.27a30.88,30.88,0,0,0,5.44-4.66,4.42,4.42,0,0,0,1.07-2.23q0-1.31-1-1.33-1.47,0-3,2.15A18,18,0,0,0,317.16,61.53Z"/><path class="cls-1" d="M333.68,59.72q2.54,1.06,2.51,4.92a7.67,7.67,0,0,1-1.85,5,5.14,5.14,0,0,1-3.95,2.13,3.4,3.4,0,0,1-2.94-1.53,7.65,7.65,0,0,1-1-4.41,21.65,21.65,0,0,1,1.29-7.06,13.9,13.9,0,0,1,3.11-5.37,5.33,5.33,0,0,1,3.73-1.79,2.37,2.37,0,0,1,1.82.76A2.93,2.93,0,0,1,337,54.5a4.92,4.92,0,0,1-.94,2.5A12.61,12.61,0,0,1,333.68,59.72Zm.45,5.22a5.17,5.17,0,0,0-.59-2.7q-.61-1-1.36-1a14.67,14.67,0,0,0-2.52,1.71q-.59.44-1.14.82a12.33,12.33,0,0,0-.19,2.12,6.15,6.15,0,0,0,.58,3.08,1.88,1.88,0,0,0,1.68,1,2.91,2.91,0,0,0,2.51-1.56,6.39,6.39,0,0,0,1-3.47Zm-5.34-3.21A30.87,30.87,0,0,0,334.17,57a4.43,4.43,0,0,0,1-2.24q0-1.31-1-1.32-1.47,0-3,2.19A18,18,0,0,0,328.79,61.73Z"/><path class="cls-1" d="M348.51,67.33q0,1.15-2,2.77a6.65,6.65,0,0,1-4.17,1.64,3.6,3.6,0,0,1-2.8-1.05,4.23,4.23,0,0,1-1-3,10,10,0,0,1,2.13-6.12q2.15-2.91,4.72-2.92a1.85,1.85,0,0,1,1.92,1.86,4.56,4.56,0,0,1-1.68,3.32A21.72,21.72,0,0,1,341.11,67a.9.9,0,0,0-.58.79,2.07,2.07,0,0,0,.55,1.49,2.11,2.11,0,0,0,1.6.55q2.41,0,4.91-2.7.37-.37.56-.37Q348.51,66.76,348.51,67.33Zm-7.82-1.71q4.75-2.86,4.74-4.58,0-.67-.61-.67a3.46,3.46,0,0,0-2.32,1.53A8.75,8.75,0,0,0,340.69,65.62Z"/><path class="cls-1" d="M352.93,69.76a45.54,45.54,0,0,0-.89,5.7l-.26,2.13a2.07,2.07,0,0,1-.39.9q-.33.45-.61.46a1.34,1.34,0,0,1-.8-.33q-.45-.34-.46-.56a7.31,7.31,0,0,1,.24-1.71,61.67,61.67,0,0,0,1.68-14.63l0-.94a2.7,2.7,0,0,1,.38-1.77,1.31,1.31,0,0,1,1-.58q.27,0,.53.41a2.39,2.39,0,0,1,.28,1.19,18.87,18.87,0,0,1-.16,2.64q-.24,2-.24,2.25a17.66,17.66,0,0,1,3.43-4.65,5.5,5.5,0,0,1,3.44-1.73,2.5,2.5,0,0,1,1.94.8,3,3,0,0,1,.83,2.08,9.49,9.49,0,0,1-2.63,6.72q-2.73,3.06-5.39,3.13a1.54,1.54,0,0,1-1.06-.31A3.78,3.78,0,0,1,352.93,69.76Zm6.74-9.22q-1.58,0-3.84,3.07t-2.21,4.68a1.05,1.05,0,0,0,.48.77,1.77,1.77,0,0,0,1.18.35q1.61,0,3.63-2.47a7.16,7.16,0,0,0,2-4.72A2.08,2.08,0,0,0,360.5,61,1,1,0,0,0,359.67,60.54Z"/><path class="cls-1" d="M369.2,66.3a11.15,11.15,0,0,0-3.14,4.61,4.2,4.2,0,0,1-.58,1.15q-1.34,0-1.4-1.17-.09-1.72,3.54-5.41l.51-.53q-2.41-3.23-2.51-5-.09-1.59,1.26-1.67a.59.59,0,0,1,.57.3,4.77,4.77,0,0,1,.35,1.47,7.85,7.85,0,0,0,1.74,3.7,17.46,17.46,0,0,0,3.94-5,3.67,3.67,0,0,1,.53-.88.78.78,0,0,1,.53-.21,1.12,1.12,0,0,1,.77.27,1,1,0,0,1,.4.78q.06,1.12-5.12,6.44a13.79,13.79,0,0,0,4.19,3.38l.51.28a.83.83,0,0,1,.06.31,1.24,1.24,0,0,1-.31.88,1.12,1.12,0,0,1-.83.43Q372.71,70.47,369.2,66.3Z"/><path class="cls-1" d="M75.75,29.46a6,6,0,0,0-1.25-2.33,3.89,3.89,0,0,0-1.68-.91A4.91,4.91,0,0,0,71,26a2.73,2.73,0,0,0-.86.32,6.08,6.08,0,0,0-.85.51,1.61,1.61,0,0,1-.78.34q-.42,0-.47-.4a2.44,2.44,0,0,1,.59-1.41,3.25,3.25,0,0,1,2.47-1.12l.48-.05a5.59,5.59,0,0,1,3.32.61,5.17,5.17,0,0,1,2.27,2.52,15.77,15.77,0,0,1,1.09,4.71,12.68,12.68,0,0,1-.76,5.06,10.84,10.84,0,0,1-2.8,4.72,7,7,0,0,1-4.06,1.93A2,2,0,0,1,69,43a3.71,3.71,0,0,1-.95-2.23,8.88,8.88,0,0,1,.64-4.59,12.22,12.22,0,0,1,2.16-3.41,10.31,10.31,0,0,1,3.61-2.35A9.33,9.33,0,0,0,75.56,30,.42.42,0,0,0,75.75,29.46Zm.54,2.25a9,9,0,0,0-3.78,2.08,8.8,8.8,0,0,0-2.42,6.84,2.42,2.42,0,0,0,.26.88q.21.4.42.38a3.82,3.82,0,0,0,1.48-.45,6.31,6.31,0,0,0,1.54-1.39,10.15,10.15,0,0,0,1.54-2.47,11.6,11.6,0,0,0,.88-2.75,8.73,8.73,0,0,0,.18-2Q76.36,32.18,76.29,31.71Z"/><path class="cls-1" d="M86.1,32.41q-.27,0-.48.56a53.8,53.8,0,0,1-2.92,6.61q-.09.16-.22.45-1.17,2.62-1.82,2.68a.76.76,0,0,1-.95-.76,3.8,3.8,0,0,1,.89-2.17A31.16,31.16,0,0,0,83,35.32q1.44-3.13,2.28-5.58a.65.65,0,0,1,.56-.48,2.21,2.21,0,0,1,.61.1,1.13,1.13,0,0,1,.58.28,13.23,13.23,0,0,1,.74,2q2,6.73,3.64,7.86a2.88,2.88,0,0,1,.46.38.56.56,0,0,1,.09.29,1,1,0,0,1-.17.65,1.07,1.07,0,0,1-.4.4,3.07,3.07,0,0,1-.87.16q-.24,0-1.2-1.06t-2.59-6.13A12.61,12.61,0,0,0,86.1,32.41Z"/><path class="cls-1" d="M103.47,28.38a4.57,4.57,0,0,1-.37,1.37,15.28,15.28,0,0,0-.53,3.35,26,26,0,0,0-.09,4,16.2,16.2,0,0,0,.28,1.79q.1.53.13.89,0,.19-.3.42a1.18,1.18,0,0,1-.58.25q-.69.05-.92-.24a2.78,2.78,0,0,1-.3-1.27l-.18-3.62Q99,36.87,98.38,37.6t-1.06,1.09A14.82,14.82,0,0,0,95.24,41a1.44,1.44,0,0,1-.33.31.82.82,0,0,1-.31.17.92.92,0,0,1-.83-.41,1.54,1.54,0,0,1-.36-.69q0-.28,1-1.35a7.46,7.46,0,0,1,.57-.52,26.42,26.42,0,0,0,3.08-2.94l-1.22.11a3.72,3.72,0,0,1-1.48-.39,2,2,0,0,1-1.1-.94A3.47,3.47,0,0,1,94,33.27a3.7,3.7,0,0,1,1.51-3.06,10,10,0,0,1,4-2.11,5.87,5.87,0,0,0,1-.21l.76-.18a3.17,3.17,0,0,1,.56.07l.36-.1a1.36,1.36,0,0,1,.73.17A1,1,0,0,1,103.47,28.38Zm-2.16,1.27q-.14-.21-.3-.2a7.82,7.82,0,0,0-3.41,1.25q-1.84,1.13-1.73,2.54a.83.83,0,0,0,.55.66,2.87,2.87,0,0,0,1.45.18,7.94,7.94,0,0,0,2.55-.53,1.32,1.32,0,0,0,.38-.77Z"/><path class="cls-1" d="M123.63,34.93a16.09,16.09,0,0,1-3.27,2.7,6.27,6.27,0,0,1-2.56,1.05,1.94,1.94,0,0,1-1.71-.8,3.74,3.74,0,0,1-.74-2.16,17,17,0,0,1,.48-4.52,9.25,9.25,0,0,1,.94-3,1.44,1.44,0,0,1,1-.4.59.59,0,0,1,.55.37,1.87,1.87,0,0,1,.24.8,1.58,1.58,0,0,1-.22.74,10.41,10.41,0,0,0-1.18,5.34,2.47,2.47,0,0,0,.3,1.09.76.76,0,0,0,.74.44,4.12,4.12,0,0,0,1.5-.46,9.72,9.72,0,0,0,2-1.34,8,8,0,0,0,1.45-1.46,3.28,3.28,0,0,0,.49-1.23,18.22,18.22,0,0,0,.07-2.93q-.06-2.25,1-2.3.61,0,.8.28a2.79,2.79,0,0,1,.25,1.21q0,.67,0,2.93,0,.51,0,.93a28.21,28.21,0,0,1-1.28,9.48q-1.28,3.48-4.09,3.63a6.85,6.85,0,0,1-4-.94q-1.77-1.06-1.82-1.85a1.67,1.67,0,0,1,.13-.74q.15-.37.42-.38t.3.2a5,5,0,0,0,4.64,2q1.94-.11,2.77-2.53A20.12,20.12,0,0,0,123.63,34.93Z"/><path class="cls-1" d="M137.07,25.22a6,6,0,0,0-1.1-2.41,3.89,3.89,0,0,0-1.62-1,4.92,4.92,0,0,0-1.78-.31,2.74,2.74,0,0,0-.88.27,6.05,6.05,0,0,0-.89.46,1.62,1.62,0,0,1-.8.29q-.43,0-.44-.43a2.45,2.45,0,0,1,.67-1.37,3.25,3.25,0,0,1,2.53-1l.48,0a5.6,5.6,0,0,1,3.27.83,5.18,5.18,0,0,1,2.1,2.66,15.77,15.77,0,0,1,.79,4.77,12.68,12.68,0,0,1-1.09,5,10.84,10.84,0,0,1-3.1,4.53,7,7,0,0,1-4.17,1.67,2,2,0,0,1-1.55-.87,3.72,3.72,0,0,1-.8-2.28,8.88,8.88,0,0,1,.93-4.54A12.22,12.22,0,0,1,132,28.23a10.3,10.3,0,0,1,3.75-2.11,9.3,9.3,0,0,0,1.08-.42A.42.42,0,0,0,137.07,25.22Zm.4,2.28a9,9,0,0,0-3.9,1.84A8.8,8.8,0,0,0,130.72,36a2.41,2.41,0,0,0,.21.9q.19.41.4.4a3.82,3.82,0,0,0,1.5-.35,6.32,6.32,0,0,0,1.62-1.29,10.17,10.17,0,0,0,1.69-2.37,11.59,11.59,0,0,0,1.06-2.69,8.75,8.75,0,0,0,.31-2Q137.5,28,137.47,27.49Z"/><path class="cls-1" d="M148.6,33.85a13.75,13.75,0,0,1-3,3.25,5.11,5.11,0,0,1-2.79,1.13,1.91,1.91,0,0,1-1.51-.69,2.77,2.77,0,0,1-.68-1.86,10.66,10.66,0,0,1,2.46-6.43q2.54-3.48,5.15-3.55a1.5,1.5,0,0,1,1.43,1,.49.49,0,0,0,.47.35q.9,0,.92.67a5.6,5.6,0,0,1-.09,1,30.31,30.31,0,0,0-.48,4.69q.07,2.72,1.12,3.23a.78.78,0,0,1,.51.65,1,1,0,0,1-.46.71,1.59,1.59,0,0,1-.92.38q-.86,0-1.46-1.15A8.17,8.17,0,0,1,148.6,33.85Zm-.86-6.3q-1.48,0-3.37,2.87a8.7,8.7,0,0,0-1.84,4.66q0,1.29.89,1.27,1.23,0,3.35-2.59a7.27,7.27,0,0,0,2.06-4.64Q148.79,27.52,147.74,27.55Z"/><path class="cls-1" d="M160.77,28.56q-.27,0-.52.52a53.75,53.75,0,0,1-3.43,6.36q-.1.15-.25.43-1.37,2.52-2,2.53-.88,0-.89-.83a3.8,3.8,0,0,1,1.06-2.09,31.23,31.23,0,0,0,2.72-4.26q1.68-3,2.71-5.39a.65.65,0,0,1,.6-.43,2.22,2.22,0,0,1,.6.14,1.13,1.13,0,0,1,.56.32,13.3,13.3,0,0,1,.58,2.08q1.47,6.87,3,8.13a2.87,2.87,0,0,1,.43.42.55.55,0,0,1,.07.3,1,1,0,0,1-.22.64,1.07,1.07,0,0,1-.43.37,3.08,3.08,0,0,1-.87.09q-.24,0-1.12-1.15t-2.1-6.31A12.64,12.64,0,0,0,160.77,28.56Z"/><path class="cls-1" d="M177.88,33.84q0,1.15-2,2.76a6.64,6.64,0,0,1-4.18,1.62,3.6,3.6,0,0,1-2.79-1.07,4.23,4.23,0,0,1-1-3,10,10,0,0,1,2.17-6.11q2.17-2.9,4.74-2.9A1.85,1.85,0,0,1,176.71,27a4.56,4.56,0,0,1-1.7,3.31,21.75,21.75,0,0,1-4.54,3.11.9.9,0,0,0-.58.79,2.07,2.07,0,0,0,.54,1.49,2.11,2.11,0,0,0,1.59.56q2.41,0,4.93-2.67.37-.37.56-.37Q177.88,33.26,177.88,33.84Zm-7.8-1.75q4.76-2.83,4.76-4.55,0-.67-.61-.67a3.46,3.46,0,0,0-2.33,1.52A8.75,8.75,0,0,0,170.07,32.08Z"/><path class="cls-1" d="M188.54,30.44a18.81,18.81,0,0,0,.43-2.81q.23-2.06,1.34-2a.8.8,0,0,1,.9.92,4.76,4.76,0,0,1-.17.86,26.44,26.44,0,0,0-.95,6q0,2.63.82,3.41.44.42.44.68t-.46.57a1.71,1.71,0,0,1-.83.25q-1.75,0-1.68-5.44,0-.36-.26-.36-1.06,0-2.58.09a12.33,12.33,0,0,0-2.19.28,2.08,2.08,0,0,0-.81.34,2,2,0,0,0-.28.86,8.77,8.77,0,0,0-.14,1.45l0,1.38q0,1.2-1.12,1.19-.92,0-.9-1.21a12.56,12.56,0,0,1,.23-2q.4-2.22.85-7.65a3.67,3.67,0,0,1,.14-.9,1.11,1.11,0,0,1,.42-.42,1.24,1.24,0,0,1,.73-.22q.81,0,.8.67,0,.1-.28,1.68a15.78,15.78,0,0,0-.3,2.46q0,.62.42.62a29.92,29.92,0,0,0,3.13-.24A7.6,7.6,0,0,0,188.54,30.44Z"/><path class="cls-1" d="M201.71,33.2a15.56,15.56,0,0,1-3,3.66,4.41,4.41,0,0,1-2.83,1.25,2.12,2.12,0,0,1-1.49-.91,3.92,3.92,0,0,1-.69-2.68,19.81,19.81,0,0,1,.83-4.31,16.5,16.5,0,0,0,.69-3.34,1.07,1.07,0,0,1,1-.64.94.94,0,0,1,.74.35,1.06,1.06,0,0,1,.26.7,6.89,6.89,0,0,1-.61,2.22,14.33,14.33,0,0,0-1.18,4.81q-.05,1.84.8,1.87,1.09,0,2.83-1.77a15.47,15.47,0,0,0,3-5.08,7.7,7.7,0,0,1,.82-1.7,1,1,0,0,1,.81-.38q.76,0,.73,1a5,5,0,0,1-.24.81,17.62,17.62,0,0,0-.81,4.63q-.07,2.63.77,3.43.44.43.43.69t-.47.56a1.7,1.7,0,0,1-.83.23q-.79,0-1.24-1.2a9.44,9.44,0,0,1-.38-3.46v-.37C201.69,33.45,201.7,33.33,201.71,33.2Z"/><path class="cls-1" d="M218.22,27a4.56,4.56,0,0,1-.53,1.32,15.25,15.25,0,0,0-.92,3.27,25.91,25.91,0,0,0-.57,4,16.06,16.06,0,0,0,.06,1.81q0,.54,0,.9,0,.19-.35.38a1.18,1.18,0,0,1-.61.18q-.7,0-.88-.35a2.78,2.78,0,0,1-.14-1.3l.25-3.62q-1.74,1.33-2.49,2t-1.19,1a14.8,14.8,0,0,0-2.33,2,1.44,1.44,0,0,1-.36.27.82.82,0,0,1-.33.13.91.91,0,0,1-.78-.5,1.54,1.54,0,0,1-.27-.73q0-.28,1.2-1.22a7.54,7.54,0,0,1,.63-.45A26.37,26.37,0,0,0,212,33.44l-1.22,0a3.73,3.73,0,0,1-1.42-.56,2,2,0,0,1-1-1.06,3.45,3.45,0,0,1-.14-1.08,3.7,3.7,0,0,1,1.86-2.86,10,10,0,0,1,4.27-1.61,5.82,5.82,0,0,0,1-.1l.78-.09a3.21,3.21,0,0,1,.55.13l.37-.05a1.37,1.37,0,0,1,.71.26A1,1,0,0,1,218.22,27Zm-2.3,1q-.11-.23-.27-.24a7.82,7.82,0,0,0-3.54.84q-2,.9-2,2.32a.83.83,0,0,0,.47.72A2.87,2.87,0,0,0,212,32a7.92,7.92,0,0,0,2.59-.22A1.32,1.32,0,0,0,215,31Z"/><path class="cls-1" d="M378,73.82c-60.4,7.35-121.65-.25-182.19-1.45A948,948,0,0,0,89.52,76.23c-8.12.75-16.78.92-24.72,2.83-6.12,1.47-10.53,6-14.87,10.33-4.87,4.81-8.83,10.08-11,16.63-2.63,7.87-3.06,16.35-3.86,24.54-3.46,35.13-5.12,69.65-1.5,104.84.1,1,3,.37,2.9-.78-3.09-30.06-2.63-59.77.12-89.82C37.31,136.53,38,128.24,39,120c.9-7.83,2.32-15.83,6.79-22.51,4.1-6.13,12-15.08,19.44-16.88,8.55-2.08,18.11-2.16,26.87-2.94a940.65,940.65,0,0,1,104.6-3.52c28.73.63,57.41,2.52,86.12,3.51,31.55,1.08,63.43,1.69,94.84-2.13,1.44-.18,2.38-1.94.37-1.69Z"/></g></svg>