<svg id="curves" xmlns="http://www.w3.org/2000/svg" viewBox="0 0 219 141"><defs><style>.cls-1{fill:#fff;}</style></defs><title>guide-ad-menu-en</title><g id="AD_menu" data-name="AD menu"><path class="cls-1" d="M62.62,12.83q.11.09.11.62a2.29,2.29,0,0,1-.11.83l.17.53a21.31,21.31,0,0,0,.83,2.46q.51,1.29,1,2.78A43.39,43.39,0,0,0,67,25.9a13.37,13.37,0,0,0,2.24,3.42,7.46,7.46,0,0,1,.79.86,1,1,0,0,1,.16.55,1.31,1.31,0,0,1-.37.95,1.2,1.2,0,0,1-.89.39q-1.62,0-3.94-5.12-.93-2-1.12-2a19.21,19.21,0,0,0-2.62.37,34.89,34.89,0,0,0-3.68.86,5.91,5.91,0,0,1-1.21.29,1,1,0,0,1-.66-.32.23.23,0,0,0-.15-.05q-.28,0-1.21,1.65Q52.8,30.47,52.4,31a1.12,1.12,0,0,1-.88.53,1.41,1.41,0,0,1-.83-.4,1.1,1.1,0,0,1-.48-.82,2.24,2.24,0,0,1,.46-1.1l1.87-2.79a76.55,76.55,0,0,0,4.24-7,60.74,60.74,0,0,1,3.47-6.13q.74-.93,1.13-.93A1.62,1.62,0,0,1,62.62,12.83Zm.77,10.09q-.44-1-1.31-3.72-.94-2.88-1.19-3.5-.7,1.47-2.16,4.18l-2.3,4.35a3.55,3.55,0,0,1,1.41-.33,14.21,14.21,0,0,0,1.52-.23Q62.84,23,63.4,22.92Z"/><path class="cls-1" d="M74.73,15.68a.65.65,0,0,0-.57-.65q-1-.25-1-.88a1.37,1.37,0,0,1,.41-.92,1.19,1.19,0,0,1,.88-.45l1.78.05q1.24,0,3.28-.17t3-.17a8,8,0,0,1,5.63,2,6.76,6.76,0,0,1,2.13,5.2,8.79,8.79,0,0,1-3,6.46,18.48,18.48,0,0,1-8.66,4.26,9.89,9.89,0,0,0-3,1.08,3.33,3.33,0,0,1-1.73.71,1.06,1.06,0,0,1-.86-.51,1.57,1.57,0,0,1-.37-.82,2.46,2.46,0,0,1,.25-.66A4.79,4.79,0,0,0,73.21,29a18.9,18.9,0,0,0,.18-2.09q.06-1.5.46-4.84t.65-4.74A11,11,0,0,0,74.73,15.68Zm2.3-.85a91,91,0,0,0-1.51,12.81,3.57,3.57,0,0,0,.17,1.24.62.62,0,0,0,.39.09,21.89,21.89,0,0,0,4.25-1.07,12.9,12.9,0,0,0,5.59-3.29,7.08,7.08,0,0,0,2.15-5.05,4.67,4.67,0,0,0-1.66-3.75A6.54,6.54,0,0,0,82,14.41a31.26,31.26,0,0,0-4,.3Q77.54,14.79,77,14.83Z"/><path class="cls-1" d="M109.67,28.09q0-.82-2-1.88a19.12,19.12,0,0,1-3.48-2.11,2.32,2.32,0,0,1-.91-1.77,4.9,4.9,0,0,1,2.53-4.19,8.23,8.23,0,0,1,4.13-1.66,2.47,2.47,0,0,1,1.49.36,1.46,1.46,0,0,1,.46,1.23.85.85,0,0,1-.34.67A1,1,0,0,1,111,19a1.7,1.7,0,0,1-.55-.19,1.82,1.82,0,0,0-.53-.18,8.09,8.09,0,0,0-2.58.93q-1.94.93-1.94,2.09a1.67,1.67,0,0,0,.69,1.29,12.23,12.23,0,0,0,2.46,1.42,9.39,9.39,0,0,1,2.29,1.47,2.4,2.4,0,0,1,.86,1.83q0,1.94-2.68,3a13.5,13.5,0,0,1-5.12,1.1q-2.06,0-2.06-1.4a.75.75,0,0,1,.46-.71,2.09,2.09,0,0,1,.93-.23,3.84,3.84,0,0,1,.72.13,3.72,3.72,0,0,0,.69.13,10.82,10.82,0,0,0,3-.47A3.23,3.23,0,0,0,109.67,28.09Z"/><path class="cls-1" d="M125.19,26.7q0,1.29-2.29,3.12a7.51,7.51,0,0,1-4.73,1.83A4.07,4.07,0,0,1,115,30.44a4.78,4.78,0,0,1-1.11-3.36,11.35,11.35,0,0,1,2.45-6.91q2.45-3.28,5.36-3.28A2.09,2.09,0,0,1,123.87,19a5.15,5.15,0,0,1-1.92,3.75,24.59,24.59,0,0,1-5.13,3.52,1,1,0,0,0-.66.89,2.34,2.34,0,0,0,.61,1.69,2.39,2.39,0,0,0,1.8.63q2.73,0,5.57-3,.42-.42.63-.42Q125.19,26,125.19,26.7Zm-8.82-2q5.38-3.2,5.38-5.14,0-.76-.69-.76-1.17,0-2.63,1.71A9.9,9.9,0,0,0,116.36,24.71Z"/><path class="cls-1" d="M132.28,9.51q.91,0,.91,1.17a25.89,25.89,0,0,1-1.1,5A37.35,37.35,0,0,0,131,21.06a39,39,0,0,0-.38,4.66,32.56,32.56,0,0,0,.27,4.16,5,5,0,0,1,.05.57,1.53,1.53,0,0,1-.43,1.09,1.26,1.26,0,0,1-.91.46q-.67,0-.93-.84a10.05,10.05,0,0,1-.26-2.7,67.74,67.74,0,0,1,1-10.54q1-6.28,1.63-7.35T132.28,9.51Z"/><path class="cls-1" d="M146.15,26.7q0,1.29-2.29,3.12a7.51,7.51,0,0,1-4.73,1.83A4.07,4.07,0,0,1,136,30.44a4.78,4.78,0,0,1-1.11-3.36,11.35,11.35,0,0,1,2.45-6.91q2.45-3.28,5.36-3.28A2.09,2.09,0,0,1,144.83,19a5.15,5.15,0,0,1-1.92,3.75,24.59,24.59,0,0,1-5.13,3.52,1,1,0,0,0-.66.89,2.34,2.34,0,0,0,.61,1.69,2.39,2.39,0,0,0,1.8.63q2.73,0,5.57-3,.42-.42.63-.42Q146.15,26,146.15,26.7Zm-8.82-2q5.38-3.2,5.38-5.14,0-.76-.69-.76-1.17,0-2.63,1.71A9.9,9.9,0,0,0,137.32,24.71Z"/><path class="cls-1" d="M152.26,31.72a3.81,3.81,0,0,1-2.93-1.09,4.3,4.3,0,0,1-1-3.06,12.16,12.16,0,0,1,2.63-7q2.63-3.68,4.89-3.68A2.12,2.12,0,0,1,157.6,18a4.16,4.16,0,0,1,.74,2.35,2.47,2.47,0,0,1-.32,1.29q-.33.54-.65.54-.74,0-1-1.49t-1-1.6q-1.32,0-3.12,3.14a11.21,11.21,0,0,0-1.8,5.29q0,2.16,2.45,2.16A8.12,8.12,0,0,0,157.25,28a2.79,2.79,0,0,1,1.31-.62q.43,0,.43.5,0,1-2.27,2.43A8.21,8.21,0,0,1,152.26,31.72Z"/><path class="cls-1" d="M167.14,18.19q1.31-.1,2.46-.24a17.71,17.71,0,0,1,1.9-.13,2.56,2.56,0,0,1,1.22.18.71.71,0,0,1,.25.62q0,1-1.43,1.12-1.84.11-3.39.32a5.73,5.73,0,0,0-1.67.34,23.33,23.33,0,0,0-.77,3,22.85,22.85,0,0,0-.65,3.75,3.23,3.23,0,0,0,.37,1.86,1.32,1.32,0,0,0,1.1.46,5.59,5.59,0,0,0,3-1.64,2.12,2.12,0,0,1,1.16-.67q.55,0,.55.58,0,.91-1.76,2.37a5.62,5.62,0,0,1-3.6,1.45q-3.07,0-3.07-3.62a20.11,20.11,0,0,1,.63-4,24.1,24.1,0,0,0,.62-3.28q0-.19-.3-.19l-1.32.11q-1.62,0-1.62-1.29a.66.66,0,0,1,.75-.74h2.62a.6.6,0,0,0,.47-.24,6.23,6.23,0,0,0,.6-1.62q.39-1.38.7-2.72t1.19-1.33A1,1,0,0,1,168,13a1.17,1.17,0,0,1,.3.71,16.87,16.87,0,0,1-.46,1.82Z"/><path class="cls-1" d="M176.59,28.18a10.15,10.15,0,0,0,.27,2.17,1.8,1.8,0,0,1,.05.38c0,.15-.14.35-.42.59a1.34,1.34,0,0,1-.89.36q-1.23,0-1.23-2.26a44.29,44.29,0,0,1,1-7.39,17.86,17.86,0,0,0,.33-2.17A2.94,2.94,0,0,1,176,18.5a.9.9,0,0,1,.83-.57,1.55,1.55,0,0,1,1,.31.89.89,0,0,1,.37.69,3.87,3.87,0,0,1-.18,1,47.26,47.26,0,0,0-1.18,4.8A22.4,22.4,0,0,0,176.59,28.18ZM178.25,14q-.27,0-.41-.57a3.76,3.76,0,0,0-.14-.39,3.84,3.84,0,0,1-.34-1.43,1.45,1.45,0,0,1,.6-1,2,2,0,0,1,1.34-.53,1.59,1.59,0,0,1,.83.29c.3.19.46.37.46.55a5.64,5.64,0,0,1-.31,1.42,2.12,2.12,0,0,1-1,1.35A2.55,2.55,0,0,1,178.25,14Z"/><path class="cls-1" d="M185.39,31.63a3.61,3.61,0,0,1-2.87-1.32,4.84,4.84,0,0,1-1.13-3.26,11.24,11.24,0,0,1,2.2-6.46q2.2-3.18,5.27-3.18A4,4,0,0,1,192.16,19a5.73,5.73,0,0,1,1.26,3.72,8.85,8.85,0,0,1-2.61,6.12Q188.21,31.63,185.39,31.63Zm-1.76-4.91a3.72,3.72,0,0,0,.54,2.09,1.65,1.65,0,0,0,1.43.81,5.32,5.32,0,0,0,3.8-2.08,6.67,6.67,0,0,0,1.9-4.61,4.1,4.1,0,0,0-.73-2.53,2.32,2.32,0,0,0-2-1q-2,0-3.51,2.51A9.5,9.5,0,0,0,183.62,26.72Z"/><path class="cls-1" d="M205,21.24a2.12,2.12,0,0,0-1.44.86A22.87,22.87,0,0,0,201.21,26a25.56,25.56,0,0,1-2.72,4.6,1.73,1.73,0,0,1-1,.56,1.3,1.3,0,0,1-1.5-1.45,10.35,10.35,0,0,1,.2-1.73,45.06,45.06,0,0,0,.7-8.09,1.93,1.93,0,0,1,.41-1.07q.41-.59.78-.59a1.06,1.06,0,0,1,.94.41,3.21,3.21,0,0,1,.28,1.64,36.27,36.27,0,0,1-.76,5.28,12.39,12.39,0,0,0-.25,1.68c0,.14,0,.2.1.2a14.62,14.62,0,0,0,1.76-3A19.79,19.79,0,0,1,202.91,20a3.57,3.57,0,0,1,2.63-1.26,2.17,2.17,0,0,1,1.86,1,9.09,9.09,0,0,1,1,3.8,22.64,22.64,0,0,0,.64,3.9q.28.77.91.77a2.45,2.45,0,0,0,1-.28.38.38,0,0,1,.15-.05q.55,0,.55.63a1.69,1.69,0,0,1-.75,1.19,2.72,2.72,0,0,1-1.8.63,1.91,1.91,0,0,1-1.67-.86q-.59-.86-.93-4.58T205,21.24Z"/><path class="cls-1" d="M61.61,52.16q-1.18,0-5.05,7A24.09,24.09,0,0,1,55,61.71a2,2,0,0,1-.79.37,3.62,3.62,0,0,1-1,.17q-.85,0-.85-3.31a50,50,0,0,1,.8-6.75,19.83,19.83,0,0,0,.33-2.83q0-.84.75-.84,1.41,0,1.41,2a27.89,27.89,0,0,1-.47,3.73q-.55,3.17-.56,3.86A18.3,18.3,0,0,0,57,54.8a24.82,24.82,0,0,1,3.18-4.48,3.1,3.1,0,0,1,2.11-.95q.82,0,1.31,1.1a18,18,0,0,1,.59,5.27,5.82,5.82,0,0,0,.19,1.55q.17.51.24.51.6,0,2.59-4.06a14.67,14.67,0,0,1,2.08-3.26,3,3,0,0,1,2.24-1.12A1.56,1.56,0,0,1,73,50.42a10.71,10.71,0,0,1,.67,3.14,29,29,0,0,0,.59,3.86,3,3,0,0,0,1.47,2.25q.72.34.72.8a1.26,1.26,0,0,1-.61.91,1.89,1.89,0,0,1-1.12.47,2.23,2.23,0,0,1-1.82-1.24q-.8-1.24-1.21-5.38a21.56,21.56,0,0,0-.34-2.36q-.17-.7-.52-.7-.53,0-1.26,1a40.84,40.84,0,0,0-2.35,4.13,22.62,22.62,0,0,1-1.92,3.23,1.76,1.76,0,0,1-1.26.81,1.34,1.34,0,0,1-1-.44,2,2,0,0,1-.55-1.05q-.11-.62-.24-3Q62.12,52.82,61.61,52.16Z"/><path class="cls-1" d="M89.61,57.9q0,1.29-2.29,3.12a7.51,7.51,0,0,1-4.73,1.83,4.07,4.07,0,0,1-3.15-1.21,4.78,4.78,0,0,1-1.11-3.36,11.35,11.35,0,0,1,2.45-6.91q2.45-3.28,5.36-3.28a2.09,2.09,0,0,1,2.16,2.12A5.15,5.15,0,0,1,86.38,54a24.59,24.59,0,0,1-5.13,3.52,1,1,0,0,0-.66.89,2.34,2.34,0,0,0,.61,1.69,2.39,2.39,0,0,0,1.8.63q2.73,0,5.57-3,.42-.42.63-.42Q89.61,57.25,89.61,57.9Zm-8.82-2q5.38-3.2,5.38-5.14,0-.76-.69-.76-1.17,0-2.63,1.71A9.9,9.9,0,0,0,80.79,55.92Z"/><path class="cls-1" d="M100.91,52.44a2.12,2.12,0,0,0-1.44.86,22.87,22.87,0,0,0-2.38,3.87,25.56,25.56,0,0,1-2.72,4.6,1.73,1.73,0,0,1-1,.56,1.3,1.3,0,0,1-1.5-1.45,10.35,10.35,0,0,1,.2-1.73,45.06,45.06,0,0,0,.7-8.09A1.93,1.93,0,0,1,93.16,50q.41-.59.78-.59a1.06,1.06,0,0,1,.94.41,3.21,3.21,0,0,1,.28,1.64,36.27,36.27,0,0,1-.76,5.28,12.39,12.39,0,0,0-.25,1.68c0,.14,0,.2.1.2a14.62,14.62,0,0,0,1.76-3,19.79,19.79,0,0,1,2.78-4.34A3.57,3.57,0,0,1,101.42,50a2.17,2.17,0,0,1,1.86,1,9.09,9.09,0,0,1,1,3.8,22.64,22.64,0,0,0,.64,3.9q.28.77.91.77a2.45,2.45,0,0,0,1-.28.38.38,0,0,1,.15-.05q.55,0,.55.63a1.69,1.69,0,0,1-.75,1.19,2.72,2.72,0,0,1-1.8.63,1.91,1.91,0,0,1-1.67-.86q-.59-.86-.93-4.58T100.91,52.44Z"/><path class="cls-1" d="M118.47,56.68a17.6,17.6,0,0,1-3.33,4.23A5,5,0,0,1,112,62.4a2.39,2.39,0,0,1-1.71-1,4.42,4.42,0,0,1-.87-3,22.42,22.42,0,0,1,.8-4.9,18.62,18.62,0,0,0,.67-3.8A1.21,1.21,0,0,1,112,49a1.06,1.06,0,0,1,.85.37,1.2,1.2,0,0,1,.32.78,7.79,7.79,0,0,1-.62,2.53,16.21,16.21,0,0,0-1.18,5.47q0,2.08,1,2.08,1.23,0,3.14-2.09a17.48,17.48,0,0,0,3.26-5.84,8.71,8.71,0,0,1,.87-1.95,1.08,1.08,0,0,1,.91-.45q.86,0,.86,1.14a5.65,5.65,0,0,1-.24.93,19.92,19.92,0,0,0-.76,5.26q0,3,1,3.85.51.47.51.76c0,.24-.17.45-.51.65a1.93,1.93,0,0,1-.93.29q-.89,0-1.43-1.32a10.68,10.68,0,0,1-.55-3.9V57.1C118.46,57,118.46,56.82,118.47,56.68Z"/><path class="cls-1" d="M143.26,118.37c1.29,9.6,7.54,19,17.73,20.52,5.49.79,11-.78,16-2.86,4-1.67,10.17-3.55,11.63-8.23,3.42-11-10.32-17.48-18.49-19.59a81.68,81.68,0,0,0-39.73,0c-1.78.43-1.3,2.21.48,1.77a78,78,0,0,1,29.87-1.49c8.91,1.32,21.41,3.94,24.68,13.7.71,2.12,1,4.71-.07,6.77-1.25,2.33-5.62,3.86-8,4.91-5.38,2.38-11.41,4.42-17.3,2.67-8.28-2.45-12.81-10.85-13.89-18.9-.16-1.19-3.07-.5-2.9.78Z"/><path class="cls-1" d="M167.25,105.61c.41-7.33.47-15-2.36-21.88-2.57-6.26-7.59-10.91-12.76-15.06-4.38-3.52-10.15-9-15.79-10.19-4.05-.83-8.33.39-11.94,2.16-1.72.84,1,.83,1.69.47,7.68-3.76,13.18,1,19,5.3a74.19,74.19,0,0,1,11.61,10c7.56,8.45,8.21,19.2,7.61,30,0,.5,2.85.13,2.9-.78Z"/><path class="cls-1" d="M166.07,106.57a70.76,70.76,0,0,0-8.91-12c-.74-.81-3.51.28-2.68,1.18a70.76,70.76,0,0,1,8.91,12c.53.9,3.34-.05,2.68-1.18Z"/><path class="cls-1" d="M165.75,107.35a23.55,23.55,0,0,1,8.89-10c1.66-1-.74-2-1.91-1.29A26.05,26.05,0,0,0,163,107c-.7,1.48,2.23,1.46,2.77.32Z"/></g></svg>