<svg id="curves" xmlns="http://www.w3.org/2000/svg" viewBox="0 0 219 141"><defs><style>.cls-1{fill:#fff;}</style></defs><title>guide-ad-menu-ru</title><g id="Меню_рекламы" data-name="Меню рекламы"><path class="cls-1" d="M21.07,26.52a18.18,18.18,0,0,1-3.86,2.84,7.09,7.09,0,0,1-3,1,2.19,2.19,0,0,1-1.89-1,4.23,4.23,0,0,1-.7-2.48,19.19,19.19,0,0,1,.82-5.07,10.44,10.44,0,0,1,1.25-3.32,1.63,1.63,0,0,1,1.14-.39.66.66,0,0,1,.6.45,2.12,2.12,0,0,1,.22.92,1.8,1.8,0,0,1-.29.83,11.76,11.76,0,0,0-1.66,6A2.79,2.79,0,0,0,14,27.51a.86.86,0,0,0,.81.54,4.65,4.65,0,0,0,1.72-.43,11,11,0,0,0,2.3-1.39,9.11,9.11,0,0,0,1.73-1.56,3.71,3.71,0,0,0,.63-1.36,20.74,20.74,0,0,0,.26-3.3q.08-2.54,1.23-2.54.69,0,.89.36a3.14,3.14,0,0,1,.2,1.38q0,.76-.23,3.3c0,.38-.05.73-.06,1.05a31.87,31.87,0,0,1-2,10.63Q19.79,38,16.62,38a7.74,7.74,0,0,1-4.42-1.3q-1.94-1.3-1.94-2.2a1.87,1.87,0,0,1,.2-.83q.2-.41.5-.41c.1,0,.21.08.33.24A5.68,5.68,0,0,0,16.4,36.1q2.2,0,3.29-2.69A22.74,22.74,0,0,0,21.07,26.52Z"/><path class="cls-1" d="M36.71,16.22a6.75,6.75,0,0,0-1.13-2.77,4.39,4.39,0,0,0-1.78-1.22,5.54,5.54,0,0,0-2-.43,3.11,3.11,0,0,0-1,.26,7,7,0,0,0-1,.48,1.83,1.83,0,0,1-.91.29q-.48,0-.48-.51a2.77,2.77,0,0,1,.83-1.51,3.67,3.67,0,0,1,2.91-1h.55a6.31,6.31,0,0,1,3.66,1.09A5.84,5.84,0,0,1,38.57,14a17.78,17.78,0,0,1,.67,5.42,14.32,14.32,0,0,1-1.46,5.6,12.26,12.26,0,0,1-3.71,5,7.86,7.86,0,0,1-4.79,1.69,2.21,2.21,0,0,1-1.71-1.05,4.2,4.2,0,0,1-.8-2.62A10,10,0,0,1,28,23a13.82,13.82,0,0,1,2.83-3.57,11.66,11.66,0,0,1,4.34-2.21,10.47,10.47,0,0,0,1.24-.42A.47.47,0,0,0,36.71,16.22Zm.34,2.59a10.15,10.15,0,0,0-4.49,1.89A10,10,0,0,0,29,28.1a2.72,2.72,0,0,0,.19,1c.13.32.27.48.43.48a4.34,4.34,0,0,0,1.71-.33,7.14,7.14,0,0,0,1.89-1.38,11.52,11.52,0,0,0,2-2.6,13.16,13.16,0,0,0,1.32-3,9.87,9.87,0,0,0,.44-2.2Q37.07,19.34,37.05,18.81Z"/><path class="cls-1" d="M49.32,26.38A15.56,15.56,0,0,1,45.8,30a5.77,5.77,0,0,1-3.19,1.19,2.16,2.16,0,0,1-1.69-.83,3.13,3.13,0,0,1-.71-2.12q0-3.34,3-7.19t5.93-3.85a1.7,1.7,0,0,1,1.59,1.22.55.55,0,0,0,.52.41q1,0,1,.79a6.27,6.27,0,0,1-.13,1.08,34.27,34.27,0,0,0-.69,5.28q0,3.07,1.17,3.68a.88.88,0,0,1,.56.75,1.07,1.07,0,0,1-.55.79,1.79,1.79,0,0,1-1.05.4q-1,0-1.61-1.35A9.24,9.24,0,0,1,49.32,26.38Zm-.77-7.15q-1.68,0-3.9,3.14t-2.22,5.21q0,1.46,1,1.46,1.4,0,3.87-2.82T49.74,21Q49.74,19.23,48.54,19.23Z"/><path class="cls-1" d="M63.14,20.65q-.3,0-.6.58a60.77,60.77,0,0,1-4,7.13c-.08.11-.17.27-.29.48Q56.69,31.69,56,31.68q-1,0-1-1a4.3,4.3,0,0,1,1.23-2.35,35.25,35.25,0,0,0,3.14-4.78q1.94-3.37,3.15-6a.73.73,0,0,1,.69-.48,2.54,2.54,0,0,1,.68.17,1.28,1.28,0,0,1,.63.38A15,15,0,0,1,65.1,20q1.56,7.78,3.29,9.23a3.31,3.31,0,0,1,.48.48.63.63,0,0,1,.08.34,1.14,1.14,0,0,1-.25.72,1.21,1.21,0,0,1-.5.41,3.47,3.47,0,0,1-1,.09q-.27,0-1.24-1.31t-2.29-7.17A14.3,14.3,0,0,0,63.14,20.65Z"/><path class="cls-1" d="M82.42,26.7q0,1.29-2.29,3.12a7.51,7.51,0,0,1-4.73,1.83,4.07,4.07,0,0,1-3.15-1.21,4.78,4.78,0,0,1-1.11-3.36,11.35,11.35,0,0,1,2.45-6.91q2.45-3.28,5.36-3.28A2.09,2.09,0,0,1,81.09,19a5.15,5.15,0,0,1-1.92,3.75A24.59,24.59,0,0,1,74,26.28a1,1,0,0,0-.66.89A2.34,2.34,0,0,0,74,28.85a2.39,2.39,0,0,0,1.8.63q2.73,0,5.57-3Q81.79,26,82,26,82.41,26,82.42,26.7Zm-8.82-2Q79,21.52,79,19.57q0-.76-.69-.76-1.17,0-2.63,1.71A9.9,9.9,0,0,0,73.59,24.71Z"/><path class="cls-1" d="M94.41,22.71a21.27,21.27,0,0,0,.44-3.19q.23-2.34,1.49-2.34a.91.91,0,0,1,1,1,5.37,5.37,0,0,1-.18,1,29.93,29.93,0,0,0-1,6.79q0,3,1,3.85.51.47.51.76c0,.24-.17.45-.51.65a1.93,1.93,0,0,1-.93.29q-2,0-2-6.12,0-.41-.3-.41-1.19,0-2.92.14a13.9,13.9,0,0,0-2.47.36,2.33,2.33,0,0,0-.91.4,2.23,2.23,0,0,0-.3,1,9.79,9.79,0,0,0-.13,1.64v1.56q0,1.36-1.24,1.36-1,0-1-1.36a14.27,14.27,0,0,1,.23-2.26q.42-2.51.84-8.66a4.14,4.14,0,0,1,.14-1,1.27,1.27,0,0,1,.46-.48,1.41,1.41,0,0,1,.82-.26q.91,0,.91.75,0,.11-.29,1.9a17.76,17.76,0,0,0-.3,2.78q0,.7.48.7a34,34,0,0,0,3.53-.32A8.61,8.61,0,0,0,94.41,22.71Z"/><path class="cls-1" d="M109.33,25.48A17.6,17.6,0,0,1,106,29.7a5,5,0,0,1-3.16,1.5,2.39,2.39,0,0,1-1.71-1,4.42,4.42,0,0,1-.87-3,22.42,22.42,0,0,1,.8-4.9,18.62,18.62,0,0,0,.67-3.8,1.21,1.21,0,0,1,1.16-.76,1.06,1.06,0,0,1,.85.37,1.2,1.2,0,0,1,.32.78,7.79,7.79,0,0,1-.62,2.53,16.21,16.21,0,0,0-1.18,5.47q0,2.08,1,2.08,1.23,0,3.14-2.09a17.48,17.48,0,0,0,3.26-5.84,8.71,8.71,0,0,1,.87-1.95,1.08,1.08,0,0,1,.91-.45q.86,0,.86,1.14a5.65,5.65,0,0,1-.24.93,19.92,19.92,0,0,0-.76,5.26q0,3,1,3.85.51.47.51.76c0,.24-.17.45-.51.65a1.93,1.93,0,0,1-.93.29q-.89,0-1.43-1.32a10.68,10.68,0,0,1-.55-3.9V25.9C109.32,25.76,109.32,25.62,109.33,25.48Z"/><path class="cls-1" d="M127.09,26.7q0,1.29-2.29,3.12a7.51,7.51,0,0,1-4.73,1.83,4.07,4.07,0,0,1-3.15-1.21,4.78,4.78,0,0,1-1.11-3.36,11.35,11.35,0,0,1,2.45-6.91q2.45-3.28,5.36-3.28A2.09,2.09,0,0,1,125.77,19a5.15,5.15,0,0,1-1.92,3.75,24.59,24.59,0,0,1-5.13,3.52,1,1,0,0,0-.66.89,2.34,2.34,0,0,0,.61,1.69,2.39,2.39,0,0,0,1.8.63q2.73,0,5.57-3,.42-.42.63-.42Q127.09,26,127.09,26.7Zm-8.82-2q5.38-3.2,5.38-5.14,0-.76-.69-.76-1.17,0-2.63,1.71A9.9,9.9,0,0,0,118.27,24.71Z"/><path class="cls-1" d="M14.14,60.73A51.49,51.49,0,0,0,13,67.14l-.36,2.4a2.35,2.35,0,0,1-.47,1q-.38.5-.7.5a1.51,1.51,0,0,1-.89-.4c-.33-.27-.5-.48-.5-.64a8.27,8.27,0,0,1,.32-1.93A69.71,69.71,0,0,0,12.69,51.6V50.53a3.05,3.05,0,0,1,.48-2,1.48,1.48,0,0,1,1.17-.62c.2,0,.4.16.58.48a2.7,2.7,0,0,1,.28,1.35,21.36,21.36,0,0,1-.25,3q-.33,2.21-.34,2.54a20,20,0,0,1,4-5.15,6.23,6.23,0,0,1,3.94-1.85,2.83,2.83,0,0,1,2.16,1,3.38,3.38,0,0,1,.88,2.38,10.73,10.73,0,0,1-3.17,7.52q-3.17,3.38-6.18,3.38A1.74,1.74,0,0,1,15,62.11,4.26,4.26,0,0,1,14.14,60.73ZM22,50.51q-1.79,0-4.43,3.35T15,59.08a1.19,1.19,0,0,0,.52.89,2,2,0,0,0,1.32.43q1.81,0,4.18-2.69a8.09,8.09,0,0,0,2.36-5.27A2.35,2.35,0,0,0,23,51,1.12,1.12,0,0,0,22,50.51Z"/><path class="cls-1" d="M39.68,57.9q0,1.29-2.29,3.12a7.51,7.51,0,0,1-4.73,1.83,4.07,4.07,0,0,1-3.15-1.21,4.78,4.78,0,0,1-1.11-3.36,11.35,11.35,0,0,1,2.45-6.91q2.45-3.28,5.36-3.28a2.09,2.09,0,0,1,2.16,2.12A5.15,5.15,0,0,1,36.45,54a24.59,24.59,0,0,1-5.13,3.52,1,1,0,0,0-.66.89,2.34,2.34,0,0,0,.61,1.69,2.39,2.39,0,0,0,1.8.63q2.73,0,5.57-3,.42-.42.63-.42Q39.68,57.25,39.68,57.9Zm-8.82-2q5.38-3.2,5.38-5.14,0-.76-.69-.76-1.17,0-2.63,1.71A9.9,9.9,0,0,0,30.86,55.92Z"/><path class="cls-1" d="M44.91,55.52q3-.52,5.4-3.88a10.81,10.81,0,0,1,2-2.21,2.88,2.88,0,0,1,1.8-.65,1.15,1.15,0,0,1,.76.34,1.06,1.06,0,0,1,.38.81q0,.62-1.18,1a3.33,3.33,0,0,0-1.17.65,25.61,25.61,0,0,0-2.07,2.18,9.21,9.21,0,0,1-2.15,1.89c-.06,0-.09.06-.09.09s0,.07.11.1a6.31,6.31,0,0,1,2,1.92,13.07,13.07,0,0,0,2.25,2.61,2.86,2.86,0,0,0,1.71.54H55q.44,0,.44.39a1.45,1.45,0,0,1-.55,1,2.57,2.57,0,0,1-1.8.52A2.76,2.76,0,0,1,51.23,62a13.37,13.37,0,0,1-2.08-2.7,8.71,8.71,0,0,0-1.26-1.68A1.82,1.82,0,0,0,46.6,57a5.27,5.27,0,0,0-.94.25c-.52.17-.82.33-.88.49a8.24,8.24,0,0,0-.14,1.69q0,1.45,0,2.34a1.07,1.07,0,0,1-.44.84,1.48,1.48,0,0,1-1,.37,1.12,1.12,0,0,1-.84-.31A.92.92,0,0,1,42,62a15.23,15.23,0,0,1,.34-2.16q.61-3.1,1.22-10.22a2.12,2.12,0,0,1,.52-1.24,1.38,1.38,0,0,1,1.07-.55.65.65,0,0,1,.55.36,1.71,1.71,0,0,1,.22.91,4,4,0,0,1-.15,1A26.65,26.65,0,0,0,44.91,55.52Z"/><path class="cls-1" d="M64.38,51.85q-.3,0-.6.58a60.77,60.77,0,0,1-4,7.13c-.08.11-.17.27-.29.48q-1.59,2.83-2.32,2.83-1,0-1-1a4.3,4.3,0,0,1,1.23-2.35,35.25,35.25,0,0,0,3.14-4.78q1.94-3.37,3.15-6a.73.73,0,0,1,.69-.48,2.54,2.54,0,0,1,.68.17,1.28,1.28,0,0,1,.63.38,15,15,0,0,1,.62,2.36q1.56,7.78,3.29,9.23a3.31,3.31,0,0,1,.48.48.63.63,0,0,1,.08.34,1.14,1.14,0,0,1-.25.72,1.21,1.21,0,0,1-.5.41,3.47,3.47,0,0,1-1,.09q-.27,0-1.24-1.31T64.91,54A14.3,14.3,0,0,0,64.38,51.85Z"/><path class="cls-1" d="M81.34,57.58a15.56,15.56,0,0,1-3.52,3.58,5.77,5.77,0,0,1-3.19,1.19,2.16,2.16,0,0,1-1.69-.83,3.13,3.13,0,0,1-.71-2.12q0-3.34,3-7.19t5.93-3.85a1.7,1.7,0,0,1,1.59,1.22.55.55,0,0,0,.52.41q1,0,1,.79a6.27,6.27,0,0,1-.13,1.08,34.27,34.27,0,0,0-.69,5.28q0,3.07,1.17,3.68a.88.88,0,0,1,.56.75,1.07,1.07,0,0,1-.55.79,1.79,1.79,0,0,1-1.05.4q-1,0-1.61-1.35A9.24,9.24,0,0,1,81.34,57.58Zm-.77-7.15q-1.68,0-3.9,3.14t-2.22,5.21q0,1.46,1,1.46,1.4,0,3.87-2.82t2.48-5.18Q81.75,50.43,80.56,50.43Z"/><path class="cls-1" d="M104.24,51.08a62,62,0,0,0-2.89,5.59q-.42.89-.85,1.71-.14.27-.53,1.18-1.33,3.1-2.32,3.1a2.6,2.6,0,0,1-1.15-.19,2,2,0,0,1-.69-1,33,33,0,0,1-1-4q-.75-3.57-1-4.39-.86,1.94-1.54,3.75a32,32,0,0,1-2,4.32,8.74,8.74,0,0,1-1.37,2,1.3,1.3,0,0,1-.8.34,1,1,0,0,1-.71-.3.86.86,0,0,1-.32-.6,1.65,1.65,0,0,1,.18-.65A17.06,17.06,0,0,0,89.18,59q.8-1.54,2-4.61a26.36,26.36,0,0,0,1.58-5q.17-.84,1.23-.84a1.38,1.38,0,0,1,.85.19,1.93,1.93,0,0,1,.45.77,3.92,3.92,0,0,1,.26,1q.08.55.43,2.42t.42,2.5q.18,1.05.63,2.77t.71,1.71q.18,0,.51-.77l1.07-2.46q.29-.67.62-1.32l1.46-3q1.19-2.46,1.83-3.57a9.24,9.24,0,0,1,.86-1.34.68.68,0,0,1,.5-.23,2.75,2.75,0,0,1,1.08.26q.6.26.62.58t.11,2.65l.17,4q.08,1.89.23,3.22a7,7,0,0,0,.53,2.14,5.3,5.3,0,0,1,.6,2,.84.84,0,0,1-.5.84,2.27,2.27,0,0,1-.93.23q-.89,0-1.37-1.42t-.69-8.15A11.66,11.66,0,0,0,104.24,51.08Z"/><path class="cls-1" d="M113.72,47.82a.63.63,0,0,1,.37-.11q.32,0,.53.85a4.41,4.41,0,0,1-.29,1.38,12,12,0,0,0-.86,3.35c0,.17.05.26.15.28q2.92-2.81,5.41-2.81A3.83,3.83,0,0,1,122.65,54q0,2.95-3,5.66a9.08,9.08,0,0,1-6,2.71,2.41,2.41,0,0,1-2.11-1.12,5.75,5.75,0,0,1-.75-3.22,24.94,24.94,0,0,1,.57-5,31,31,0,0,1,.91-3.68q.14-.39.25-.8T113.72,47.82Zm-.6,8a15.89,15.89,0,0,0-.25,2.82q0,1.92,1.51,1.92,1.7,0,3.81-2a5.7,5.7,0,0,0,2.11-3.95,2.07,2.07,0,0,0-.42-1.32,1.39,1.39,0,0,0-1.16-.53,4.25,4.25,0,0,0-2,.5,10,10,0,0,0-2.17,1.62l-.73.67A1.47,1.47,0,0,1,113.13,55.78Zm12.78,2.92a10.15,10.15,0,0,0,.27,2.17,1.8,1.8,0,0,1,.05.38c0,.15-.14.35-.42.59a1.34,1.34,0,0,1-.89.36q-1.23,0-1.23-2.26a48,48,0,0,1,1-7.54,20.29,20.29,0,0,0,.36-2.34,3,3,0,0,1,.29-1.37.9.9,0,0,1,.83-.56,1.56,1.56,0,0,1,1,.31.9.9,0,0,1,.37.69,4.44,4.44,0,0,1-.18,1.05q-1,3.62-1.22,5.07A22.4,22.4,0,0,0,125.91,58.7Z"/><path class="cls-1" d="M143.26,118.37c1.29,9.6,7.54,19,17.73,20.52,5.49.79,11-.78,16-2.86,4-1.67,10.17-3.55,11.63-8.23,3.42-11-10.32-17.48-18.49-19.59a81.68,81.68,0,0,0-39.73,0c-1.78.43-1.3,2.21.48,1.77a78,78,0,0,1,29.87-1.49c8.91,1.32,21.41,3.94,24.68,13.7.71,2.12,1,4.71-.07,6.77-1.25,2.33-5.62,3.86-8,4.91-5.38,2.38-11.41,4.42-17.3,2.67-8.28-2.45-12.81-10.85-13.89-18.9-.16-1.19-3.07-.5-2.9.78Z"/><path class="cls-1" d="M167.25,105.61c.41-7.33.47-15-2.36-21.88-2.57-6.26-7.59-10.91-12.76-15.06-4.38-3.52-10.15-9-15.79-10.19-4.05-.83-8.33.39-11.94,2.16-1.72.84,1,.83,1.69.47,7.68-3.76,13.18,1,19,5.3a74.19,74.19,0,0,1,11.61,10c7.56,8.45,8.21,19.2,7.61,30,0,.5,2.85.13,2.9-.78Z"/><path class="cls-1" d="M166.07,106.57a70.76,70.76,0,0,0-8.91-12c-.74-.81-3.51.28-2.68,1.18a70.76,70.76,0,0,1,8.91,12c.53.9,3.34-.05,2.68-1.18Z"/><path class="cls-1" d="M165.75,107.35a23.55,23.55,0,0,1,8.89-10c1.66-1-.74-2-1.91-1.29A26.05,26.05,0,0,0,163,107c-.7,1.48,2.23,1.46,2.77.32Z"/></g></svg>