<svg id="curves" xmlns="http://www.w3.org/2000/svg" viewBox="0 0 607.33 207.33"><defs><style>.cls-1{fill:#fff;}</style></defs><title>hello-en</title><g id="First"><path class="cls-1" d="M137.68,20.66q.09.07.09.5a1.85,1.85,0,0,1-.09.67l.13.43a17.16,17.16,0,0,0,.67,2q.41,1,.81,2.25a35,35,0,0,0,1.9,4.72A10.77,10.77,0,0,0,143,34a6,6,0,0,1,.64.69.78.78,0,0,1,.13.45,1.06,1.06,0,0,1-.3.76,1,1,0,0,1-.72.31q-1.31,0-3.18-4.13-.75-1.63-.9-1.63a15.47,15.47,0,0,0-2.12.3,28.24,28.24,0,0,0-3,.7,4.75,4.75,0,0,1-1,.24.81.81,0,0,1-.53-.26.19.19,0,0,0-.12,0q-.23,0-1,1.33-1.23,2.2-1.55,2.63a.9.9,0,0,1-.71.43,1.14,1.14,0,0,1-.67-.32.89.89,0,0,1-.39-.66,1.8,1.8,0,0,1,.37-.89l1.51-2.25A61.77,61.77,0,0,0,133,26a49.16,49.16,0,0,1,2.8-4.95q.59-.75.91-.75A1.31,1.31,0,0,1,137.68,20.66Zm.63,8.15q-.36-.82-1.06-3t-1-2.83q-.56,1.19-1.74,3.37l-1.86,3.52a2.86,2.86,0,0,1,1.14-.27,11.34,11.34,0,0,0,1.23-.18Q137.86,28.85,138.31,28.81Z"/><path class="cls-1" d="M147.47,23a.52.52,0,0,0-.46-.52q-.84-.21-.84-.71a1.1,1.1,0,0,1,.33-.74,1,1,0,0,1,.71-.36l1.44,0q1,0,2.65-.13t2.44-.13A6.42,6.42,0,0,1,158.28,22a5.46,5.46,0,0,1,1.72,4.2,7.1,7.1,0,0,1-2.46,5.21,14.93,14.93,0,0,1-7,3.44,8,8,0,0,0-2.43.87,2.68,2.68,0,0,1-1.39.57.86.86,0,0,1-.69-.42,1.27,1.27,0,0,1-.3-.66,2,2,0,0,1,.21-.53,3.88,3.88,0,0,0,.3-.93,15.23,15.23,0,0,0,.15-1.69q.05-1.21.37-3.91t.53-3.83A8.86,8.86,0,0,0,147.47,23Zm1.86-.69a73.47,73.47,0,0,0-1.22,10.35,2.89,2.89,0,0,0,.13,1,.5.5,0,0,0,.32.07,17.68,17.68,0,0,0,3.44-.86,10.42,10.42,0,0,0,4.51-2.66,5.72,5.72,0,0,0,1.73-4.08,3.77,3.77,0,0,0-1.34-3,5.28,5.28,0,0,0-3.53-1.13,25.25,25.25,0,0,0-3.21.25Z"/><path class="cls-1" d="M165.28,20.84a30.72,30.72,0,0,1,4.4-.49,5.4,5.4,0,0,1,3.46,1A3.16,3.16,0,0,1,174.42,24a4.09,4.09,0,0,1-1.37,2.92A9.52,9.52,0,0,1,169.61,29q-.26.1-.26.22A11.59,11.59,0,0,0,171.47,31a46.34,46.34,0,0,0,3.89,2.73.85.85,0,0,1,.16,1.46,1,1,0,0,1-.64.32,4.06,4.06,0,0,1-1.93-1q-1.33-1-2.75-2.21a19.05,19.05,0,0,0-3.45-2.61,2.14,2.14,0,0,1-1-.19.67.67,0,0,1-.29-.63.86.86,0,0,1,.37-.68,1.36,1.36,0,0,1,.87-.29,4.64,4.64,0,0,1,.55.05,3.9,3.9,0,0,0,.56.06,6.78,6.78,0,0,0,2.8-1.22,3.45,3.45,0,0,0,2-2.87,1.81,1.81,0,0,0-.89-1.5,3.83,3.83,0,0,0-2.26-.63,14.77,14.77,0,0,0-2.05.14,8.42,8.42,0,0,0-1.31.25.86.86,0,0,0-.46.53,21.18,21.18,0,0,0-.58,2.71q-.41,2.29-.64,4.32a29.6,29.6,0,0,0-.23,3,7,7,0,0,0,.1,1.28,5.48,5.48,0,0,1,.09.87.94.94,0,0,1-.32.64,1,1,0,0,1-.7.33q-1.08,0-1.08-1.74a55.7,55.7,0,0,1,1.45-10.94,3.83,3.83,0,0,0,.07-.42.43.43,0,0,0-.07-.18,2.27,2.27,0,0,1-.41-.86.83.83,0,0,1,.38-.68,1.18,1.18,0,0,1,.69-.29Z"/><path class="cls-1" d="M186.22,31.86q0,1-1.85,2.52a6.07,6.07,0,0,1-3.82,1.48,3.29,3.29,0,0,1-2.55-1,3.86,3.86,0,0,1-.9-2.72,9.17,9.17,0,0,1,2-5.58q2-2.65,4.33-2.65a1.69,1.69,0,0,1,1.74,1.71,4.16,4.16,0,0,1-1.55,3,19.85,19.85,0,0,1-4.14,2.84.82.82,0,0,0-.53.72,1.89,1.89,0,0,0,.49,1.36,1.93,1.93,0,0,0,1.46.51q2.2,0,4.5-2.44.34-.34.51-.34Q186.22,31.33,186.22,31.86Zm-7.13-1.6q4.35-2.58,4.35-4.15,0-.62-.55-.62a3.16,3.16,0,0,0-2.13,1.38A8,8,0,0,0,179.09,30.26Z"/><path class="cls-1" d="M196.48,28.55q-.29,0-1.38,2.39a33.13,33.13,0,0,1-1.85,3.49Q192.31,36,191.86,36q-1.27,0-2.35-3.78a23.32,23.32,0,0,1-1.08-6.09,2,2,0,0,1,.37-1.24,1.22,1.22,0,0,1,.89-.53h.26c.12,0,.27.12.45.34a1,1,0,0,1,.27.63v0q0,.12-.11,1a12.15,12.15,0,0,0-.09,1.63,11.26,11.26,0,0,0,.58,3.37q.58,1.85,1,1.85t1.9-3.12q1-2,1.46-2.73l.33-.62a6,6,0,0,1,1.34-1.87q.88.11.88.88a1.92,1.92,0,0,1,0,.43,1.92,1.92,0,0,0,0,.43,9.27,9.27,0,0,0,1,4q1,2.08,1.4,2.08t1-2.17a28,28,0,0,1,1.67-4.43A6.5,6.5,0,0,1,204,24.32a1.29,1.29,0,0,1,.81-.28.54.54,0,0,1,.44.22.74.74,0,0,1,.18.48.88.88,0,0,1-.11.52,18.43,18.43,0,0,0-2.44,5.22q-1,3-1.36,3.82t-.62.78a2.57,2.57,0,0,1-2-.91,17.63,17.63,0,0,1-2.09-4.82Q196.62,28.89,196.48,28.55Z"/><path class="cls-1" d="M208.82,33.06a8.21,8.21,0,0,0,.22,1.75,1.47,1.47,0,0,1,0,.31q0,.18-.34.48a1.09,1.09,0,0,1-.72.29q-1,0-1-1.83a35.81,35.81,0,0,1,.78-6,14.36,14.36,0,0,0,.27-1.75,2.37,2.37,0,0,1,.24-1.1.73.73,0,0,1,.67-.46,1.25,1.25,0,0,1,.83.25.72.72,0,0,1,.3.56,3.11,3.11,0,0,1-.14.81,38.17,38.17,0,0,0-1,3.88A18.09,18.09,0,0,0,208.82,33.06Zm1.34-11.45q-.22,0-.33-.46a3,3,0,0,0-.11-.32,3.1,3.1,0,0,1-.28-1.16,1.17,1.17,0,0,1,.49-.84A1.61,1.61,0,0,1,211,18.4a1.29,1.29,0,0,1,.67.23q.37.23.37.45a4.57,4.57,0,0,1-.25,1.15,1.72,1.72,0,0,1-.8,1.09A2.06,2.06,0,0,1,210.17,21.6Z"/><path class="cls-1" d="M219.92,27.45a1.71,1.71,0,0,0-1.16.7,18.46,18.46,0,0,0-1.92,3.13,20.68,20.68,0,0,1-2.2,3.71,1.39,1.39,0,0,1-.83.45,1.05,1.05,0,0,1-1.21-1.17,8.39,8.39,0,0,1,.16-1.39,36.42,36.42,0,0,0,.56-6.53,1.56,1.56,0,0,1,.33-.87q.33-.48.63-.48a.85.85,0,0,1,.76.33,2.6,2.6,0,0,1,.23,1.32,29.29,29.29,0,0,1-.62,4.27,10,10,0,0,0-.21,1.35q0,.16.08.16A11.79,11.79,0,0,0,216,30a16,16,0,0,1,2.25-3.51,2.89,2.89,0,0,1,2.12-1,1.75,1.75,0,0,1,1.5.84,7.35,7.35,0,0,1,.85,3.07,18.29,18.29,0,0,0,.52,3.15q.23.62.73.62a2,2,0,0,0,.8-.23l.12,0q.44,0,.44.51a1.36,1.36,0,0,1-.6,1,2.19,2.19,0,0,1-1.46.51,1.54,1.54,0,0,1-1.35-.69,10,10,0,0,1-.75-3.7Q220.84,27.45,219.92,27.45Z"/><path class="cls-1" d="M234.21,31.09a12.85,12.85,0,0,1-2.91,3.4,4.76,4.76,0,0,1-2.83,1.19,1.87,1.87,0,0,1-1.57-.76,3.29,3.29,0,0,1-.58-2,8.76,8.76,0,0,1,2.11-5.32q2.11-2.73,4.55-2.73a2.76,2.76,0,0,1,2,.91L236.39,19a1.32,1.32,0,0,1,.57-.92,1.46,1.46,0,0,1,.65-.24q.72,0,.72,1.27a10.77,10.77,0,0,1-.47,1.68,49.25,49.25,0,0,0-1.42,5.54,27.75,27.75,0,0,0-.67,5.28q0,2.05.89,2.05a2.27,2.27,0,0,0,1.19-.38.84.84,0,0,1,.48-.18q.33,0,.33.43t-.92,1.21a3.11,3.11,0,0,1-1.88.69q-1.69,0-1.69-3.26Q234.16,31.65,234.21,31.09Zm-1.34-4.8q-1.66,0-3.29,2.25a7.26,7.26,0,0,0-1.63,4.16q0,1.28.85,1.28a3.53,3.53,0,0,0,1.94-.84,10.39,10.39,0,0,0,2.35-2.68,6,6,0,0,0,1.21-2.76,1.44,1.44,0,0,0-.42-.93A1.3,1.3,0,0,0,232.87,26.29Z"/><path class="cls-1" d="M257.26,28.55q-.29,0-1.38,2.39A33.13,33.13,0,0,1,254,34.43Q253.09,36,252.65,36q-1.27,0-2.35-3.78a23.32,23.32,0,0,1-1.08-6.09,2,2,0,0,1,.37-1.24,1.22,1.22,0,0,1,.89-.53h.26c.12,0,.27.12.45.34a1,1,0,0,1,.27.63v0q0,.12-.11,1a12.15,12.15,0,0,0-.09,1.63,11.26,11.26,0,0,0,.58,3.37q.58,1.85,1,1.85t1.9-3.12q1-2,1.46-2.73l.33-.62a6,6,0,0,1,1.34-1.87q.88.11.88.88a1.92,1.92,0,0,1,0,.43,1.92,1.92,0,0,0,0,.43,9.27,9.27,0,0,0,1,4q1,2.08,1.4,2.08t1-2.17a28,28,0,0,1,1.67-4.43,6.5,6.5,0,0,1,1.12-1.75,1.29,1.29,0,0,1,.81-.28.54.54,0,0,1,.44.22.74.74,0,0,1,.18.48.88.88,0,0,1-.11.52,18.43,18.43,0,0,0-2.44,5.22q-1,3-1.36,3.82t-.62.78a2.57,2.57,0,0,1-2-.91,17.63,17.63,0,0,1-2.09-4.82Q257.41,28.89,257.26,28.55Z"/><path class="cls-1" d="M269.61,33.06a8.21,8.21,0,0,0,.22,1.75,1.47,1.47,0,0,1,0,.31q0,.18-.34.48a1.09,1.09,0,0,1-.72.29q-1,0-1-1.83a35.81,35.81,0,0,1,.78-6,14.36,14.36,0,0,0,.27-1.75,2.37,2.37,0,0,1,.24-1.1.73.73,0,0,1,.67-.46,1.25,1.25,0,0,1,.83.25.72.72,0,0,1,.3.56,3.11,3.11,0,0,1-.14.81,38.17,38.17,0,0,0-1,3.88A18.09,18.09,0,0,0,269.61,33.06ZM271,21.6q-.22,0-.33-.46a3,3,0,0,0-.11-.32,3.1,3.1,0,0,1-.28-1.16,1.17,1.17,0,0,1,.49-.84,1.61,1.61,0,0,1,1.08-.43,1.29,1.29,0,0,1,.67.23q.37.23.37.45a4.57,4.57,0,0,1-.25,1.15,1.72,1.72,0,0,1-.8,1.09A2.06,2.06,0,0,1,271,21.6Z"/><path class="cls-1" d="M277.31,18q.74,0,.74.94a20.92,20.92,0,0,1-.89,4,30.21,30.21,0,0,0-.87,4.39,31.48,31.48,0,0,0-.31,3.76,26.29,26.29,0,0,0,.22,3.36,4.07,4.07,0,0,1,0,.46,1.24,1.24,0,0,1-.35.88,1,1,0,0,1-.74.37q-.54,0-.75-.68a8.09,8.09,0,0,1-.21-2.18,54.65,54.65,0,0,1,.83-8.51,28.22,28.22,0,0,1,1.31-5.94Q276.81,18,277.31,18Z"/><path class="cls-1" d="M283.32,18q.74,0,.74.94a20.92,20.92,0,0,1-.89,4,30.21,30.21,0,0,0-.87,4.39,31.48,31.48,0,0,0-.31,3.76,26.29,26.29,0,0,0,.22,3.36,4.07,4.07,0,0,1,0,.46,1.24,1.24,0,0,1-.35.88,1,1,0,0,1-.74.37q-.54,0-.75-.68a8.09,8.09,0,0,1-.21-2.18,54.65,54.65,0,0,1,.83-8.51,28.22,28.22,0,0,1,1.31-5.94Q282.82,18,283.32,18Z"/><path class="cls-1" d="M296.21,31.26q.1-.18.25-.51a18.28,18.28,0,0,1,1.28-2.51A16.64,16.64,0,0,1,299,26.5a8.07,8.07,0,0,1,1.28-1.26,4.2,4.2,0,0,1,1.05-.6,2.68,2.68,0,0,1,.91-.17,2,2,0,0,1,1.46.54,1.68,1.68,0,0,1,.56,1.26.91.91,0,0,1-.2.57.73.73,0,0,1-.61.26,1.07,1.07,0,0,1-.79-.38,1.08,1.08,0,0,0-.77-.38q-1.07,0-3,2.58a12.23,12.23,0,0,0-2.3,5.69,1.73,1.73,0,0,1-.39,1.06,1.18,1.18,0,0,1-.81.26q-.5,0-.73-.75a9.79,9.79,0,0,1-.23-2.52q0-.48.05-2.12a26.78,26.78,0,0,1,.25-3.13q0-.19.1-.91a5.27,5.27,0,0,1,.18-1.1,1.31,1.31,0,0,1,.44-.57,1.13,1.13,0,0,1,.72-.27.68.68,0,0,1,.57.24.83.83,0,0,1,.19.52,4.5,4.5,0,0,1-.21,1.13,9.26,9.26,0,0,0-.28,1.12,5.91,5.91,0,0,1-.11.73,19.38,19.38,0,0,0-.21,2.32v.66Z"/><path class="cls-1" d="M313.71,31.86q0,1-1.85,2.52A6.07,6.07,0,0,1,308,35.86a3.29,3.29,0,0,1-2.55-1,3.86,3.86,0,0,1-.9-2.72,9.17,9.17,0,0,1,2-5.58q2-2.65,4.33-2.65a1.69,1.69,0,0,1,1.74,1.71,4.16,4.16,0,0,1-1.55,3A19.85,19.85,0,0,1,307,31.52a.82.82,0,0,0-.53.72,1.89,1.89,0,0,0,.49,1.36,1.93,1.93,0,0,0,1.46.51q2.2,0,4.5-2.44.34-.34.51-.34Q313.71,31.33,313.71,31.86Zm-7.13-1.6q4.35-2.58,4.35-4.15,0-.62-.55-.62a3.16,3.16,0,0,0-2.13,1.38A8,8,0,0,0,306.59,30.26Z"/><path class="cls-1" d="M323.6,27.22q-1,0-4.08,5.65a19.27,19.27,0,0,1-1.23,2.07,1.58,1.58,0,0,1-.64.3,2.94,2.94,0,0,1-.77.13q-.69,0-.69-2.68a40.38,40.38,0,0,1,.65-5.46A16,16,0,0,0,317.1,25q0-.68.61-.68,1.14,0,1.14,1.64a22.54,22.54,0,0,1-.38,3Q318,31.5,318,32.05a14.76,14.76,0,0,0,1.87-2.7,20.06,20.06,0,0,1,2.57-3.61,2.51,2.51,0,0,1,1.71-.76q.67,0,1.06.89a14.5,14.5,0,0,1,.48,4.26,4.72,4.72,0,0,0,.15,1.25q.13.41.19.41.48,0,2.09-3.28a11.86,11.86,0,0,1,1.68-2.64,2.41,2.41,0,0,1,1.81-.9,1.26,1.26,0,0,1,1.21.86,8.65,8.65,0,0,1,.54,2.54,23.51,23.51,0,0,0,.48,3.12A2.43,2.43,0,0,0,335,33.29q.58.28.58.65a1,1,0,0,1-.49.74,1.53,1.53,0,0,1-.9.38,1.8,1.8,0,0,1-1.47-1,11.45,11.45,0,0,1-1-4.35,17.55,17.55,0,0,0-.28-1.91q-.13-.56-.42-.56t-1,.82a33.1,33.1,0,0,0-1.9,3.33A18.2,18.2,0,0,1,326.61,34a1.42,1.42,0,0,1-1,.65,1.08,1.08,0,0,1-.79-.35,1.6,1.6,0,0,1-.44-.85q-.09-.5-.19-2.45Q324,27.76,323.6,27.22Z"/><path class="cls-1" d="M340.43,35.85a2.92,2.92,0,0,1-2.32-1.07,3.91,3.91,0,0,1-.91-2.64A9.08,9.08,0,0,1,339,26.93a5.13,5.13,0,0,1,4.26-2.57,3.26,3.26,0,0,1,2.66,1.26,4.63,4.63,0,0,1,1,3,7.15,7.15,0,0,1-2.11,4.94A6,6,0,0,1,340.43,35.85Zm-1.42-4a3,3,0,0,0,.44,1.69,1.33,1.33,0,0,0,1.15.66,4.3,4.3,0,0,0,3.07-1.68,5.39,5.39,0,0,0,1.54-3.73,3.32,3.32,0,0,0-.59-2A1.88,1.88,0,0,0,343,26a3.37,3.37,0,0,0-2.83,2A7.67,7.67,0,0,0,339,31.88Z"/><path class="cls-1" d="M351.28,35.46a12.63,12.63,0,0,0-.87-3.08,22.82,22.82,0,0,1-1.69-6.44q0-1.45,1-1.45t.94,1.29a14.81,14.81,0,0,0,.07,1.63,16.56,16.56,0,0,0,.49,2.08q.42,1.51.92,2.8.26.68.37,1,.22-.33.55-.9,1.8-3,2.88-4.68a20.47,20.47,0,0,1,1.75-2.39,4.15,4.15,0,0,1,1-.9,1.52,1.52,0,0,1,.65-.15.77.77,0,0,1,.63.29,1,1,0,0,1,.23.66q0,.48-.84,1A12.12,12.12,0,0,0,357,29a50.5,50.5,0,0,0-3.32,5.47q-.91,1.68-1.4,1.68T351.28,35.46Z"/><path class="cls-1" d="M369.55,31.86q0,1-1.85,2.52a6.07,6.07,0,0,1-3.82,1.48,3.29,3.29,0,0,1-2.55-1,3.86,3.86,0,0,1-.9-2.72,9.17,9.17,0,0,1,2-5.58q2-2.65,4.33-2.65a1.69,1.69,0,0,1,1.74,1.71,4.16,4.16,0,0,1-1.55,3,19.85,19.85,0,0,1-4.14,2.84.82.82,0,0,0-.53.72,1.89,1.89,0,0,0,.49,1.36,1.93,1.93,0,0,0,1.46.51q2.2,0,4.5-2.44.34-.34.51-.34Q369.55,31.33,369.55,31.86Zm-7.13-1.6q4.35-2.58,4.35-4.15,0-.62-.55-.62a3.16,3.16,0,0,0-2.13,1.38A8,8,0,0,0,362.43,30.26Z"/><path class="cls-1" d="M387,31.6a12.56,12.56,0,0,1-2.84,2.89,4.66,4.66,0,0,1-2.57,1,1.75,1.75,0,0,1-1.36-.67,2.53,2.53,0,0,1-.57-1.71,9.73,9.73,0,0,1,2.41-5.81q2.41-3.11,4.79-3.11a1.37,1.37,0,0,1,1.28,1,.45.45,0,0,0,.42.33q.82,0,.82.64a5.09,5.09,0,0,1-.1.87,27.68,27.68,0,0,0-.55,4.27q0,2.48.94,3a.71.71,0,0,1,.45.6.86.86,0,0,1-.44.64,1.45,1.45,0,0,1-.85.32q-.79,0-1.3-1.09A7.46,7.46,0,0,1,387,31.6Zm-.62-5.77q-1.35,0-3.15,2.54a7.94,7.94,0,0,0-1.79,4.21q0,1.18.78,1.18,1.13,0,3.13-2.28a6.64,6.64,0,0,0,2-4.18Q387.35,25.83,386.38,25.83Z"/><path class="cls-1" d="M399.4,27.45a1.71,1.71,0,0,0-1.16.7,18.45,18.45,0,0,0-1.92,3.13,20.72,20.72,0,0,1-2.2,3.71,1.4,1.4,0,0,1-.83.45,1.05,1.05,0,0,1-1.21-1.17,8.39,8.39,0,0,1,.16-1.39,36.42,36.42,0,0,0,.56-6.53,1.56,1.56,0,0,1,.33-.87q.33-.48.63-.48a.85.85,0,0,1,.76.33,2.6,2.6,0,0,1,.23,1.32,29.29,29.29,0,0,1-.62,4.27,10,10,0,0,0-.21,1.35q0,.16.08.16A11.77,11.77,0,0,0,395.45,30a16,16,0,0,1,2.25-3.51,2.89,2.89,0,0,1,2.12-1,1.76,1.76,0,0,1,1.5.84,7.34,7.34,0,0,1,.85,3.07,18.31,18.31,0,0,0,.52,3.15q.23.62.73.62a2,2,0,0,0,.8-.23l.12,0c.29,0,.44.17.44.51a1.37,1.37,0,0,1-.61,1,2.2,2.2,0,0,1-1.46.51,1.54,1.54,0,0,1-1.35-.69,10,10,0,0,1-.75-3.7Q400.33,27.45,399.4,27.45Z"/><path class="cls-1" d="M413.33,27.45a1.71,1.71,0,0,0-1.16.7,18.45,18.45,0,0,0-1.92,3.13A20.66,20.66,0,0,1,408,35a1.39,1.39,0,0,1-.83.45A1.05,1.05,0,0,1,406,34.27a8.39,8.39,0,0,1,.16-1.39,36.42,36.42,0,0,0,.56-6.53,1.56,1.56,0,0,1,.33-.87q.33-.48.63-.48a.86.86,0,0,1,.76.33,2.61,2.61,0,0,1,.22,1.32,29.29,29.29,0,0,1-.62,4.27,10,10,0,0,0-.21,1.35q0,.16.08.16A11.72,11.72,0,0,0,409.37,30a16,16,0,0,1,2.25-3.51,2.88,2.88,0,0,1,2.12-1,1.75,1.75,0,0,1,1.5.84,7.36,7.36,0,0,1,.85,3.07,18.21,18.21,0,0,0,.52,3.15q.23.62.73.62a2,2,0,0,0,.8-.23l.12,0c.29,0,.44.17.44.51a1.37,1.37,0,0,1-.6,1,2.2,2.2,0,0,1-1.46.51,1.54,1.54,0,0,1-1.35-.69,10,10,0,0,1-.75-3.7Q414.25,27.45,413.33,27.45Z"/><path class="cls-1" d="M423.26,35.85a2.91,2.91,0,0,1-2.32-1.07,3.91,3.91,0,0,1-.91-2.64,9.08,9.08,0,0,1,1.78-5.21,5.13,5.13,0,0,1,4.26-2.57,3.26,3.26,0,0,1,2.66,1.26,4.63,4.63,0,0,1,1,3,7.15,7.15,0,0,1-2.11,4.94A6,6,0,0,1,423.26,35.85Zm-1.42-4a3,3,0,0,0,.44,1.69,1.33,1.33,0,0,0,1.15.66,4.3,4.3,0,0,0,3.07-1.68A5.39,5.39,0,0,0,428,28.82a3.31,3.31,0,0,0-.59-2,1.88,1.88,0,0,0-1.58-.78A3.37,3.37,0,0,0,423,28,7.67,7.67,0,0,0,421.84,31.88Z"/><path class="cls-1" d="M439.72,31.71a17.88,17.88,0,0,1-3.32,2.38,5.34,5.34,0,0,1-2.19.74,1.73,1.73,0,0,1-1.55-.85,3.59,3.59,0,0,1-.54-2,15.15,15.15,0,0,1,.64-3.9,12.5,12.5,0,0,1,1-2.76,1.15,1.15,0,0,1,1-.44.54.54,0,0,1,.47.34,1.58,1.58,0,0,1,.18.77,1.45,1.45,0,0,1-.24.67,11.64,11.64,0,0,0-.58,1.07q0,.1-.39,1.24a6.89,6.89,0,0,0-.37,2.13,5.49,5.49,0,0,0,.17,1.09c.11.49.35.74.7.74a3.76,3.76,0,0,0,1.39-.34,8.85,8.85,0,0,0,1.86-1.12,7.34,7.34,0,0,0,1.39-1.26,3,3,0,0,0,.51-1.1,16.73,16.73,0,0,0,.21-2.67q.06-2.05,1-2.05c.37,0,.61.1.72.29a2.54,2.54,0,0,1,.16,1.11q0,.68-.09,1.69-.11,1.28-.14,1.83a37.17,37.17,0,0,1-.73,5.67,15.59,15.59,0,0,1-1.72,4.76,3.47,3.47,0,0,1-3.11,1.91,6.26,6.26,0,0,1-3.57-1.05Q431,39.57,431,38.84a1.52,1.52,0,0,1,.16-.67q.16-.33.41-.33t.27.19A4.68,4.68,0,0,0,436,40.1q1.49,0,2.5-2.61a15.57,15.57,0,0,0,1.11-4.9Q439.66,32.15,439.72,31.71Z"/><path class="cls-1" d="M446.51,33.06a8.27,8.27,0,0,0,.21,1.75,1.47,1.47,0,0,1,0,.31q0,.18-.34.48a1.09,1.09,0,0,1-.72.29q-1,0-1-1.83a35.81,35.81,0,0,1,.78-6,14.45,14.45,0,0,0,.27-1.75,2.37,2.37,0,0,1,.24-1.1.73.73,0,0,1,.67-.46,1.26,1.26,0,0,1,.83.25.72.72,0,0,1,.3.56,3.14,3.14,0,0,1-.14.81,37.94,37.94,0,0,0-1,3.88A18.09,18.09,0,0,0,446.51,33.06Zm1.34-11.45q-.22,0-.33-.46a3.29,3.29,0,0,0-.11-.32,3.1,3.1,0,0,1-.28-1.16,1.17,1.17,0,0,1,.49-.84,1.61,1.61,0,0,1,1.08-.43,1.29,1.29,0,0,1,.67.23q.37.23.37.45a4.56,4.56,0,0,1-.25,1.15,1.71,1.71,0,0,1-.8,1.09A2.06,2.06,0,0,1,447.85,21.6Z"/><path class="cls-1" d="M457.6,27.45a1.71,1.71,0,0,0-1.16.7,18.45,18.45,0,0,0-1.92,3.13,20.66,20.66,0,0,1-2.2,3.71,1.39,1.39,0,0,1-.83.45,1.05,1.05,0,0,1-1.21-1.17,8.39,8.39,0,0,1,.16-1.39,36.42,36.42,0,0,0,.56-6.53,1.56,1.56,0,0,1,.33-.87q.33-.48.63-.48a.86.86,0,0,1,.76.33,2.61,2.61,0,0,1,.22,1.32,29.29,29.29,0,0,1-.62,4.27,10,10,0,0,0-.21,1.35q0,.16.08.16A11.72,11.72,0,0,0,453.65,30a16,16,0,0,1,2.25-3.51,2.88,2.88,0,0,1,2.12-1,1.75,1.75,0,0,1,1.5.84,7.36,7.36,0,0,1,.85,3.07,18.21,18.21,0,0,0,.52,3.15q.23.62.73.62a2,2,0,0,0,.8-.23l.12,0c.29,0,.44.17.44.51a1.37,1.37,0,0,1-.6,1,2.2,2.2,0,0,1-1.46.51,1.54,1.54,0,0,1-1.35-.69,10,10,0,0,1-.75-3.7Q458.53,27.45,457.6,27.45Z"/><path class="cls-1" d="M471.8,31.62q-.12-.09-.69.57a9.19,9.19,0,0,1-2.38,1.95A5.38,5.38,0,0,1,466,35a1.85,1.85,0,0,1-1.45-.58,2.31,2.31,0,0,1-.52-1.6,6.92,6.92,0,0,1,1.2-3.54,11.21,11.21,0,0,1,3.36-3.41,7.07,7.07,0,0,1,3.78-1.46,2.4,2.4,0,0,1,1.5.49l.27.21a1.24,1.24,0,0,1,.35.54,1.85,1.85,0,0,1,.16.65,1.59,1.59,0,0,1-.11.47,19.89,19.89,0,0,0-.85,2.82q-.23,1.12-.49,3.76a34,34,0,0,1-.53,3.66,8,8,0,0,1-1,2.48,5.16,5.16,0,0,1-1.79,1.8,4.27,4.27,0,0,1-2.15.6,6.49,6.49,0,0,1-3.78-1.32q-1.87-1.32-1.87-2.12,0-.5.38-.5a3.83,3.83,0,0,1,1.1.6,8.05,8.05,0,0,0,4.34,1.61,2.76,2.76,0,0,0,2.56-1.79,16,16,0,0,0,1.2-5.36Q471.69,32.19,471.8,31.62Zm0-5.63a4.15,4.15,0,0,0-2.18.9,10.55,10.55,0,0,0-2.54,2.65,5.48,5.48,0,0,0-1.23,2.92.82.82,0,0,0,.81.86,4.85,4.85,0,0,0,2.38-.94,8.34,8.34,0,0,0,2.53-2.62,5.52,5.52,0,0,0,1.06-2.63Q472.62,26,471.78,26Z"/><path class="cls-1" d="M172,56.8a12.56,12.56,0,0,1-2.84,2.89,4.66,4.66,0,0,1-2.57,1,1.75,1.75,0,0,1-1.36-.67,2.53,2.53,0,0,1-.57-1.71,9.73,9.73,0,0,1,2.41-5.81q2.41-3.11,4.79-3.11a1.37,1.37,0,0,1,1.28,1,.44.44,0,0,0,.42.33q.82,0,.82.64a5.09,5.09,0,0,1-.1.87,27.68,27.68,0,0,0-.55,4.27q0,2.48.94,3a.71.71,0,0,1,.45.6.86.86,0,0,1-.44.64,1.45,1.45,0,0,1-.85.32q-.79,0-1.3-1.09A7.46,7.46,0,0,1,172,56.8ZM171.41,51q-1.35,0-3.15,2.54a8,8,0,0,0-1.79,4.21q0,1.18.78,1.18,1.13,0,3.13-2.28a6.64,6.64,0,0,0,2-4.18Q172.38,51,171.41,51Z"/><path class="cls-1" d="M184.8,56.29a12.85,12.85,0,0,1-2.91,3.4,4.76,4.76,0,0,1-2.83,1.19,1.87,1.87,0,0,1-1.57-.76,3.29,3.29,0,0,1-.58-2A8.76,8.76,0,0,1,179,52.76Q181.12,50,183.56,50a2.76,2.76,0,0,1,2,.91L187,44.24a1.32,1.32,0,0,1,.57-.92,1.46,1.46,0,0,1,.65-.24q.72,0,.72,1.27a10.77,10.77,0,0,1-.47,1.68A49.25,49.25,0,0,0,187,51.58a27.75,27.75,0,0,0-.67,5.28q0,2.05.89,2.05a2.27,2.27,0,0,0,1.19-.38.84.84,0,0,1,.48-.18q.33,0,.33.43T188.33,60a3.11,3.11,0,0,1-1.88.69q-1.69,0-1.69-3.26Q184.75,56.85,184.8,56.29Zm-1.34-4.8q-1.66,0-3.29,2.25a7.26,7.26,0,0,0-1.63,4.16q0,1.28.85,1.28a3.53,3.53,0,0,0,1.94-.84,10.39,10.39,0,0,0,2.35-2.68,6,6,0,0,0,1.21-2.76,1.44,1.44,0,0,0-.42-.93A1.3,1.3,0,0,0,183.46,51.49Z"/><path class="cls-1" d="M196.49,58.19q0-.67-1.64-1.52A15.44,15.44,0,0,1,192,55a1.87,1.87,0,0,1-.73-1.43,4,4,0,0,1,2-3.38,6.65,6.65,0,0,1,3.34-1.34,2,2,0,0,1,1.2.29,1.18,1.18,0,0,1,.37,1,.68.68,0,0,1-.27.54.79.79,0,0,1-.43.23,1.37,1.37,0,0,1-.44-.15,1.47,1.47,0,0,0-.43-.14,6.54,6.54,0,0,0-2.08.75Q193,52.05,193,53a1.35,1.35,0,0,0,.55,1,9.88,9.88,0,0,0,2,1.14,7.6,7.6,0,0,1,1.85,1.18,1.94,1.94,0,0,1,.69,1.48q0,1.57-2.16,2.46a10.9,10.9,0,0,1-4.13.89q-1.66,0-1.66-1.13a.6.6,0,0,1,.37-.57,1.69,1.69,0,0,1,.75-.18,3.12,3.12,0,0,1,.58.1,3,3,0,0,0,.55.1,8.75,8.75,0,0,0,2.44-.38A2.61,2.61,0,0,0,196.49,58.19Z"/><path class="cls-1" d="M210.6,58.26a8.21,8.21,0,0,0,.22,1.75,1.47,1.47,0,0,1,0,.31q0,.18-.34.48a1.09,1.09,0,0,1-.72.29q-1,0-1-1.83a35.81,35.81,0,0,1,.78-6,14.36,14.36,0,0,0,.27-1.75,2.37,2.37,0,0,1,.24-1.1.73.73,0,0,1,.67-.46,1.25,1.25,0,0,1,.83.25.72.72,0,0,1,.3.56,3.11,3.11,0,0,1-.14.81,38.17,38.17,0,0,0-1,3.88A18.09,18.09,0,0,0,210.6,58.26Zm1.34-11.45q-.22,0-.33-.46a3,3,0,0,0-.11-.32,3.1,3.1,0,0,1-.28-1.16,1.17,1.17,0,0,1,.49-.84,1.61,1.61,0,0,1,1.08-.43,1.29,1.29,0,0,1,.67.23q.37.23.37.45a4.57,4.57,0,0,1-.25,1.15,1.72,1.72,0,0,1-.8,1.09A2.06,2.06,0,0,1,211.95,46.8Z"/><path class="cls-1" d="M221.7,52.65a1.71,1.71,0,0,0-1.16.7,18.46,18.46,0,0,0-1.92,3.13,20.68,20.68,0,0,1-2.2,3.71,1.39,1.39,0,0,1-.83.45,1.05,1.05,0,0,1-1.21-1.17,8.39,8.39,0,0,1,.16-1.39,36.42,36.42,0,0,0,.56-6.53,1.56,1.56,0,0,1,.33-.87q.33-.48.63-.48a.85.85,0,0,1,.76.33,2.6,2.6,0,0,1,.23,1.32,29.29,29.29,0,0,1-.62,4.27,10,10,0,0,0-.21,1.35q0,.16.08.16a11.79,11.79,0,0,0,1.43-2.45A16,16,0,0,1,220,51.67a2.89,2.89,0,0,1,2.12-1,1.75,1.75,0,0,1,1.5.84,7.35,7.35,0,0,1,.85,3.07,18.29,18.29,0,0,0,.52,3.15q.23.62.73.62a2,2,0,0,0,.8-.23l.12,0q.44,0,.44.51a1.36,1.36,0,0,1-.6,1,2.19,2.19,0,0,1-1.46.51,1.54,1.54,0,0,1-1.35-.69,10,10,0,0,1-.75-3.7Q222.62,52.65,221.7,52.65Z"/><path class="cls-1" d="M233.8,58.19q0-.67-1.64-1.52A15.44,15.44,0,0,1,229.34,55a1.87,1.87,0,0,1-.73-1.43,4,4,0,0,1,2-3.38A6.65,6.65,0,0,1,234,48.8a2,2,0,0,1,1.2.29,1.18,1.18,0,0,1,.37,1,.68.68,0,0,1-.27.54.79.79,0,0,1-.43.23,1.37,1.37,0,0,1-.44-.15,1.47,1.47,0,0,0-.43-.14,6.54,6.54,0,0,0-2.08.75q-1.57.75-1.57,1.69a1.35,1.35,0,0,0,.55,1,9.88,9.88,0,0,0,2,1.14,7.6,7.6,0,0,1,1.85,1.18,1.94,1.94,0,0,1,.69,1.48q0,1.57-2.16,2.46a10.9,10.9,0,0,1-4.13.89q-1.66,0-1.66-1.13a.6.6,0,0,1,.37-.57,1.69,1.69,0,0,1,.75-.18,3.12,3.12,0,0,1,.58.1,3,3,0,0,0,.55.1,8.75,8.75,0,0,0,2.44-.38A2.61,2.61,0,0,0,233.8,58.19Z"/><path class="cls-1" d="M239.51,58.26a8.21,8.21,0,0,0,.22,1.75,1.47,1.47,0,0,1,0,.31q0,.18-.34.48a1.09,1.09,0,0,1-.72.29q-1,0-1-1.83a35.81,35.81,0,0,1,.78-6,14.36,14.36,0,0,0,.27-1.75,2.37,2.37,0,0,1,.24-1.1.73.73,0,0,1,.67-.46,1.25,1.25,0,0,1,.83.25.72.72,0,0,1,.3.56,3.11,3.11,0,0,1-.14.81,38.17,38.17,0,0,0-1,3.88A18.09,18.09,0,0,0,239.51,58.26Zm1.34-11.45q-.22,0-.33-.46a3,3,0,0,0-.11-.32,3.1,3.1,0,0,1-.28-1.16,1.17,1.17,0,0,1,.49-.84,1.61,1.61,0,0,1,1.08-.43,1.29,1.29,0,0,1,.67.23q.37.23.37.45a4.57,4.57,0,0,1-.25,1.15,1.72,1.72,0,0,1-.8,1.09A2.06,2.06,0,0,1,240.85,46.8Z"/><path class="cls-1" d="M251,56.29a12.85,12.85,0,0,1-2.91,3.4,4.76,4.76,0,0,1-2.83,1.19,1.87,1.87,0,0,1-1.57-.76,3.29,3.29,0,0,1-.58-2,8.76,8.76,0,0,1,2.11-5.32Q247.29,50,249.73,50a2.76,2.76,0,0,1,2,.91l1.44-6.71a1.32,1.32,0,0,1,.57-.92,1.46,1.46,0,0,1,.65-.24q.72,0,.72,1.27a10.77,10.77,0,0,1-.47,1.68,49.25,49.25,0,0,0-1.42,5.54,27.75,27.75,0,0,0-.67,5.28q0,2.05.89,2.05a2.27,2.27,0,0,0,1.19-.38.84.84,0,0,1,.48-.18q.33,0,.33.43T254.5,60a3.11,3.11,0,0,1-1.88.69q-1.69,0-1.69-3.26Q250.92,56.85,251,56.29Zm-1.34-4.8q-1.66,0-3.29,2.25a7.26,7.26,0,0,0-1.63,4.16q0,1.28.85,1.28a3.53,3.53,0,0,0,1.94-.84,10.39,10.39,0,0,0,2.35-2.68,6,6,0,0,0,1.21-2.76,1.44,1.44,0,0,0-.42-.93A1.3,1.3,0,0,0,249.63,51.49Z"/><path class="cls-1" d="M266.28,57.06q0,1-1.85,2.52a6.07,6.07,0,0,1-3.82,1.48,3.29,3.29,0,0,1-2.55-1,3.86,3.86,0,0,1-.9-2.72,9.17,9.17,0,0,1,2-5.58q2-2.65,4.33-2.65a1.69,1.69,0,0,1,1.74,1.71,4.16,4.16,0,0,1-1.55,3,19.85,19.85,0,0,1-4.14,2.84.82.82,0,0,0-.53.72,1.89,1.89,0,0,0,.49,1.36,1.93,1.93,0,0,0,1.46.51q2.2,0,4.5-2.44.34-.34.51-.34Q266.28,56.53,266.28,57.06Zm-7.13-1.6q4.35-2.58,4.35-4.15,0-.62-.55-.62a3.16,3.16,0,0,0-2.13,1.38A8,8,0,0,0,259.16,55.46Z"/><path class="cls-1" d="M281.89,53.39a30.73,30.73,0,0,1-2.24-2.75q-1-1.33-1.4-1.77a11.18,11.18,0,0,0-1.13-1,6.54,6.54,0,0,1-1.17-1.06,1.15,1.15,0,0,1-.22-.67q0-.16.32-.44a.94.94,0,0,1,.58-.27,2.86,2.86,0,0,1,1.65.94,17.45,17.45,0,0,1,1.86,2A24.17,24.17,0,0,0,283.27,52q.6-.67,1.27-1.36A55.77,55.77,0,0,0,288.67,46q.81-1.13,1.61-1.13a.54.54,0,0,1,.48.29,1.14,1.14,0,0,1,.17.59q0,.28-.77,1.19t-4.1,4.37a16.84,16.84,0,0,0-1.88,2.14,10.11,10.11,0,0,0-.53,2.8q-.26,2.32-.36,3.63a2.23,2.23,0,0,1-.16.9,1.17,1.17,0,0,1-.43.21,1.77,1.77,0,0,1-.52.11q-.77,0-.77-1.29a21.19,21.19,0,0,1,.33-2.84,21.13,21.13,0,0,0,.31-2.62A2.84,2.84,0,0,0,281.89,53.39Z"/><path class="cls-1" d="M292.68,61A2.92,2.92,0,0,1,290.36,60a3.91,3.91,0,0,1-.91-2.64,9.08,9.08,0,0,1,1.78-5.21,5.13,5.13,0,0,1,4.26-2.57,3.26,3.26,0,0,1,2.66,1.26,4.63,4.63,0,0,1,1,3,7.15,7.15,0,0,1-2.11,4.94A6,6,0,0,1,292.68,61Zm-1.43-4a3,3,0,0,0,.44,1.69,1.33,1.33,0,0,0,1.15.66,4.29,4.29,0,0,0,3.07-1.68A5.39,5.39,0,0,0,297.44,54a3.32,3.32,0,0,0-.59-2,1.88,1.88,0,0,0-1.58-.78,3.37,3.37,0,0,0-2.83,2A7.67,7.67,0,0,0,291.25,57.08Z"/><path class="cls-1" d="M308.79,56.07a14.21,14.21,0,0,1-2.69,3.41,4,4,0,0,1-2.55,1.21,1.93,1.93,0,0,1-1.38-.79,3.57,3.57,0,0,1-.7-2.43,18.11,18.11,0,0,1,.65-4,15,15,0,0,0,.54-3.07,1,1,0,0,1,.93-.62.85.85,0,0,1,.69.3,1,1,0,0,1,.26.63,6.3,6.3,0,0,1-.5,2,13.09,13.09,0,0,0-1,4.42q0,1.68.78,1.68,1,0,2.53-1.69A14.12,14.12,0,0,0,309,52.5a7,7,0,0,1,.7-1.57.87.87,0,0,1,.73-.36q.7,0,.7.92a4.62,4.62,0,0,1-.2.75,16.09,16.09,0,0,0-.62,4.25q0,2.4.79,3.11.41.38.41.62t-.42.52a1.56,1.56,0,0,1-.75.24q-.72,0-1.16-1.07a8.63,8.63,0,0,1-.44-3.15v-.34C308.78,56.3,308.79,56.19,308.79,56.07Z"/><path class="cls-1" d="M313.41,48.06a1.05,1.05,0,0,1-.11-.51.63.63,0,0,1,.33-.63,6.79,6.79,0,0,1,2-.18q2,0,3.67-.15t5-.6a18.13,18.13,0,0,1,2.44-.17,8.25,8.25,0,0,1,1.11.07,5.47,5.47,0,0,1,.75.14.6.6,0,0,1,.35.37,1.28,1.28,0,0,1,.13.47q0,.73-.51.73-.34,0-.92-.06T326,47.48q-1,0-2.54.15t-1.66.49a28.85,28.85,0,0,0-.54,4q-.37,3.66-.37,5.46a8.49,8.49,0,0,0,.26,1.92,2,2,0,0,1,0,.25,1.42,1.42,0,0,1-.25.82.71.71,0,0,1-.59.36,1,1,0,0,1-.89-.51,6.66,6.66,0,0,1-.35-2.87A83.3,83.3,0,0,1,320,48.8l0-.36q0-.35-.38-.35-.62,0-2.35.15t-2.47.16A2.05,2.05,0,0,1,313.41,48.06Z"/><path class="cls-1" d="M335.1,56.07a14.21,14.21,0,0,1-2.69,3.41,4,4,0,0,1-2.55,1.21,1.93,1.93,0,0,1-1.38-.79,3.57,3.57,0,0,1-.7-2.43,18.1,18.1,0,0,1,.65-4,15,15,0,0,0,.54-3.07,1,1,0,0,1,.93-.62.86.86,0,0,1,.69.3,1,1,0,0,1,.26.63,6.29,6.29,0,0,1-.5,2,13.09,13.09,0,0,0-1,4.42q0,1.68.78,1.68,1,0,2.53-1.69a14.12,14.12,0,0,0,2.63-4.72,7.05,7.05,0,0,1,.7-1.57.87.87,0,0,1,.73-.36q.7,0,.7.92a4.57,4.57,0,0,1-.19.75,16.09,16.09,0,0,0-.62,4.25q0,2.4.79,3.11.41.38.41.62t-.42.52a1.56,1.56,0,0,1-.75.24q-.72,0-1.16-1.07a8.63,8.63,0,0,1-.44-3.15v-.34C335.09,56.3,335.09,56.19,335.1,56.07Z"/><path class="cls-1" d="M342.54,54.7a12.9,12.9,0,0,1,3.14-3.87A5.48,5.48,0,0,1,349,49.35a1.67,1.67,0,0,1,1.37.75,3,3,0,0,1,.56,1.83,9,9,0,0,1-2.4,6q-2.41,2.79-5.08,2.79a2.42,2.42,0,0,1-1.34-.39,1.36,1.36,0,0,1-.68-1,1.12,1.12,0,0,0-.28-.72,1.32,1.32,0,0,1-.44-.94,31.55,31.55,0,0,1,.51-4l1.06-6.13a35.22,35.22,0,0,1,.79-3.81,2.15,2.15,0,0,1,.56-1,1.18,1.18,0,0,1,.76-.25q.72,0,.72,1.24a10.31,10.31,0,0,1-.79,3.3A51.63,51.63,0,0,0,342.54,54.7Zm-.25,3.41q.53,1,1.29,1a4.2,4.2,0,0,0,2.47-1,8.13,8.13,0,0,0,2.25-2.73,6.58,6.58,0,0,0,.95-3,2.07,2.07,0,0,0-.19-.93q-.19-.39-.49-.39-1.43,0-3.48,2.33A13.18,13.18,0,0,0,342.29,58.11Z"/><path class="cls-1" d="M361.66,57.06q0,1-1.85,2.52A6.07,6.07,0,0,1,356,61.06a3.29,3.29,0,0,1-2.55-1,3.86,3.86,0,0,1-.9-2.72,9.17,9.17,0,0,1,2-5.58q2-2.65,4.33-2.65a1.69,1.69,0,0,1,1.74,1.71,4.16,4.16,0,0,1-1.55,3,19.85,19.85,0,0,1-4.14,2.84.82.82,0,0,0-.53.72,1.89,1.89,0,0,0,.49,1.36,1.93,1.93,0,0,0,1.46.51q2.2,0,4.5-2.44.34-.34.51-.34Q361.66,56.53,361.66,57.06Zm-7.13-1.6q4.35-2.58,4.35-4.15,0-.62-.55-.62a3.16,3.16,0,0,0-2.13,1.38A8,8,0,0,0,354.54,55.46Z"/><path class="cls-1" d="M374.17,60.66a12.63,12.63,0,0,0-.87-3.08,22.82,22.82,0,0,1-1.69-6.44q0-1.45,1-1.45t.94,1.29a14.81,14.81,0,0,0,.07,1.63,16.56,16.56,0,0,0,.49,2.08q.42,1.51.92,2.8.26.68.37,1,.22-.33.55-.9,1.8-3,2.88-4.68a20.47,20.47,0,0,1,1.75-2.39,4.15,4.15,0,0,1,1-.9,1.52,1.52,0,0,1,.65-.15.77.77,0,0,1,.63.29,1,1,0,0,1,.23.66q0,.48-.84,1a12.12,12.12,0,0,0-2.33,2.68,50.5,50.5,0,0,0-3.32,5.47q-.91,1.68-1.4,1.68T374.17,60.66Z"/><path class="cls-1" d="M385.63,58.26a8.2,8.2,0,0,0,.21,1.75,1.47,1.47,0,0,1,0,.31q0,.18-.34.48a1.09,1.09,0,0,1-.72.29q-1,0-1-1.83a35.81,35.81,0,0,1,.78-6,14.36,14.36,0,0,0,.27-1.75,2.37,2.37,0,0,1,.24-1.1.73.73,0,0,1,.67-.46,1.26,1.26,0,0,1,.83.25.72.72,0,0,1,.3.56,3.11,3.11,0,0,1-.14.81,38.14,38.14,0,0,0-1,3.88A18.09,18.09,0,0,0,385.63,58.26ZM387,46.8q-.22,0-.33-.46a3,3,0,0,0-.11-.32,3.1,3.1,0,0,1-.28-1.16,1.17,1.17,0,0,1,.49-.84,1.61,1.61,0,0,1,1.08-.43,1.28,1.28,0,0,1,.67.23q.37.23.37.45a4.59,4.59,0,0,1-.25,1.15,1.72,1.72,0,0,1-.8,1.09A2.07,2.07,0,0,1,387,46.8Z"/><path class="cls-1" d="M397.09,56.29a12.85,12.85,0,0,1-2.91,3.4,4.76,4.76,0,0,1-2.83,1.19,1.87,1.87,0,0,1-1.57-.76,3.28,3.28,0,0,1-.58-2,8.76,8.76,0,0,1,2.11-5.32Q393.41,50,395.85,50a2.76,2.76,0,0,1,2,.91l1.44-6.71a1.32,1.32,0,0,1,.57-.92,1.46,1.46,0,0,1,.65-.24q.72,0,.72,1.27a10.84,10.84,0,0,1-.47,1.68,49.38,49.38,0,0,0-1.42,5.54,27.71,27.71,0,0,0-.67,5.28q0,2.05.89,2.05a2.27,2.27,0,0,0,1.19-.38.84.84,0,0,1,.48-.18q.33,0,.33.43T400.61,60a3.11,3.11,0,0,1-1.88.69q-1.69,0-1.69-3.26Q397,56.85,397.09,56.29Zm-1.34-4.8q-1.66,0-3.29,2.25a7.27,7.27,0,0,0-1.63,4.16q0,1.28.85,1.28a3.53,3.53,0,0,0,1.94-.84A10.39,10.39,0,0,0,396,55.66a6,6,0,0,0,1.21-2.76,1.44,1.44,0,0,0-.42-.93A1.3,1.3,0,0,0,395.75,51.49Z"/><path class="cls-1" d="M412.4,57.06q0,1-1.85,2.52a6.07,6.07,0,0,1-3.82,1.48,3.29,3.29,0,0,1-2.55-1,3.86,3.86,0,0,1-.9-2.72,9.17,9.17,0,0,1,2-5.58q2-2.65,4.33-2.65a1.69,1.69,0,0,1,1.74,1.71,4.16,4.16,0,0,1-1.55,3,19.85,19.85,0,0,1-4.14,2.84.82.82,0,0,0-.53.72,1.89,1.89,0,0,0,.49,1.36,1.93,1.93,0,0,0,1.46.51q2.2,0,4.5-2.44.34-.34.51-.34Q412.4,56.53,412.4,57.06Zm-7.13-1.6q4.35-2.58,4.35-4.15,0-.62-.55-.62a3.16,3.16,0,0,0-2.13,1.38A8,8,0,0,0,405.27,55.46Z"/><path class="cls-1" d="M417.54,61A2.91,2.91,0,0,1,415.22,60a3.91,3.91,0,0,1-.91-2.64,9.08,9.08,0,0,1,1.78-5.21,5.13,5.13,0,0,1,4.26-2.57A3.26,3.26,0,0,1,423,50.82a4.63,4.63,0,0,1,1,3,7.15,7.15,0,0,1-2.11,4.94A6,6,0,0,1,417.54,61Zm-1.42-4a3,3,0,0,0,.44,1.69,1.33,1.33,0,0,0,1.15.66,4.3,4.3,0,0,0,3.07-1.68A5.39,5.39,0,0,0,422.31,54a3.31,3.31,0,0,0-.59-2,1.88,1.88,0,0,0-1.58-.78,3.37,3.37,0,0,0-2.83,2A7.67,7.67,0,0,0,416.11,57.08Z"/><path class="cls-1" d="M431.57,58.19q0-.67-1.64-1.52A15.44,15.44,0,0,1,427.12,55a1.87,1.87,0,0,1-.73-1.43,4,4,0,0,1,2-3.38,6.65,6.65,0,0,1,3.34-1.34,2,2,0,0,1,1.2.29,1.18,1.18,0,0,1,.37,1,.68.68,0,0,1-.27.54.78.78,0,0,1-.43.23,1.37,1.37,0,0,1-.44-.15,1.47,1.47,0,0,0-.43-.14,6.55,6.55,0,0,0-2.08.75q-1.57.75-1.57,1.69a1.35,1.35,0,0,0,.55,1,9.88,9.88,0,0,0,2,1.14,7.6,7.6,0,0,1,1.85,1.18,1.94,1.94,0,0,1,.69,1.48q0,1.57-2.16,2.46a10.9,10.9,0,0,1-4.13.89q-1.66,0-1.66-1.13a.61.61,0,0,1,.37-.57,1.69,1.69,0,0,1,.75-.18,3.12,3.12,0,0,1,.58.1,3,3,0,0,0,.55.1,8.75,8.75,0,0,0,2.44-.38A2.61,2.61,0,0,0,431.57,58.19Z"/><path class="cls-1" d="M436.8,57.7H437a.82.82,0,0,1,.44.18.56.56,0,0,1,.26.49,1.51,1.51,0,0,1-.22.9,3.31,3.31,0,0,1-.69.64,1.5,1.5,0,0,1-.67.35.89.89,0,0,1-.63-.19c-.14-.13-.21-.49-.21-1.07a2.73,2.73,0,0,1,.09-1,.7.7,0,0,1,.45-.24A4.2,4.2,0,0,1,436.8,57.7Z"/><path class="cls-1" d="M27,98.56a.52.52,0,0,0-.46-.52q-.84-.21-.84-.71a1.1,1.1,0,0,1,.33-.74,1,1,0,0,1,.71-.36l1.44,0q1,0,2.65-.13T33.27,96a6.42,6.42,0,0,1,4.55,1.59,5.46,5.46,0,0,1,1.72,4.2A7.1,7.1,0,0,1,37.08,107a14.93,14.93,0,0,1-7,3.44,8,8,0,0,0-2.43.87,2.68,2.68,0,0,1-1.39.57.86.86,0,0,1-.69-.42,1.27,1.27,0,0,1-.3-.66,2,2,0,0,1,.21-.53,3.88,3.88,0,0,0,.3-.93,15.23,15.23,0,0,0,.15-1.69q.05-1.21.37-3.91t.53-3.83A8.86,8.86,0,0,0,27,98.56Zm1.86-.69a73.47,73.47,0,0,0-1.22,10.35,2.89,2.89,0,0,0,.13,1,.5.5,0,0,0,.32.07,17.68,17.68,0,0,0,3.44-.86A10.42,10.42,0,0,0,36,105.78a5.72,5.72,0,0,0,1.73-4.08,3.77,3.77,0,0,0-1.34-3,5.28,5.28,0,0,0-3.53-1.13,25.25,25.25,0,0,0-3.21.25Z"/><path class="cls-1" d="M48.58,107.2a12.56,12.56,0,0,1-2.84,2.89,4.66,4.66,0,0,1-2.57,1,1.75,1.75,0,0,1-1.36-.67,2.53,2.53,0,0,1-.57-1.71,9.73,9.73,0,0,1,2.41-5.81q2.41-3.11,4.79-3.11a1.37,1.37,0,0,1,1.28,1,.44.44,0,0,0,.42.33q.82,0,.82.64a5.09,5.09,0,0,1-.1.87,27.68,27.68,0,0,0-.55,4.27q0,2.48.94,3a.71.71,0,0,1,.45.6.86.86,0,0,1-.44.64,1.45,1.45,0,0,1-.85.32q-.79,0-1.3-1.09A7.46,7.46,0,0,1,48.58,107.2ZM48,101.43q-1.35,0-3.15,2.54A8,8,0,0,0,43,108.18q0,1.18.78,1.18,1.13,0,3.13-2.28a6.64,6.64,0,0,0,2-4.18Q48.92,101.43,48,101.43Z"/><path class="cls-1" d="M58.17,100.59q1.06-.08,2-.19a14.38,14.38,0,0,1,1.54-.1,2.07,2.07,0,0,1,1,.14.57.57,0,0,1,.21.5q0,.83-1.16.9-1.49.09-2.74.26a4.59,4.59,0,0,0-1.35.27,18.75,18.75,0,0,0-.62,2.44,18.45,18.45,0,0,0-.52,3,2.6,2.6,0,0,0,.3,1.5,1.07,1.07,0,0,0,.89.37,4.52,4.52,0,0,0,2.45-1.32,1.71,1.71,0,0,1,.93-.54q.44,0,.44.47,0,.74-1.42,1.91a4.54,4.54,0,0,1-2.91,1.17q-2.48,0-2.48-2.92a16.23,16.23,0,0,1,.51-3.27,19.53,19.53,0,0,0,.5-2.65q0-.15-.25-.15l-1.07.09q-1.31,0-1.31-1a.53.53,0,0,1,.6-.59h2.11a.49.49,0,0,0,.38-.19,5,5,0,0,0,.48-1.31q.32-1.11.56-2.2t1-1.08a.83.83,0,0,1,.69.31,1,1,0,0,1,.25.57,13.61,13.61,0,0,1-.37,1.47Z"/><path class="cls-1" d="M70.75,107.2a12.56,12.56,0,0,1-2.84,2.89,4.66,4.66,0,0,1-2.57,1,1.75,1.75,0,0,1-1.36-.67,2.53,2.53,0,0,1-.57-1.71,9.73,9.73,0,0,1,2.41-5.81q2.41-3.11,4.79-3.11a1.37,1.37,0,0,1,1.28,1,.44.44,0,0,0,.42.33q.82,0,.82.64a5.09,5.09,0,0,1-.1.87,27.68,27.68,0,0,0-.55,4.27q0,2.48.94,3a.71.71,0,0,1,.45.6.86.86,0,0,1-.44.64,1.45,1.45,0,0,1-.85.32q-.79,0-1.3-1.09A7.46,7.46,0,0,1,70.75,107.2Zm-.63-5.77q-1.35,0-3.15,2.54a8,8,0,0,0-1.79,4.21q0,1.18.78,1.18,1.13,0,3.13-2.28a6.64,6.64,0,0,0,2-4.18Q71.09,101.43,70.13,101.43Z"/><path class="cls-1" d="M78,105.1a12.9,12.9,0,0,1,3.14-3.87,5.48,5.48,0,0,1,3.29-1.48,1.67,1.67,0,0,1,1.37.75,3,3,0,0,1,.56,1.83,9,9,0,0,1-2.4,6q-2.41,2.79-5.08,2.79a2.42,2.42,0,0,1-1.34-.39,1.36,1.36,0,0,1-.68-1,1.12,1.12,0,0,0-.28-.72,1.32,1.32,0,0,1-.44-.94,31.55,31.55,0,0,1,.51-4l1.06-6.13a35.22,35.22,0,0,1,.79-3.81,2.15,2.15,0,0,1,.56-1,1.18,1.18,0,0,1,.76-.25q.72,0,.72,1.24a10.3,10.3,0,0,1-.79,3.3A51.61,51.61,0,0,0,78,105.1Zm-.25,3.41q.53,1,1.29,1a4.2,4.2,0,0,0,2.47-1,8.13,8.13,0,0,0,2.25-2.73,6.57,6.57,0,0,0,.95-3,2.07,2.07,0,0,0-.19-.93q-.19-.39-.49-.39-1.43,0-3.48,2.33A13.18,13.18,0,0,0,77.8,108.51Z"/><path class="cls-1" d="M95.3,107.2a12.56,12.56,0,0,1-2.84,2.89,4.66,4.66,0,0,1-2.57,1,1.75,1.75,0,0,1-1.36-.67,2.53,2.53,0,0,1-.57-1.71,9.73,9.73,0,0,1,2.41-5.81q2.41-3.11,4.79-3.11a1.37,1.37,0,0,1,1.28,1,.44.44,0,0,0,.42.33q.82,0,.82.64a5.09,5.09,0,0,1-.1.87,27.68,27.68,0,0,0-.55,4.27q0,2.48.94,3a.71.71,0,0,1,.45.6.86.86,0,0,1-.44.64,1.45,1.45,0,0,1-.85.32q-.79,0-1.3-1.09A7.46,7.46,0,0,1,95.3,107.2Zm-.63-5.77q-1.35,0-3.15,2.54a8,8,0,0,0-1.79,4.21q0,1.18.78,1.18,1.13,0,3.13-2.28a6.64,6.64,0,0,0,2-4.18Q95.64,101.43,94.67,101.43Z"/><path class="cls-1" d="M105.87,108.59q0-.67-1.64-1.52a15.44,15.44,0,0,1-2.81-1.71,1.87,1.87,0,0,1-.73-1.43,4,4,0,0,1,2-3.38,6.65,6.65,0,0,1,3.34-1.34,2,2,0,0,1,1.2.29,1.18,1.18,0,0,1,.37,1,.68.68,0,0,1-.27.54.79.79,0,0,1-.43.23,1.37,1.37,0,0,1-.44-.15,1.47,1.47,0,0,0-.43-.14,6.54,6.54,0,0,0-2.08.75q-1.57.75-1.57,1.69a1.35,1.35,0,0,0,.55,1,9.88,9.88,0,0,0,2,1.14,7.6,7.6,0,0,1,1.85,1.18,1.94,1.94,0,0,1,.69,1.48q0,1.57-2.16,2.46a10.9,10.9,0,0,1-4.13.89q-1.66,0-1.66-1.13a.6.6,0,0,1,.37-.57,1.69,1.69,0,0,1,.75-.18,3.12,3.12,0,0,1,.58.1,3,3,0,0,0,.55.1,8.75,8.75,0,0,0,2.44-.38A2.61,2.61,0,0,0,105.87,108.59Z"/><path class="cls-1" d="M118.4,107.46q0,1-1.85,2.52a6.07,6.07,0,0,1-3.82,1.48,3.29,3.29,0,0,1-2.55-1,3.86,3.86,0,0,1-.9-2.72,9.17,9.17,0,0,1,2-5.58q2-2.65,4.33-2.65a1.69,1.69,0,0,1,1.74,1.71,4.16,4.16,0,0,1-1.55,3,19.85,19.85,0,0,1-4.14,2.84.82.82,0,0,0-.53.72,1.89,1.89,0,0,0,.49,1.36,1.93,1.93,0,0,0,1.46.51q2.2,0,4.5-2.44.34-.34.51-.34Q118.4,106.93,118.4,107.46Zm-7.13-1.6q4.35-2.58,4.35-4.15,0-.62-.55-.62a3.16,3.16,0,0,0-2.13,1.38A8,8,0,0,0,111.27,105.86Z"/><path class="cls-1" d="M137.06,104.15q-.29,0-1.38,2.39a33.13,33.13,0,0,1-1.85,3.49q-.94,1.53-1.38,1.53-1.27,0-2.35-3.78a23.32,23.32,0,0,1-1.08-6.09,2,2,0,0,1,.37-1.24,1.22,1.22,0,0,1,.89-.53h.26c.12,0,.27.12.45.34a1,1,0,0,1,.27.63v0q0,.12-.11,1a12.15,12.15,0,0,0-.09,1.63,11.26,11.26,0,0,0,.58,3.37q.58,1.85,1,1.85t1.9-3.12q1-2,1.46-2.73l.33-.62a6,6,0,0,1,1.34-1.87q.88.11.88.88a1.92,1.92,0,0,1,0,.43,1.92,1.92,0,0,0,0,.43,9.27,9.27,0,0,0,1,4q1,2.08,1.4,2.08t1-2.17a28,28,0,0,1,1.67-4.43,6.5,6.5,0,0,1,1.12-1.75,1.29,1.29,0,0,1,.81-.28.54.54,0,0,1,.44.22.74.74,0,0,1,.18.48.88.88,0,0,1-.11.52,18.43,18.43,0,0,0-2.44,5.22q-1,3-1.36,3.82t-.62.78a2.57,2.57,0,0,1-2-.91,17.63,17.63,0,0,1-2.09-4.82Q137.21,104.49,137.06,104.15Z"/><path class="cls-1" d="M149.41,108.66a8.21,8.21,0,0,0,.22,1.75,1.47,1.47,0,0,1,0,.31q0,.18-.34.48a1.09,1.09,0,0,1-.72.29q-1,0-1-1.83a35.81,35.81,0,0,1,.78-6,14.36,14.36,0,0,0,.27-1.75,2.37,2.37,0,0,1,.24-1.1.73.73,0,0,1,.67-.46,1.25,1.25,0,0,1,.83.25.72.72,0,0,1,.3.56,3.11,3.11,0,0,1-.14.81,38.17,38.17,0,0,0-1,3.88A18.09,18.09,0,0,0,149.41,108.66Zm1.34-11.45q-.22,0-.33-.46a3,3,0,0,0-.11-.32,3.1,3.1,0,0,1-.28-1.16,1.17,1.17,0,0,1,.49-.84A1.61,1.61,0,0,1,151.6,94a1.29,1.29,0,0,1,.67.23q.37.23.37.45a4.57,4.57,0,0,1-.25,1.15,1.72,1.72,0,0,1-.8,1.09A2.06,2.06,0,0,1,150.75,97.2Z"/><path class="cls-1" d="M157.11,93.57q.74,0,.74.94a20.92,20.92,0,0,1-.89,4,30.21,30.21,0,0,0-.87,4.39,31.48,31.48,0,0,0-.31,3.76A26.29,26.29,0,0,0,156,110a4.07,4.07,0,0,1,0,.46,1.24,1.24,0,0,1-.35.88,1,1,0,0,1-.74.37q-.54,0-.75-.68a8.09,8.09,0,0,1-.21-2.18,54.65,54.65,0,0,1,.83-8.51,28.22,28.22,0,0,1,1.31-5.94Q156.61,93.57,157.11,93.57Z"/><path class="cls-1" d="M163.12,93.57q.74,0,.74.94a20.92,20.92,0,0,1-.89,4,30.21,30.21,0,0,0-.87,4.39,31.48,31.48,0,0,0-.31,3.76A26.29,26.29,0,0,0,162,110a4.07,4.07,0,0,1,0,.46,1.24,1.24,0,0,1-.35.88,1,1,0,0,1-.74.37q-.54,0-.75-.68a8.09,8.09,0,0,1-.21-2.18,54.65,54.65,0,0,1,.83-8.51,28.22,28.22,0,0,1,1.31-5.94Q162.62,93.57,163.12,93.57Z"/><path class="cls-1" d="M175.81,105.1a12.9,12.9,0,0,1,3.14-3.87,5.48,5.48,0,0,1,3.29-1.48,1.67,1.67,0,0,1,1.37.75,3,3,0,0,1,.56,1.83,9,9,0,0,1-2.4,6q-2.41,2.79-5.08,2.79a2.42,2.42,0,0,1-1.34-.39,1.36,1.36,0,0,1-.68-1,1.12,1.12,0,0,0-.28-.72,1.32,1.32,0,0,1-.44-.94,31.55,31.55,0,0,1,.51-4l1.06-6.13a35.22,35.22,0,0,1,.79-3.81,2.15,2.15,0,0,1,.56-1,1.18,1.18,0,0,1,.76-.25q.72,0,.72,1.24a10.3,10.3,0,0,1-.79,3.3A51.61,51.61,0,0,0,175.81,105.1Zm-.25,3.41q.53,1,1.29,1a4.2,4.2,0,0,0,2.47-1,8.13,8.13,0,0,0,2.25-2.73,6.57,6.57,0,0,0,.95-3,2.07,2.07,0,0,0-.19-.93q-.19-.39-.49-.39-1.43,0-3.48,2.33A13.18,13.18,0,0,0,175.57,108.51Z"/><path class="cls-1" d="M194.94,107.46q0,1-1.85,2.52a6.07,6.07,0,0,1-3.82,1.48,3.29,3.29,0,0,1-2.55-1,3.86,3.86,0,0,1-.9-2.72,9.17,9.17,0,0,1,2-5.58q2-2.65,4.33-2.65a1.69,1.69,0,0,1,1.74,1.71,4.16,4.16,0,0,1-1.55,3,19.85,19.85,0,0,1-4.14,2.84.82.82,0,0,0-.53.72,1.89,1.89,0,0,0,.49,1.36,1.93,1.93,0,0,0,1.46.51q2.2,0,4.5-2.44.34-.34.51-.34Q194.94,106.93,194.94,107.46Zm-7.13-1.6q4.35-2.58,4.35-4.15,0-.62-.55-.62a3.16,3.16,0,0,0-2.13,1.38A8,8,0,0,0,187.81,105.86Z"/><path class="cls-1" d="M212.72,106.47a14.21,14.21,0,0,1-2.69,3.41,4,4,0,0,1-2.55,1.21,1.93,1.93,0,0,1-1.38-.79,3.57,3.57,0,0,1-.7-2.43,18.11,18.11,0,0,1,.65-4,15,15,0,0,0,.54-3.07,1,1,0,0,1,.93-.62.86.86,0,0,1,.69.3,1,1,0,0,1,.26.63,6.3,6.3,0,0,1-.5,2,13.09,13.09,0,0,0-1,4.42q0,1.68.78,1.68,1,0,2.53-1.69A14.12,14.12,0,0,0,213,102.9a7,7,0,0,1,.7-1.57.87.87,0,0,1,.73-.36q.7,0,.7.92a4.6,4.6,0,0,1-.19.75,16.09,16.09,0,0,0-.62,4.25q0,2.4.79,3.11.41.38.41.62t-.42.52a1.56,1.56,0,0,1-.75.24q-.72,0-1.16-1.07a8.63,8.63,0,0,1-.44-3.15v-.34Q212.71,106.65,212.72,106.47Z"/><path class="cls-1" d="M220.26,109.74a41.6,41.6,0,0,0-.94,5.18l-.29,1.94a1.9,1.9,0,0,1-.38.82q-.31.4-.56.4a1.22,1.22,0,0,1-.72-.32q-.41-.32-.41-.52a6.69,6.69,0,0,1,.26-1.56,56.3,56.3,0,0,0,1.88-13.31v-.86a2.47,2.47,0,0,1,.39-1.61,1.2,1.2,0,0,1,.94-.5q.25,0,.47.38a2.18,2.18,0,0,1,.23,1.09,17.22,17.22,0,0,1-.21,2.41q-.27,1.78-.28,2.05a16.13,16.13,0,0,1,3.24-4.16,5,5,0,0,1,3.18-1.5,2.28,2.28,0,0,1,1.75.77,2.73,2.73,0,0,1,.71,1.92,8.66,8.66,0,0,1-2.56,6.07q-2.56,2.73-5,2.73a1.41,1.41,0,0,1-1-.31A3.45,3.45,0,0,1,220.26,109.74Zm6.37-8.25q-1.45,0-3.58,2.71t-2.13,4.21a1,1,0,0,0,.42.72,1.61,1.61,0,0,0,1.07.35q1.47,0,3.37-2.17a6.54,6.54,0,0,0,1.91-4.26,1.9,1.9,0,0,0-.3-1.15A.91.91,0,0,0,226.63,101.49Z"/><path class="cls-1" d="M239.21,106.69a12.85,12.85,0,0,1-2.91,3.4,4.76,4.76,0,0,1-2.83,1.19,1.87,1.87,0,0,1-1.57-.76,3.29,3.29,0,0,1-.58-2,8.76,8.76,0,0,1,2.11-5.32q2.11-2.73,4.55-2.73a2.76,2.76,0,0,1,2,.91l1.44-6.71a1.32,1.32,0,0,1,.57-.92,1.46,1.46,0,0,1,.65-.24q.72,0,.72,1.27a10.77,10.77,0,0,1-.47,1.68,49.25,49.25,0,0,0-1.42,5.54,27.75,27.75,0,0,0-.67,5.28q0,2.05.89,2.05a2.27,2.27,0,0,0,1.19-.38.84.84,0,0,1,.48-.18q.33,0,.33.43t-.92,1.21a3.11,3.11,0,0,1-1.88.69q-1.69,0-1.69-3.26Q239.16,107.25,239.21,106.69Zm-1.34-4.8q-1.66,0-3.29,2.25a7.26,7.26,0,0,0-1.63,4.16q0,1.28.85,1.28a3.53,3.53,0,0,0,1.94-.84,10.39,10.39,0,0,0,2.35-2.68,6,6,0,0,0,1.21-2.76,1.44,1.44,0,0,0-.42-.93A1.3,1.3,0,0,0,237.87,101.89Z"/><path class="cls-1" d="M252.66,107.2a12.56,12.56,0,0,1-2.84,2.89,4.66,4.66,0,0,1-2.57,1,1.75,1.75,0,0,1-1.36-.67,2.53,2.53,0,0,1-.57-1.71,9.73,9.73,0,0,1,2.41-5.81q2.41-3.11,4.79-3.11a1.37,1.37,0,0,1,1.28,1,.44.44,0,0,0,.42.33q.82,0,.82.64a5.09,5.09,0,0,1-.1.87,27.68,27.68,0,0,0-.55,4.27q0,2.48.94,3a.71.71,0,0,1,.45.6.86.86,0,0,1-.44.64,1.45,1.45,0,0,1-.85.32q-.79,0-1.3-1.09A7.46,7.46,0,0,1,252.66,107.2Zm-.63-5.77q-1.35,0-3.15,2.54a8,8,0,0,0-1.79,4.21q0,1.18.78,1.18,1.13,0,3.13-2.28a6.64,6.64,0,0,0,2-4.18Q253,101.43,252,101.43Z"/><path class="cls-1" d="M262.24,100.59q1.06-.08,2-.19a14.38,14.38,0,0,1,1.54-.1,2.07,2.07,0,0,1,1,.14.57.57,0,0,1,.21.5q0,.83-1.16.9-1.49.09-2.74.26a4.59,4.59,0,0,0-1.35.27,18.75,18.75,0,0,0-.62,2.44,18.45,18.45,0,0,0-.52,3,2.6,2.6,0,0,0,.3,1.5,1.07,1.07,0,0,0,.89.37,4.52,4.52,0,0,0,2.45-1.32,1.71,1.71,0,0,1,.93-.54q.44,0,.44.47,0,.74-1.42,1.91a4.54,4.54,0,0,1-2.91,1.17q-2.48,0-2.48-2.92a16.23,16.23,0,0,1,.51-3.27,19.53,19.53,0,0,0,.5-2.65q0-.15-.25-.15l-1.07.09q-1.31,0-1.31-1a.53.53,0,0,1,.6-.59h2.11a.49.49,0,0,0,.38-.19,5,5,0,0,0,.48-1.31q.32-1.11.56-2.2t1-1.08a.83.83,0,0,1,.69.31,1,1,0,0,1,.25.57,13.61,13.61,0,0,1-.37,1.47Z"/><path class="cls-1" d="M276.69,107.46q0,1-1.85,2.52a6.07,6.07,0,0,1-3.82,1.48,3.29,3.29,0,0,1-2.55-1,3.86,3.86,0,0,1-.9-2.72,9.17,9.17,0,0,1,2-5.58q2-2.65,4.33-2.65a1.69,1.69,0,0,1,1.74,1.71,4.16,4.16,0,0,1-1.55,3,19.85,19.85,0,0,1-4.14,2.84.82.82,0,0,0-.53.72,1.89,1.89,0,0,0,.49,1.36,1.93,1.93,0,0,0,1.46.51q2.2,0,4.5-2.44.34-.34.51-.34Q276.69,106.93,276.69,107.46Zm-7.13-1.6q4.35-2.58,4.35-4.15,0-.62-.55-.62a3.16,3.16,0,0,0-2.13,1.38A8,8,0,0,0,269.56,105.86Z"/><path class="cls-1" d="M286.19,106.69a12.85,12.85,0,0,1-2.91,3.4,4.76,4.76,0,0,1-2.83,1.19,1.87,1.87,0,0,1-1.57-.76,3.29,3.29,0,0,1-.58-2,8.76,8.76,0,0,1,2.11-5.32q2.11-2.73,4.55-2.73a2.76,2.76,0,0,1,2,.91l1.44-6.71a1.32,1.32,0,0,1,.57-.92,1.46,1.46,0,0,1,.65-.24q.72,0,.72,1.27a10.77,10.77,0,0,1-.47,1.68,49.25,49.25,0,0,0-1.42,5.54,27.75,27.75,0,0,0-.67,5.28q0,2.05.89,2.05a2.27,2.27,0,0,0,1.19-.38.84.84,0,0,1,.48-.18q.33,0,.33.43t-.92,1.21a3.11,3.11,0,0,1-1.88.69q-1.69,0-1.69-3.26Q286.13,107.25,286.19,106.69Zm-1.34-4.8q-1.66,0-3.29,2.25a7.26,7.26,0,0,0-1.63,4.16q0,1.28.85,1.28a3.53,3.53,0,0,0,1.94-.84,10.39,10.39,0,0,0,2.35-2.68,6,6,0,0,0,1.21-2.76,1.44,1.44,0,0,0-.42-.93A1.3,1.3,0,0,0,284.84,101.89Z"/><path class="cls-1" d="M308,107.2a12.56,12.56,0,0,1-2.84,2.89,4.66,4.66,0,0,1-2.57,1,1.75,1.75,0,0,1-1.36-.67,2.53,2.53,0,0,1-.57-1.71,9.73,9.73,0,0,1,2.41-5.81q2.41-3.11,4.79-3.11a1.37,1.37,0,0,1,1.28,1,.45.45,0,0,0,.42.33q.82,0,.82.64a5.09,5.09,0,0,1-.1.87,27.68,27.68,0,0,0-.55,4.27q0,2.48.94,3a.71.71,0,0,1,.45.6.86.86,0,0,1-.44.64,1.45,1.45,0,0,1-.85.32q-.79,0-1.3-1.09A7.46,7.46,0,0,1,308,107.2Zm-.62-5.77q-1.35,0-3.15,2.54a7.94,7.94,0,0,0-1.79,4.21q0,1.18.78,1.18,1.13,0,3.13-2.28a6.64,6.64,0,0,0,2-4.18Q308.36,101.43,307.4,101.43Z"/><path class="cls-1" d="M316.24,111.52a3.08,3.08,0,0,1-2.36-.88,3.47,3.47,0,0,1-.83-2.47,9.82,9.82,0,0,1,2.12-5.64q2.12-3,3.95-3a1.72,1.72,0,0,1,1.43.9,3.36,3.36,0,0,1,.6,1.9,2,2,0,0,1-.26,1q-.26.44-.53.44-.59,0-.84-1.2t-.8-1.29q-1.07,0-2.52,2.53a9.06,9.06,0,0,0-1.46,4.28q0,1.74,2,1.74a6.56,6.56,0,0,0,3.55-1.42,2.26,2.26,0,0,1,1.06-.5q.35,0,.35.4,0,.78-1.84,2A6.63,6.63,0,0,1,316.24,111.52Z"/><path class="cls-1" d="M326.88,111.52a3.08,3.08,0,0,1-2.36-.88,3.47,3.47,0,0,1-.83-2.47,9.82,9.82,0,0,1,2.12-5.64q2.12-3,3.95-3a1.72,1.72,0,0,1,1.43.9,3.36,3.36,0,0,1,.6,1.9,2,2,0,0,1-.26,1q-.26.44-.53.44-.59,0-.84-1.2t-.8-1.29q-1.07,0-2.52,2.53a9.06,9.06,0,0,0-1.46,4.28q0,1.74,2,1.74a6.56,6.56,0,0,0,3.55-1.42A2.26,2.26,0,0,1,332,108q.35,0,.35.4,0,.78-1.84,2A6.63,6.63,0,0,1,326.88,111.52Z"/><path class="cls-1" d="M337.72,111.45a2.92,2.92,0,0,1-2.32-1.07,3.91,3.91,0,0,1-.91-2.64,9.08,9.08,0,0,1,1.78-5.21,5.13,5.13,0,0,1,4.26-2.57,3.26,3.26,0,0,1,2.66,1.26,4.63,4.63,0,0,1,1,3,7.15,7.15,0,0,1-2.11,4.94A6,6,0,0,1,337.72,111.45Zm-1.42-4a3,3,0,0,0,.44,1.69,1.33,1.33,0,0,0,1.15.66,4.3,4.3,0,0,0,3.07-1.68,5.39,5.39,0,0,0,1.54-3.73,3.32,3.32,0,0,0-.59-2,1.88,1.88,0,0,0-1.58-.78,3.37,3.37,0,0,0-2.83,2A7.67,7.67,0,0,0,336.3,107.48Z"/><path class="cls-1" d="M348.67,106.86q.1-.18.25-.51a18.27,18.27,0,0,1,1.28-2.51,16.64,16.64,0,0,1,1.29-1.74,8,8,0,0,1,1.28-1.26,4.17,4.17,0,0,1,1.05-.6,2.69,2.69,0,0,1,.91-.17,2,2,0,0,1,1.46.54,1.68,1.68,0,0,1,.56,1.26.91.91,0,0,1-.2.57.73.73,0,0,1-.61.26,1.07,1.07,0,0,1-.79-.38,1.08,1.08,0,0,0-.77-.38q-1.07,0-3,2.58a12.23,12.23,0,0,0-2.3,5.69,1.73,1.73,0,0,1-.39,1.06,1.18,1.18,0,0,1-.81.26q-.5,0-.73-.75a9.79,9.79,0,0,1-.23-2.52q0-.48.05-2.12a26.78,26.78,0,0,1,.25-3.13q0-.19.1-.91a5.26,5.26,0,0,1,.18-1.1,1.31,1.31,0,0,1,.44-.57,1.13,1.13,0,0,1,.72-.27.68.68,0,0,1,.57.24.83.83,0,0,1,.19.52,4.5,4.5,0,0,1-.21,1.13,9.22,9.22,0,0,0-.28,1.12,5.9,5.9,0,0,1-.11.73,19.38,19.38,0,0,0-.21,2.32v.66Z"/><path class="cls-1" d="M364.65,106.69a12.85,12.85,0,0,1-2.91,3.4,4.76,4.76,0,0,1-2.83,1.19,1.87,1.87,0,0,1-1.57-.76,3.29,3.29,0,0,1-.58-2,8.76,8.76,0,0,1,2.11-5.32q2.11-2.73,4.55-2.73a2.76,2.76,0,0,1,2,.91l1.44-6.71a1.32,1.32,0,0,1,.57-.92,1.46,1.46,0,0,1,.65-.24q.72,0,.72,1.27a10.77,10.77,0,0,1-.47,1.68,49.34,49.34,0,0,0-1.42,5.54,27.78,27.78,0,0,0-.67,5.28q0,2.05.89,2.05a2.27,2.27,0,0,0,1.19-.38.84.84,0,0,1,.48-.18q.33,0,.33.43t-.92,1.21a3.11,3.11,0,0,1-1.88.69q-1.69,0-1.69-3.26Q364.6,107.25,364.65,106.69Zm-1.34-4.8q-1.66,0-3.29,2.25a7.26,7.26,0,0,0-1.63,4.16q0,1.28.85,1.28a3.53,3.53,0,0,0,1.94-.84,10.39,10.39,0,0,0,2.35-2.68,6,6,0,0,0,1.21-2.76,1.44,1.44,0,0,0-.42-.93A1.3,1.3,0,0,0,363.31,101.89Z"/><path class="cls-1" d="M373.14,108.66a8.21,8.21,0,0,0,.22,1.75,1.47,1.47,0,0,1,0,.31q0,.18-.34.48a1.09,1.09,0,0,1-.72.29q-1,0-1-1.83a35.81,35.81,0,0,1,.78-6,14.36,14.36,0,0,0,.27-1.75,2.37,2.37,0,0,1,.24-1.1.73.73,0,0,1,.67-.46,1.25,1.25,0,0,1,.83.25.72.72,0,0,1,.3.56,3.11,3.11,0,0,1-.14.81,38.21,38.21,0,0,0-1,3.88A18.09,18.09,0,0,0,373.14,108.66Zm1.34-11.45q-.22,0-.33-.46a3,3,0,0,0-.11-.32,3.1,3.1,0,0,1-.28-1.16,1.17,1.17,0,0,1,.49-.84,1.61,1.61,0,0,1,1.08-.43,1.29,1.29,0,0,1,.67.23q.37.23.37.45a4.56,4.56,0,0,1-.25,1.15,1.71,1.71,0,0,1-.8,1.09A2.06,2.06,0,0,1,374.48,97.2Z"/><path class="cls-1" d="M384.23,103a1.71,1.71,0,0,0-1.16.7,18.47,18.47,0,0,0-1.92,3.13,20.63,20.63,0,0,1-2.2,3.71,1.39,1.39,0,0,1-.83.45,1.05,1.05,0,0,1-1.21-1.17,8.39,8.39,0,0,1,.16-1.39,36.42,36.42,0,0,0,.56-6.53,1.56,1.56,0,0,1,.33-.87c.22-.32.43-.48.63-.48a.85.85,0,0,1,.76.33,2.6,2.6,0,0,1,.23,1.32,29.29,29.29,0,0,1-.62,4.27,10,10,0,0,0-.21,1.35q0,.16.08.16a11.8,11.8,0,0,0,1.42-2.45,16,16,0,0,1,2.25-3.51,2.88,2.88,0,0,1,2.12-1,1.75,1.75,0,0,1,1.5.84A7.34,7.34,0,0,1,387,105a18.31,18.31,0,0,0,.52,3.15q.23.62.73.62a2,2,0,0,0,.8-.23l.12,0q.44,0,.44.51a1.36,1.36,0,0,1-.6,1,2.19,2.19,0,0,1-1.46.51,1.54,1.54,0,0,1-1.35-.69,10,10,0,0,1-.75-3.7Q385.16,103,384.23,103Z"/><path class="cls-1" d="M398.42,107.22q-.12-.09-.69.57a9.19,9.19,0,0,1-2.38,1.95,5.38,5.38,0,0,1-2.69.85,1.85,1.85,0,0,1-1.45-.58,2.31,2.31,0,0,1-.52-1.6,6.93,6.93,0,0,1,1.2-3.54,11.22,11.22,0,0,1,3.36-3.41A7.08,7.08,0,0,1,399,100a2.4,2.4,0,0,1,1.5.49l.27.21a1.23,1.23,0,0,1,.35.54,1.85,1.85,0,0,1,.16.65,1.59,1.59,0,0,1-.11.47,20,20,0,0,0-.85,2.82q-.23,1.12-.49,3.76a33.72,33.72,0,0,1-.53,3.66,8,8,0,0,1-1,2.48,5.16,5.16,0,0,1-1.79,1.8,4.27,4.27,0,0,1-2.15.6,6.49,6.49,0,0,1-3.78-1.32q-1.87-1.32-1.87-2.12,0-.5.38-.5a3.83,3.83,0,0,1,1.1.6,8.06,8.06,0,0,0,4.34,1.61,2.76,2.76,0,0,0,2.56-1.79,16,16,0,0,0,1.2-5.36Q398.32,107.79,398.42,107.22Zm0-5.63a4.15,4.15,0,0,0-2.18.9,10.55,10.55,0,0,0-2.54,2.65,5.48,5.48,0,0,0-1.23,2.92.82.82,0,0,0,.81.86,4.84,4.84,0,0,0,2.38-.94,8.34,8.34,0,0,0,2.53-2.62,5.52,5.52,0,0,0,1.06-2.63Q399.24,101.59,398.4,101.59Z"/><path class="cls-1" d="M415.8,100.59q1.06-.08,2-.19a14.38,14.38,0,0,1,1.54-.1,2.07,2.07,0,0,1,1,.14.57.57,0,0,1,.21.5q0,.83-1.16.9-1.49.09-2.74.26a4.6,4.6,0,0,0-1.35.27,18.85,18.85,0,0,0-.62,2.44,18.47,18.47,0,0,0-.52,3,2.6,2.6,0,0,0,.3,1.5,1.07,1.07,0,0,0,.89.37,4.52,4.52,0,0,0,2.45-1.32,1.71,1.71,0,0,1,.93-.54c.29,0,.44.16.44.47q0,.74-1.42,1.91a4.54,4.54,0,0,1-2.91,1.17q-2.48,0-2.48-2.92a16.23,16.23,0,0,1,.51-3.27,19.49,19.49,0,0,0,.5-2.65q0-.15-.25-.15l-1.07.09q-1.31,0-1.31-1a.53.53,0,0,1,.61-.59h2.11a.49.49,0,0,0,.38-.19,5.07,5.07,0,0,0,.48-1.31q.32-1.11.56-2.2t1-1.08a.83.83,0,0,1,.69.31,1,1,0,0,1,.25.57,13.61,13.61,0,0,1-.37,1.47Z"/><path class="cls-1" d="M424.47,111.45a2.91,2.91,0,0,1-2.32-1.07,3.91,3.91,0,0,1-.91-2.64,9.08,9.08,0,0,1,1.78-5.21,5.13,5.13,0,0,1,4.26-2.57,3.26,3.26,0,0,1,2.66,1.26,4.63,4.63,0,0,1,1,3,7.15,7.15,0,0,1-2.11,4.94A6,6,0,0,1,424.47,111.45Zm-1.42-4a3,3,0,0,0,.44,1.69,1.33,1.33,0,0,0,1.15.66,4.3,4.3,0,0,0,3.07-1.68,5.39,5.39,0,0,0,1.54-3.73,3.31,3.31,0,0,0-.59-2,1.88,1.88,0,0,0-1.58-.78,3.37,3.37,0,0,0-2.83,2A7.67,7.67,0,0,0,423,107.48Z"/><path class="cls-1" d="M449.32,107.31A17.88,17.88,0,0,1,446,109.7a5.34,5.34,0,0,1-2.19.74,1.73,1.73,0,0,1-1.55-.85,3.59,3.59,0,0,1-.54-2,15.15,15.15,0,0,1,.64-3.9,12.5,12.5,0,0,1,1-2.76,1.15,1.15,0,0,1,1-.44.54.54,0,0,1,.47.34,1.58,1.58,0,0,1,.18.77,1.45,1.45,0,0,1-.24.67,11.64,11.64,0,0,0-.58,1.07q0,.1-.39,1.24a6.89,6.89,0,0,0-.37,2.13,5.49,5.49,0,0,0,.17,1.09c.11.49.35.74.7.74a3.76,3.76,0,0,0,1.39-.34,8.85,8.85,0,0,0,1.86-1.12,7.34,7.34,0,0,0,1.39-1.26,3,3,0,0,0,.51-1.1,16.73,16.73,0,0,0,.21-2.67q.06-2.05,1-2.05c.37,0,.61.1.72.29a2.54,2.54,0,0,1,.16,1.11q0,.68-.09,1.69-.11,1.28-.14,1.83a37.17,37.17,0,0,1-.73,5.67,15.59,15.59,0,0,1-1.72,4.76,3.47,3.47,0,0,1-3.11,1.91,6.26,6.26,0,0,1-3.57-1.05q-1.56-1.05-1.56-1.78a1.52,1.52,0,0,1,.16-.67q.16-.33.41-.33t.27.19a4.68,4.68,0,0,0,4.22,2.06q1.49,0,2.5-2.61a15.57,15.57,0,0,0,1.11-4.9Q449.26,107.75,449.32,107.31Z"/><path class="cls-1" d="M457.15,111.45a2.91,2.91,0,0,1-2.32-1.07,3.91,3.91,0,0,1-.91-2.64,9.08,9.08,0,0,1,1.78-5.21A5.13,5.13,0,0,1,460,100a3.26,3.26,0,0,1,2.66,1.26,4.63,4.63,0,0,1,1,3,7.15,7.15,0,0,1-2.11,4.94A6,6,0,0,1,457.15,111.45Zm-1.42-4a3,3,0,0,0,.44,1.69,1.33,1.33,0,0,0,1.15.66,4.3,4.3,0,0,0,3.07-1.68,5.39,5.39,0,0,0,1.54-3.73,3.31,3.31,0,0,0-.59-2,1.88,1.88,0,0,0-1.58-.78,3.37,3.37,0,0,0-2.83,2A7.67,7.67,0,0,0,455.72,107.48Z"/><path class="cls-1" d="M473.27,106.47a14.23,14.23,0,0,1-2.69,3.41A4,4,0,0,1,468,111.1a1.93,1.93,0,0,1-1.38-.79,3.57,3.57,0,0,1-.7-2.43,18.11,18.11,0,0,1,.65-4,15,15,0,0,0,.54-3.07,1,1,0,0,1,.93-.62.86.86,0,0,1,.69.3,1,1,0,0,1,.26.63,6.32,6.32,0,0,1-.5,2,13.07,13.07,0,0,0-1,4.42q0,1.68.78,1.68,1,0,2.53-1.69a14.12,14.12,0,0,0,2.64-4.72,7.05,7.05,0,0,1,.7-1.57.87.87,0,0,1,.73-.36q.7,0,.7.92a4.68,4.68,0,0,1-.19.75,16.09,16.09,0,0,0-.62,4.25q0,2.4.79,3.11.41.38.41.62t-.42.52a1.56,1.56,0,0,1-.75.24q-.72,0-1.16-1.07a8.63,8.63,0,0,1-.44-3.15v-.34C473.26,106.7,473.26,106.59,473.27,106.47Z"/><path class="cls-1" d="M480.91,106.86q.1-.18.25-.51a18.17,18.17,0,0,1,1.28-2.51,16.64,16.64,0,0,1,1.29-1.74,8.07,8.07,0,0,1,1.28-1.26,4.19,4.19,0,0,1,1.05-.6,2.69,2.69,0,0,1,.91-.17,2,2,0,0,1,1.46.54,1.68,1.68,0,0,1,.56,1.26.91.91,0,0,1-.2.57.73.73,0,0,1-.61.26,1.07,1.07,0,0,1-.79-.38,1.08,1.08,0,0,0-.77-.38q-1.07,0-3,2.58a12.23,12.23,0,0,0-2.3,5.69,1.73,1.73,0,0,1-.39,1.06,1.18,1.18,0,0,1-.81.26q-.5,0-.73-.75a9.79,9.79,0,0,1-.23-2.52q0-.48.05-2.12a26.78,26.78,0,0,1,.25-3.13q0-.19.1-.91a5.26,5.26,0,0,1,.18-1.1,1.31,1.31,0,0,1,.44-.57,1.13,1.13,0,0,1,.72-.27.68.68,0,0,1,.57.24.83.83,0,0,1,.19.52,4.5,4.5,0,0,1-.21,1.13,9,9,0,0,0-.28,1.12,6.1,6.1,0,0,1-.11.73,19.38,19.38,0,0,0-.21,2.32v.66Z"/><path class="cls-1" d="M500,106.86q.1-.18.25-.51a18.17,18.17,0,0,1,1.28-2.51,16.64,16.64,0,0,1,1.29-1.74,8.07,8.07,0,0,1,1.28-1.26,4.19,4.19,0,0,1,1.05-.6,2.69,2.69,0,0,1,.91-.17,2,2,0,0,1,1.46.54,1.68,1.68,0,0,1,.56,1.26.91.91,0,0,1-.2.57.73.73,0,0,1-.61.26,1.07,1.07,0,0,1-.79-.38,1.08,1.08,0,0,0-.77-.38q-1.07,0-3,2.58a12.23,12.23,0,0,0-2.3,5.69,1.73,1.73,0,0,1-.39,1.06,1.18,1.18,0,0,1-.81.26q-.5,0-.73-.75a9.79,9.79,0,0,1-.23-2.52q0-.48.05-2.12a26.78,26.78,0,0,1,.25-3.13q0-.19.1-.91a5.26,5.26,0,0,1,.18-1.1,1.31,1.31,0,0,1,.44-.57,1.13,1.13,0,0,1,.72-.27.68.68,0,0,1,.57.24.83.83,0,0,1,.19.52,4.5,4.5,0,0,1-.21,1.13,9,9,0,0,0-.28,1.12,6.1,6.1,0,0,1-.11.73,19.38,19.38,0,0,0-.21,2.32v.66Z"/><path class="cls-1" d="M517.5,107.46q0,1-1.85,2.52a6.07,6.07,0,0,1-3.82,1.48,3.29,3.29,0,0,1-2.55-1,3.86,3.86,0,0,1-.9-2.72,9.17,9.17,0,0,1,2-5.58q2-2.65,4.33-2.65a1.69,1.69,0,0,1,1.74,1.71,4.16,4.16,0,0,1-1.55,3,19.85,19.85,0,0,1-4.14,2.84.82.82,0,0,0-.53.72,1.89,1.89,0,0,0,.49,1.36,1.93,1.93,0,0,0,1.46.51q2.2,0,4.5-2.44.34-.34.51-.34Q517.5,106.93,517.5,107.46Zm-7.13-1.6q4.35-2.58,4.35-4.15,0-.62-.55-.62a3.16,3.16,0,0,0-2.13,1.38A8,8,0,0,0,510.38,105.86Z"/><path class="cls-1" d="M521.63,109.74a41.6,41.6,0,0,0-.94,5.18l-.29,1.94a1.9,1.9,0,0,1-.38.82q-.31.4-.56.4a1.22,1.22,0,0,1-.72-.32q-.41-.32-.41-.52a6.68,6.68,0,0,1,.26-1.56,56.26,56.26,0,0,0,1.88-13.31v-.86a2.46,2.46,0,0,1,.39-1.61,1.2,1.2,0,0,1,.94-.5q.25,0,.47.38a2.19,2.19,0,0,1,.22,1.09,17.22,17.22,0,0,1-.21,2.41q-.27,1.78-.28,2.05a16.13,16.13,0,0,1,3.24-4.16,5,5,0,0,1,3.18-1.5,2.28,2.28,0,0,1,1.75.77,2.73,2.73,0,0,1,.71,1.92,8.66,8.66,0,0,1-2.56,6.07q-2.56,2.73-5,2.73a1.41,1.41,0,0,1-1-.31A3.45,3.45,0,0,1,521.63,109.74Zm6.37-8.25q-1.45,0-3.58,2.71t-2.13,4.21a1,1,0,0,0,.42.72,1.61,1.61,0,0,0,1.07.35q1.46,0,3.37-2.17A6.54,6.54,0,0,0,529,103a1.9,1.9,0,0,0-.3-1.15A.91.91,0,0,0,528,101.49Z"/><path class="cls-1" d="M536.22,111.45a2.91,2.91,0,0,1-2.32-1.07,3.91,3.91,0,0,1-.91-2.64,9.08,9.08,0,0,1,1.78-5.21A5.13,5.13,0,0,1,539,100a3.26,3.26,0,0,1,2.66,1.26,4.63,4.63,0,0,1,1,3,7.15,7.15,0,0,1-2.11,4.94A6,6,0,0,1,536.22,111.45Zm-1.42-4a3,3,0,0,0,.44,1.69,1.33,1.33,0,0,0,1.15.66,4.3,4.3,0,0,0,3.07-1.68,5.39,5.39,0,0,0,1.54-3.73,3.31,3.31,0,0,0-.59-2,1.88,1.88,0,0,0-1.58-.78,3.37,3.37,0,0,0-2.83,2A7.67,7.67,0,0,0,534.79,107.48Z"/><path class="cls-1" d="M547.17,106.86q.1-.18.25-.51a18.17,18.17,0,0,1,1.28-2.51A16.64,16.64,0,0,1,550,102.1a8.07,8.07,0,0,1,1.28-1.26,4.19,4.19,0,0,1,1.05-.6,2.69,2.69,0,0,1,.91-.17,2,2,0,0,1,1.46.54,1.68,1.68,0,0,1,.56,1.26.91.91,0,0,1-.2.57.73.73,0,0,1-.61.26,1.07,1.07,0,0,1-.79-.38,1.08,1.08,0,0,0-.77-.38q-1.07,0-3,2.58a12.23,12.23,0,0,0-2.3,5.69,1.73,1.73,0,0,1-.39,1.06,1.18,1.18,0,0,1-.81.26q-.5,0-.73-.75a9.79,9.79,0,0,1-.23-2.52q0-.48.05-2.12a26.78,26.78,0,0,1,.25-3.13q0-.19.1-.91a5.26,5.26,0,0,1,.18-1.1,1.31,1.31,0,0,1,.44-.57,1.13,1.13,0,0,1,.72-.27.68.68,0,0,1,.57.24.83.83,0,0,1,.19.52,4.5,4.5,0,0,1-.21,1.13,9,9,0,0,0-.28,1.12,6.1,6.1,0,0,1-.11.73,19.38,19.38,0,0,0-.21,2.32v.66Z"/><path class="cls-1" d="M560.89,100.59q1.06-.08,2-.19a14.38,14.38,0,0,1,1.54-.1,2.07,2.07,0,0,1,1,.14.57.57,0,0,1,.21.5q0,.83-1.16.9-1.49.09-2.74.26a4.6,4.6,0,0,0-1.35.27,18.85,18.85,0,0,0-.62,2.44,18.47,18.47,0,0,0-.52,3,2.6,2.6,0,0,0,.3,1.5,1.07,1.07,0,0,0,.89.37,4.52,4.52,0,0,0,2.45-1.32,1.71,1.71,0,0,1,.93-.54c.29,0,.44.16.44.47q0,.74-1.42,1.91a4.54,4.54,0,0,1-2.91,1.17q-2.48,0-2.48-2.92a16.23,16.23,0,0,1,.51-3.27,19.49,19.49,0,0,0,.5-2.65q0-.15-.25-.15l-1.07.09q-1.31,0-1.31-1a.53.53,0,0,1,.61-.59h2.11a.49.49,0,0,0,.38-.19,5.07,5.07,0,0,0,.48-1.31q.32-1.11.56-2.2t1-1.08a.83.83,0,0,1,.69.31,1,1,0,0,1,.25.57,13.61,13.61,0,0,1-.37,1.47Z"/><path class="cls-1" d="M571.72,108.59q0-.67-1.64-1.52a15.44,15.44,0,0,1-2.81-1.71,1.87,1.87,0,0,1-.73-1.43,4,4,0,0,1,2-3.38,6.65,6.65,0,0,1,3.34-1.34,2,2,0,0,1,1.2.29,1.18,1.18,0,0,1,.37,1,.68.68,0,0,1-.27.54.78.78,0,0,1-.43.23,1.37,1.37,0,0,1-.44-.15,1.47,1.47,0,0,0-.43-.14,6.55,6.55,0,0,0-2.08.75q-1.57.75-1.57,1.69a1.35,1.35,0,0,0,.55,1,9.88,9.88,0,0,0,2,1.14,7.6,7.6,0,0,1,1.85,1.18,1.94,1.94,0,0,1,.69,1.48q0,1.57-2.16,2.46a10.9,10.9,0,0,1-4.13.89q-1.66,0-1.66-1.13a.61.61,0,0,1,.37-.57,1.69,1.69,0,0,1,.75-.18,3.12,3.12,0,0,1,.58.1,3,3,0,0,0,.55.1,8.75,8.75,0,0,0,2.44-.38A2.61,2.61,0,0,0,571.72,108.59Z"/><path class="cls-1" d="M576.94,108.1h.23a.82.82,0,0,1,.44.18.56.56,0,0,1,.26.49,1.51,1.51,0,0,1-.22.9,3.31,3.31,0,0,1-.69.64,1.5,1.5,0,0,1-.67.35.89.89,0,0,1-.63-.19c-.14-.13-.21-.49-.21-1.07a2.73,2.73,0,0,1,.09-1,.7.7,0,0,1,.45-.24A4.2,4.2,0,0,1,576.94,108.1Z"/><path class="cls-1" d="M42.28,122.55q-.06.4-.69,2.86a15.2,15.2,0,0,0-.39,1.95q-.06.53-.15,1.16a28.22,28.22,0,0,0-.41,3.59,22.88,22.88,0,0,0,.17,2.84,1.29,1.29,0,0,1-.29,1.17,1.16,1.16,0,0,1-.78.36.79.79,0,0,1-.77-.62,6.68,6.68,0,0,1-.22-2,26.86,26.86,0,0,1,.41-4q.14-1,.16-1.16a6.79,6.79,0,0,1,.08-.72q.05-.36.08-.72a19.82,19.82,0,0,1,.37-2.49q.23-1.16.33-2a3.47,3.47,0,0,1,.16-.83,1.26,1.26,0,0,1,.48-.47,1.24,1.24,0,0,1,.58-.26.69.69,0,0,1,.65.42A2.08,2.08,0,0,1,42.28,122.55Z"/><path class="cls-1" d="M49,125.79q1.06-.08,2-.2a14.38,14.38,0,0,1,1.54-.1,2.07,2.07,0,0,1,1,.14.57.57,0,0,1,.21.5q0,.83-1.16.9-1.49.09-2.74.26a4.59,4.59,0,0,0-1.35.27,18.75,18.75,0,0,0-.62,2.44,18.45,18.45,0,0,0-.52,3,2.6,2.6,0,0,0,.3,1.5,1.07,1.07,0,0,0,.89.37,4.52,4.52,0,0,0,2.45-1.32,1.71,1.71,0,0,1,.93-.54q.44,0,.44.47,0,.74-1.42,1.91A4.54,4.54,0,0,1,48,136.61q-2.48,0-2.48-2.92a16.23,16.23,0,0,1,.51-3.27,19.53,19.53,0,0,0,.5-2.65c0-.1-.08-.15-.25-.15l-1.07.09q-1.31,0-1.31-1a.53.53,0,0,1,.6-.59H46.6a.49.49,0,0,0,.38-.19,5,5,0,0,0,.48-1.31q.32-1.11.56-2.2t1-1.08a.83.83,0,0,1,.69.31,1,1,0,0,1,.25.57,13.55,13.55,0,0,1-.37,1.47Z"/><path class="cls-1" d="M54.86,119.92q0-.1.42-.27a1.64,1.64,0,0,1,.55-.17q.16,0,.64.48l.28.29a3.19,3.19,0,0,1,.71,1.07,1.69,1.69,0,0,1,.1.69,8.9,8.9,0,0,1-.61,2.62q-.61,1.75-1.45,1.75a.82.82,0,0,1-.53-.18.58.58,0,0,1-.23-.47,1.12,1.12,0,0,1,.42-.88,2.81,2.81,0,0,0,1-2.2q0-.51-.87-1.28a3.68,3.68,0,0,1-.33-.31,1.68,1.68,0,0,1-.07-.57A2,2,0,0,1,54.86,119.92Z"/><path class="cls-1" d="M64.76,133.79q0-.67-1.64-1.52a15.44,15.44,0,0,1-2.81-1.71,1.87,1.87,0,0,1-.73-1.43,4,4,0,0,1,2-3.38A6.65,6.65,0,0,1,65,124.4a2,2,0,0,1,1.2.29,1.18,1.18,0,0,1,.37,1,.68.68,0,0,1-.27.54.79.79,0,0,1-.43.23,1.35,1.35,0,0,1-.44-.15,1.49,1.49,0,0,0-.43-.14,6.54,6.54,0,0,0-2.08.75q-1.57.75-1.57,1.69a1.35,1.35,0,0,0,.55,1,9.88,9.88,0,0,0,2,1.14A7.6,7.6,0,0,1,65.71,132a1.94,1.94,0,0,1,.69,1.48q0,1.57-2.16,2.46a10.9,10.9,0,0,1-4.13.89q-1.66,0-1.66-1.13a.6.6,0,0,1,.37-.57,1.69,1.69,0,0,1,.75-.18,3.12,3.12,0,0,1,.58.1,3,3,0,0,0,.55.1,8.75,8.75,0,0,0,2.44-.38A2.61,2.61,0,0,0,64.76,133.79Z"/><path class="cls-1" d="M81.08,125.79q1.06-.08,2-.2a14.38,14.38,0,0,1,1.54-.1,2.07,2.07,0,0,1,1,.14.57.57,0,0,1,.21.5q0,.83-1.16.9-1.49.09-2.74.26a4.59,4.59,0,0,0-1.35.27,18.75,18.75,0,0,0-.62,2.44,18.45,18.45,0,0,0-.52,3,2.6,2.6,0,0,0,.3,1.5,1.07,1.07,0,0,0,.89.37,4.52,4.52,0,0,0,2.45-1.32A1.71,1.71,0,0,1,84,133q.44,0,.44.47,0,.74-1.42,1.91a4.54,4.54,0,0,1-2.91,1.17q-2.48,0-2.48-2.92a16.23,16.23,0,0,1,.51-3.27,19.53,19.53,0,0,0,.5-2.65c0-.1-.08-.15-.25-.15l-1.07.09q-1.31,0-1.31-1a.53.53,0,0,1,.6-.59h2.11a.49.49,0,0,0,.38-.19,5,5,0,0,0,.48-1.31q.32-1.11.56-2.2t1-1.08a.83.83,0,0,1,.69.31,1,1,0,0,1,.25.57,13.55,13.55,0,0,1-.37,1.47Z"/><path class="cls-1" d="M88.71,133.86a8.19,8.19,0,0,0,.22,1.75,1.48,1.48,0,0,1,0,.31c0,.12-.11.28-.34.48a1.09,1.09,0,0,1-.72.29q-1,0-1-1.83a35.81,35.81,0,0,1,.78-6,14.35,14.35,0,0,0,.27-1.75,2.37,2.37,0,0,1,.24-1.1.73.73,0,0,1,.67-.46,1.25,1.25,0,0,1,.83.25.72.72,0,0,1,.3.56,3.1,3.1,0,0,1-.14.81,38.18,38.18,0,0,0-1,3.88A18.09,18.09,0,0,0,88.71,133.86Zm1.34-11.45q-.22,0-.33-.46a3.12,3.12,0,0,0-.11-.32,3.09,3.09,0,0,1-.28-1.16,1.17,1.17,0,0,1,.49-.84,1.61,1.61,0,0,1,1.08-.43,1.29,1.29,0,0,1,.67.23q.37.23.37.45a4.57,4.57,0,0,1-.25,1.15,1.72,1.72,0,0,1-.8,1.09A2.07,2.07,0,0,1,90.05,122.4Z"/><path class="cls-1" d="M100.56,128q-1,0-4.08,5.65a19.27,19.27,0,0,1-1.23,2.07,1.58,1.58,0,0,1-.64.3,2.93,2.93,0,0,1-.77.13q-.69,0-.69-2.68A40.39,40.39,0,0,1,93.8,128a16,16,0,0,0,.27-2.29q0-.68.6-.68,1.14,0,1.14,1.64a22.57,22.57,0,0,1-.38,3Q95,132.3,95,132.85a14.73,14.73,0,0,0,1.87-2.7,20.08,20.08,0,0,1,2.57-3.61,2.51,2.51,0,0,1,1.71-.76q.67,0,1.06.89a14.51,14.51,0,0,1,.48,4.26,4.72,4.72,0,0,0,.15,1.25q.13.41.19.41.48,0,2.09-3.28a11.89,11.89,0,0,1,1.68-2.64,2.41,2.41,0,0,1,1.81-.9,1.26,1.26,0,0,1,1.21.86,8.65,8.65,0,0,1,.54,2.54,23.51,23.51,0,0,0,.48,3.12,2.42,2.42,0,0,0,1.18,1.81q.58.28.58.65a1,1,0,0,1-.49.74,1.53,1.53,0,0,1-.9.38,1.8,1.8,0,0,1-1.47-1,11.46,11.46,0,0,1-1-4.35,17.59,17.59,0,0,0-.28-1.91c-.09-.37-.23-.56-.42-.56s-.63.27-1,.82a33,33,0,0,0-1.9,3.33,18.23,18.23,0,0,1-1.55,2.61,1.42,1.42,0,0,1-1,.65,1.08,1.08,0,0,1-.79-.35,1.6,1.6,0,0,1-.44-.85q-.09-.5-.19-2.45Q101,128.56,100.56,128Z"/><path class="cls-1" d="M123.18,132.66q0,1-1.85,2.52a6.07,6.07,0,0,1-3.82,1.48,3.29,3.29,0,0,1-2.55-1,3.86,3.86,0,0,1-.9-2.72,9.17,9.17,0,0,1,2-5.58q2-2.65,4.33-2.65a1.69,1.69,0,0,1,1.74,1.71,4.17,4.17,0,0,1-1.55,3,19.89,19.89,0,0,1-4.14,2.84.82.82,0,0,0-.53.72,1.89,1.89,0,0,0,.49,1.36,1.93,1.93,0,0,0,1.46.51q2.2,0,4.5-2.44c.23-.23.4-.34.51-.34S123.18,132.31,123.18,132.66Zm-7.13-1.6q4.35-2.58,4.35-4.15,0-.62-.55-.62a3.16,3.16,0,0,0-2.13,1.38A8,8,0,0,0,116.06,131.06Z"/><path class="cls-1" d="M137.9,125.79q1.06-.08,2-.2a14.38,14.38,0,0,1,1.54-.1,2.07,2.07,0,0,1,1,.14.57.57,0,0,1,.21.5q0,.83-1.16.9-1.49.09-2.74.26a4.59,4.59,0,0,0-1.35.27,18.75,18.75,0,0,0-.62,2.44,18.45,18.45,0,0,0-.52,3,2.6,2.6,0,0,0,.3,1.5,1.07,1.07,0,0,0,.89.37,4.52,4.52,0,0,0,2.45-1.32,1.71,1.71,0,0,1,.93-.54q.44,0,.44.47,0,.74-1.42,1.91a4.54,4.54,0,0,1-2.91,1.17q-2.48,0-2.48-2.92a16.23,16.23,0,0,1,.51-3.27,19.53,19.53,0,0,0,.5-2.65c0-.1-.08-.15-.25-.15l-1.07.09q-1.31,0-1.31-1a.53.53,0,0,1,.6-.59h2.11a.49.49,0,0,0,.38-.19,5,5,0,0,0,.48-1.31q.32-1.11.56-2.2t1-1.08a.83.83,0,0,1,.69.31,1,1,0,0,1,.25.57,13.55,13.55,0,0,1-.37,1.47Z"/><path class="cls-1" d="M146.56,136.65a2.92,2.92,0,0,1-2.32-1.07,3.91,3.91,0,0,1-.91-2.64,9.08,9.08,0,0,1,1.78-5.21,5.13,5.13,0,0,1,4.26-2.57,3.26,3.26,0,0,1,2.66,1.26,4.63,4.63,0,0,1,1,3,7.15,7.15,0,0,1-2.11,4.94A6,6,0,0,1,146.56,136.65Zm-1.43-4a3,3,0,0,0,.44,1.69,1.33,1.33,0,0,0,1.15.66,4.29,4.29,0,0,0,3.07-1.68,5.39,5.39,0,0,0,1.54-3.73,3.32,3.32,0,0,0-.59-2,1.88,1.88,0,0,0-1.58-.79,3.37,3.37,0,0,0-2.83,2A7.68,7.68,0,0,0,145.14,132.68Z"/><path class="cls-1" d="M169,133.79q0-.67-1.64-1.52a15.44,15.44,0,0,1-2.81-1.71,1.87,1.87,0,0,1-.73-1.43,4,4,0,0,1,2-3.38,6.65,6.65,0,0,1,3.34-1.34,2,2,0,0,1,1.2.29,1.18,1.18,0,0,1,.37,1,.68.68,0,0,1-.27.54.79.79,0,0,1-.43.23,1.35,1.35,0,0,1-.44-.15,1.49,1.49,0,0,0-.43-.14,6.54,6.54,0,0,0-2.08.75q-1.57.75-1.57,1.69a1.35,1.35,0,0,0,.55,1,9.88,9.88,0,0,0,2,1.14,7.6,7.6,0,0,1,1.85,1.18,1.94,1.94,0,0,1,.69,1.48q0,1.57-2.16,2.46a10.9,10.9,0,0,1-4.13.89q-1.66,0-1.66-1.13a.6.6,0,0,1,.37-.57,1.69,1.69,0,0,1,.75-.18,3.12,3.12,0,0,1,.58.1,3,3,0,0,0,.55.1,8.75,8.75,0,0,0,2.44-.38A2.61,2.61,0,0,0,169,133.79Z"/><path class="cls-1" d="M174.43,133.06q3.81-7,6.29-7a1.21,1.21,0,0,1,1.07.75,10.57,10.57,0,0,1,.67,3.32,8.07,8.07,0,0,0,1.16,4,1.92,1.92,0,0,1,.46.92.62.62,0,0,1-.31.49,1.09,1.09,0,0,1-.66.23,1.73,1.73,0,0,1-1.42-.9,6.83,6.83,0,0,1-.79-3.15,17.31,17.31,0,0,0-.37-2.79c-.13-.44-.35-.66-.65-.66q-1.08,0-4.34,5.63a15.72,15.72,0,0,1-1.44,2.2,1.24,1.24,0,0,1-.84.52,1.12,1.12,0,0,1-.76-.27.83.83,0,0,1-.31-.66,7,7,0,0,1,.16-1.11q1.26-6.51,2-12.88a4.49,4.49,0,0,1,.53-2q.36-.49.61-.49a1.11,1.11,0,0,1,.8.36,1.34,1.34,0,0,1,.36,1,20.52,20.52,0,0,1-.92,5.18q-.45,1.63-1,4.14a23.58,23.58,0,0,0-.5,3.11q0,.12.11.12Z"/><path class="cls-1" d="M188.89,136.65a2.92,2.92,0,0,1-2.32-1.07,3.91,3.91,0,0,1-.91-2.64,9.08,9.08,0,0,1,1.78-5.21,5.13,5.13,0,0,1,4.26-2.57,3.26,3.26,0,0,1,2.66,1.26,4.63,4.63,0,0,1,1,3,7.15,7.15,0,0,1-2.11,4.94A6,6,0,0,1,188.89,136.65Zm-1.43-4a3,3,0,0,0,.44,1.69,1.33,1.33,0,0,0,1.15.66,4.29,4.29,0,0,0,3.07-1.68,5.39,5.39,0,0,0,1.54-3.73,3.32,3.32,0,0,0-.59-2,1.88,1.88,0,0,0-1.58-.79,3.37,3.37,0,0,0-2.83,2A7.68,7.68,0,0,0,187.47,132.68Z"/><path class="cls-1" d="M205.89,129.35q-.29,0-1.38,2.39a33.17,33.17,0,0,1-1.85,3.49q-.94,1.53-1.38,1.53-1.27,0-2.35-3.78a23.32,23.32,0,0,1-1.08-6.08,2,2,0,0,1,.37-1.24,1.22,1.22,0,0,1,.89-.53h.26c.12,0,.27.12.45.34a1,1,0,0,1,.27.63v0c0,.08,0,.42-.11,1a12.17,12.17,0,0,0-.09,1.63,11.26,11.26,0,0,0,.58,3.37q.58,1.85,1,1.85t1.9-3.12q1-2,1.46-2.73l.33-.62a6,6,0,0,1,1.34-1.87c.59.08.88.37.88.88a1.9,1.9,0,0,1,0,.43,1.93,1.93,0,0,0,0,.43,9.27,9.27,0,0,0,1,4q1,2.08,1.4,2.08t1-2.17a28,28,0,0,1,1.67-4.43,6.5,6.5,0,0,1,1.12-1.75,1.29,1.29,0,0,1,.81-.28.54.54,0,0,1,.44.22.74.74,0,0,1,.18.48.88.88,0,0,1-.11.52,18.43,18.43,0,0,0-2.44,5.22q-1,3-1.36,3.82t-.62.78a2.57,2.57,0,0,1-2-.91,17.62,17.62,0,0,1-2.09-4.83C206.09,129.85,206,129.58,205.89,129.35Z"/><path class="cls-1" d="M232.26,132.51a17.9,17.9,0,0,1-3.32,2.38,5.35,5.35,0,0,1-2.19.74,1.73,1.73,0,0,1-1.55-.85,3.59,3.59,0,0,1-.54-2,15.15,15.15,0,0,1,.64-3.9,12.46,12.46,0,0,1,1-2.76,1.15,1.15,0,0,1,1-.44.54.54,0,0,1,.47.34,1.58,1.58,0,0,1,.18.77,1.45,1.45,0,0,1-.24.67,11.58,11.58,0,0,0-.58,1.07q0,.1-.39,1.24a6.89,6.89,0,0,0-.37,2.13,5.49,5.49,0,0,0,.17,1.09q.17.74.7.74a3.76,3.76,0,0,0,1.39-.34,8.83,8.83,0,0,0,1.86-1.12,7.31,7.31,0,0,0,1.39-1.26,3,3,0,0,0,.51-1.1,16.73,16.73,0,0,0,.21-2.67q.06-2.05,1-2.05c.37,0,.61.1.72.29a2.54,2.54,0,0,1,.16,1.11q0,.68-.09,1.69-.11,1.28-.14,1.83a37.22,37.22,0,0,1-.73,5.67,15.58,15.58,0,0,1-1.72,4.76,3.46,3.46,0,0,1-3.11,1.91,6.26,6.26,0,0,1-3.57-1.05q-1.56-1.05-1.56-1.78a1.52,1.52,0,0,1,.16-.67q.16-.33.41-.33c.08,0,.17.07.27.2a4.68,4.68,0,0,0,4.22,2.06q1.49,0,2.5-2.61a15.56,15.56,0,0,0,1.11-4.9Q232.19,133,232.26,132.51Z"/><path class="cls-1" d="M240.08,136.65a2.92,2.92,0,0,1-2.32-1.07,3.91,3.91,0,0,1-.91-2.64,9.08,9.08,0,0,1,1.78-5.21,5.13,5.13,0,0,1,4.26-2.57,3.26,3.26,0,0,1,2.66,1.26,4.63,4.63,0,0,1,1,3,7.15,7.15,0,0,1-2.11,4.94A6,6,0,0,1,240.08,136.65Zm-1.43-4a3,3,0,0,0,.44,1.69,1.33,1.33,0,0,0,1.15.66,4.29,4.29,0,0,0,3.07-1.68,5.39,5.39,0,0,0,1.54-3.73,3.32,3.32,0,0,0-.59-2,1.88,1.88,0,0,0-1.58-.79,3.37,3.37,0,0,0-2.83,2A7.68,7.68,0,0,0,238.65,132.68Z"/><path class="cls-1" d="M256.2,131.67a14.19,14.19,0,0,1-2.69,3.42A4,4,0,0,1,251,136.3a1.93,1.93,0,0,1-1.38-.79,3.57,3.57,0,0,1-.7-2.43,18.11,18.11,0,0,1,.65-4,15,15,0,0,0,.54-3.07,1,1,0,0,1,.93-.62.86.86,0,0,1,.69.3,1,1,0,0,1,.26.63,6.3,6.3,0,0,1-.5,2,13.09,13.09,0,0,0-1,4.42q0,1.68.78,1.68,1,0,2.53-1.69a14.1,14.1,0,0,0,2.64-4.72,7,7,0,0,1,.7-1.57.87.87,0,0,1,.73-.36q.7,0,.7.92a4.59,4.59,0,0,1-.19.75,16.08,16.08,0,0,0-.62,4.24q0,2.4.79,3.11.41.38.41.62c0,.19-.14.37-.42.52a1.57,1.57,0,0,1-.75.24q-.72,0-1.16-1.07a8.63,8.63,0,0,1-.44-3.15V132C256.19,131.9,256.19,131.79,256.2,131.67Z"/><path class="cls-1" d="M271.85,133.06q3.81-7,6.29-7a1.21,1.21,0,0,1,1.07.75,10.57,10.57,0,0,1,.67,3.32,8.07,8.07,0,0,0,1.16,4,1.92,1.92,0,0,1,.46.92.62.62,0,0,1-.31.49,1.09,1.09,0,0,1-.66.23,1.73,1.73,0,0,1-1.42-.9,6.83,6.83,0,0,1-.79-3.15,17.31,17.31,0,0,0-.37-2.79c-.13-.44-.35-.66-.65-.66q-1.08,0-4.34,5.63a15.72,15.72,0,0,1-1.44,2.2,1.24,1.24,0,0,1-.84.52,1.12,1.12,0,0,1-.76-.27.83.83,0,0,1-.31-.66,7,7,0,0,1,.16-1.11q1.26-6.51,2-12.88a4.49,4.49,0,0,1,.53-2q.36-.49.61-.49a1.11,1.11,0,0,1,.8.36,1.34,1.34,0,0,1,.36,1,20.52,20.52,0,0,1-.92,5.18q-.45,1.63-1,4.14a23.58,23.58,0,0,0-.5,3.11q0,.12.11.12Z"/><path class="cls-1" d="M286.3,136.65a2.92,2.92,0,0,1-2.32-1.07,3.91,3.91,0,0,1-.91-2.64,9.08,9.08,0,0,1,1.78-5.21,5.13,5.13,0,0,1,4.26-2.57,3.26,3.26,0,0,1,2.66,1.26,4.63,4.63,0,0,1,1,3,7.15,7.15,0,0,1-2.11,4.94A6,6,0,0,1,286.3,136.65Zm-1.43-4a3,3,0,0,0,.44,1.69,1.33,1.33,0,0,0,1.15.66,4.29,4.29,0,0,0,3.07-1.68,5.39,5.39,0,0,0,1.54-3.73,3.32,3.32,0,0,0-.59-2,1.88,1.88,0,0,0-1.58-.79,3.37,3.37,0,0,0-2.83,2A7.68,7.68,0,0,0,284.88,132.68Z"/><path class="cls-1" d="M303.3,129.35q-.29,0-1.38,2.39a33.17,33.17,0,0,1-1.85,3.49q-.94,1.53-1.38,1.53-1.27,0-2.35-3.78a23.32,23.32,0,0,1-1.08-6.08,2,2,0,0,1,.37-1.24,1.22,1.22,0,0,1,.89-.53h.26c.12,0,.27.12.45.34a1,1,0,0,1,.27.63v0c0,.08,0,.42-.11,1a12.16,12.16,0,0,0-.09,1.63,11.26,11.26,0,0,0,.58,3.37q.58,1.85,1,1.85t1.9-3.12q1-2,1.46-2.73l.33-.62a6,6,0,0,1,1.34-1.87c.59.08.88.37.88.88a1.9,1.9,0,0,1,0,.43,1.93,1.93,0,0,0,0,.43,9.27,9.27,0,0,0,1,4q1,2.08,1.4,2.08t1-2.17a28,28,0,0,1,1.67-4.43,6.49,6.49,0,0,1,1.12-1.75,1.29,1.29,0,0,1,.81-.28.54.54,0,0,1,.44.22.74.74,0,0,1,.18.48.88.88,0,0,1-.11.52,18.43,18.43,0,0,0-2.44,5.22q-1,3-1.36,3.82t-.62.78a2.57,2.57,0,0,1-2-.91,17.62,17.62,0,0,1-2.09-4.83C303.5,129.85,303.4,129.58,303.3,129.35Z"/><path class="cls-1" d="M326.26,125.79q1.06-.08,2-.2a14.38,14.38,0,0,1,1.54-.1,2.07,2.07,0,0,1,1,.14.57.57,0,0,1,.21.5q0,.83-1.16.9-1.49.09-2.74.26a4.6,4.6,0,0,0-1.35.27,18.85,18.85,0,0,0-.62,2.44,18.43,18.43,0,0,0-.52,3,2.6,2.6,0,0,0,.3,1.5,1.07,1.07,0,0,0,.89.37,4.51,4.51,0,0,0,2.45-1.32,1.71,1.71,0,0,1,.93-.54q.44,0,.44.47,0,.74-1.42,1.91a4.54,4.54,0,0,1-2.91,1.17q-2.48,0-2.48-2.92a16.23,16.23,0,0,1,.51-3.27,19.57,19.57,0,0,0,.5-2.65c0-.1-.08-.15-.25-.15l-1.07.09q-1.31,0-1.31-1a.53.53,0,0,1,.6-.59h2.11a.49.49,0,0,0,.38-.19,5,5,0,0,0,.48-1.31q.32-1.11.56-2.2t1-1.08a.83.83,0,0,1,.69.31,1,1,0,0,1,.25.57,13.55,13.55,0,0,1-.37,1.47Z"/><path class="cls-1" d="M334.93,136.65a2.92,2.92,0,0,1-2.32-1.07,3.91,3.91,0,0,1-.91-2.64,9.08,9.08,0,0,1,1.78-5.21,5.13,5.13,0,0,1,4.26-2.57,3.26,3.26,0,0,1,2.66,1.26,4.63,4.63,0,0,1,1,3,7.15,7.15,0,0,1-2.11,4.94A6,6,0,0,1,334.93,136.65Zm-1.43-4a3,3,0,0,0,.44,1.69,1.33,1.33,0,0,0,1.15.66,4.29,4.29,0,0,0,3.07-1.68,5.39,5.39,0,0,0,1.54-3.73,3.31,3.31,0,0,0-.59-2,1.88,1.88,0,0,0-1.58-.79,3.37,3.37,0,0,0-2.83,2A7.68,7.68,0,0,0,333.5,132.68Z"/><path class="cls-1" d="M355,136.72a3.08,3.08,0,0,1-2.36-.88,3.48,3.48,0,0,1-.83-2.47,9.82,9.82,0,0,1,2.12-5.64q2.12-3,3.95-3a1.71,1.71,0,0,1,1.43.9,3.36,3.36,0,0,1,.6,1.9,2,2,0,0,1-.26,1q-.26.44-.53.44-.59,0-.84-1.2t-.8-1.29q-1.07,0-2.52,2.53a9.06,9.06,0,0,0-1.46,4.28q0,1.74,2,1.74a6.56,6.56,0,0,0,3.55-1.42,2.26,2.26,0,0,1,1.06-.5q.35,0,.35.4,0,.78-1.84,2A6.63,6.63,0,0,1,355,136.72Z"/><path class="cls-1" d="M370.09,131.67a14.19,14.19,0,0,1-2.69,3.42,4,4,0,0,1-2.55,1.21,1.93,1.93,0,0,1-1.38-.79,3.57,3.57,0,0,1-.7-2.43,18.11,18.11,0,0,1,.65-4,15,15,0,0,0,.54-3.07,1,1,0,0,1,.93-.62.86.86,0,0,1,.69.3,1,1,0,0,1,.26.63,6.31,6.31,0,0,1-.5,2,13.09,13.09,0,0,0-1,4.42q0,1.68.78,1.68,1,0,2.53-1.69a14.11,14.11,0,0,0,2.64-4.72,7,7,0,0,1,.7-1.57.87.87,0,0,1,.73-.36q.7,0,.7.92a4.62,4.62,0,0,1-.2.75,16.08,16.08,0,0,0-.62,4.24q0,2.4.79,3.11.41.38.41.62c0,.19-.14.37-.42.52a1.57,1.57,0,0,1-.75.24q-.72,0-1.16-1.07a8.63,8.63,0,0,1-.44-3.15V132C370.08,131.9,370.08,131.79,370.09,131.67Z"/><path class="cls-1" d="M379.83,125.79q1.06-.08,2-.2a14.38,14.38,0,0,1,1.54-.1,2.07,2.07,0,0,1,1,.14.57.57,0,0,1,.21.5q0,.83-1.16.9-1.49.09-2.74.26a4.6,4.6,0,0,0-1.35.27,18.85,18.85,0,0,0-.62,2.44,18.43,18.43,0,0,0-.52,3,2.6,2.6,0,0,0,.3,1.5,1.07,1.07,0,0,0,.89.37,4.51,4.51,0,0,0,2.45-1.32,1.71,1.71,0,0,1,.93-.54q.44,0,.44.47,0,.74-1.42,1.91a4.54,4.54,0,0,1-2.91,1.17q-2.48,0-2.48-2.92a16.23,16.23,0,0,1,.51-3.27,19.57,19.57,0,0,0,.5-2.65c0-.1-.08-.15-.25-.15l-1.07.09q-1.31,0-1.31-1a.53.53,0,0,1,.6-.59h2.11a.49.49,0,0,0,.38-.19,5,5,0,0,0,.48-1.31q.32-1.11.56-2.2t1-1.08a.83.83,0,0,1,.69.31,1,1,0,0,1,.25.57,13.55,13.55,0,0,1-.37,1.47Z"/><path class="cls-1" d="M400.81,132.4a12.56,12.56,0,0,1-2.84,2.89,4.66,4.66,0,0,1-2.57,1,1.75,1.75,0,0,1-1.36-.67,2.53,2.53,0,0,1-.57-1.71,9.73,9.73,0,0,1,2.41-5.81q2.41-3.11,4.79-3.11a1.37,1.37,0,0,1,1.28,1,.45.45,0,0,0,.42.33q.82,0,.82.64a5.11,5.11,0,0,1-.1.87,27.67,27.67,0,0,0-.55,4.27q0,2.48.94,3a.71.71,0,0,1,.45.6.87.87,0,0,1-.44.64,1.45,1.45,0,0,1-.85.32q-.79,0-1.3-1.09A7.46,7.46,0,0,1,400.81,132.4Zm-.62-5.77q-1.35,0-3.15,2.54a8,8,0,0,0-1.79,4.21q0,1.18.78,1.18,1.13,0,3.13-2.28a6.64,6.64,0,0,0,2-4.18Q401.15,126.63,400.18,126.63Z"/><path class="cls-1" d="M413.21,128.25a1.71,1.71,0,0,0-1.16.7,18.44,18.44,0,0,0-1.92,3.13,20.66,20.66,0,0,1-2.2,3.71,1.39,1.39,0,0,1-.83.45,1.05,1.05,0,0,1-1.21-1.17,8.39,8.39,0,0,1,.16-1.39,36.41,36.41,0,0,0,.56-6.53,1.56,1.56,0,0,1,.33-.87q.33-.48.63-.48a.86.86,0,0,1,.76.33,2.61,2.61,0,0,1,.22,1.32,29.26,29.26,0,0,1-.62,4.27,10,10,0,0,0-.21,1.35c0,.11,0,.16.08.16a11.71,11.71,0,0,0,1.43-2.45,16,16,0,0,1,2.25-3.51,2.88,2.88,0,0,1,2.12-1,1.75,1.75,0,0,1,1.5.84,7.35,7.35,0,0,1,.85,3.07,18.22,18.22,0,0,0,.52,3.15q.23.62.73.62a2,2,0,0,0,.8-.23l.12,0c.29,0,.44.17.44.51a1.37,1.37,0,0,1-.6,1,2.2,2.2,0,0,1-1.46.51,1.54,1.54,0,0,1-1.35-.69,10,10,0,0,1-.75-3.7Q414.13,128.25,413.21,128.25Z"/><path class="cls-1" d="M435.46,132.4a12.58,12.58,0,0,1-2.84,2.89,4.66,4.66,0,0,1-2.57,1,1.75,1.75,0,0,1-1.36-.67,2.53,2.53,0,0,1-.57-1.71,9.73,9.73,0,0,1,2.41-5.81q2.41-3.11,4.79-3.11a1.37,1.37,0,0,1,1.28,1,.45.45,0,0,0,.42.33q.82,0,.82.64a5.09,5.09,0,0,1-.1.87,27.71,27.71,0,0,0-.55,4.27q0,2.48.94,3a.71.71,0,0,1,.45.6.87.87,0,0,1-.44.64,1.45,1.45,0,0,1-.85.32q-.79,0-1.3-1.09A7.46,7.46,0,0,1,435.46,132.4Zm-.63-5.77q-1.35,0-3.15,2.54a7.94,7.94,0,0,0-1.79,4.21q0,1.18.78,1.18,1.13,0,3.13-2.28a6.64,6.64,0,0,0,2-4.18Q435.79,126.63,434.83,126.63Z"/><path class="cls-1" d="M448.22,131.89a12.85,12.85,0,0,1-2.91,3.4,4.77,4.77,0,0,1-2.83,1.19,1.87,1.87,0,0,1-1.57-.76,3.29,3.29,0,0,1-.58-2,8.76,8.76,0,0,1,2.11-5.32q2.11-2.73,4.55-2.73a2.77,2.77,0,0,1,2,.91l1.44-6.71a1.32,1.32,0,0,1,.57-.92,1.46,1.46,0,0,1,.65-.24q.72,0,.72,1.27a10.84,10.84,0,0,1-.47,1.68,49.36,49.36,0,0,0-1.42,5.54,27.8,27.8,0,0,0-.67,5.28q0,2.05.89,2.05a2.27,2.27,0,0,0,1.19-.38.84.84,0,0,1,.48-.18c.22,0,.33.14.33.43s-.31.75-.92,1.21a3.11,3.11,0,0,1-1.88.69q-1.69,0-1.69-3.26Q448.17,132.45,448.22,131.89Zm-1.34-4.8q-1.66,0-3.29,2.25A7.26,7.26,0,0,0,442,133.5q0,1.28.85,1.28a3.53,3.53,0,0,0,1.94-.84,10.39,10.39,0,0,0,2.35-2.68,6,6,0,0,0,1.21-2.76,1.44,1.44,0,0,0-.42-.93A1.3,1.3,0,0,0,446.88,127.09Z"/><path class="cls-1" d="M465.19,136.61a.73.73,0,0,1-.39.43,1.31,1.31,0,0,1-.64.17q-1,0-1-1.53,0-.73.48-4.12a24.32,24.32,0,0,0,.3-3.16q0-.18-.43-.48t-.44-.56q0-.44.67-1a1.64,1.64,0,0,0,.63-.89q.12-.49.27-1.36a10.2,10.2,0,0,1,1.64-4.58,3.46,3.46,0,0,1,2.83-1.4,2.13,2.13,0,0,1,1.55.62,2.07,2.07,0,0,1,.64,1.54,4.92,4.92,0,0,1-.35,1.7q-.35.95-.8.95a.3.3,0,0,1-.34-.34l.07-1q0-2-1.11-2t-2,2.35a12.69,12.69,0,0,0-.79,3.83q0,.47.62.47,2.68,0,3.15,0t.48.4c0,.28-.17.49-.52.64a9.64,9.64,0,0,1-2.26.39,8.75,8.75,0,0,0-1.68.26,38.82,38.82,0,0,0-.69,6.8,7.73,7.73,0,0,0,.08,1.32A4.12,4.12,0,0,1,465.19,136.61Z"/><path class="cls-1" d="M473,132.06q.1-.18.25-.51a18.16,18.16,0,0,1,1.28-2.51,16.53,16.53,0,0,1,1.29-1.74,8,8,0,0,1,1.28-1.26,4.19,4.19,0,0,1,1.05-.6,2.69,2.69,0,0,1,.91-.17,2,2,0,0,1,1.46.54,1.68,1.68,0,0,1,.56,1.26.91.91,0,0,1-.2.57.73.73,0,0,1-.61.26,1.07,1.07,0,0,1-.79-.38,1.08,1.08,0,0,0-.77-.38q-1.07,0-3,2.58a12.23,12.23,0,0,0-2.3,5.69,1.73,1.73,0,0,1-.39,1.06,1.18,1.18,0,0,1-.81.26q-.5,0-.73-.75a9.78,9.78,0,0,1-.23-2.52q0-.48.05-2.12a26.77,26.77,0,0,1,.25-3.13q0-.19.1-.91a5.25,5.25,0,0,1,.18-1.1,1.31,1.31,0,0,1,.44-.57,1.13,1.13,0,0,1,.72-.27.68.68,0,0,1,.57.24.83.83,0,0,1,.19.52,4.49,4.49,0,0,1-.21,1.13,9,9,0,0,0-.28,1.12,6.07,6.07,0,0,1-.11.73,19.41,19.41,0,0,0-.21,2.32v.66Z"/><path class="cls-1" d="M488.58,132.4a12.58,12.58,0,0,1-2.84,2.89,4.66,4.66,0,0,1-2.57,1,1.75,1.75,0,0,1-1.36-.67,2.53,2.53,0,0,1-.57-1.71,9.73,9.73,0,0,1,2.41-5.81Q486,125,488.43,125a1.37,1.37,0,0,1,1.28,1,.45.45,0,0,0,.42.33q.82,0,.82.64a5.09,5.09,0,0,1-.1.87,27.71,27.71,0,0,0-.55,4.27q0,2.48.94,3a.71.71,0,0,1,.45.6.87.87,0,0,1-.44.64,1.45,1.45,0,0,1-.85.32q-.79,0-1.3-1.09A7.46,7.46,0,0,1,488.58,132.4Zm-.63-5.77q-1.35,0-3.15,2.54a7.94,7.94,0,0,0-1.79,4.21q0,1.18.78,1.18,1.13,0,3.13-2.28a6.64,6.64,0,0,0,2-4.18Q488.92,126.63,488,126.63Z"/><path class="cls-1" d="M501.25,132.42q-.12-.09-.69.57a9.19,9.19,0,0,1-2.38,1.95,5.38,5.38,0,0,1-2.69.85,1.85,1.85,0,0,1-1.45-.58,2.31,2.31,0,0,1-.52-1.6,6.92,6.92,0,0,1,1.2-3.54,11.21,11.21,0,0,1,3.36-3.41,7.07,7.07,0,0,1,3.78-1.46,2.4,2.4,0,0,1,1.5.49l.27.21a1.24,1.24,0,0,1,.35.54,1.85,1.85,0,0,1,.16.65,1.59,1.59,0,0,1-.11.47,19.9,19.9,0,0,0-.85,2.82q-.23,1.12-.49,3.76a34,34,0,0,1-.53,3.66,8,8,0,0,1-1,2.48,5.15,5.15,0,0,1-1.79,1.8,4.28,4.28,0,0,1-2.15.6,6.49,6.49,0,0,1-3.78-1.32q-1.87-1.32-1.87-2.12c0-.34.13-.5.38-.5a3.82,3.82,0,0,1,1.1.6,8.05,8.05,0,0,0,4.34,1.61,2.76,2.76,0,0,0,2.56-1.79,16,16,0,0,0,1.2-5.36Q501.14,133,501.25,132.42Zm0-5.63a4.16,4.16,0,0,0-2.18.9,10.57,10.57,0,0,0-2.54,2.65,5.48,5.48,0,0,0-1.23,2.92.82.82,0,0,0,.81.86,4.85,4.85,0,0,0,2.38-.94,8.34,8.34,0,0,0,2.53-2.62,5.52,5.52,0,0,0,1.06-2.63Q502.07,126.79,501.23,126.79Z"/><path class="cls-1" d="M513.8,128q-1,0-4.08,5.65a19.27,19.27,0,0,1-1.23,2.07,1.58,1.58,0,0,1-.64.3,2.93,2.93,0,0,1-.77.13q-.69,0-.69-2.68A40.41,40.41,0,0,1,507,128a16,16,0,0,0,.27-2.29q0-.68.6-.68,1.14,0,1.14,1.64a22.72,22.72,0,0,1-.38,3,31.42,31.42,0,0,0-.45,3.12,14.79,14.79,0,0,0,1.87-2.7,20.07,20.07,0,0,1,2.57-3.61,2.51,2.51,0,0,1,1.71-.76q.67,0,1.06.89a14.51,14.51,0,0,1,.48,4.26,4.68,4.68,0,0,0,.15,1.25c.09.27.15.41.19.41q.48,0,2.09-3.28a11.89,11.89,0,0,1,1.68-2.64,2.41,2.41,0,0,1,1.81-.9,1.26,1.26,0,0,1,1.21.86,8.65,8.65,0,0,1,.54,2.54,23.67,23.67,0,0,0,.48,3.12,2.42,2.42,0,0,0,1.18,1.81q.58.28.58.65a1,1,0,0,1-.49.74,1.53,1.53,0,0,1-.9.38,1.8,1.8,0,0,1-1.47-1,11.48,11.48,0,0,1-1-4.35,17.88,17.88,0,0,0-.28-1.91c-.09-.37-.23-.56-.42-.56s-.63.27-1,.82a33.07,33.07,0,0,0-1.9,3.33,18.24,18.24,0,0,1-1.55,2.61,1.42,1.42,0,0,1-1,.65,1.08,1.08,0,0,1-.79-.35,1.6,1.6,0,0,1-.44-.85q-.09-.5-.19-2.45Q514.21,128.56,513.8,128Z"/><path class="cls-1" d="M536.42,132.66q0,1-1.85,2.52a6.07,6.07,0,0,1-3.82,1.48,3.29,3.29,0,0,1-2.55-1,3.86,3.86,0,0,1-.9-2.72,9.17,9.17,0,0,1,2-5.58q2-2.65,4.33-2.65a1.69,1.69,0,0,1,1.74,1.71,4.17,4.17,0,0,1-1.55,3,19.89,19.89,0,0,1-4.14,2.84.82.82,0,0,0-.53.72,1.89,1.89,0,0,0,.49,1.36,1.93,1.93,0,0,0,1.46.51q2.2,0,4.5-2.44c.22-.23.4-.34.51-.34S536.42,132.31,536.42,132.66Zm-7.13-1.6q4.35-2.58,4.35-4.15,0-.62-.55-.62a3.16,3.16,0,0,0-2.13,1.38A8,8,0,0,0,529.29,131.06Z"/><path class="cls-1" d="M545.54,128.25a1.71,1.71,0,0,0-1.16.7,18.44,18.44,0,0,0-1.92,3.13,20.66,20.66,0,0,1-2.2,3.71,1.39,1.39,0,0,1-.83.45,1.05,1.05,0,0,1-1.21-1.17,8.39,8.39,0,0,1,.16-1.39,36.41,36.41,0,0,0,.56-6.53,1.56,1.56,0,0,1,.33-.87q.33-.48.63-.48a.86.86,0,0,1,.76.33,2.61,2.61,0,0,1,.22,1.32,29.26,29.26,0,0,1-.62,4.27,10,10,0,0,0-.21,1.35c0,.11,0,.16.08.16a11.71,11.71,0,0,0,1.43-2.45,16,16,0,0,1,2.25-3.51,2.88,2.88,0,0,1,2.12-1,1.75,1.75,0,0,1,1.5.84,7.35,7.35,0,0,1,.85,3.07,18.22,18.22,0,0,0,.52,3.15q.23.62.73.62a2,2,0,0,0,.8-.23l.12,0c.29,0,.44.17.44.51a1.37,1.37,0,0,1-.6,1,2.2,2.2,0,0,1-1.46.51,1.54,1.54,0,0,1-1.35-.69,10,10,0,0,1-.75-3.7Q546.46,128.25,545.54,128.25Z"/><path class="cls-1" d="M556.66,125.79q1.06-.08,2-.2a14.38,14.38,0,0,1,1.54-.1,2.07,2.07,0,0,1,1,.14.57.57,0,0,1,.21.5q0,.83-1.16.9-1.49.09-2.74.26a4.6,4.6,0,0,0-1.35.27,18.85,18.85,0,0,0-.62,2.44,18.47,18.47,0,0,0-.52,3,2.6,2.6,0,0,0,.3,1.5,1.07,1.07,0,0,0,.89.37,4.52,4.52,0,0,0,2.45-1.32,1.71,1.71,0,0,1,.93-.54c.29,0,.44.16.44.47q0,.74-1.42,1.91a4.54,4.54,0,0,1-2.91,1.17q-2.48,0-2.48-2.92a16.23,16.23,0,0,1,.51-3.27,19.49,19.49,0,0,0,.5-2.65c0-.1-.08-.15-.25-.15l-1.07.09q-1.31,0-1.31-1a.53.53,0,0,1,.61-.59h2.11a.49.49,0,0,0,.38-.19,5.09,5.09,0,0,0,.48-1.31q.32-1.11.56-2.2t1-1.08a.83.83,0,0,1,.69.31,1,1,0,0,1,.25.57,13.55,13.55,0,0,1-.37,1.47Z"/><path class="cls-1" d="M563.8,133.3H564a.81.81,0,0,1,.44.18.56.56,0,0,1,.26.49,1.51,1.51,0,0,1-.22.9,3.29,3.29,0,0,1-.69.64,1.5,1.5,0,0,1-.67.35.89.89,0,0,1-.63-.19c-.14-.13-.21-.49-.21-1.07a2.73,2.73,0,0,1,.09-1,.7.7,0,0,1,.45-.24A4.2,4.2,0,0,1,563.8,133.3Z"/><path class="cls-1" d="M274,166.49l50.47.69c8.74.12,18.46-1.08,21.58,9.2a24.32,24.32,0,0,1,.58,11c-.93,5.08-8.43,4.42-12.44,4.59-17,.71-34.23,1.06-51.19.42-7.31-.28-22.51.43-24-8.75-.67-4.07-1.25-9.21,1.15-12.88,3.13-4.79,9.07-3.16,13.63-4.31,1.77-.45,1.32-2.15-.46-1.7-5.43,1.37-11.25-.36-15.13,4.69-3.44,4.48-4,14.37-.85,19.11s12.95,4.83,18.06,5.3c8.87.8,17.82.52,26.72.45s17.5-.14,26.25-.32c4.28-.09,8.6-.17,12.85-.69,2.21-.27,4.77-.53,6.47-2.17,3.78-3.65,2.5-12.75.75-17.09a13.1,13.1,0,0,0-11.81-8.54c-20.38-1.29-41.1-.57-61.53-.85-1.24,0-3,1.83-1.07,1.86Z"/><path class="cls-1" d="M292.08,186.41a3.33,3.33,0,0,1-2.65-1.22,4.47,4.47,0,0,1-1-3,10.37,10.37,0,0,1,2-6q2-2.94,4.87-2.94a3.73,3.73,0,0,1,3,1.44,5.29,5.29,0,0,1,1.17,3.43,8.17,8.17,0,0,1-2.41,5.65A6.89,6.89,0,0,1,292.08,186.41Zm-1.63-4.54a3.43,3.43,0,0,0,.5,1.93,1.52,1.52,0,0,0,1.32.75,4.91,4.91,0,0,0,3.5-1.92,6.16,6.16,0,0,0,1.76-4.26,3.79,3.79,0,0,0-.67-2.34,2.15,2.15,0,0,0-1.81-.9q-1.89,0-3.24,2.31A8.77,8.77,0,0,0,290.46,181.88Z"/><path class="cls-1" d="M304.61,179.66a7.89,7.89,0,0,0,5-3.59,10,10,0,0,1,1.81-2,2.66,2.66,0,0,1,1.66-.6,1.06,1.06,0,0,1,.7.32,1,1,0,0,1,.35.75q0,.57-1.09.9a3.08,3.08,0,0,0-1.08.6,23.74,23.74,0,0,0-1.91,2,8.49,8.49,0,0,1-2,1.75q-.08,0-.08.08s0,.06.11.09a5.83,5.83,0,0,1,1.8,1.77,12,12,0,0,0,2.07,2.41,2.64,2.64,0,0,0,1.58.5h.39q.41,0,.41.36a1.34,1.34,0,0,1-.5.93,2.37,2.37,0,0,1-1.66.48,2.55,2.55,0,0,1-1.73-.77,12.38,12.38,0,0,1-1.92-2.49,8.06,8.06,0,0,0-1.16-1.55,1.67,1.67,0,0,0-1.2-.53,4.84,4.84,0,0,0-.87.23q-.73.23-.81.45a7.67,7.67,0,0,0-.13,1.56q0,1.34,0,2.16a1,1,0,0,1-.41.77,1.37,1.37,0,0,1-.89.34,1,1,0,0,1-.77-.29.85.85,0,0,1-.28-.59,14.07,14.07,0,0,1,.32-2q.56-2.86,1.13-9.43a2,2,0,0,1,.48-1.14,1.27,1.27,0,0,1,1-.51.6.6,0,0,1,.51.33,1.57,1.57,0,0,1,.21.84,3.69,3.69,0,0,1-.14.94A24.62,24.62,0,0,0,304.61,179.66Z"/></g></svg>